<?xml version="1.0" encoding="UTF-8" standalone="no"?>
<!-- Created with Inkscape (http://www.inkscape.org/) -->

<svg
   xmlns:dc="http://purl.org/dc/elements/1.1/"
   xmlns:cc="http://creativecommons.org/ns#"
   xmlns:rdf="http://www.w3.org/1999/02/22-rdf-syntax-ns#"
   xmlns:svg="http://www.w3.org/2000/svg"
   xmlns="http://www.w3.org/2000/svg"
   xmlns:xlink="http://www.w3.org/1999/xlink"
   xmlns:sodipodi="http://sodipodi.sourceforge.net/DTD/sodipodi-0.dtd"
   xmlns:inkscape="http://www.inkscape.org/namespaces/inkscape"
   width="11in"
   height="8.5in"
   id="svg2"
   version="1.1"
   inkscape:version="0.91 r13725"
   viewBox="0 0 990 765.00002"
   sodipodi:docname="Adeptus Ministorum.svg">
  <defs
     id="defs4">
    <pattern
       y="0"
       x="0"
       height="6"
       width="6"
       patternUnits="userSpaceOnUse"
       id="EMFhbasepattern" />
    <pattern
       y="0"
       x="0"
       height="6"
       width="6"
       patternUnits="userSpaceOnUse"
       id="EMFhbasepattern-4" />
  </defs>
  <sodipodi:namedview
     id="base"
     pagecolor="#ffffff"
     bordercolor="#666666"
     borderopacity="1.0"
     inkscape:pageopacity="0.0"
     inkscape:pageshadow="2"
     inkscape:zoom="1"
     inkscape:cx="483.5"
     inkscape:cy="342"
     inkscape:document-units="px"
     inkscape:current-layer="layer1"
     showgrid="false"
     units="in"
     inkscape:window-width="1920"
     inkscape:window-height="1017"
     inkscape:window-x="1912"
     inkscape:window-y="-8"
     inkscape:window-maximized="1"
     inkscape:snap-global="false"
     inkscape:object-nodes="true"
     showguides="true" />
  <metadata
     id="metadata7">
    <rdf:RDF>
      <cc:Work
         rdf:about="">
        <dc:format>image/svg+xml</dc:format>
        <dc:type
           rdf:resource="http://purl.org/dc/dcmitype/StillImage" />
        <dc:title />
      </cc:Work>
    </rdf:RDF>
  </metadata>
  <g
     inkscape:label="Layer 1"
     inkscape:groupmode="layer"
     id="layer1"
     transform="translate(0,-287.36219)">
    <path
       style="fill:none;fill-rule:evenodd;stroke:#000000;stroke-width:1px;stroke-linecap:butt;stroke-linejoin:miter;stroke-opacity:1"
       d="m 495.00003,376.6629 0,-21"
       id="path4433-9"
       inkscape:connector-curvature="0" />
    <a
       xlink:href="Imperium of Man.svg"
       id="a4256">
      <g
         id="g4250">
        <circle
           style="opacity:1;fill:#ffffff;fill-opacity:1;stroke:#000000;stroke-width:1;stroke-linecap:square;stroke-linejoin:miter;stroke-miterlimit:4;stroke-dasharray:none;stroke-opacity:1"
           id="path4327-6"
           cx="-494.99997"
           cy="-337.42352"
           r="11.727594"
           transform="scale(-1,-1)" />
        <g
           id="g4189"
           transform="translate(-15.801351,1.4716355)">
          <path
             sodipodi:nodetypes="ccc"
             inkscape:connector-curvature="0"
             d="m 505.15578,336.28879 5.64554,-5.64554 5.64554,5.64554"
             style="fill:none;fill-rule:evenodd;stroke:#000000;stroke-width:1px;stroke-linecap:butt;stroke-linejoin:miter;stroke-opacity:1"
             id="path4176" />
          <path
             style="fill:none;fill-rule:evenodd;stroke:#000000;stroke-width:1;stroke-linecap:butt;stroke-linejoin:miter;stroke-miterlimit:4;stroke-dasharray:none;stroke-opacity:1"
             d="m 510.80132,341.96763 0,-11.32438"
             id="path4183"
             inkscape:connector-curvature="0"
             sodipodi:nodetypes="cc" />
        </g>
      </g>
    </a>
    <path
       style="opacity:1;fill:#000000;fill-opacity:1;stroke:none;stroke-width:15;stroke-linecap:square;stroke-linejoin:miter;stroke-miterlimit:4;stroke-dasharray:none;stroke-opacity:1"
       d="m 466.63469,645.00679 59.22304,6e-5 0,4.39254 -59.22306,-3e-5 z"
       id="rect4363"
       inkscape:connector-curvature="0"
       sodipodi:nodetypes="ccccc" />
    <g
       transform="matrix(1.0381705,0,0,1.0381705,298.22924,352.84659)"
       id="g4718">
      <path
         inkscape:connector-curvature="0"
         id="circle4282"
         d="m 189.536,247.53561 c -0.71058,0 -1.41443,0.0254 -2.11513,0.0664 l 0,7.40782 c -1.09376,0.0791 -2.17069,0.22022 -3.22615,0.41784 l -1.91592,-7.15193 c -1.39268,0.28773 -2.75138,0.66475 -4.08127,1.10939 l 1.90783,7.12602 c -1.03201,0.35781 -2.037,0.77207 -3.01075,1.24057 L 173.415,251.3788 c -1.26406,0.63823 -2.48762,1.34734 -3.6618,2.12485 l 3.67476,6.36159 c -0.90036,0.61228 -1.76263,1.27531 -2.58481,1.98395 l -5.18903,-5.18904 c -1.05451,0.93871 -2.05431,1.93674 -2.99294,2.99131 l 5.19067,5.18904 c -0.7085,0.82206 -1.37015,1.68455 -1.98234,2.5848 l -6.36645,-3.67314 c -0.77735,1.17405 -1.48352,2.39625 -2.1216,3.66018 l 6.37455,3.67962 c -0.46856,0.97386 -0.88273,1.98018 -1.24058,3.01237 l -7.12602,-1.90946 c -0.44445,1.32948 -0.82499,2.68905 -1.11263,4.08127 l 7.15355,1.91755 c -0.1976,1.05544 -0.33875,2.13076 -0.41785,3.22452 l -7.4062,0 c -0.041,0.70015 -0.068,1.40512 -0.068,2.11513 0,0.7106 0.0271,1.41605 0.068,2.11675 l 7.4062,0 c 0.0792,1.09375 0.22023,2.1691 0.41785,3.22453 l -7.15355,1.91593 c 0.28774,1.39274 0.66794,2.75292 1.11263,4.08288 l 7.12602,-1.90944 c 0.35781,1.03199 0.77211,2.03702 1.24058,3.01074 l -6.37455,3.67962 c 0.63808,1.26393 1.34425,2.48611 2.1216,3.66018 l 6.36645,-3.67476 c 0.61217,0.90015 1.27388,1.76284 1.98234,2.58481 l -5.18904,5.18903 c 0.93866,1.05455 1.93678,2.05425 2.99131,2.99293 l 5.18903,-5.18742 c 0.82205,0.7085 1.68458,1.37013 2.58481,1.98233 l -3.67314,6.36321 c 1.17358,0.77701 2.39683,1.48374 3.66018,2.12161 l 3.67961,-6.3713 c 0.97361,0.46844 1.97886,0.88117 3.01075,1.23895 l -0.0113,0.0437 18.88396,0 -0.0113,-0.0437 c 1.03203,-0.35781 2.037,-0.77045 3.01075,-1.23895 l 3.67799,6.3713 c 1.26386,-0.63804 2.48781,-1.34432 3.66181,-2.12161 l -3.67476,-6.36321 c 0.90019,-0.61216 1.76442,-1.27388 2.58642,-1.98233 l 5.18904,5.18742 c 1.0542,-0.93839 2.0529,-1.93712 2.9913,-2.99131 l -5.18903,-5.18904 c 0.70855,-0.82204 1.37011,-1.68619 1.98233,-2.58642 l 6.36645,3.67476 c 0.77735,-1.17407 1.48351,-2.39626 2.12161,-3.66018 l -6.37455,-3.678 c 0.46855,-0.97386 0.88271,-1.98022 1.24058,-3.01236 l 7.12602,1.90944 c 0.44468,-1.32995 0.82488,-2.69014 1.11262,-4.08288 l -7.15355,-1.91593 c 0.19762,-1.05543 0.33875,-2.13078 0.41785,-3.22453 l 7.4062,0 c 0.0411,-0.7007 0.068,-1.40615 0.068,-2.11675 0,-0.71001 -0.0271,-1.41498 -0.068,-2.11513 l -7.4062,0 c -0.0791,-1.09375 -0.22023,-2.16909 -0.41785,-3.22452 l 7.15355,-1.91755 c -0.28774,-1.39275 -0.66794,-2.75291 -1.11262,-4.08288 l -7.12602,1.91107 c -0.35784,-1.03217 -0.77199,-2.03852 -1.24058,-3.01237 l 6.37455,-3.67962 c -0.6381,-1.26392 -1.34426,-2.48613 -2.12161,-3.66018 l -6.36645,3.67314 c -0.61218,-0.90022 -1.27382,-1.76278 -1.98233,-2.5848 l 5.18903,-5.18904 c -0.9384,-1.05427 -1.93708,-2.05286 -2.9913,-2.99131 l -5.18904,5.18904 c -0.8221,-0.70852 -1.68615,-1.37175 -2.58642,-1.98395 l 3.67637,-6.36159 c -1.17459,-0.77777 -2.39886,-1.48645 -3.66342,-2.12485 l -3.67799,6.37292 c -0.97375,-0.46849 -1.97872,-0.88276 -3.01075,-1.24057 l 1.90783,-7.12602 c -1.32989,-0.44465 -2.68858,-0.82166 -4.08127,-1.10939 l -1.91592,7.15193 c -1.05557,-0.19764 -2.13225,-0.33872 -3.22615,-0.41784 l 0,-7.40782 c -0.7007,-0.0411 -1.40455,-0.0664 -2.11513,-0.0664 z m 0,12.62601 c 12.9829,0 23.37173,10.38884 23.37173,23.37173 0,12.98292 -10.38883,23.37336 -23.37173,23.37335 -12.9829,0 -23.37173,-10.39043 -23.37173,-23.37335 0,-12.98289 10.38883,-23.37173 23.37173,-23.37173 z"
         style="color:#000000;font-style:normal;font-variant:normal;font-weight:normal;font-stretch:normal;font-size:medium;line-height:normal;font-family:sans-serif;text-indent:0;text-align:start;text-decoration:none;text-decoration-line:none;text-decoration-style:solid;text-decoration-color:#000000;letter-spacing:normal;word-spacing:normal;text-transform:none;direction:ltr;block-progression:tb;writing-mode:lr-tb;baseline-shift:baseline;text-anchor:start;clip-rule:nonzero;display:inline;overflow:visible;visibility:visible;opacity:1;isolation:auto;mix-blend-mode:normal;color-interpolation:sRGB;color-interpolation-filters:linearRGB;solid-color:#000000;solid-opacity:1;fill:#000000;fill-opacity:1;fill-rule:nonzero;stroke:none;stroke-width:14.44186974;stroke-linecap:square;stroke-linejoin:miter;stroke-miterlimit:4;stroke-dasharray:none;stroke-dashoffset:0;stroke-opacity:1;color-rendering:auto;image-rendering:auto;shape-rendering:auto;text-rendering:auto;enable-background:accumulate" />
      <path
         inkscape:connector-curvature="0"
         style="opacity:1;fill:#000000;fill-opacity:1;stroke:none;stroke-width:2.14858222;stroke-linecap:square;stroke-linejoin:miter;stroke-miterlimit:4;stroke-dasharray:none;stroke-opacity:1"
         d="m 166.92798,282.21713 0,3.34499 0,0 0,0 0,0 0,0.0555 0,0 0,0 c 1.87474,0.0177 4.94119,0.53011 6.46393,1.41799 0,0 0,0 0,0 0.0167,0.0111 0.0333,0.0211 0.0499,0.0311 1.36672,0.84915 2.54478,2.02045 3.44275,3.42178 0.0588,0.0921 0.11419,0.18743 0.1709,0.28154 0.0566,0.0954 0.11385,0.18975 0.16834,0.28663 0.53788,0.95479 0.95313,2.00125 1.21691,3.11528 l 0,0 c 0.0433,0.18333 0.0832,0.3672 0.11818,0.55397 l 0,0 c 0.0355,0.18687 0.0655,0.37496 0.0921,0.56506 1.2e-4,0 0,0 0,0 0.0266,0.1901 0.0488,0.38074 0.0666,0.57372 l 0,0 c 0.0177,0.19309 0.0333,0.3884 0.0422,0.58426 l 0,0 c 0.0111,0.19586 0.0134,0.39206 0.0134,0.59048 l 0,0 0,9.01359 0,0.12872 0,27.49999 0,2.21896 0,2.14662 0,0.12873 0,9.0136 0,0 c 0,0.19829 0,0.3946 -0.0134,0.59047 l 0,0 c -0.0111,0.19586 -0.0244,0.39128 -0.0422,0.58437 l 0,0 c -0.0177,0.19309 -0.04,0.38374 -0.0666,0.57383 0,0 1.2e-4,0 0,0 -0.0266,0.18998 -0.0566,0.37819 -0.0921,0.56506 l 0,0 c -0.0355,0.18676 -0.0744,0.37064 -0.11818,0.55396 l 0,0 c -0.26455,1.11704 -0.68136,2.16538 -1.22135,3.12217 -0.0532,0.0943 -0.10875,0.18676 -0.1639,0.27976 -0.0555,0.0921 -0.10986,0.18565 -0.16779,0.27609 0,0 0,0 0,0.0111 0,0.0111 -0.0111,0.0111 -0.0111,0.0177 -0.89653,1.39346 -2.07005,2.55876 -3.431,3.40436 -0.0167,0.0111 -0.0333,0.0211 -0.0499,0.0311 0,2.3e-4 0,0 0,0 -1.52274,0.88777 -4.58931,1.40046 -6.46393,1.41799 l 0,0 0,0 0,0.0555 0,0 0,0 0,0 0,3.34499 0,0 10.10665,0 9.55458,0 5.884,0 9.54769,0 10.11531,0 0,-3.27253 0,0 0,-0.0688 0,0 -0.0122,0 0,-0.0577 c -0.69934,-0.0111 -2.67916,-0.0821 -3.35242,-0.21984 -0.0155,0 -0.0299,-0.0111 -0.0455,-0.0111 -0.20951,-0.0444 -0.41803,-0.0954 -0.62277,-0.15291 l 0,0 c -0.21173,-0.0588 -0.41969,-0.12529 -0.62576,-0.19742 -0.0111,0 -0.0167,-0.0111 -0.0245,-0.0111 -0.41525,-0.14637 -0.81907,-0.31783 -1.20947,-0.5138 -0.19586,-0.0976 -0.38917,-0.20252 -0.57816,-0.31261 0,0 0,0 0,0 0,0 0,0 -0.0111,0 0,0 0,0 -0.0111,0 -0.30551,-0.18809 -0.60235,-0.39105 -0.88821,-0.61033 -0.5756,-0.44145 -1.10993,-0.94514 -1.59321,-1.50033 -0.22837,-0.26244 -0.44499,-0.53743 -0.64995,-0.82207 -0.02,-0.0278 -0.04,-0.0544 -0.06,-0.0821 -0.0655,-0.0921 -0.12762,-0.18788 -0.19065,-0.28286 -0.0488,-0.0732 -0.0976,-0.14671 -0.14482,-0.22162 -0.0367,-0.0588 -0.0721,-0.11784 -0.10764,-0.17699 -0.061,-0.10098 -0.1224,-0.2023 -0.18077,-0.30572 -0.35566,-0.62988 -0.65884,-1.30003 -0.89875,-2.00302 -0.12495,-0.36588 -0.23249,-0.74085 -0.32314,-1.12348 l 0,0 c -0.0433,-0.18332 -0.0821,-0.36709 -0.11697,-0.55396 l 0,0 c -0.0355,-0.18688 -0.0666,-0.37508 -0.0932,-0.56517 -1.2e-4,0 0,0 0,0 -0.0266,-0.18999 -0.0488,-0.38063 -0.0666,-0.57372 l 0,0 c -0.0177,-0.19309 -0.0322,-0.38785 -0.041,-0.58371 l 0,0 c -0.0111,-0.19586 -0.0144,-0.39216 -0.0144,-0.59047 l 0,0 0,-8.78322 0,-0.0111 0,-2.49762 0,0 0,-30.07051 0,-0.0111 0,-8.78322 0,0 c 0,-0.19842 0,-0.39461 0.0144,-0.59048 l 0,0 c 0.0111,-0.19585 0.0233,-0.39061 0.041,-0.5837 l 0,0 c 0.0178,-0.19309 0.04,-0.38373 0.0666,-0.57383 0,0 -1.2e-4,0 0,0 0.0266,-0.1901 0.0588,-0.3783 0.0932,-0.56517 l 0,0 c 0.0355,-0.18688 0.0732,-0.37064 0.11697,-0.55408 l 0,0 c 0.091,-0.38263 0.19829,-0.7576 0.32314,-1.12346 0.23991,-0.70278 0.5432,-1.37272 0.89875,-2.00236 0.0555,-0.0988 0.11352,-0.19464 0.17145,-0.29096 0.04,-0.0666 0.0799,-0.1345 0.12195,-0.20053 0.0455,-0.0721 0.0921,-0.14171 0.13861,-0.21229 0.061,-0.0921 0.12206,-0.18521 0.18576,-0.27543 0.0255,-0.0355 0.0511,-0.0699 0.0765,-0.10542 0.20185,-0.27942 0.41436,-0.54931 0.63886,-0.8072 0.48328,-0.55519 1.0176,-1.05888 1.59321,-1.50033 0.28574,-0.21916 0.58215,-0.42235 0.88765,-0.61033 0,0 0,0 0.0111,0 0,0 0,0 0.0111,0 0,0 0,0 0,0 0.18898,-0.10986 0.38229,-0.2144 0.57816,-0.31261 0.39028,-0.19586 0.79377,-0.36743 1.2088,-0.51379 0.0111,0 0.0167,-0.0111 0.0255,-0.0111 0.20607,-0.0721 0.41415,-0.13827 0.62576,-0.19742 l 0,0 c 0.21073,-0.0588 0.42535,-0.11207 0.64119,-0.15791 0,0 0.0111,0 0.0133,0 0,-3.3e-4 0,-3.3e-4 0.0111,0 0.66738,-0.13893 2.65841,-0.21461 3.35985,-0.22105 l 0,-0.0577 0.0122,0 0,0 0,-0.0688 0,0 0,-3.27253 -10.11531,0 -9.54769,0 -5.884,0 -9.55458,0 -10.10665,0 0,0 z"
         id="path4280" />
    </g>
    <text
       xml:space="preserve"
       style="font-style:normal;font-weight:normal;font-size:40px;line-height:125%;font-family:sans-serif;letter-spacing:0px;word-spacing:0px;fill:#000000;fill-opacity:1;stroke:none;stroke-width:1px;stroke-linecap:butt;stroke-linejoin:miter;stroke-opacity:1"
       x="494.56693"
       y="568.67932"
       id="text4503-0-1-0-2-72-8-5"
       sodipodi:linespacing="125%"><tspan
         sodipodi:role="line"
         id="tspan4505-9-1-1-1-9-8-2"
         x="494.56693"
         y="568.67932"
         style="font-style:normal;font-variant:normal;font-weight:normal;font-stretch:normal;font-size:13.75px;font-family:'Roboto Condensed';-inkscape-font-specification:'Roboto Condensed, ';text-align:center;text-anchor:middle">Ecclesiarchy</tspan></text>
    <text
       xml:space="preserve"
       style="font-style:normal;font-weight:normal;font-size:40px;line-height:125%;font-family:sans-serif;letter-spacing:0px;word-spacing:0px;fill:#000000;fill-opacity:1;stroke:none;stroke-width:1px;stroke-linecap:butt;stroke-linejoin:miter;stroke-opacity:1"
       x="494.91269"
       y="754.61456"
       id="text4503-0-1-0-2-72-8-5-2"
       sodipodi:linespacing="125%"><tspan
         sodipodi:role="line"
         id="tspan4505-9-1-1-1-9-8-2-9"
         x="494.91269"
         y="754.61456"
         style="font-style:normal;font-variant:normal;font-weight:normal;font-stretch:normal;font-size:13.75px;font-family:'Roboto Condensed';-inkscape-font-specification:'Roboto Condensed, ';text-align:center;text-anchor:middle">Holy Synod</tspan></text>
    <g
       transform="matrix(1.0381705,0,0,1.0381705,415.20345,167.87103)"
       id="g5055">
      <path
         inkscape:connector-curvature="0"
         style="opacity:1;fill:#000000;fill-opacity:1;stroke:none;stroke-width:2.14858222;stroke-linecap:square;stroke-linejoin:miter;stroke-miterlimit:4;stroke-dasharray:none;stroke-opacity:1"
         d="m 54.25444,281.66801 0,3.34499 0,0 0,0 0,0 0,0.0555 0,0 0,0 c 1.87473,0.0177 4.94119,0.5301 6.46393,1.41798 0,0 0,0 0,0 0.0167,0.0111 0.0333,0.0211 0.0499,0.0311 1.36672,0.84915 2.54478,2.02045 3.44276,3.42179 0.0588,0.0921 0.11419,0.18742 0.1709,0.28153 0.0566,0.0954 0.11385,0.18976 0.16834,0.28663 0.53787,0.9548 0.95312,2.00125 1.2169,3.11528 l 0,0 c 0.0433,0.18333 0.0832,0.3672 0.11818,0.55397 l 0,0 c 0.0355,0.18688 0.0655,0.37496 0.0921,0.56506 1.2e-4,0 0,0 0,0 0.0266,0.1901 0.0488,0.38074 0.0666,0.57372 l 0,0 c 0.0177,0.19309 0.0333,0.3884 0.0422,0.58426 l 0,0 c 0.0111,0.19586 0.0134,0.39206 0.0134,0.59048 l 0,0 0,9.01359 0,0.12872 0,27.49999 0,2.21896 0,2.14662 0,0.12873 0,9.0136 0,0 c 0,0.19829 0,0.3946 -0.0134,0.59047 l 0,0 c -0.0111,0.19586 -0.0244,0.39128 -0.0422,0.58437 l 0,0 c -0.0178,0.19309 -0.04,0.38374 -0.0666,0.57383 0,0 1.2e-4,0 0,0 -0.0266,0.18998 -0.0566,0.37819 -0.0921,0.56506 l 0,0 c -0.0355,0.18676 -0.0744,0.37064 -0.11818,0.55396 l 0,0 c -0.26455,1.11704 -0.68136,2.16538 -1.22134,3.12217 -0.0532,0.0943 -0.10875,0.18676 -0.1639,0.27976 -0.0555,0.0921 -0.10986,0.18565 -0.16779,0.27609 0,0 0,0 0,0.0111 0,0.0111 -0.0111,0.0111 -0.0111,0.0178 -0.89654,1.39346 -2.07005,2.55876 -3.431,3.40436 -0.0167,0.0111 -0.0333,0.0211 -0.0499,0.0311 0,2.3e-4 0,0 0,0 -1.52273,0.88777 -4.5893,1.40046 -6.46393,1.41799 l 0,0 0,0 0,0.0555 0,0 0,0 0,0 0,3.34499 0,0 10.10666,0 9.55457,0 5.884,0 9.5477,0 10.11531,0 0,-3.27253 0,0 0,-0.0688 0,0 -0.0122,0 0,-0.0577 c -0.69934,-0.0111 -2.67917,-0.0821 -3.35243,-0.21983 -0.0155,0 -0.0299,-0.0111 -0.0455,-0.0111 -0.20952,-0.0444 -0.41803,-0.0954 -0.62277,-0.15291 l 0,0 c -0.21173,-0.0588 -0.4197,-0.12529 -0.62577,-0.19742 -0.0111,0 -0.0167,-0.0111 -0.0245,-0.0111 -0.41525,-0.14637 -0.81907,-0.31783 -1.20947,-0.51379 -0.19586,-0.0977 -0.38917,-0.20253 -0.57815,-0.31262 0,0 0,0 0,0 0,0 0,0 -0.0111,0 0,0 0,0 -0.0111,0 -0.3055,-0.18809 -0.60234,-0.39105 -0.8882,-0.61033 -0.57561,-0.44144 -1.10994,-0.94514 -1.59322,-1.50033 -0.22837,-0.26244 -0.44498,-0.53743 -0.64995,-0.82207 -0.02,-0.0278 -0.04,-0.0544 -0.06,-0.0821 -0.0655,-0.0921 -0.12761,-0.18787 -0.19064,-0.28286 -0.0488,-0.0732 -0.0977,-0.1467 -0.14482,-0.22162 -0.0367,-0.0588 -0.0721,-0.11784 -0.10764,-0.17699 -0.061,-0.10098 -0.1224,-0.2023 -0.18077,-0.30572 -0.35567,-0.62988 -0.65884,-1.30003 -0.89876,-2.00302 -0.12495,-0.36588 -0.23248,-0.74084 -0.32314,-1.12347 l 0,0 c -0.0433,-0.18333 -0.0821,-0.3671 -0.11697,-0.55397 l 0,0 c -0.0355,-0.18688 -0.0666,-0.37508 -0.0932,-0.56517 -1.1e-4,0 0,0 0,0 -0.0266,-0.18999 -0.0488,-0.38063 -0.0666,-0.57372 l 0,0 c -0.0178,-0.19309 -0.0322,-0.38785 -0.0411,-0.58371 l 0,0 c -0.0111,-0.19586 -0.0144,-0.39216 -0.0144,-0.59047 l 0,0 0,-8.78322 0,-0.0111 0,-2.49762 0,0 0,-30.07051 0,-0.0111 0,-8.78322 0,0 c 0,-0.19842 0,-0.39461 0.0144,-0.59047 l 0,0 c 0.0111,-0.19586 0.0233,-0.39062 0.0411,-0.58371 l 0,0 c 0.0177,-0.19309 0.04,-0.38373 0.0666,-0.57383 0,0 -1.1e-4,0 0,0 0.0266,-0.1901 0.0588,-0.3783 0.0932,-0.56517 l 0,0 c 0.0355,-0.18688 0.0732,-0.37064 0.11697,-0.55408 l 0,0 c 0.091,-0.38263 0.1983,-0.7576 0.32314,-1.12346 0.23992,-0.70278 0.5432,-1.37272 0.89876,-2.00236 0.0555,-0.0988 0.11352,-0.19464 0.17145,-0.29096 0.04,-0.0666 0.0798,-0.1345 0.12195,-0.20053 0.0455,-0.0721 0.0921,-0.14171 0.1386,-0.21229 0.061,-0.0921 0.12207,-0.18521 0.18577,-0.27543 0.0255,-0.0355 0.0511,-0.0699 0.0765,-0.10542 0.20185,-0.27942 0.41436,-0.54931 0.63885,-0.8072 0.48328,-0.55519 1.01761,-1.05888 1.59321,-1.50033 0.28575,-0.21916 0.58216,-0.42235 0.88765,-0.61033 0,0 0,0 0.0111,0 0,0 0,0 0.0111,0 0,0 0,0 0,0 0.18897,-0.10986 0.38229,-0.2144 0.57815,-0.31261 0.39029,-0.19586 0.79377,-0.36742 1.2088,-0.51379 0.0111,0 0.0167,-0.0111 0.0255,-0.0111 0.20608,-0.0721 0.41415,-0.13827 0.62576,-0.19742 l 0,0 c 0.21074,-0.0588 0.42536,-0.11207 0.6412,-0.1579 0,0 0.0111,0 0.0134,0 0,-3.4e-4 0,-3.4e-4 0.0111,0 0.66738,-0.13894 2.65841,-0.21462 3.35986,-0.22106 l 0,-0.0577 0.0122,0 0,0 0,-0.0688 0,0 0,-3.27253 -10.11531,0 -9.5477,0 -5.884,0 -9.55457,0 -10.10666,0 0,0 z"
         id="path5057" />
      <path
         id="path5059"
         style="color:#000000;font-style:normal;font-variant:normal;font-weight:normal;font-stretch:normal;font-size:medium;line-height:normal;font-family:sans-serif;text-indent:0;text-align:start;text-decoration:none;text-decoration-line:none;text-decoration-style:solid;text-decoration-color:#000000;letter-spacing:normal;word-spacing:normal;text-transform:none;direction:ltr;block-progression:tb;writing-mode:lr-tb;baseline-shift:baseline;text-anchor:start;clip-rule:nonzero;display:inline;overflow:visible;visibility:visible;opacity:1;isolation:auto;mix-blend-mode:normal;color-interpolation:sRGB;color-interpolation-filters:linearRGB;solid-color:#000000;solid-opacity:1;fill:#000000;fill-opacity:1;fill-rule:nonzero;stroke:none;stroke-width:50;stroke-linecap:square;stroke-linejoin:miter;stroke-miterlimit:4;stroke-dasharray:none;stroke-dashoffset:0;stroke-opacity:1;color-rendering:auto;image-rendering:auto;shape-rendering:auto;text-rendering:auto;enable-background:accumulate"
         d="m 91.75447,305.99073 c -0.85772,0.56114 -1.75205,1.07448 -2.67828,1.53875 l 3.40317,8.21658 c 1.63597,-0.78981 3.1993,-1.69747 4.67944,-2.71212 l -5.40433,-7.04321 z m 5.37141,-4.62587 c -0.68531,0.768 -1.41524,1.4973 -2.186,2.18442 l 5.39715,7.03364 c 1.36747,-1.18069 2.64282,-2.46006 3.81601,-3.82594 l -7.02716,-5.39212 z m -35.15749,4.62857 -5.39212,7.02716 c 1.4867,1.01569 3.04972,1.92138 4.6762,2.7079 l 3.39277,-8.19085 c -0.92238,-0.46425 -1.81606,-0.9797 -2.67685,-1.54421 z m 39.14511,-10.48972 c -0.46428,0.92238 -0.97964,1.81642 -1.5442,2.6772 l 7.02716,5.39212 c 1.01583,-1.48685 1.9216,-3.04994 2.70821,-4.6766 l -8.19117,-3.39272 z m -44.51382,5.86035 -7.034,5.39716 c 1.18078,1.36757 2.46001,2.64312 3.826,3.81636 l 5.39241,-7.02755 c -0.76801,-0.68527 -1.49729,-1.41525 -2.18441,-2.18597 z m 46.84073,-12.55441 c -0.20876,1.01496 -0.47298,2.01176 -0.79304,2.98561 l 8.20196,3.39726 c 0.59701,-1.69236 1.06903,-3.43722 1.40856,-5.22193 l -8.81748,-1.16094 z m -50.82093,6.69071 -8.21655,3.4035 c 0.78983,1.63592 1.69745,3.19899 2.71207,4.6791 l 7.04287,-5.40429 c -0.56112,-0.85769 -1.07412,-1.75212 -1.53839,-2.67831 z m 51.32857,-13.75584 c 0.061,1.03837 0.0617,2.06768 0.007,3.08468 l 8.83174,1.16292 c 0.13442,-1.77871 0.13635,-3.58606 -0.002,-5.41094 l -8.83641,1.16334 z m -62.48391,8.22616 c 0.33877,1.79836 0.80844,3.54349 1.39858,5.22671 l 8.22988,-3.40878 c -0.31651,-0.96806 -0.5822,-1.96249 -0.79205,-2.98126 l -8.83641,1.16333 z m -0.52566,-9.38934 c -0.13437,1.77861 -0.1364,3.58583 0.002,5.41061 l 8.83641,-1.16334 c -0.061,-1.03839 -0.0617,-2.06768 -0.007,-3.08469 l -8.83171,-1.16258 z m 69.92353,-9.20596 -8.22982,3.40912 c 0.3165,0.96806 0.58222,1.96249 0.79205,2.98128 l 8.83641,-1.16334 c -0.3388,-1.79848 -0.80844,-3.54374 -1.39864,-5.22706 z m -67.98682,0.006 c -0.597,1.69237 -1.06878,3.43721 -1.40825,5.2219 l 8.81713,1.16099 c 0.20874,-1.01497 0.47301,-2.01176 0.79307,-2.98561 l -8.20195,-3.39728 z m 63.73456,-8.39117 -7.04289,5.40429 c 0.56124,0.85783 1.07449,1.75227 1.53879,2.67863 l 8.21626,-3.40314 c -0.7899,-1.63615 -1.69741,-3.19948 -2.71216,-4.67978 z m -59.48177,0.0104 c -1.01572,1.48673 -1.92137,3.0497 -2.70792,4.67619 l 8.19091,3.39313 c 0.46424,-0.9224 0.97965,-1.81642 1.54415,-2.6772 l -7.02714,-5.39212 z m 53.2051,-7.00495 -5.39244,7.02754 c 0.76807,0.68534 1.49761,1.41515 2.18476,2.18593 l 7.03365,-5.39711 c -1.18079,-1.36758 -2.46002,-2.64312 -3.82597,-3.81636 z m -7.86079,-5.15092 -3.39277,8.1912 c 0.92242,0.46427 1.81641,0.97964 2.67724,1.54416 l 5.39213,-7.02715 c -1.48683,-1.0158 -3.05003,-1.92163 -4.6766,-2.70821 z m -39.08457,5.14558 c -1.36757,1.18077 -2.64306,2.46032 -3.8163,3.82632 l 7.02715,5.39212 c 0.68545,-0.7682 1.41537,-1.49754 2.18626,-2.1848 l -5.39711,-7.03364 z m 30.15831,-8.09909 -1.16059,8.81743 c 1.01483,0.20872 2.01155,0.47309 2.98528,0.79312 l 3.39725,-8.20197 c -1.69231,-0.59698 -3.43729,-1.06909 -5.22194,-1.40858 z m -22.30098,2.93598 c -1.63605,0.78987 -3.19919,1.69777 -4.67941,2.71246 l 5.40429,7.04288 c 0.85771,-0.56115 1.75241,-1.07451 2.67862,-1.53879 l -3.4035,-8.21655 z m 12.91195,-3.46225 1.16329,8.83605 c 1.0385,-0.061 2.06762,-0.0614 3.08475,-0.006 l 1.16256,-8.83171 c -1.77851,-0.13436 -3.5859,-0.13637 -5.4106,0.002 z m -3.97905,0.52385 c -1.79819,0.33876 -3.54334,0.80848 -5.22637,1.39854 l 3.40876,8.22989 c 0.96809,-0.31653 1.96211,-0.58252 2.9809,-0.79237 l -1.16329,-8.83606 z"
         inkscape:connector-curvature="0" />
    </g>
    <path
       style="fill:none;fill-rule:evenodd;stroke:#000000;stroke-width:1px;stroke-linecap:butt;stroke-linejoin:miter;stroke-opacity:1"
       d="m 494.36322,581.36926 0,19.8467"
       id="path4797"
       inkscape:connector-curvature="0" />
    <g
       id="g4995"
       transform="matrix(0.89428697,0,0,0.89428697,-635.1143,328.3329)">
      <path
         id="path4536"
         d="m 981.49509,146.52944 0,6.10676 0.005,0 0.002,0.0626 c 0.53553,0.005 1.0613,0.0439 1.57741,0.11158 l 0.002,0 c 1.54781,0.20348 3.00096,0.68097 4.30787,1.38129 0.0748,0.0421 0.14927,0.0864 0.22317,0.13019 0.1454,0.0819 0.28614,0.16956 0.42774,0.25698 1.18197,0.76728 2.22493,1.73502 3.07874,2.85727 0.64039,0.84169 1.17489,1.77059 1.58249,2.76596 0.13587,0.33179 0.25656,0.67016 0.36349,1.01611 0.059,0.19116 0.1141,0.38481 0.164,0.57991 l 0,0.004 c 0.0498,0.19511 0.0949,0.39126 0.13526,0.59006 l 0,0.004 c 0.0403,0.19882 0.0758,0.39963 0.10651,0.60188 l 0,0.002 c 0.0307,0.20226 0.0554,0.40491 0.0761,0.61033 7e-5,7.7e-4 -6e-5,0.005 0,0.005 0.0207,0.20547 0.0385,0.41038 0.049,0.6188 l 0,0.002 c 0.0101,0.20841 0.0153,0.42122 0.0153,0.63232 l 0,0.002 0,4.56317 c 0.004,-0.004 0.007,-0.005 0.0101,-0.009 0.13933,-0.12232 0.27723,-0.24157 0.4176,-0.35674 0.15981,-0.13051 0.32207,-0.25625 0.48692,-0.3804 l 0,-0.002 0,-0.002 c 0.0823,-0.0626 0.15896,-0.12304 0.23501,-0.17921 0.82917,-0.6007 1.74545,-1.14992 2.79132,-1.67209 2.83528,-1.41558 5.20568,-1.98213 8.40438,-2.01361 l 0.015,0 c 3.1996,0.0312 5.5704,0.59782 8.4061,2.01361 0.9433,0.47094 1.7784,0.96744 2.5462,1.50302 6e-4,5.4e-4 0,0.002 0,0.004 0.4919,0.35488 0.9542,0.73728 1.4016,1.13445 l 0,-4.60375 0,-0.002 c 0,-0.21109 0.01,-0.42391 0.017,-0.63232 l 0,-0.002 c 0.011,-0.20842 0.027,-0.41334 0.047,-0.61881 0,-7.7e-4 -10e-5,-0.005 0,-0.005 0.021,-0.20543 0.047,-0.40807 0.078,-0.61034 l 0,-0.002 c 0.031,-0.20226 0.068,-0.40307 0.1082,-0.60188 l 0,-0.004 c 0.04,-0.1988 0.084,-0.39495 0.1336,-0.59006 l 0,-0.004 c 0.05,-0.19509 0.1049,-0.38875 0.164,-0.57991 0.5347,-1.72975 1.4409,-3.29076 2.6222,-4.59359 0.2363,-0.26057 0.4846,-0.50987 0.7422,-0.74899 0.2573,-0.23883 0.5244,-0.46708 0.8014,-0.68303 0.2773,-0.2162 0.5634,-0.42191 0.8589,-0.61373 0.1415,-0.0874 0.2823,-0.17512 0.4277,-0.25698 0.074,-0.0437 0.1484,-0.0879 0.2232,-0.13018 0.4357,-0.23351 0.888,-0.44163 1.3543,-0.62386 1.1654,-0.45559 2.4206,-0.74514 3.7364,-0.83689 0.2631,-0.0183 0.5285,-0.0298 0.7963,-0.0321 l 0,-0.0626 c 0.01,-1e-5 0.01,0 0.013,0 l 0,-0.0777 0,-6.02899 -10.1171,0 -28.72648,0 -10.10693,0 -0.002,0 -0.002,0 z m 36.82831,50.37743 c -1.222,1.08602 -2.6054,2.01897 -4.1575,2.77781 -0.6818,0.33334 -1.3705,0.61668 -2.066,0.86901 l -0.01,0.002 c 0,0 0,0.002 0,0.002 l -0.01,0.002 c -1.8719,0.6524 -2.9169,0.84075 -5.4457,0.97215 l -0.6729,0.0339 -0.6729,-0.0339 c -2.5338,-0.13172 -3.5777,-0.3195 -5.4575,-0.97553 -1.01131,-0.35297 -1.96482,-0.78216 -2.86911,-1.27477 -0.27536,-0.15467 -0.5416,-0.29969 -0.79124,-0.4548 -0.37568,-0.23357 -0.7469,-0.4827 -1.11754,-0.7456 -0.25036,-0.17771 -0.49226,-0.36286 -0.73377,-0.55285 l 0,-0.002 c -0.243,-0.19573 -0.47677,-0.40179 -0.70839,-0.61034 l 0,24.93258 0,0.002 c 0,0.21109 -0.005,0.42053 -0.0152,0.62893 l 0,0.005 c -0.0104,0.20838 -0.0282,0.41502 -0.049,0.62047 l 0,0.004 c -0.0208,0.20544 -0.0454,0.4081 -0.0761,0.61034 -9e-5,7.7e-4 10e-5,0.002 0,0.004 -0.0306,0.20225 -0.066,0.40308 -0.10652,0.60189 l 0,0.004 c -0.0405,0.19877 -0.0853,0.39495 -0.13525,0.59005 l 0,0.002 c -0.83325,3.25714 -2.96454,5.97932 -5.79568,7.5895 -0.004,0.002 -0.009,0.004 -0.0119,0.005 -1.75061,0.94472 -3.76381,1.48944 -5.9191,1.5081 l -0.004,0.0609 -0.004,0 0,6.11184 10.10694,0 28.72646,0 10.1188,0 0,-6.03406 0,-0.0777 c -0.01,0 -0.01,2e-5 -0.015,0 l 0,-0.0609 c -0.8082,-0.007 -1.5948,-0.0883 -2.3568,-0.2367 -0.2535,-0.0494 -0.5049,-0.10673 -0.7524,-0.17076 -0.2479,-0.0642 -0.4924,-0.13631 -0.7337,-0.21472 -0.4827,-0.1568 -0.9514,-0.34045 -1.405,-0.55116 -0.2268,-0.10535 -0.4507,-0.21667 -0.6695,-0.33476 0,-0.002 -0.01,-0.004 -0.01,-0.005 -0.3539,-0.20126 -0.697,-0.41939 -1.028,-0.6543 -0.6617,-0.4698 -1.2755,-1.00521 -1.831,-1.59601 -0.5556,-0.5908 -1.0536,-1.23535 -1.4844,-1.92907 -0.4308,-0.69375 -0.7948,-1.43619 -1.082,-2.2148 -0.1436,-0.3893 -0.2678,-0.78818 -0.372,-1.19532 l 0,-0.002 c -0.05,-0.1951 -0.093,-0.39128 -0.1336,-0.59004 l 0,-0.004 c -0.04,-0.19881 -0.078,-0.39965 -0.1081,-0.60189 -2e-4,-7.5e-4 0,-0.002 0,-0.004 -0.031,-0.20223 -0.057,-0.4049 -0.078,-0.61034 l 0,-0.004 c -0.021,-0.20544 -0.036,-0.41208 -0.047,-0.62047 l 0,-0.004 c -0.011,-0.20841 -0.017,-0.41784 -0.017,-0.62894 l 0,-0.004 0,-24.94103 z"
         style="opacity:1;fill:#000000;fill-opacity:1;stroke:none;stroke-width:2.14858222;stroke-linecap:square;stroke-linejoin:miter;stroke-miterlimit:4;stroke-dasharray:none;stroke-opacity:1"
         inkscape:connector-curvature="0" />
      <g
         transform="translate(-5.5e-5,-4.0404029e-7)"
         id="g4813">
        <g
           transform="matrix(0.60518986,0,0,0.60518986,436.72831,-156.53962)"
           id="g4728">
          <path
             inkscape:connector-curvature="0"
             style="color:#000000;font-style:normal;font-variant:normal;font-weight:normal;font-stretch:normal;font-size:medium;line-height:normal;font-family:sans-serif;text-indent:0;text-align:start;text-decoration:none;text-decoration-line:none;text-decoration-style:solid;text-decoration-color:#000000;letter-spacing:normal;word-spacing:normal;text-transform:none;direction:ltr;block-progression:tb;writing-mode:lr-tb;baseline-shift:baseline;text-anchor:start;clip-rule:nonzero;display:inline;overflow:visible;visibility:visible;opacity:1;isolation:auto;mix-blend-mode:normal;color-interpolation:sRGB;color-interpolation-filters:linearRGB;solid-color:#000000;solid-opacity:1;fill:#000000;fill-opacity:1;fill-rule:nonzero;stroke:none;stroke-width:0.5;stroke-linecap:square;stroke-linejoin:miter;stroke-miterlimit:4;stroke-dasharray:none;stroke-dashoffset:0;stroke-opacity:1;color-rendering:auto;image-rendering:auto;shape-rendering:auto;text-rendering:auto;enable-background:accumulate"
             d="m 982.11274,536.63757 9.09054,96.41016 4.9106,5.32812 3.90972,-5.32812 -9.09054,-96.41016 z"
             id="path4730" />
          <path
             inkscape:connector-curvature="0"
             style="color:#000000;font-style:normal;font-variant:normal;font-weight:normal;font-stretch:normal;font-size:medium;line-height:normal;font-family:sans-serif;text-indent:0;text-align:start;text-decoration:none;text-decoration-line:none;text-decoration-style:solid;text-decoration-color:#000000;letter-spacing:normal;word-spacing:normal;text-transform:none;direction:ltr;block-progression:tb;writing-mode:lr-tb;baseline-shift:baseline;text-anchor:start;clip-rule:nonzero;display:inline;overflow:visible;visibility:visible;opacity:1;isolation:auto;mix-blend-mode:normal;color-interpolation:sRGB;color-interpolation-filters:linearRGB;solid-color:#000000;solid-opacity:1;fill:#000000;fill-opacity:1;fill-rule:nonzero;stroke:none;stroke-width:0.5;stroke-linecap:square;stroke-linejoin:miter;stroke-miterlimit:4;stroke-dasharray:none;stroke-dashoffset:0;stroke-opacity:1;color-rendering:auto;image-rendering:auto;shape-rendering:auto;text-rendering:auto;enable-background:accumulate"
             d="m 993.04634,536.63757 9.54266,101.20508 4.9144,5.32617 3.9099,-5.32617 -9.5427,-101.20508 z"
             id="path4732" />
          <path
             inkscape:connector-curvature="0"
             style="color:#000000;font-style:normal;font-variant:normal;font-weight:normal;font-stretch:normal;font-size:medium;line-height:normal;font-family:sans-serif;text-indent:0;text-align:start;text-decoration:none;text-decoration-line:none;text-decoration-style:solid;text-decoration-color:#000000;letter-spacing:normal;word-spacing:normal;text-transform:none;direction:ltr;block-progression:tb;writing-mode:lr-tb;baseline-shift:baseline;text-anchor:start;clip-rule:nonzero;display:inline;overflow:visible;visibility:visible;opacity:1;isolation:auto;mix-blend-mode:normal;color-interpolation:sRGB;color-interpolation-filters:linearRGB;solid-color:#000000;solid-opacity:1;fill:#000000;fill-opacity:1;fill-rule:nonzero;stroke:none;stroke-width:0.5;stroke-linecap:square;stroke-linejoin:miter;stroke-miterlimit:4;stroke-dasharray:none;stroke-dashoffset:0;stroke-opacity:1;color-rendering:auto;image-rendering:auto;shape-rendering:auto;text-rendering:auto;enable-background:accumulate"
             d="m 1003.9839,536.63757 9.9942,105.99414 4.9145,5.32813 3.9097,-5.32813 -9.9942,-105.99414 z"
             id="path4734" />
          <path
             inkscape:connector-curvature="0"
             style="color:#000000;font-style:normal;font-variant:normal;font-weight:normal;font-stretch:normal;font-size:medium;line-height:normal;font-family:sans-serif;text-indent:0;text-align:start;text-decoration:none;text-decoration-line:none;text-decoration-style:solid;text-decoration-color:#000000;letter-spacing:normal;word-spacing:normal;text-transform:none;direction:ltr;block-progression:tb;writing-mode:lr-tb;baseline-shift:baseline;text-anchor:start;clip-rule:nonzero;display:inline;overflow:visible;visibility:visible;opacity:1;isolation:auto;mix-blend-mode:normal;color-interpolation:sRGB;color-interpolation-filters:linearRGB;solid-color:#000000;solid-opacity:1;fill:#000000;fill-opacity:1;fill-rule:nonzero;stroke:none;stroke-width:0.5;stroke-linecap:square;stroke-linejoin:miter;stroke-miterlimit:4;stroke-dasharray:none;stroke-dashoffset:0;stroke-opacity:1;color-rendering:auto;image-rendering:auto;shape-rendering:auto;text-rendering:auto;enable-background:accumulate"
             d="m 972.96289,474.34375 c -0.37813,1.20727 -0.86998,2.36269 -1.4668,3.45508 l 0.60352,6.4082 c 2.3381,-2.76154 4.01,-6.11138 4.81836,-9.86328 l -3.95508,0 z m 7.51758,5.19727 c -1.62191,4.39788 -4.26346,8.26177 -7.76172,11.22265 l 7.09375,75.25 4.91211,5.32813 3.9082,-5.32813 -8.15234,-86.47265 z"
             transform="translate(-7.7272727e-6,62.362184)"
             id="path4736" />
          <path
             style="color:#000000;font-style:normal;font-variant:normal;font-weight:normal;font-stretch:normal;font-size:medium;line-height:normal;font-family:sans-serif;text-indent:0;text-align:start;text-decoration:none;text-decoration-line:none;text-decoration-style:solid;text-decoration-color:#000000;letter-spacing:normal;word-spacing:normal;text-transform:none;direction:ltr;block-progression:tb;writing-mode:lr-tb;baseline-shift:baseline;text-anchor:start;clip-rule:nonzero;display:inline;overflow:visible;visibility:visible;opacity:1;isolation:auto;mix-blend-mode:normal;color-interpolation:sRGB;color-interpolation-filters:linearRGB;solid-color:#000000;solid-opacity:1;fill:#000000;fill-opacity:1;fill-rule:nonzero;stroke:none;stroke-width:4;stroke-linecap:butt;stroke-linejoin:miter;stroke-miterlimit:4;stroke-dasharray:none;stroke-dashoffset:0;stroke-opacity:1;color-rendering:auto;image-rendering:auto;shape-rendering:auto;text-rendering:auto;enable-background:accumulate"
             d="m 1023.011,524.48101 -52.17129,0.27665 0.42674,4.52578 c 0.54888,5.81384 -1.65308,11.00453 -5.57508,14.3962 1.42074,2.07173 2.52218,4.32582 3.24018,6.75549 0.19211,0.65032 0.36151,1.35021 0.52098,2.06371 5.94412,-4.15615 9.80569,-10.89733 10.433,-18.67855 l 34.87217,-0.16875 10.6598,113.05312 5.1247,6 3.9933,-6 z"
             id="path4738"
             inkscape:connector-curvature="0"
             sodipodi:nodetypes="cccccccccccc" />
          <path
             style="opacity:1;fill:#000000;fill-opacity:1;stroke:none;stroke-width:15;stroke-linecap:square;stroke-linejoin:miter;stroke-miterlimit:4;stroke-dasharray:none;stroke-opacity:1"
             d="m 1013.4011,523.2406 9.1695,-3.43042 0.8235,8.73349 -9.4929,0 z"
             id="path4740"
             inkscape:connector-curvature="0"
             sodipodi:nodetypes="ccccc" />
        </g>
        <g
           id="g4742"
           transform="matrix(-0.60518986,0,0,0.60518986,1575.2147,-156.53962)">
          <path
             id="path4745"
             d="m 982.11274,536.63757 9.09054,96.41016 4.9106,5.32812 3.90972,-5.32812 -9.09054,-96.41016 z"
             style="color:#000000;font-style:normal;font-variant:normal;font-weight:normal;font-stretch:normal;font-size:medium;line-height:normal;font-family:sans-serif;text-indent:0;text-align:start;text-decoration:none;text-decoration-line:none;text-decoration-style:solid;text-decoration-color:#000000;letter-spacing:normal;word-spacing:normal;text-transform:none;direction:ltr;block-progression:tb;writing-mode:lr-tb;baseline-shift:baseline;text-anchor:start;clip-rule:nonzero;display:inline;overflow:visible;visibility:visible;opacity:1;isolation:auto;mix-blend-mode:normal;color-interpolation:sRGB;color-interpolation-filters:linearRGB;solid-color:#000000;solid-opacity:1;fill:#000000;fill-opacity:1;fill-rule:nonzero;stroke:none;stroke-width:0.5;stroke-linecap:square;stroke-linejoin:miter;stroke-miterlimit:4;stroke-dasharray:none;stroke-dashoffset:0;stroke-opacity:1;color-rendering:auto;image-rendering:auto;shape-rendering:auto;text-rendering:auto;enable-background:accumulate"
             inkscape:connector-curvature="0" />
          <path
             id="path4747"
             d="m 993.04634,536.63757 9.54266,101.20508 4.9144,5.32617 3.9099,-5.32617 -9.5427,-101.20508 z"
             style="color:#000000;font-style:normal;font-variant:normal;font-weight:normal;font-stretch:normal;font-size:medium;line-height:normal;font-family:sans-serif;text-indent:0;text-align:start;text-decoration:none;text-decoration-line:none;text-decoration-style:solid;text-decoration-color:#000000;letter-spacing:normal;word-spacing:normal;text-transform:none;direction:ltr;block-progression:tb;writing-mode:lr-tb;baseline-shift:baseline;text-anchor:start;clip-rule:nonzero;display:inline;overflow:visible;visibility:visible;opacity:1;isolation:auto;mix-blend-mode:normal;color-interpolation:sRGB;color-interpolation-filters:linearRGB;solid-color:#000000;solid-opacity:1;fill:#000000;fill-opacity:1;fill-rule:nonzero;stroke:none;stroke-width:0.5;stroke-linecap:square;stroke-linejoin:miter;stroke-miterlimit:4;stroke-dasharray:none;stroke-dashoffset:0;stroke-opacity:1;color-rendering:auto;image-rendering:auto;shape-rendering:auto;text-rendering:auto;enable-background:accumulate"
             inkscape:connector-curvature="0" />
          <path
             id="path4749"
             d="m 1003.9839,536.63757 9.9942,105.99414 4.9145,5.32813 3.9097,-5.32813 -9.9942,-105.99414 z"
             style="color:#000000;font-style:normal;font-variant:normal;font-weight:normal;font-stretch:normal;font-size:medium;line-height:normal;font-family:sans-serif;text-indent:0;text-align:start;text-decoration:none;text-decoration-line:none;text-decoration-style:solid;text-decoration-color:#000000;letter-spacing:normal;word-spacing:normal;text-transform:none;direction:ltr;block-progression:tb;writing-mode:lr-tb;baseline-shift:baseline;text-anchor:start;clip-rule:nonzero;display:inline;overflow:visible;visibility:visible;opacity:1;isolation:auto;mix-blend-mode:normal;color-interpolation:sRGB;color-interpolation-filters:linearRGB;solid-color:#000000;solid-opacity:1;fill:#000000;fill-opacity:1;fill-rule:nonzero;stroke:none;stroke-width:0.5;stroke-linecap:square;stroke-linejoin:miter;stroke-miterlimit:4;stroke-dasharray:none;stroke-dashoffset:0;stroke-opacity:1;color-rendering:auto;image-rendering:auto;shape-rendering:auto;text-rendering:auto;enable-background:accumulate"
             inkscape:connector-curvature="0" />
          <path
             id="path4751"
             transform="translate(-7.7272727e-6,62.362184)"
             d="m 972.96289,474.34375 c -0.37813,1.20727 -0.86998,2.36269 -1.4668,3.45508 l 0.60352,6.4082 c 2.3381,-2.76154 4.01,-6.11138 4.81836,-9.86328 l -3.95508,0 z m 7.51758,5.19727 c -1.62191,4.39788 -4.26346,8.26177 -7.76172,11.22265 l 7.09375,75.25 4.91211,5.32813 3.9082,-5.32813 -8.15234,-86.47265 z"
             style="color:#000000;font-style:normal;font-variant:normal;font-weight:normal;font-stretch:normal;font-size:medium;line-height:normal;font-family:sans-serif;text-indent:0;text-align:start;text-decoration:none;text-decoration-line:none;text-decoration-style:solid;text-decoration-color:#000000;letter-spacing:normal;word-spacing:normal;text-transform:none;direction:ltr;block-progression:tb;writing-mode:lr-tb;baseline-shift:baseline;text-anchor:start;clip-rule:nonzero;display:inline;overflow:visible;visibility:visible;opacity:1;isolation:auto;mix-blend-mode:normal;color-interpolation:sRGB;color-interpolation-filters:linearRGB;solid-color:#000000;solid-opacity:1;fill:#000000;fill-opacity:1;fill-rule:nonzero;stroke:none;stroke-width:0.5;stroke-linecap:square;stroke-linejoin:miter;stroke-miterlimit:4;stroke-dasharray:none;stroke-dashoffset:0;stroke-opacity:1;color-rendering:auto;image-rendering:auto;shape-rendering:auto;text-rendering:auto;enable-background:accumulate"
             inkscape:connector-curvature="0" />
          <path
             sodipodi:nodetypes="cccccccccccc"
             inkscape:connector-curvature="0"
             id="path4753"
             d="m 1023.011,524.48101 -52.17129,0.27665 0.42674,4.52578 c 0.54888,5.81384 -1.65308,11.00453 -5.57508,14.3962 1.42074,2.07173 2.52218,4.32582 3.24018,6.75549 0.19211,0.65032 0.36151,1.35021 0.52098,2.06371 5.94412,-4.15615 9.80569,-10.89733 10.433,-18.67855 l 34.87217,-0.16875 10.6598,113.05312 5.1247,6 3.9933,-6 z"
             style="color:#000000;font-style:normal;font-variant:normal;font-weight:normal;font-stretch:normal;font-size:medium;line-height:normal;font-family:sans-serif;text-indent:0;text-align:start;text-decoration:none;text-decoration-line:none;text-decoration-style:solid;text-decoration-color:#000000;letter-spacing:normal;word-spacing:normal;text-transform:none;direction:ltr;block-progression:tb;writing-mode:lr-tb;baseline-shift:baseline;text-anchor:start;clip-rule:nonzero;display:inline;overflow:visible;visibility:visible;opacity:1;isolation:auto;mix-blend-mode:normal;color-interpolation:sRGB;color-interpolation-filters:linearRGB;solid-color:#000000;solid-opacity:1;fill:#000000;fill-opacity:1;fill-rule:nonzero;stroke:none;stroke-width:4;stroke-linecap:butt;stroke-linejoin:miter;stroke-miterlimit:4;stroke-dasharray:none;stroke-dashoffset:0;stroke-opacity:1;color-rendering:auto;image-rendering:auto;shape-rendering:auto;text-rendering:auto;enable-background:accumulate" />
          <path
             sodipodi:nodetypes="ccccc"
             inkscape:connector-curvature="0"
             id="path4755"
             d="m 1013.4011,523.2406 9.1695,-3.43042 0.8235,8.73349 -9.4929,0 z"
             style="opacity:1;fill:#000000;fill-opacity:1;stroke:none;stroke-width:15;stroke-linecap:square;stroke-linejoin:miter;stroke-miterlimit:4;stroke-dasharray:none;stroke-opacity:1" />
        </g>
      </g>
      <path
         inkscape:connector-curvature="0"
         id="path4991"
         d="m 1005.9707,164.24023 c -10.41663,0 -18.90234,8.48571 -18.90234,18.90235 0,10.41663 8.48571,18.9043 18.90234,18.9043 10.4166,0 18.9043,-8.48767 18.9043,-18.9043 0,-10.41664 -8.4877,-18.90235 -18.9043,-18.90235 z m 0,4 c 8.2549,0 14.9043,6.64747 14.9043,14.90235 0,8.25487 -6.6494,14.9043 -14.9043,14.9043 -8.25487,0 -14.90234,-6.64943 -14.90234,-14.9043 0,-8.25488 6.64747,-14.90235 14.90234,-14.90235 z"
         style="color:#000000;font-style:normal;font-variant:normal;font-weight:normal;font-stretch:normal;font-size:medium;line-height:normal;font-family:sans-serif;text-indent:0;text-align:start;text-decoration:none;text-decoration-line:none;text-decoration-style:solid;text-decoration-color:#000000;letter-spacing:normal;word-spacing:normal;text-transform:none;direction:ltr;block-progression:tb;writing-mode:lr-tb;baseline-shift:baseline;text-anchor:start;clip-rule:nonzero;display:inline;overflow:visible;visibility:visible;opacity:1;isolation:auto;mix-blend-mode:normal;color-interpolation:sRGB;color-interpolation-filters:linearRGB;solid-color:#000000;solid-opacity:1;fill:#000000;fill-opacity:1;fill-rule:nonzero;stroke:none;stroke-width:4;stroke-linecap:square;stroke-linejoin:miter;stroke-miterlimit:4;stroke-dasharray:none;stroke-dashoffset:0;stroke-opacity:1;color-rendering:auto;image-rendering:auto;shape-rendering:auto;text-rendering:auto;enable-background:accumulate" />
      <path
         sodipodi:nodetypes="scccccccccccsscccccccccccccccccccccccccsscccsccsccccccccccccccccccc"
         inkscape:connector-curvature="0"
         id="path4525-28-1"
         d="m 1006.8455,169.81595 c -0.8713,-0.0452 -1.7572,0.0214 -2.6137,0.10145 -1.4357,5.2e-4 -2.7542,0.77157 -3.9443,1.40246 -0.73606,0.54566 -1.63801,1.15387 -2.32716,1.84791 -1.13359,1.03705 -2.18419,2.2523 -2.66674,3.7252 -0.45305,1.21203 -0.59296,2.51945 -0.37781,3.80019 -0.0156,0.98939 0.22346,2.2287 0.8453,2.65499 -0.51161,1.58573 -0.41889,3.29162 -0.35577,4.94096 0.1423,0.79602 0.42564,1.8485 1.27311,2.13311 1.03048,-0.045 2.03178,-0.80256 3.05043,-0.23961 0.28294,1.57704 0.0704,2.16928 -0.0815,2.89501 -0.006,0.91981 -0.82553,2.55203 0.91514,2.47228 0.4727,-0.021 0.6747,-0.20346 0.6747,-0.63949 0,-0.35693 0.1533,-0.6483 0.3397,-0.6483 0.1863,0 0.3538,0.79172 0.3395,1.10404 0.029,0.29697 1.3295,0.34798 1.3614,-0.14261 0.057,-0.40154 0.2296,-1.11417 0.5218,-1.15256 0.1757,-0.0231 0.3093,0.83831 0.3175,1.23929 0.01,0.46595 1.1065,0.36122 1.0997,0.0501 0,0 0.063,-1.32643 0.3647,-1.36571 0.3443,-0.045 0.4424,1.20841 0.4424,1.20841 0.051,0.5073 1.3283,0.32745 1.2129,-0.1029 0,0 0.1273,-1.12132 0.3997,-1.13345 0.2788,-0.0125 0.3793,1.27016 0.3793,1.27016 0.061,0.52741 1.716,0.26347 1.5818,-0.22346 0,0 -0.1596,-0.82084 0.077,-0.89528 0.28,-0.0882 0.716,1.0085 0.716,1.0085 0.041,0.17198 0.5249,0.32747 0.9422,0.33664 1.0118,0.14827 0.4677,-1.44388 0.1795,-2.2647 -0.3407,-1.63292 -0.216,-1.86892 0.1234,-3.14965 1.1849,-0.24756 2.135,0.33679 3.2783,0.51012 1.0463,-0.32826 1.487,-1.50242 1.4216,-2.51973 -0.3008,-1.15057 0.1823,-2.31791 -0.073,-3.45472 0.014,-0.42422 -0.7206,-1.79751 -0.083,-1.20694 0.4669,-0.41627 0.1764,-0.83721 0.666,-1.31868 -0.021,-0.55068 0.2461,-0.94559 0.2807,-1.48185 -0.035,-1.15469 -0.2704,-2.32562 -0.5984,-3.42385 -0.4136,-1.40586 -1.2263,-2.65434 -2.3388,-3.612 -1.3891,-1.33592 -3.088,-2.31819 -4.8131,-3.15039 -0.8021,-0.37197 -1.6587,-0.52958 -2.53,-0.57483 z m -7.9193,12.84419 c 0.48887,0.0233 0.98909,0.16578 1.5407,0.39399 1.3929,0.35165 2.7988,0.23827 3.7178,0.50718 -0.071,1.0259 -0.3422,2.27761 -1.1306,3.07249 -0.9911,0.83196 -2.0845,0.55809 -3.41199,0.76886 -1.32739,0.21077 -2.50364,-0.47542 -2.54765,-1.70237 0.12791,-1.01914 -0.75345,-1.94696 0.35724,-2.71821 0.50752,-0.25021 0.98561,-0.34522 1.4745,-0.32194 z m 14.051,0.0956 c 0.2245,0.0133 0.4517,0.0486 0.6881,0.11025 1.1953,0.28931 1.7423,1.14832 1.1436,2.18161 -0.521,2.34201 -1.3144,2.52431 -2.9239,2.52122 -1.6094,-0.004 -2.9508,-0.37567 -3.615,-1.36719 -0.4191,-0.90378 -0.7229,-1.64242 -0.9217,-2.49768 1.0857,-0.48074 2.4821,-0.21558 3.6151,-0.57186 0.7022,-0.25587 1.3405,-0.41637 2.0138,-0.37635 z m -6.433,3.28713 c 0.3825,-0.0949 0.6619,1.29495 0.9716,1.63326 0.1708,0.59362 0.3626,1.16409 0.3102,1.79205 0.046,0.79818 -0.3618,1.58712 -1.2715,1.32013 -0.5029,-0.33459 -0.8338,-0.81814 -1.2775,-0.0574 -0.9017,0.22468 -1.7383,-0.38044 -1.5157,-1.39364 0.2648,-1.03365 0.6082,-1.98766 1.1746,-2.89021 0.4074,-1.17505 0.7753,1.13829 1.3261,-0.0705 0.1009,-0.21138 0.1939,-0.31181 0.2822,-0.3337 z"
         style="fill:#000000" />
      <path
         inkscape:connector-curvature="0"
         d="m 1032.5476,154.59521 c -0.2088,1.01496 -0.473,2.01176 -0.793,2.98561 l 8.2019,3.39726 c 0.597,-1.69236 1.069,-3.43722 1.4086,-5.22193 l -8.8175,-1.16094 z m 0.5076,-7.06513 c 0.061,1.03837 0.062,2.06768 0.01,3.08468 l 8.8318,1.16292 c 0.1344,-1.77871 0.1363,-3.58606 0,-5.41094 l -8.8364,1.16334 z m -62.48387,8.22616 c 0.33877,1.79836 0.80844,3.54349 1.39858,5.22671 l 8.2299,-3.40878 c -0.3165,-0.96806 -0.5822,-1.96249 -0.7921,-2.98126 l -8.83638,1.16333 z m -0.52566,-9.38934 c -0.13437,1.77861 -0.1364,3.58583 0.002,5.41061 l 8.83644,-1.16334 c -0.061,-1.03839 -0.062,-2.06768 -0.01,-3.08469 l -8.83174,-1.16258 z m 69.92353,-9.20596 -8.2298,3.40912 c 0.3165,0.96806 0.5822,1.96249 0.792,2.98128 l 8.8364,-1.16334 c -0.3388,-1.79848 -0.8084,-3.54374 -1.3986,-5.22706 z m -67.98682,0.006 c -0.597,1.69237 -1.06878,3.43721 -1.40825,5.2219 l 8.81718,1.16099 c 0.2087,-1.01497 0.473,-2.01176 0.793,-2.98561 l -8.20193,-3.39728 z m 63.73452,-8.39117 -7.0429,5.40429 c 0.5613,0.85783 1.0745,1.75227 1.5388,2.67863 l 8.2163,-3.40314 c -0.7899,-1.63615 -1.6974,-3.19948 -2.7122,-4.67978 z m -59.48169,0.0104 c -1.0158,1.48673 -1.92141,3.0497 -2.70796,4.67619 l 8.19096,3.39313 c 0.4642,-0.9224 0.9796,-1.81642 1.5441,-2.6772 l -7.0271,-5.39212 z m 53.20509,-7.00495 -5.3925,7.02754 c 0.7681,0.68534 1.4976,1.41515 2.1848,2.18593 l 7.0336,-5.39711 c -1.1808,-1.36758 -2.46,-2.64312 -3.8259,-3.81636 z m -7.8608,-5.15092 -3.3928,8.1912 c 0.9224,0.46427 1.8164,0.97964 2.6772,1.54416 l 5.3922,-7.02715 c -1.4869,-1.0158 -3.0501,-1.92163 -4.6766,-2.70821 z m -39.08459,5.14558 c -1.3676,1.18077 -2.6431,2.46032 -3.8163,3.82632 l 7.0272,5.39212 c 0.6854,-0.7682 1.4153,-1.49754 2.1862,-2.1848 l -5.3971,-7.03364 z m 30.15829,-8.09909 -1.1606,8.81743 c 1.0149,0.20872 2.0116,0.47309 2.9853,0.79312 l 3.3973,-8.20197 c -1.6924,-0.59698 -3.4373,-1.06909 -5.222,-1.40858 z m -22.30099,2.93598 c -1.636,0.78987 -3.1992,1.69777 -4.6794,2.71246 l 5.4043,7.04288 c 0.8577,-0.56115 1.7524,-1.07451 2.6786,-1.53879 l -3.4035,-8.21655 z m 12.91199,-3.46225 1.1633,8.83605 c 1.0385,-0.061 2.0676,-0.0614 3.0847,-0.006 l 1.1626,-8.83171 c -1.7785,-0.13436 -3.5859,-0.13637 -5.4106,0.002 z m -3.97909,0.52385 c -1.7982,0.33876 -3.5433,0.80848 -5.2263,1.39854 l 3.4087,8.22989 c 0.9681,-0.31653 1.9621,-0.58252 2.98089,-0.79237 l -1.16329,-8.83606 z"
         style="color:#000000;font-style:normal;font-variant:normal;font-weight:normal;font-stretch:normal;font-size:medium;line-height:normal;font-family:sans-serif;text-indent:0;text-align:start;text-decoration:none;text-decoration-line:none;text-decoration-style:solid;text-decoration-color:#000000;letter-spacing:normal;word-spacing:normal;text-transform:none;direction:ltr;block-progression:tb;writing-mode:lr-tb;baseline-shift:baseline;text-anchor:start;clip-rule:nonzero;display:inline;overflow:visible;visibility:visible;opacity:1;isolation:auto;mix-blend-mode:normal;color-interpolation:sRGB;color-interpolation-filters:linearRGB;solid-color:#000000;solid-opacity:1;fill:#000000;fill-opacity:1;fill-rule:nonzero;stroke:none;stroke-width:50;stroke-linecap:square;stroke-linejoin:miter;stroke-miterlimit:4;stroke-dasharray:none;stroke-dashoffset:0;stroke-opacity:1;color-rendering:auto;image-rendering:auto;shape-rendering:auto;text-rendering:auto;enable-background:accumulate"
         id="path4922" />
    </g>
    <text
       xml:space="preserve"
       style="font-style:normal;font-weight:normal;font-size:40px;line-height:125%;font-family:sans-serif;letter-spacing:0px;word-spacing:0px;fill:#000000;fill-opacity:1;stroke:none;stroke-width:1px;stroke-linecap:butt;stroke-linejoin:miter;stroke-opacity:1"
       x="264.08987"
       y="568.82031"
       id="text4503-0-1-0-2-72-8-5-3"
       sodipodi:linespacing="125%"><tspan
         sodipodi:role="line"
         id="tspan4505-9-1-1-1-9-8-2-4"
         x="264.08987"
         y="568.82031"
         style="font-style:normal;font-variant:normal;font-weight:normal;font-stretch:normal;font-size:13.75px;font-family:'Roboto Condensed';-inkscape-font-specification:'Roboto Condensed, ';text-align:center;text-anchor:middle">Imperial Cult</tspan></text>
    <path
       style="fill:none;fill-rule:evenodd;stroke:#000000;stroke-width:1px;stroke-linecap:butt;stroke-linejoin:miter;stroke-opacity:1"
       d="m 328.37265,501.86219 119.98232,0"
       id="path4257"
       inkscape:connector-curvature="0" />
    <text
       sodipodi:linespacing="125%"
       id="text4241"
       y="392.67932"
       x="494.56693"
       style="font-style:normal;font-weight:normal;font-size:40px;line-height:125%;font-family:sans-serif;letter-spacing:0px;word-spacing:0px;fill:#000000;fill-opacity:1;stroke:none;stroke-width:1px;stroke-linecap:butt;stroke-linejoin:miter;stroke-opacity:1"
       xml:space="preserve"><tspan
         style="font-style:normal;font-variant:normal;font-weight:normal;font-stretch:normal;font-size:13.75px;font-family:'Roboto Condensed';-inkscape-font-specification:'Roboto Condensed, ';text-align:center;text-anchor:middle"
         y="392.67932"
         x="494.56693"
         id="tspan4243"
         sodipodi:role="line">Adeptus Ministorum</tspan></text>
    <path
       style="fill:#000000"
       d="m 772.71723,789.55785 c -0.45491,0.20027 -0.96021,0.85915 -1.23738,1.91045 -0.29084,1.10298 -2.46046,4.37158 -4.82125,7.26342 -6.01173,7.36395 -7.97655,11.43215 -8.48279,17.55838 -0.32555,3.93977 0.0409,6.55677 1.42163,10.1506 6.543,17.03196 8.65114,23.31827 9.14032,27.24992 0.33904,2.72503 1.00068,4.31516 -0.37032,4.44505 -1.01612,0.0963 -0.99389,-0.40117 -1.43427,-4.62215 -1.63251,-15.64732 -13.84256,-27.63853 -24.76737,-24.52273 -6.9275,1.97573 -12.04887,11.78275 -10.02544,18.94269 2.02342,7.16004 6.38204,12.29505 13.07824,15.57922 l 3.46827,1.7007 c -1.74505,-5.32736 -6.18193,-15.64231 -0.23846,-19.11123 4.80718,-2.80571 9.96437,2.35401 11.46333,5.43043 2.21674,4.63884 3.90805,6.7048 -0.0939,6.60307 -3.01886,-0.0765 -4.01705,2.95965 -3.25873,5.3135 0.46165,1.43278 2.35379,1.88473 3.62725,1.80552 3.02554,-0.18832 2.39472,0.34275 2.18934,2.43659 -0.36699,3.74105 -2.91612,5.63611 -5.27285,5.00739 -2.35673,-0.62869 -2.08097,-6.17154 -2.08097,-6.17154 -6.26096,3.77515 -4.57724,11.84101 -0.15172,13.17698 4.13809,1.25022 11.01095,-4.58614 12.0161,-10.48239 0.32353,-1.89797 -0.0264,-4.26812 1.92018,-3.50798 1.48721,1.99515 -1.24329,9.2591 -3.60375,13.7273 l 7.51457,13.18901 7.51457,-13.18901 c -2.36048,-4.4682 -5.09095,-11.73215 -3.60375,-13.7273 1.94656,-0.76014 1.59665,1.61001 1.92018,3.50798 1.00515,5.89625 7.87801,11.73261 12.0161,10.48239 4.42551,-1.33597 6.10924,-9.40183 -0.15173,-13.17698 0,0 0.27576,5.54285 -2.08096,6.17154 -2.35672,0.62872 -4.90585,-1.26634 -5.27284,-5.00739 -0.20539,-2.09384 -0.83621,-2.62491 2.18933,-2.43659 1.27346,0.0793 3.1656,-0.37274 3.62724,-1.80552 0.75832,-2.35385 -0.23987,-5.39016 -3.25872,-5.3135 -4.00198,0.10175 -2.31067,-1.96423 -0.0939,-6.60307 1.49895,-3.07642 6.65615,-8.23614 11.46332,-5.43043 5.94349,3.46892 1.50657,13.78387 -0.23845,19.11123 l 3.46827,-1.7007 c 6.6962,-3.28417 11.05481,-8.41918 13.07823,-15.57922 2.02343,-7.15994 -3.09791,-16.96696 -10.02544,-18.94269 -10.92481,-3.1158 -23.13485,8.87541 -24.76736,24.52273 -0.44039,4.22098 -0.41814,4.7185 -1.43427,4.62215 -1.371,-0.12989 -0.70935,-1.72002 -0.37033,-4.44505 0.48918,-3.93165 2.59733,-10.21796 9.14033,-27.24992 1.38056,-3.59383 1.74718,-6.21083 1.42163,-10.1506 -0.50624,-6.12623 -2.47107,-10.19443 -8.48279,-17.55838 -2.36078,-2.89184 -4.5304,-6.16044 -4.82125,-7.26342 -0.27717,-1.0513 -0.78247,-1.71018 -1.23738,-1.91045 z"
       id="path4161"
       inkscape:connector-curvature="0" />
    <text
       xml:space="preserve"
       style="font-style:normal;font-weight:normal;font-size:40px;line-height:125%;font-family:sans-serif;letter-spacing:0px;word-spacing:0px;fill:#000000;fill-opacity:1;stroke:none;stroke-width:1px;stroke-linecap:butt;stroke-linejoin:miter;stroke-opacity:1"
       x="770.8952"
       y="919.76038"
       id="text4503-0-1-2"
       sodipodi:linespacing="125%"><tspan
         sodipodi:role="line"
         id="tspan4505-9-1-12"
         x="770.8952"
         y="919.76038"
         style="font-style:normal;font-variant:normal;font-weight:normal;font-stretch:normal;font-size:13.75px;font-family:'Roboto Condensed';-inkscape-font-specification:'Roboto Condensed, ';text-align:center;text-anchor:middle">Adepta Sororitas</tspan></text>
    <a
       xlink:href="Adepta Sororitas.svg"
       transform="translate(106.03497,157)"
       id="a4271">
      <g
         style="fill:#ffffff"
         transform="translate(-88.471051,-46.621455)"
         id="g4356">
        <circle
           style="opacity:1;fill:#ffffff;fill-opacity:1;stroke:#000000;stroke-width:1;stroke-linecap:square;stroke-linejoin:miter;stroke-miterlimit:4;stroke-dasharray:none;stroke-opacity:1"
           id="path4327"
           cx="753.15332"
           cy="856.60156"
           r="11.727594" />
        <path
           inkscape:connector-curvature="0"
           style="opacity:1;fill:#ffffff;fill-opacity:1;stroke:#000000;stroke-width:1;stroke-linecap:square;stroke-linejoin:miter;stroke-miterlimit:4;stroke-dasharray:none;stroke-opacity:1"
           d="m 765.15234,557.51172 a 11.727594,11.727594 0 0 0 -6,1.66601 11.727594,11.727594 0 0 1 5.72852,10.0625 11.727594,11.727594 0 0 1 -5.72656,10.06055 11.727594,11.727594 0 0 0 5.99804,1.66602 11.727594,11.727594 0 0 0 11.72852,-11.72657 11.727594,11.727594 0 0 0 -11.72852,-11.72851 z"
           transform="translate(-1.2941176e-5,287.36219)"
           id="circle4329" />
        <path
           inkscape:connector-curvature="0"
           style="opacity:1;fill:#ffffff;fill-opacity:1;stroke:#000000;stroke-width:1;stroke-linecap:square;stroke-linejoin:miter;stroke-miterlimit:4;stroke-dasharray:none;stroke-opacity:1"
           d="m 741.15234,557.51172 a 11.727594,11.727594 0 0 0 -11.72656,11.72851 11.727594,11.727594 0 0 0 11.72656,11.72657 11.727594,11.727594 0 0 0 6.00196,-1.66602 11.727594,11.727594 0 0 1 -5.72852,-10.06055 11.727594,11.727594 0 0 1 5.72656,-10.0625 11.727594,11.727594 0 0 0 -6,-1.66601 z"
           transform="translate(-1.2941176e-5,287.36219)"
           id="circle4331" />
        <g
           style="fill:#ffffff"
           id="g4352"
           transform="translate(1.0404503,24.809953)">
          <path
             inkscape:connector-curvature="0"
             id="path4339"
             d="m 752.11287,827.79961 0,7.984"
             style="fill:#ffffff;fill-rule:evenodd;stroke:#000000;stroke-width:1px;stroke-linecap:butt;stroke-linejoin:miter;stroke-opacity:1" />
          <path
             style="fill:#ffffff;fill-rule:evenodd;stroke:#000000;stroke-width:1px;stroke-linecap:butt;stroke-linejoin:miter;stroke-opacity:1"
             d="m 756.10487,831.79161 -7.984,0"
             id="path4350"
             inkscape:connector-curvature="0" />
        </g>
      </g>
    </a>
    <path
       style="fill:none;fill-rule:evenodd;stroke:#000000;stroke-width:1px;stroke-linecap:butt;stroke-linejoin:miter;stroke-opacity:1"
       d="m 770.71723,927.74075 0,21"
       id="path4433"
       inkscape:connector-curvature="0" />
    <g
       id="g4326"
       transform="matrix(1.0723195,0,0,1.0723195,77.23539,135.60418)">
      <path
         id="rect4278"
         transform="translate(0,287.36219)"
         d="m 138.23242,321.66016 0,28.77734 a 20.350578,20.350578 0 0 1 3,-0.24023 20.350578,20.350578 0 0 1 3,0.24804 l 0,-28.78515 -6,0 z m -45.886717,45.88672 0,6 28.777347,0 a 20.350578,20.350578 0 0 1 -0.24024,-3 20.350578,20.350578 0 0 1 0.24805,-3 l -28.785157,0 z m 68.998047,0 a 20.350578,20.350578 0 0 1 0.24023,3 20.350578,20.350578 0 0 1 -0.24804,3 l 28.7832,0 0,-6 -28.77539,0 z m -23.11133,23.10351 0,28.78516 6,0 0,-28.77735 a 20.350578,20.350578 0 0 1 -3,0.24024 20.350578,20.350578 0 0 1 -3,-0.24805 z"
         style="opacity:1;fill:#000000;fill-opacity:1;stroke:none;stroke-width:1.5;stroke-linecap:square;stroke-linejoin:bevel;stroke-miterlimit:4;stroke-dasharray:none;stroke-opacity:1"
         inkscape:connector-curvature="0" />
      <path
         style="color:#000000;font-style:normal;font-variant:normal;font-weight:normal;font-stretch:normal;font-size:medium;line-height:normal;font-family:sans-serif;text-indent:0;text-align:start;text-decoration:none;text-decoration-line:none;text-decoration-style:solid;text-decoration-color:#000000;letter-spacing:normal;word-spacing:normal;text-transform:none;direction:ltr;block-progression:tb;writing-mode:lr-tb;baseline-shift:baseline;text-anchor:start;clip-rule:nonzero;display:inline;overflow:visible;visibility:visible;opacity:1;isolation:auto;mix-blend-mode:normal;color-interpolation:sRGB;color-interpolation-filters:linearRGB;solid-color:#000000;solid-opacity:1;fill:#000000;fill-opacity:1;fill-rule:nonzero;stroke:none;stroke-width:50;stroke-linecap:square;stroke-linejoin:miter;stroke-miterlimit:4;stroke-dasharray:none;stroke-dashoffset:0;stroke-opacity:1;color-rendering:auto;image-rendering:auto;shape-rendering:auto;text-rendering:auto;enable-background:accumulate"
         d="m 134.24404,620.90054 c -1.88002,0.35417 -3.7046,0.84527 -5.46423,1.46218 l 3.56389,8.60445 c 1.01217,-0.33092 2.05143,-0.60902 3.11658,-0.82843 l -1.21624,-9.2382 z m 4.16015,-0.5477 1.21624,9.23821 c 1.08576,-0.0638 2.16173,-0.0641 3.22515,-0.006 l 1.21547,-9.23367 c -1.85946,-0.14048 -3.74911,-0.14259 -5.65686,0.001 z m -13.4996,3.61983 c -1.71052,0.82582 -3.3448,1.77503 -4.89238,2.83592 l 5.65025,7.36341 c 0.89674,-0.58669 1.83216,-1.12341 2.80053,-1.60882 l -3.5584,-8.59051 z m 23.31596,-3.0696 -1.21341,9.21873 c 1.06101,0.21822 2.1031,0.49461 3.12114,0.82922 l 3.55188,-8.57527 c -1.76934,-0.62415 -3.59373,-1.11775 -5.45961,-1.47268 z m -31.5309,8.4677 c -1.4298,1.23451 -2.76335,2.5723 -3.98999,4.00046 l 7.34697,5.63753 c 0.71665,-0.80316 1.47979,-1.56569 2.28576,-2.28423 l -5.64274,-7.35376 z m 40.86341,-5.37977 -3.54717,8.564 c 0.96439,0.4854 1.89907,1.02423 2.79908,1.61444 l 5.63753,-7.34698 c -1.55448,-1.06202 -3.18883,-2.00908 -4.88944,-2.83146 z m 8.21856,5.38535 -5.63786,7.34739 c 0.80303,0.71652 1.56576,1.47955 2.28419,2.28542 l 7.35378,-5.64276 c -1.23453,-1.42982 -2.57198,-2.76341 -4.00011,-3.99005 z m -55.6266,7.32376 c -1.06196,1.5544 -2.00882,3.1885 -2.83118,4.88903 l 8.56371,3.54756 c 0.48537,-0.96438 1.02423,-1.89909 1.61443,-2.79905 l -7.34696,-5.63754 z m 62.18896,-0.0109 -7.36345,5.65027 c 0.58678,0.89687 1.1234,1.83201 1.60883,2.80053 l 8.5902,-3.55803 c -0.82585,-1.71061 -1.77466,-3.34509 -2.83558,-4.89277 z m -66.63533,8.7731 c -0.62414,1.76938 -1.1174,3.59363 -1.47232,5.45955 l 9.21841,1.21382 c 0.21825,-1.06116 0.49454,-2.1033 0.82916,-3.12149 l -8.57525,-3.55188 z m 71.08111,-0.006 -8.6044,3.56428 c 0.33092,1.01211 0.60873,2.0518 0.82811,3.11696 l 9.23859,-1.21629 c -0.35423,-1.88032 -0.84524,-3.70502 -1.4623,-5.46495 z m -73.10594,9.62524 c -0.1405,1.85956 -0.14261,3.74903 10e-4,5.65686 l 9.23858,-1.21629 c -0.0638,-1.08565 -0.0644,-2.16178 -0.007,-3.22508 l -9.23366,-1.21549 z m 0.54957,9.81667 c 0.35418,1.88021 0.84523,3.70477 1.46224,5.46459 l 8.60445,-3.56392 c -0.33092,-1.01212 -0.6087,-2.05181 -0.82811,-3.11694 l -9.23858,1.21627 z m 65.32773,-8.60055 c 0.0638,1.08562 0.0645,2.16177 0.007,3.22507 l 9.23368,1.21585 c 0.14054,-1.85967 0.14256,-3.74928 -0.001,-5.65721 l -9.23859,1.21629 z m -53.66468,14.3819 -8.59051,3.55842 c 0.82578,1.71036 1.77471,3.34457 2.83551,4.89205 l 7.36341,-5.65026 c -0.58665,-0.89673 -1.12301,-1.83187 -1.60841,-2.80021 z m 53.13393,-6.99522 c -0.21825,1.06115 -0.4945,2.10332 -0.82913,3.12149 l 8.57526,3.55188 c 0.62419,-1.76939 1.11769,-3.59365 1.47267,-5.45959 l -9.2188,-1.21378 z m -48.97258,13.1258 -7.35414,5.6428 c 1.23452,1.42981 2.57198,2.76342 4.00013,3.99005 l 5.63784,-7.3474 c -0.80297,-0.71645 -1.56544,-1.47966 -2.28383,-2.28545 z m 46.53977,-6.12708 c -0.4854,0.96436 -1.02422,1.8991 -1.61448,2.79905 l 7.34699,5.63754 c 1.06206,-1.55452 2.00905,-3.18877 2.83147,-4.88945 l -8.56398,-3.54714 z m -40.92671,10.96715 -5.63752,7.34698 c 1.55436,1.06191 3.18852,2.00883 4.88901,2.83115 l 3.54718,-8.56364 c -0.96435,-0.4854 -1.8987,-1.0243 -2.79867,-1.61449 z m 36.75761,-4.83924 c -0.7165,0.80296 -1.47966,1.56545 -2.28549,2.28384 l 5.64279,7.35375 c 1.4297,-1.23441 2.7631,-2.57201 3.98969,-4.00004 l -7.34699,-5.63755 z m -30.08133,8.05735 -3.55226,8.5753 c 1.76938,0.62418 3.5937,1.11776 5.45962,1.4727 l 1.21377,-9.21877 c -1.06087,-0.21821 -2.10322,-0.49467 -3.12113,-0.82923 z m 24.46545,-3.22094 c -0.89676,0.58668 -1.83179,1.12338 -2.80019,1.60878 l 3.55806,8.59055 c 1.71044,-0.82576 3.34491,-1.77473 4.89241,-2.83556 l -5.65028,-7.36377 z m -17.18275,4.58738 -1.21548,9.23366 c 1.85935,0.14048 3.74887,0.14261 5.65649,-10e-4 l -1.21624,-9.23822 c -1.08564,0.0638 -2.16147,0.0641 -3.22477,0.006 z m 10.50187,-1.3826 c -1.01226,0.33096 -2.05165,0.60907 -3.11694,0.82849 l 1.21623,9.23821 c 1.88014,-0.35418 3.70486,-0.84529 5.46461,-1.46225 l -3.5639,-8.60445 z"
         id="path4289-2-9"
         inkscape:connector-curvature="0" />
      <path
         inkscape:connector-curvature="0"
         id="circle4320"
         d="m 141.23242,634.55859 c -12.86063,0 -23.34961,10.49093 -23.34961,23.35157 0,12.86063 10.48898,23.34961 23.34961,23.34961 12.86064,0 23.35156,-10.48898 23.35156,-23.34961 0,-12.86064 -10.49092,-23.35157 -23.35156,-23.35157 z m 0,6 c 9.618,0 17.35156,7.73357 17.35156,17.35157 0,9.61799 -7.73356,17.34961 -17.35156,17.34961 -9.61799,0 -17.34961,-7.73162 -17.34961,-17.34961 0,-9.618 7.73162,-17.35157 17.34961,-17.35157 z"
         style="color:#000000;font-style:normal;font-variant:normal;font-weight:normal;font-stretch:normal;font-size:medium;line-height:normal;font-family:sans-serif;text-indent:0;text-align:start;text-decoration:none;text-decoration-line:none;text-decoration-style:solid;text-decoration-color:#000000;letter-spacing:normal;word-spacing:normal;text-transform:none;direction:ltr;block-progression:tb;writing-mode:lr-tb;baseline-shift:baseline;text-anchor:start;white-space:normal;clip-rule:nonzero;display:inline;overflow:visible;visibility:visible;opacity:1;isolation:auto;mix-blend-mode:normal;color-interpolation:sRGB;color-interpolation-filters:linearRGB;solid-color:#000000;solid-opacity:1;fill:#000000;fill-opacity:1;fill-rule:nonzero;stroke:none;stroke-width:6;stroke-linecap:square;stroke-linejoin:bevel;stroke-miterlimit:4;stroke-dasharray:none;stroke-dashoffset:0;stroke-opacity:1;color-rendering:auto;image-rendering:auto;shape-rendering:auto;text-rendering:auto;enable-background:accumulate" />
    </g>
    <g
       id="g4745"
       transform="matrix(0.9566062,0,0,0.9566062,725.09312,81.399235)">
      <path
         sodipodi:type="star"
         style="opacity:1;fill:#000000;fill-opacity:1;stroke:none;stroke-width:6;stroke-linecap:square;stroke-linejoin:bevel;stroke-miterlimit:4;stroke-dasharray:none;stroke-opacity:1"
         id="path4707"
         sodipodi:sides="8"
         sodipodi:cx="-141.87189"
         sodipodi:cy="658.67285"
         sodipodi:r1="16.627256"
         sodipodi:r2="8.3136282"
         sodipodi:arg1="0.78539816"
         sodipodi:arg2="1.1780972"
         inkscape:flatsided="false"
         inkscape:rounded="0"
         inkscape:randomized="0"
         d="m -130.11464,670.4301 -8.57576,-4.07646 -3.18149,8.94647 -3.18148,-8.94647 -8.57576,4.07646 4.07645,-8.57576 -8.94646,-3.18149 8.94646,-3.18149 -4.07645,-8.57575 8.57575,4.07645 3.18149,-8.94646 3.18149,8.94646 8.57576,-4.07645 -4.07646,8.57575 8.94647,3.18149 -8.94647,3.18149 z"
         transform="matrix(0.76381143,-0.76381142,0.76381142,0.76381143,-535.84032,182.69072)" />
      <g
         id="g4709"
         transform="matrix(0.92387953,-0.38268343,0.38268343,0.92387953,-261.12295,135.95074)">
        <path
           sodipodi:nodetypes="cccccccccccccccccccccccccccccccccscccsccsccccccccccccccccccccccccccccccccccccccccccc"
           inkscape:connector-curvature="0"
           id="path4711"
           d="m -148.03588,602.78016 0.002,0.0117 0,-0.0117 z m 0.002,0.0117 0,0.0273 -0.002,0 0,2.03711 0,0.11719 0.002,0 0,0.0606 c 5.8e-4,3e-5 0.001,-4e-5 0.002,0 l 0,0.0371 c 0.0703,0.004 0.21339,0.0387 0.33984,0.0664 0.53779,0.25137 1.20138,0.99214 1.60157,2.13086 0.0231,0.0694 0.0476,0.13287 0.0703,0.20508 l 0.004,0 c 0.002,0.008 0.006,0.0158 0.008,0.0234 0.10335,0.35082 0.20274,0.73712 0.29883,1.15039 0.1412,0.60477 0.26914,1.29761 0.39257,2.02539 0.0515,0.30516 0.10628,0.60091 0.1543,0.92578 3e-4,0.002 -3e-4,0.004 0,0.006 4.8e-4,0.003 0.001,0.007 0.002,0.01 0.0799,0.54141 0.15516,1.10903 0.22461,1.70117 0.0183,0.15654 0.0351,0.31852 0.0527,0.47852 0.0176,0.16211 0.0357,0.3236 0.0527,0.48828 0.0297,0.28776 0.0509,0.60503 0.0781,0.90235 0.0586,0.63585 0.11361,1.28056 0.16015,1.95703 0.0541,0.79003 0.10428,1.59689 0.14063,2.43554 0.0135,0.31167 0.0243,0.62392 0.0352,0.94141 0.011,0.3177 0.021,0.63778 0.0293,0.96094 0.008,0.32317 0.0161,0.64655 0.0215,0.97461 0.005,0.32825 0.009,0.66119 0.0117,0.99414 0.004,0.33297 0.006,0.66659 0.006,1.0039 l 0,14.4043 3.34871,4.01258 3.3487,-4.01258 0,-14.4043 c 0,-0.33731 0.002,-0.67093 0.006,-1.0039 0.003,-0.33295 0.007,-0.66589 0.0117,-0.99414 0.005,-0.32806 0.0135,-0.65144 0.0215,-0.97461 0.008,-0.32316 0.0163,-0.64324 0.0274,-0.96094 0.0109,-0.31749 0.0236,-0.62974 0.0371,-0.94141 0.0363,-0.83865 0.0866,-1.64551 0.14063,-2.43554 0.0465,-0.67647 0.10159,-1.32118 0.16016,-1.95703 0.0272,-0.29732 0.0485,-0.61459 0.0781,-0.90235 0.017,-0.16468 0.0351,-0.32617 0.0527,-0.48828 0.0176,-0.16 0.0344,-0.32198 0.0527,-0.47852 0.0699,-0.59556 0.14619,-1.1667 0.22656,-1.71093 0.0483,-0.32699 0.10248,-0.6246 0.1543,-0.93164 0.12343,-0.72778 0.25138,-1.42062 0.39258,-2.02539 0.0961,-0.41327 0.19547,-0.79957 0.29883,-1.15039 0.002,-0.007 0.004,-0.0162 0.006,-0.0234 6e-5,-1.8e-4 0.002,1.7e-4 0.002,0 l 0.004,0 c 0.0251,-0.0796 0.0506,-0.15039 0.0762,-0.22656 0.40105,-1.12664 1.0613,-1.85959 1.5957,-2.10938 0.12645,-0.0277 0.26952,-0.0629 0.33984,-0.0664 l 0,-0.0371 c 5.8e-4,-4e-5 10e-4,3e-5 0.002,0 l 0,-0.0606 0.002,0 0,-0.11719 0,-2.03711 -0.002,0 0,-0.0273 -0.002,0 -0.002,0.0273 -3.14258,0 -0.002,0 -2.96875,0 -0.004,0 -1.82617,0 -0.004,0 -2.96875,0 -0.004,0 -3.14063,0 -0.002,-0.0273 -0.002,0 z m 14.06836,0 0.002,-0.0117 -0.002,0 z"
           style="opacity:1;fill:#000000;fill-opacity:1;stroke:none;stroke-width:2.14858222;stroke-linecap:square;stroke-linejoin:miter;stroke-miterlimit:4;stroke-dasharray:none;stroke-opacity:1" />
        <path
           style="opacity:1;fill:#000000;fill-opacity:1;stroke:none;stroke-width:2.14858222;stroke-linecap:square;stroke-linejoin:miter;stroke-miterlimit:4;stroke-dasharray:none;stroke-opacity:1"
           d="m -148.03588,705.28465 0.002,-0.0117 0,0.0117 z m 0.002,-0.0117 0,-0.0273 -0.002,0 0,-2.03711 0,-0.11719 0.002,0 0,-0.0606 c 5.8e-4,-3e-5 0.001,4e-5 0.002,0 l 0,-0.0371 c 0.0703,-0.004 0.21339,-0.0387 0.33984,-0.0664 0.53779,-0.25137 1.20138,-0.99214 1.60157,-2.13086 0.0231,-0.0694 0.0476,-0.13287 0.0703,-0.20508 l 0.004,0 c 0.002,-0.008 0.006,-0.0158 0.008,-0.0234 0.10335,-0.35082 0.20274,-0.73712 0.29883,-1.15039 0.1412,-0.60477 0.26914,-1.29761 0.39257,-2.02539 0.0515,-0.30516 0.10628,-0.60091 0.1543,-0.92578 3e-4,-0.002 -3e-4,-0.004 0,-0.006 4.8e-4,-0.003 0.001,-0.007 0.002,-0.01 0.0799,-0.54141 0.15516,-1.10903 0.22461,-1.70117 0.0183,-0.15654 0.0351,-0.31852 0.0527,-0.47852 0.0176,-0.16211 0.0357,-0.3236 0.0527,-0.48828 0.0297,-0.28776 0.0509,-0.60503 0.0781,-0.90235 0.0586,-0.63585 0.11361,-1.28056 0.16015,-1.95703 0.0541,-0.79003 0.10428,-1.59689 0.14063,-2.43554 0.0135,-0.31167 0.0243,-0.62392 0.0352,-0.94141 0.011,-0.3177 0.021,-0.63778 0.0293,-0.96094 0.008,-0.32317 0.0161,-0.64655 0.0215,-0.97461 0.005,-0.32825 0.009,-0.66119 0.0117,-0.99414 0.004,-0.33297 0.006,-0.66659 0.006,-1.0039 l 0,-14.4043 3.34871,-4.01258 3.3487,4.01258 0,14.4043 c 0,0.33731 0.002,0.67093 0.006,1.0039 0.003,0.33295 0.007,0.66589 0.0117,0.99414 0.005,0.32806 0.0135,0.65144 0.0215,0.97461 0.008,0.32316 0.0163,0.64324 0.0274,0.96094 0.0109,0.31749 0.0236,0.62974 0.0371,0.94141 0.0363,0.83865 0.0866,1.64551 0.14063,2.43554 0.0465,0.67647 0.10159,1.32118 0.16016,1.95703 0.0272,0.29732 0.0485,0.61459 0.0781,0.90235 0.017,0.16468 0.0351,0.32617 0.0527,0.48828 0.0176,0.16 0.0344,0.32198 0.0527,0.47852 0.0699,0.59556 0.14619,1.1667 0.22656,1.71093 0.0483,0.32699 0.10248,0.6246 0.1543,0.93164 0.12343,0.72778 0.25138,1.42062 0.39258,2.02539 0.0961,0.41327 0.19547,0.79957 0.29883,1.15039 0.002,0.007 0.004,0.0162 0.006,0.0234 6e-5,1.8e-4 0.002,-1.7e-4 0.002,0 l 0.004,0 c 0.0251,0.0796 0.0506,0.15039 0.0762,0.22656 0.40105,1.12664 1.0613,1.85959 1.5957,2.10938 0.12645,0.0277 0.26952,0.0629 0.33984,0.0664 l 0,0.0371 c 5.8e-4,4e-5 10e-4,-3e-5 0.002,0 l 0,0.0606 0.002,0 0,0.11719 0,2.03711 -0.002,0 0,0.0273 -0.002,0 -0.002,-0.0273 -3.14258,0 -0.002,0 -2.96875,0 -0.004,0 -1.82617,0 -0.004,0 -2.96875,0 -0.004,0 -3.14063,0 -0.002,0.0273 -0.002,0 z m 14.06836,0 0.002,0.0117 -0.002,0 z"
           id="path4713"
           inkscape:connector-curvature="0"
           sodipodi:nodetypes="cccccccccccccccccccccccccccccccccscccsccsccccccccccccccccccccccccccccccccccccccccccc" />
      </g>
      <g
         transform="matrix(0.38268343,-0.92387953,0.92387953,0.38268343,-691.39111,413.60221)"
         id="g4715">
        <path
           style="opacity:1;fill:#000000;fill-opacity:1;stroke:none;stroke-width:2.14858222;stroke-linecap:square;stroke-linejoin:miter;stroke-miterlimit:4;stroke-dasharray:none;stroke-opacity:1"
           d="m -148.03588,602.78016 0.002,0.0117 0,-0.0117 z m 0.002,0.0117 0,0.0273 -0.002,0 0,2.03711 0,0.11719 0.002,0 0,0.0606 c 5.8e-4,3e-5 0.001,-4e-5 0.002,0 l 0,0.0371 c 0.0703,0.004 0.21339,0.0387 0.33984,0.0664 0.53779,0.25137 1.20138,0.99214 1.60157,2.13086 0.0231,0.0694 0.0476,0.13287 0.0703,0.20508 l 0.004,0 c 0.002,0.008 0.006,0.0158 0.008,0.0234 0.10335,0.35082 0.20274,0.73712 0.29883,1.15039 0.1412,0.60477 0.26914,1.29761 0.39257,2.02539 0.0515,0.30516 0.10628,0.60091 0.1543,0.92578 3e-4,0.002 -3e-4,0.004 0,0.006 4.8e-4,0.003 0.001,0.007 0.002,0.01 0.0799,0.54141 0.15516,1.10903 0.22461,1.70117 0.0183,0.15654 0.0351,0.31852 0.0527,0.47852 0.0176,0.16211 0.0357,0.3236 0.0527,0.48828 0.0297,0.28776 0.0509,0.60503 0.0781,0.90235 0.0586,0.63585 0.11361,1.28056 0.16015,1.95703 0.0541,0.79003 0.10428,1.59689 0.14063,2.43554 0.0135,0.31167 0.0243,0.62392 0.0352,0.94141 0.011,0.3177 0.021,0.63778 0.0293,0.96094 0.008,0.32317 0.0161,0.64655 0.0215,0.97461 0.005,0.32825 0.009,0.66119 0.0117,0.99414 0.004,0.33297 0.006,0.66659 0.006,1.0039 l 0,14.4043 3.34871,4.01258 3.3487,-4.01258 0,-14.4043 c 0,-0.33731 0.002,-0.67093 0.006,-1.0039 0.003,-0.33295 0.007,-0.66589 0.0117,-0.99414 0.005,-0.32806 0.0135,-0.65144 0.0215,-0.97461 0.008,-0.32316 0.0163,-0.64324 0.0274,-0.96094 0.0109,-0.31749 0.0236,-0.62974 0.0371,-0.94141 0.0363,-0.83865 0.0866,-1.64551 0.14063,-2.43554 0.0465,-0.67647 0.10159,-1.32118 0.16016,-1.95703 0.0272,-0.29732 0.0485,-0.61459 0.0781,-0.90235 0.017,-0.16468 0.0351,-0.32617 0.0527,-0.48828 0.0176,-0.16 0.0344,-0.32198 0.0527,-0.47852 0.0699,-0.59556 0.14619,-1.1667 0.22656,-1.71093 0.0483,-0.32699 0.10248,-0.6246 0.1543,-0.93164 0.12343,-0.72778 0.25138,-1.42062 0.39258,-2.02539 0.0961,-0.41327 0.19547,-0.79957 0.29883,-1.15039 0.002,-0.007 0.004,-0.0162 0.006,-0.0234 6e-5,-1.8e-4 0.002,1.7e-4 0.002,0 l 0.004,0 c 0.0251,-0.0796 0.0506,-0.15039 0.0762,-0.22656 0.40105,-1.12664 1.0613,-1.85959 1.5957,-2.10938 0.12645,-0.0277 0.26952,-0.0629 0.33984,-0.0664 l 0,-0.0371 c 5.8e-4,-4e-5 10e-4,3e-5 0.002,0 l 0,-0.0606 0.002,0 0,-0.11719 0,-2.03711 -0.002,0 0,-0.0273 -0.002,0 -0.002,0.0273 -3.14258,0 -0.002,0 -2.96875,0 -0.004,0 -1.82617,0 -0.004,0 -2.96875,0 -0.004,0 -3.14063,0 -0.002,-0.0273 -0.002,0 z m 14.06836,0 0.002,-0.0117 -0.002,0 z"
           id="path4717"
           inkscape:connector-curvature="0"
           sodipodi:nodetypes="cccccccccccccccccccccccccccccccccscccsccsccccccccccccccccccccccccccccccccccccccccccc" />
        <path
           sodipodi:nodetypes="cccccccccccccccccccccccccccccccccscccsccsccccccccccccccccccccccccccccccccccccccccccc"
           inkscape:connector-curvature="0"
           id="path4719"
           d="m -148.03588,705.28465 0.002,-0.0117 0,0.0117 z m 0.002,-0.0117 0,-0.0273 -0.002,0 0,-2.03711 0,-0.11719 0.002,0 0,-0.0606 c 5.8e-4,-3e-5 0.001,4e-5 0.002,0 l 0,-0.0371 c 0.0703,-0.004 0.21339,-0.0387 0.33984,-0.0664 0.53779,-0.25137 1.20138,-0.99214 1.60157,-2.13086 0.0231,-0.0694 0.0476,-0.13287 0.0703,-0.20508 l 0.004,0 c 0.002,-0.008 0.006,-0.0158 0.008,-0.0234 0.10335,-0.35082 0.20274,-0.73712 0.29883,-1.15039 0.1412,-0.60477 0.26914,-1.29761 0.39257,-2.02539 0.0515,-0.30516 0.10628,-0.60091 0.1543,-0.92578 3e-4,-0.002 -3e-4,-0.004 0,-0.006 4.8e-4,-0.003 0.001,-0.007 0.002,-0.01 0.0799,-0.54141 0.15516,-1.10903 0.22461,-1.70117 0.0183,-0.15654 0.0351,-0.31852 0.0527,-0.47852 0.0176,-0.16211 0.0357,-0.3236 0.0527,-0.48828 0.0297,-0.28776 0.0509,-0.60503 0.0781,-0.90235 0.0586,-0.63585 0.11361,-1.28056 0.16015,-1.95703 0.0541,-0.79003 0.10428,-1.59689 0.14063,-2.43554 0.0135,-0.31167 0.0243,-0.62392 0.0352,-0.94141 0.011,-0.3177 0.021,-0.63778 0.0293,-0.96094 0.008,-0.32317 0.0161,-0.64655 0.0215,-0.97461 0.005,-0.32825 0.009,-0.66119 0.0117,-0.99414 0.004,-0.33297 0.006,-0.66659 0.006,-1.0039 l 0,-14.4043 3.34871,-4.01258 3.3487,4.01258 0,14.4043 c 0,0.33731 0.002,0.67093 0.006,1.0039 0.003,0.33295 0.007,0.66589 0.0117,0.99414 0.005,0.32806 0.0135,0.65144 0.0215,0.97461 0.008,0.32316 0.0163,0.64324 0.0274,0.96094 0.0109,0.31749 0.0236,0.62974 0.0371,0.94141 0.0363,0.83865 0.0866,1.64551 0.14063,2.43554 0.0465,0.67647 0.10159,1.32118 0.16016,1.95703 0.0272,0.29732 0.0485,0.61459 0.0781,0.90235 0.017,0.16468 0.0351,0.32617 0.0527,0.48828 0.0176,0.16 0.0344,0.32198 0.0527,0.47852 0.0699,0.59556 0.14619,1.1667 0.22656,1.71093 0.0483,0.32699 0.10248,0.6246 0.1543,0.93164 0.12343,0.72778 0.25138,1.42062 0.39258,2.02539 0.0961,0.41327 0.19547,0.79957 0.29883,1.15039 0.002,0.007 0.004,0.0162 0.006,0.0234 6e-5,1.8e-4 0.002,-1.7e-4 0.002,0 l 0.004,0 c 0.0251,0.0796 0.0506,0.15039 0.0762,0.22656 0.40105,1.12664 1.0613,1.85959 1.5957,2.10938 0.12645,0.0277 0.26952,0.0629 0.33984,0.0664 l 0,0.0371 c 5.8e-4,4e-5 10e-4,-3e-5 0.002,0 l 0,0.0606 0.002,0 0,0.11719 0,2.03711 -0.002,0 0,0.0273 -0.002,0 -0.002,-0.0273 -3.14258,0 -0.002,0 -2.96875,0 -0.004,0 -1.82617,0 -0.004,0 -2.96875,0 -0.004,0 -3.14063,0 -0.002,0.0273 -0.002,0 z m 14.06836,0 0.002,0.0117 -0.002,0 z"
           style="opacity:1;fill:#000000;fill-opacity:1;stroke:none;stroke-width:2.14858222;stroke-linecap:square;stroke-linejoin:miter;stroke-miterlimit:4;stroke-dasharray:none;stroke-opacity:1" />
      </g>
      <g
         id="g4721"
         transform="matrix(-0.38268343,-0.92387953,0.92387953,-0.38268343,-799.30741,914.1769)">
        <path
           sodipodi:nodetypes="cccccccccccccccccccccccccccccccccscccsccsccccccccccccccccccccccccccccccccccccccccccc"
           inkscape:connector-curvature="0"
           id="path4723"
           d="m -148.03588,602.78016 0.002,0.0117 0,-0.0117 z m 0.002,0.0117 0,0.0273 -0.002,0 0,2.03711 0,0.11719 0.002,0 0,0.0606 c 5.8e-4,3e-5 0.001,-4e-5 0.002,0 l 0,0.0371 c 0.0703,0.004 0.21339,0.0387 0.33984,0.0664 0.53779,0.25137 1.20138,0.99214 1.60157,2.13086 0.0231,0.0694 0.0476,0.13287 0.0703,0.20508 l 0.004,0 c 0.002,0.008 0.006,0.0158 0.008,0.0234 0.10335,0.35082 0.20274,0.73712 0.29883,1.15039 0.1412,0.60477 0.26914,1.29761 0.39257,2.02539 0.0515,0.30516 0.10628,0.60091 0.1543,0.92578 3e-4,0.002 -3e-4,0.004 0,0.006 4.8e-4,0.003 0.001,0.007 0.002,0.01 0.0799,0.54141 0.15516,1.10903 0.22461,1.70117 0.0183,0.15654 0.0351,0.31852 0.0527,0.47852 0.0176,0.16211 0.0357,0.3236 0.0527,0.48828 0.0297,0.28776 0.0509,0.60503 0.0781,0.90235 0.0586,0.63585 0.11361,1.28056 0.16015,1.95703 0.0541,0.79003 0.10428,1.59689 0.14063,2.43554 0.0135,0.31167 0.0243,0.62392 0.0352,0.94141 0.011,0.3177 0.021,0.63778 0.0293,0.96094 0.008,0.32317 0.0161,0.64655 0.0215,0.97461 0.005,0.32825 0.009,0.66119 0.0117,0.99414 0.004,0.33297 0.006,0.66659 0.006,1.0039 l 0,14.4043 3.34871,4.01258 3.3487,-4.01258 0,-14.4043 c 0,-0.33731 0.002,-0.67093 0.006,-1.0039 0.003,-0.33295 0.007,-0.66589 0.0117,-0.99414 0.005,-0.32806 0.0135,-0.65144 0.0215,-0.97461 0.008,-0.32316 0.0163,-0.64324 0.0274,-0.96094 0.0109,-0.31749 0.0236,-0.62974 0.0371,-0.94141 0.0363,-0.83865 0.0866,-1.64551 0.14063,-2.43554 0.0465,-0.67647 0.10159,-1.32118 0.16016,-1.95703 0.0272,-0.29732 0.0485,-0.61459 0.0781,-0.90235 0.017,-0.16468 0.0351,-0.32617 0.0527,-0.48828 0.0176,-0.16 0.0344,-0.32198 0.0527,-0.47852 0.0699,-0.59556 0.14619,-1.1667 0.22656,-1.71093 0.0483,-0.32699 0.10248,-0.6246 0.1543,-0.93164 0.12343,-0.72778 0.25138,-1.42062 0.39258,-2.02539 0.0961,-0.41327 0.19547,-0.79957 0.29883,-1.15039 0.002,-0.007 0.004,-0.0162 0.006,-0.0234 6e-5,-1.8e-4 0.002,1.7e-4 0.002,0 l 0.004,0 c 0.0251,-0.0796 0.0506,-0.15039 0.0762,-0.22656 0.40105,-1.12664 1.0613,-1.85959 1.5957,-2.10938 0.12645,-0.0277 0.26952,-0.0629 0.33984,-0.0664 l 0,-0.0371 c 5.8e-4,-4e-5 10e-4,3e-5 0.002,0 l 0,-0.0606 0.002,0 0,-0.11719 0,-2.03711 -0.002,0 0,-0.0273 -0.002,0 -0.002,0.0273 -3.14258,0 -0.002,0 -2.96875,0 -0.004,0 -1.82617,0 -0.004,0 -2.96875,0 -0.004,0 -3.14063,0 -0.002,-0.0273 -0.002,0 z m 14.06836,0 0.002,-0.0117 -0.002,0 z"
           style="opacity:1;fill:#000000;fill-opacity:1;stroke:none;stroke-width:2.14858222;stroke-linecap:square;stroke-linejoin:miter;stroke-miterlimit:4;stroke-dasharray:none;stroke-opacity:1" />
        <path
           style="opacity:1;fill:#000000;fill-opacity:1;stroke:none;stroke-width:2.14858222;stroke-linecap:square;stroke-linejoin:miter;stroke-miterlimit:4;stroke-dasharray:none;stroke-opacity:1"
           d="m -148.03588,705.28465 0.002,-0.0117 0,0.0117 z m 0.002,-0.0117 0,-0.0273 -0.002,0 0,-2.03711 0,-0.11719 0.002,0 0,-0.0606 c 5.8e-4,-3e-5 0.001,4e-5 0.002,0 l 0,-0.0371 c 0.0703,-0.004 0.21339,-0.0387 0.33984,-0.0664 0.53779,-0.25137 1.20138,-0.99214 1.60157,-2.13086 0.0231,-0.0694 0.0476,-0.13287 0.0703,-0.20508 l 0.004,0 c 0.002,-0.008 0.006,-0.0158 0.008,-0.0234 0.10335,-0.35082 0.20274,-0.73712 0.29883,-1.15039 0.1412,-0.60477 0.26914,-1.29761 0.39257,-2.02539 0.0515,-0.30516 0.10628,-0.60091 0.1543,-0.92578 3e-4,-0.002 -3e-4,-0.004 0,-0.006 4.8e-4,-0.003 0.001,-0.007 0.002,-0.01 0.0799,-0.54141 0.15516,-1.10903 0.22461,-1.70117 0.0183,-0.15654 0.0351,-0.31852 0.0527,-0.47852 0.0176,-0.16211 0.0357,-0.3236 0.0527,-0.48828 0.0297,-0.28776 0.0509,-0.60503 0.0781,-0.90235 0.0586,-0.63585 0.11361,-1.28056 0.16015,-1.95703 0.0541,-0.79003 0.10428,-1.59689 0.14063,-2.43554 0.0135,-0.31167 0.0243,-0.62392 0.0352,-0.94141 0.011,-0.3177 0.021,-0.63778 0.0293,-0.96094 0.008,-0.32317 0.0161,-0.64655 0.0215,-0.97461 0.005,-0.32825 0.009,-0.66119 0.0117,-0.99414 0.004,-0.33297 0.006,-0.66659 0.006,-1.0039 l 0,-14.4043 3.34871,-4.01258 3.3487,4.01258 0,14.4043 c 0,0.33731 0.002,0.67093 0.006,1.0039 0.003,0.33295 0.007,0.66589 0.0117,0.99414 0.005,0.32806 0.0135,0.65144 0.0215,0.97461 0.008,0.32316 0.0163,0.64324 0.0274,0.96094 0.0109,0.31749 0.0236,0.62974 0.0371,0.94141 0.0363,0.83865 0.0866,1.64551 0.14063,2.43554 0.0465,0.67647 0.10159,1.32118 0.16016,1.95703 0.0272,0.29732 0.0485,0.61459 0.0781,0.90235 0.017,0.16468 0.0351,0.32617 0.0527,0.48828 0.0176,0.16 0.0344,0.32198 0.0527,0.47852 0.0699,0.59556 0.14619,1.1667 0.22656,1.71093 0.0483,0.32699 0.10248,0.6246 0.1543,0.93164 0.12343,0.72778 0.25138,1.42062 0.39258,2.02539 0.0961,0.41327 0.19547,0.79957 0.29883,1.15039 0.002,0.007 0.004,0.0162 0.006,0.0234 6e-5,1.8e-4 0.002,-1.7e-4 0.002,0 l 0.004,0 c 0.0251,0.0796 0.0506,0.15039 0.0762,0.22656 0.40105,1.12664 1.0613,1.85959 1.5957,2.10938 0.12645,0.0277 0.26952,0.0629 0.33984,0.0664 l 0,0.0371 c 5.8e-4,4e-5 10e-4,-3e-5 0.002,0 l 0,0.0606 0.002,0 0,0.11719 0,2.03711 -0.002,0 0,0.0273 -0.002,0 -0.002,-0.0273 -3.14258,0 -0.002,0 -2.96875,0 -0.004,0 -1.82617,0 -0.004,0 -2.96875,0 -0.004,0 -3.14063,0 -0.002,0.0273 -0.002,0 z m 14.06836,0 0.002,0.0117 -0.002,0 z"
           id="path4725"
           inkscape:connector-curvature="0"
           sodipodi:nodetypes="cccccccccccccccccccccccccccccccccscccsccsccccccccccccccccccccccccccccccccccccccccccc" />
      </g>
      <g
         transform="matrix(-0.92387953,-0.38268343,0.38268343,-0.92387953,-521.65594,1344.4451)"
         id="g4727">
        <path
           style="opacity:1;fill:#000000;fill-opacity:1;stroke:none;stroke-width:2.14858222;stroke-linecap:square;stroke-linejoin:miter;stroke-miterlimit:4;stroke-dasharray:none;stroke-opacity:1"
           d="m -148.03588,602.78016 0.002,0.0117 0,-0.0117 z m 0.002,0.0117 0,0.0273 -0.002,0 0,2.03711 0,0.11719 0.002,0 0,0.0606 c 5.8e-4,3e-5 0.001,-4e-5 0.002,0 l 0,0.0371 c 0.0703,0.004 0.21339,0.0387 0.33984,0.0664 0.53779,0.25137 1.20138,0.99214 1.60157,2.13086 0.0231,0.0694 0.0476,0.13287 0.0703,0.20508 l 0.004,0 c 0.002,0.008 0.006,0.0158 0.008,0.0234 0.10335,0.35082 0.20274,0.73712 0.29883,1.15039 0.1412,0.60477 0.26914,1.29761 0.39257,2.02539 0.0515,0.30516 0.10628,0.60091 0.1543,0.92578 3e-4,0.002 -3e-4,0.004 0,0.006 4.8e-4,0.003 0.001,0.007 0.002,0.01 0.0799,0.54141 0.15516,1.10903 0.22461,1.70117 0.0183,0.15654 0.0351,0.31852 0.0527,0.47852 0.0176,0.16211 0.0357,0.3236 0.0527,0.48828 0.0297,0.28776 0.0509,0.60503 0.0781,0.90235 0.0586,0.63585 0.11361,1.28056 0.16015,1.95703 0.0541,0.79003 0.10428,1.59689 0.14063,2.43554 0.0135,0.31167 0.0243,0.62392 0.0352,0.94141 0.011,0.3177 0.021,0.63778 0.0293,0.96094 0.008,0.32317 0.0161,0.64655 0.0215,0.97461 0.005,0.32825 0.009,0.66119 0.0117,0.99414 0.004,0.33297 0.006,0.66659 0.006,1.0039 l 0,14.4043 3.34871,4.01258 3.3487,-4.01258 0,-14.4043 c 0,-0.33731 0.002,-0.67093 0.006,-1.0039 0.003,-0.33295 0.007,-0.66589 0.0117,-0.99414 0.005,-0.32806 0.0135,-0.65144 0.0215,-0.97461 0.008,-0.32316 0.0163,-0.64324 0.0274,-0.96094 0.0109,-0.31749 0.0236,-0.62974 0.0371,-0.94141 0.0363,-0.83865 0.0866,-1.64551 0.14063,-2.43554 0.0465,-0.67647 0.10159,-1.32118 0.16016,-1.95703 0.0272,-0.29732 0.0485,-0.61459 0.0781,-0.90235 0.017,-0.16468 0.0351,-0.32617 0.0527,-0.48828 0.0176,-0.16 0.0344,-0.32198 0.0527,-0.47852 0.0699,-0.59556 0.14619,-1.1667 0.22656,-1.71093 0.0483,-0.32699 0.10248,-0.6246 0.1543,-0.93164 0.12343,-0.72778 0.25138,-1.42062 0.39258,-2.02539 0.0961,-0.41327 0.19547,-0.79957 0.29883,-1.15039 0.002,-0.007 0.004,-0.0162 0.006,-0.0234 6e-5,-1.8e-4 0.002,1.7e-4 0.002,0 l 0.004,0 c 0.0251,-0.0796 0.0506,-0.15039 0.0762,-0.22656 0.40105,-1.12664 1.0613,-1.85959 1.5957,-2.10938 0.12645,-0.0277 0.26952,-0.0629 0.33984,-0.0664 l 0,-0.0371 c 5.8e-4,-4e-5 10e-4,3e-5 0.002,0 l 0,-0.0606 0.002,0 0,-0.11719 0,-2.03711 -0.002,0 0,-0.0273 -0.002,0 -0.002,0.0273 -3.14258,0 -0.002,0 -2.96875,0 -0.004,0 -1.82617,0 -0.004,0 -2.96875,0 -0.004,0 -3.14063,0 -0.002,-0.0273 -0.002,0 z m 14.06836,0 0.002,-0.0117 -0.002,0 z"
           id="path4729"
           inkscape:connector-curvature="0"
           sodipodi:nodetypes="cccccccccccccccccccccccccccccccccscccsccsccccccccccccccccccccccccccccccccccccccccccc" />
        <path
           sodipodi:nodetypes="cccccccccccccccccccccccccccccccccscccsccsccccccccccccccccccccccccccccccccccccccccccc"
           inkscape:connector-curvature="0"
           id="path4731"
           d="m -148.03588,705.28465 0.002,-0.0117 0,0.0117 z m 0.002,-0.0117 0,-0.0273 -0.002,0 0,-2.03711 0,-0.11719 0.002,0 0,-0.0606 c 5.8e-4,-3e-5 0.001,4e-5 0.002,0 l 0,-0.0371 c 0.0703,-0.004 0.21339,-0.0387 0.33984,-0.0664 0.53779,-0.25137 1.20138,-0.99214 1.60157,-2.13086 0.0231,-0.0694 0.0476,-0.13287 0.0703,-0.20508 l 0.004,0 c 0.002,-0.008 0.006,-0.0158 0.008,-0.0234 0.10335,-0.35082 0.20274,-0.73712 0.29883,-1.15039 0.1412,-0.60477 0.26914,-1.29761 0.39257,-2.02539 0.0515,-0.30516 0.10628,-0.60091 0.1543,-0.92578 3e-4,-0.002 -3e-4,-0.004 0,-0.006 4.8e-4,-0.003 0.001,-0.007 0.002,-0.01 0.0799,-0.54141 0.15516,-1.10903 0.22461,-1.70117 0.0183,-0.15654 0.0351,-0.31852 0.0527,-0.47852 0.0176,-0.16211 0.0357,-0.3236 0.0527,-0.48828 0.0297,-0.28776 0.0509,-0.60503 0.0781,-0.90235 0.0586,-0.63585 0.11361,-1.28056 0.16015,-1.95703 0.0541,-0.79003 0.10428,-1.59689 0.14063,-2.43554 0.0135,-0.31167 0.0243,-0.62392 0.0352,-0.94141 0.011,-0.3177 0.021,-0.63778 0.0293,-0.96094 0.008,-0.32317 0.0161,-0.64655 0.0215,-0.97461 0.005,-0.32825 0.009,-0.66119 0.0117,-0.99414 0.004,-0.33297 0.006,-0.66659 0.006,-1.0039 l 0,-14.4043 3.34871,-4.01258 3.3487,4.01258 0,14.4043 c 0,0.33731 0.002,0.67093 0.006,1.0039 0.003,0.33295 0.007,0.66589 0.0117,0.99414 0.005,0.32806 0.0135,0.65144 0.0215,0.97461 0.008,0.32316 0.0163,0.64324 0.0274,0.96094 0.0109,0.31749 0.0236,0.62974 0.0371,0.94141 0.0363,0.83865 0.0866,1.64551 0.14063,2.43554 0.0465,0.67647 0.10159,1.32118 0.16016,1.95703 0.0272,0.29732 0.0485,0.61459 0.0781,0.90235 0.017,0.16468 0.0351,0.32617 0.0527,0.48828 0.0176,0.16 0.0344,0.32198 0.0527,0.47852 0.0699,0.59556 0.14619,1.1667 0.22656,1.71093 0.0483,0.32699 0.10248,0.6246 0.1543,0.93164 0.12343,0.72778 0.25138,1.42062 0.39258,2.02539 0.0961,0.41327 0.19547,0.79957 0.29883,1.15039 0.002,0.007 0.004,0.0162 0.006,0.0234 6e-5,1.8e-4 0.002,-1.7e-4 0.002,0 l 0.004,0 c 0.0251,0.0796 0.0506,0.15039 0.0762,0.22656 0.40105,1.12664 1.0613,1.85959 1.5957,2.10938 0.12645,0.0277 0.26952,0.0629 0.33984,0.0664 l 0,0.0371 c 5.8e-4,4e-5 10e-4,-3e-5 0.002,0 l 0,0.0606 0.002,0 0,0.11719 0,2.03711 -0.002,0 0,0.0273 -0.002,0 -0.002,-0.0273 -3.14258,0 -0.002,0 -2.96875,0 -0.004,0 -1.82617,0 -0.004,0 -2.96875,0 -0.004,0 -3.14063,0 -0.002,0.0273 -0.002,0 z m 14.06836,0 0.002,0.0117 -0.002,0 z"
           style="opacity:1;fill:#000000;fill-opacity:1;stroke:none;stroke-width:2.14858222;stroke-linecap:square;stroke-linejoin:miter;stroke-miterlimit:4;stroke-dasharray:none;stroke-opacity:1" />
      </g>
    </g>
    <text
       sodipodi:linespacing="125%"
       id="text4788"
       y="919.76038"
       x="589.97632"
       style="font-style:normal;font-weight:normal;font-size:40px;line-height:125%;font-family:sans-serif;letter-spacing:0px;word-spacing:0px;fill:#000000;fill-opacity:1;stroke:none;stroke-width:1px;stroke-linecap:butt;stroke-linejoin:miter;stroke-opacity:1"
       xml:space="preserve"><tspan
         style="font-style:normal;font-variant:normal;font-weight:normal;font-stretch:normal;font-size:13.75px;font-family:'Roboto Condensed';-inkscape-font-specification:'Roboto Condensed, ';text-align:center;text-anchor:middle"
         y="919.76038"
         x="589.97632"
         sodipodi:role="line"
         id="tspan4792">Missionaria Galaxia</tspan></text>
    <text
       xml:space="preserve"
       style="font-style:normal;font-weight:normal;font-size:40px;line-height:125%;font-family:sans-serif;letter-spacing:0px;word-spacing:0px;fill:#000000;fill-opacity:1;stroke:none;stroke-width:1px;stroke-linecap:butt;stroke-linejoin:miter;stroke-opacity:1"
       x="228.80588"
       y="919.76038"
       id="text4794"
       sodipodi:linespacing="125%"><tspan
         id="tspan4798"
         sodipodi:role="line"
         x="228.80588"
         y="919.76038"
         style="font-style:normal;font-variant:normal;font-weight:normal;font-stretch:normal;font-size:13.75px;font-family:'Roboto Condensed';-inkscape-font-specification:'Roboto Condensed, ';text-align:center;text-anchor:middle">Creed Temporal</tspan></text>
    <text
       sodipodi:linespacing="125%"
       id="text4800"
       y="919.76038"
       x="409.53943"
       style="font-style:normal;font-weight:normal;font-size:40px;line-height:125%;font-family:sans-serif;letter-spacing:0px;word-spacing:0px;fill:#000000;fill-opacity:1;stroke:none;stroke-width:1px;stroke-linecap:butt;stroke-linejoin:miter;stroke-opacity:1"
       xml:space="preserve"><tspan
         style="font-style:normal;font-variant:normal;font-weight:normal;font-stretch:normal;font-size:13.75px;font-family:'Roboto Condensed';-inkscape-font-specification:'Roboto Condensed, ';text-align:center;text-anchor:middle"
         y="919.76038"
         x="409.53943"
         sodipodi:role="line"
         id="tspan4804">Schola Progenium</tspan></text>
    <path
       style="opacity:1;fill:#000000;fill-opacity:1;stroke:none;stroke-width:6;stroke-linecap:square;stroke-linejoin:bevel;stroke-miterlimit:4;stroke-dasharray:none;stroke-opacity:1"
       d="m 409.39671,791.24487 -6.58612,12.50147 -1.09809,0 1.45378,4.00802 0.0263,0 0.70421,0.4273 0,27.60491 -3.66426,2.15559 0,-20.51988 -5.50237,-5.14429 -5.49998,5.14429 0,26.98665 -3.66425,2.15559 0,-21.80894 -5.50238,-5.14429 -5.49997,5.14429 0,28.2781 -3.66426,2.1532 0,-20.65356 -5.50237,-5.14429 -5.49998,5.14429 0,52.40972 12.59457,0 0,-6.35934 -0.005,0 0,-1.79036 c 0,-0.6025 0.0768,-1.25495 0.14322,-1.76887 0.59726,-4.54034 2.68934,-8.70236 5.81986,-11.34848 0.51297,-0.4336 1.26068,-0.96392 1.60655,-1.19119 l 0.35568,0.22917 c 0.67173,0.43257 1.9345,1.58373 2.69986,2.46114 2.62962,3.01459 4.18125,6.97446 4.46157,11.38668 0.002,2.0488 0.0208,5.37559 0.0358,8.38125 l 13.06006,0 c 0.002,-3.37599 0.005,-7.91382 0.005,-8.91119 l 0,-12.11476 -0.007,0 0,-1.79036 c 0,-0.60249 0.0881,-1.25495 0.16471,-1.76887 0.68812,-4.54034 3.10107,-8.70235 6.70787,-11.34848 0.59102,-0.43359 1.44918,-0.96391 1.84765,-1.19118 l 0.41059,0.22916 c 0.77395,0.43257 2.22863,1.58374 3.11045,2.46114 3.02968,3.01459 4.81655,6.97446 5.13952,11.38667 0.005,3.46273 0.0604,11.37214 0.0692,14.1653 l 0.007,8.88256 13.03379,0 0,-6.35933 -0.005,0 0,-1.79036 c 0,-0.6025 0.0768,-1.25495 0.14323,-1.76887 0.59726,-4.54034 2.69171,-8.70236 5.82224,-11.34848 0.51298,-0.4336 1.25831,-0.96392 1.60416,-1.19119 l 0.35569,0.22917 c 0.67174,0.43257 1.93448,1.58372 2.69985,2.46114 2.62961,3.01459 4.18126,6.97446 4.46157,11.38667 0.002,2.04881 0.0208,5.37559 0.0358,8.38125 l 12.62322,0 0,-52.40971 -5.50237,-5.14429 -5.49998,5.14429 0,20.71801 -3.66426,-2.13172 0,-28.36403 -5.50237,-5.14429 -5.49998,5.14429 0,21.96172 -3.66425,-2.13172 0,-27.1633 -5.50238,-5.14429 -5.49997,5.14429 0,20.76098 -3.66426,-2.13172 0,-27.87466 0.69943,-0.42252 0.031,0 1.45138,-4.00802 -1.10047,0 -6.58374,-12.50147 z"
       id="path4824"
       inkscape:connector-curvature="0" />
    <path
       sodipodi:nodetypes="cc"
       style="fill:none;fill-rule:evenodd;stroke:#000000;stroke-width:1px;stroke-linecap:butt;stroke-linejoin:miter;stroke-opacity:1"
       d="m 448.35497,681.06219 -41,0"
       id="path4433-9-2"
       inkscape:connector-curvature="0" />
    <a
       xlink:href="Holy Synod.svg"
       transform="translate(249.8715,18.950007)"
       id="a4228">
      <g
         id="g4223">
        <rect
           style="opacity:1;fill:#ffffff;fill-opacity:1;stroke:#000000;stroke-width:1;stroke-linecap:square;stroke-linejoin:miter;stroke-miterlimit:4;stroke-dasharray:none;stroke-opacity:1"
           id="rect4585"
           width="21"
           height="21"
           x="128.74414"
           y="651.61218" />
        <path
           style="fill:none;fill-rule:evenodd;stroke:#000000;stroke-width:1px;stroke-linecap:butt;stroke-linejoin:miter;stroke-opacity:1"
           d="m 143.23614,662.11221 -7.984,0"
           id="path4339-4-0"
           inkscape:connector-curvature="0" />
        <path
           inkscape:connector-curvature="0"
           id="path4350-7-1"
           d="m 139.24414,666.10421 0,-7.984"
           style="fill:none;fill-rule:evenodd;stroke:#000000;stroke-width:1px;stroke-linecap:butt;stroke-linejoin:miter;stroke-opacity:1" />
      </g>
    </a>
  </g>
</svg>
