<?xml version="1.0" encoding="UTF-8" standalone="no"?>
<!-- Created with Inkscape (http://www.inkscape.org/) -->

<svg
   xmlns:dc="http://purl.org/dc/elements/1.1/"
   xmlns:cc="http://creativecommons.org/ns#"
   xmlns:rdf="http://www.w3.org/1999/02/22-rdf-syntax-ns#"
   xmlns:svg="http://www.w3.org/2000/svg"
   xmlns="http://www.w3.org/2000/svg"
   xmlns:xlink="http://www.w3.org/1999/xlink"
   xmlns:sodipodi="http://sodipodi.sourceforge.net/DTD/sodipodi-0.dtd"
   xmlns:inkscape="http://www.inkscape.org/namespaces/inkscape"
   width="11in"
   height="8.5in"
   id="svg2"
   version="1.1"
   inkscape:version="0.91pre2_64bit r13532"
   viewBox="0 0 990 765.00002"
   sodipodi:docname="Adepta Sororitas.svg">
  <defs
     id="defs4">
    <pattern
       y="0"
       x="0"
       height="6"
       width="6"
       patternUnits="userSpaceOnUse"
       id="EMFhbasepattern" />
    <pattern
       y="0"
       x="0"
       height="6"
       width="6"
       patternUnits="userSpaceOnUse"
       id="EMFhbasepattern-4" />
    <pattern
       y="0"
       x="0"
       height="6"
       width="6"
       patternUnits="userSpaceOnUse"
       id="EMFhbasepattern-1" />
  </defs>
  <sodipodi:namedview
     id="base"
     pagecolor="#ffffff"
     bordercolor="#666666"
     borderopacity="1.0"
     inkscape:pageopacity="0.0"
     inkscape:pageshadow="2"
     inkscape:zoom="1"
     inkscape:cx="384.07437"
     inkscape:cy="396.64506"
     inkscape:document-units="px"
     inkscape:current-layer="layer1"
     showgrid="false"
     units="in"
     inkscape:window-width="1920"
     inkscape:window-height="1017"
     inkscape:window-x="1912"
     inkscape:window-y="-8"
     inkscape:window-maximized="1"
     inkscape:snap-global="false"
     inkscape:object-nodes="true"
     showguides="true" />
  <metadata
     id="metadata7">
    <rdf:RDF>
      <cc:Work
         rdf:about="">
        <dc:format>image/svg+xml</dc:format>
        <dc:type
           rdf:resource="http://purl.org/dc/dcmitype/StillImage" />
        <dc:title />
      </cc:Work>
    </rdf:RDF>
  </metadata>
  <g
     inkscape:label="Layer 1"
     inkscape:groupmode="layer"
     id="layer1"
     transform="translate(0,-287.36219)">
    <path
       style="fill:none;fill-rule:evenodd;stroke:#000000;stroke-width:1px;stroke-linecap:butt;stroke-linejoin:miter;stroke-opacity:1"
       d="m 495.00003,376.6629 0,-21"
       id="path4433-9"
       inkscape:connector-curvature="0" />
    <a
       xlink:href="Adeptus Ministorum.svg"
       id="a4156">
      <g
         id="g4150">
        <circle
           style="opacity:1;fill:#ffffff;fill-opacity:1;stroke:#000000;stroke-width:1;stroke-linecap:square;stroke-linejoin:miter;stroke-miterlimit:4;stroke-dasharray:none;stroke-opacity:1"
           id="path4327-6"
           cx="-494.99997"
           cy="-337.42352"
           r="11.727594"
           transform="scale(-1,-1)"
           d="m -483.27238,-337.42352 a 11.727594,11.727594 0 0 1 -11.72759,11.72759 11.727594,11.727594 0 0 1 -11.72759,-11.72759 11.727594,11.727594 0 0 1 11.72759,-11.7276 11.727594,11.727594 0 0 1 11.72759,11.7276 z" />
        <g
           id="g4189"
           transform="translate(-15.801351,1.4716355)">
          <path
             sodipodi:nodetypes="ccc"
             inkscape:connector-curvature="0"
             d="m 505.15578,336.28879 5.64554,-5.64554 5.64554,5.64554"
             style="fill:none;fill-rule:evenodd;stroke:#000000;stroke-width:1px;stroke-linecap:butt;stroke-linejoin:miter;stroke-opacity:1"
             id="path4176" />
          <path
             style="fill:none;fill-rule:evenodd;stroke:#000000;stroke-width:1;stroke-linecap:butt;stroke-linejoin:miter;stroke-miterlimit:4;stroke-dasharray:none;stroke-opacity:1"
             d="m 510.80132,341.96763 0,-11.32438"
             id="path4183"
             inkscape:connector-curvature="0"
             sodipodi:nodetypes="cc" />
        </g>
      </g>
    </a>
    <text
       sodipodi:linespacing="125%"
       id="text4201-1"
       y="402.16357"
       x="495.54062"
       style="font-style:normal;font-weight:normal;font-size:40px;line-height:125%;font-family:sans-serif;letter-spacing:0px;word-spacing:0px;fill:#000000;fill-opacity:1;stroke:none;stroke-width:1px;stroke-linecap:butt;stroke-linejoin:miter;stroke-opacity:1"
       xml:space="preserve"><tspan
         style="font-style:normal;font-variant:normal;font-weight:normal;font-stretch:normal;font-size:13.75px;font-family:'Roboto Condensed';-inkscape-font-specification:'Roboto Condensed, ';text-align:center;text-anchor:middle"
         y="402.16357"
         x="495.54062"
         id="tspan4203-0"
         sodipodi:role="line">Adepta Sororitas</tspan></text>
    <path
       style="fill:#000000"
       d="m 224.82873,438.53519 c -1.89536,0.002 -3.12391,0.0163 -4.07658,0.0628 -1.21751,0.0686 -2.00945,0.209 -3.37585,0.50228 -10.10667,2.16921 -18.45907,7.78361 -24.12538,16.21551 -10.02084,14.91178 -8.12494,35.26303 4.46788,47.96259 3.3723,3.40088 6.78356,5.84279 10.84957,7.76635 1.57521,0.74521 4.29796,1.76492 6.00612,2.29392 0.0746,0.0195 0.14971,0.0405 0.22424,0.0595 l 1.13125,0.28701 c 0.0266,0.002 0.0601,0.007 0.0807,0.007 0.0237,0 0.0457,0.0114 0.0661,0.0291 l 0.25449,0.0651 0,8.27873 0,0.0482 0,8.32581 0,0.002 -6.08123,-0.074 -1.90037,-0.0225 c -0.30515,-0.004 -0.44799,-0.007 -0.73101,-0.0112 -0.9347,-0.0118 -1.7969,-0.0239 -2.54394,-0.037 -2.94241,-0.0489 -4.37921,-0.1098 -5.29081,-0.259 -1.35415,-0.17997 -2.1147,-0.48343 -3.32203,-1.03485 -3.40345,-1.55442 -5.72901,-4.65716 -6.78197,-9.04897 -0.20855,-0.86985 -0.38036,-1.91284 -0.40698,-2.43854 -0.0641,-0.33344 -0.13216,-0.64441 -0.19844,-0.90478 l -2.17059,0 c -0.0477,0.40545 -0.0823,1.06463 -0.10764,2.1986 -0.0273,3.56645 -0.0384,9.12775 -0.046,17.87821 l -0.0213,24.58168 1.26804,0 1.20638,0 0.0651,-0.84537 9.6e-4,-0.26459 c 0.007,-2.34792 0.6652,-4.54166 1.84657,-6.41311 0.70919,-1.1645 1.6213,-2.17816 2.73229,-3.03612 1.12978,-0.89906 2.44055,-1.62542 3.90056,-2.13807 0.76579,-0.30027 1.52251,-0.51431 2.4307,-0.66822 1.74207,-0.31898 3.9871,-0.37666 9.13419,-0.37784 l 6.97929,-9.6e-4 0.0381,0 0.028,0 -0.0291,2.92401 -0.002,4.95222 c -0.004,8.63906 -0.11491,9.72622 -1.23216,12.08734 -0.80762,1.70679 -1.94693,3.0843 -3.4846,4.21336 -2.02305,1.80245 -4.08478,2.55338 -8.01975,3.00922 l -0.4821,0.0561 c -0.27206,0.0948 -0.31056,0.32149 -0.31056,1.20189 l 0,1.15929 22.09717,0 0.21077,0 22.09717,0 0,-1.15929 c 0,-0.88048 -0.0385,-1.10697 -0.31056,-1.20189 l -0.48211,-0.0561 c -3.93496,-0.45584 -5.99669,-1.20677 -8.01974,-3.00922 -1.53767,-1.12906 -2.67696,-2.50657 -3.48459,-4.21336 -1.11724,-2.36112 -1.22816,-3.44828 -1.23218,-12.08734 l -0.002,-4.98024 -0.0291,-2.89599 0.028,0 0.0369,0 6.98041,9.6e-4 c 5.14664,9.7e-4 7.39103,0.0589 9.13306,0.37784 0.90842,0.15392 1.66589,0.3679 2.43182,0.66822 1.46001,0.51265 2.77078,1.23901 3.90055,2.13807 1.11574,0.86162 2.03191,1.87994 2.74239,3.05071 0.002,0.004 0.005,0.006 0.006,0.0105 1.17134,1.86589 1.82201,4.05111 1.82975,6.38844 l 9.6e-4,0.2646 0.0651,0.84536 1.20639,0 0.0313,0 1.23776,0 -0.0213,-24.58169 c -0.007,-8.76983 -0.0195,-14.33447 -0.047,-17.8995 -0.0253,-1.12135 -0.0601,-1.77449 -0.10763,-2.17731 l -2.16946,0 c -0.0665,0.26016 -0.13539,0.57043 -0.19959,0.90367 -0.0265,0.52542 -0.1983,1.56935 -0.40697,2.43966 -1.05296,4.3918 -3.37851,7.49454 -6.78197,9.04897 -1.20731,0.55141 -1.96788,0.85487 -3.32202,1.03484 -0.91149,0.14919 -2.34807,0.2101 -5.2897,0.259 -0.74764,0.0131 -1.61051,0.0252 -2.54617,0.037 -0.28259,0.004 -0.42526,0.007 -0.72988,0.0112 l -1.90039,0.0225 -6.08124,0.0741 0,-0.002 0,-8.32582 0,-0.0482 0,-8.27984 0.25452,-0.0639 c 0.0204,-0.0178 0.0423,-0.0291 0.0661,-0.0291 0.0205,0 0.0543,-0.006 0.0807,-0.008 l 1.13127,-0.28588 c 0.0745,-0.0189 0.14964,-0.04 0.22423,-0.0595 1.70816,-0.529 4.43091,-1.54871 6.00611,-2.29391 4.06601,-1.92357 7.4784,-4.36548 10.8507,-7.76636 12.59281,-12.69956 14.4876,-33.05081 4.46675,-47.96259 -5.6663,-8.43189 -14.0187,-14.0463 -24.12536,-16.21551 -1.36764,-0.29352 -2.15985,-0.43376 -3.37922,-0.50228 -0.95221,-0.0464 -2.18021,-0.0608 -4.07321,-0.0628 -0.0995,5e-5 -0.17466,0 -0.27805,0 -0.0246,10e-6 -0.043,0 -0.0673,0 z m 0.89692,6.83352 c 0.45717,-0.007 0.87409,-9.6e-4 1.24338,0.0236 2.22133,0.14972 3.42853,0.34558 6.79655,1.57972 8.75967,3.2098 14.03163,8.43812 15.51589,15.38136 1.06876,4.99959 0.84129,14.697 -0.43277,18.37824 -1.02704,2.96736 -1.11214,3.06291 -1.17164,1.33195 -0.0352,-1.02547 -0.56939,-2.91586 -1.18843,-4.19991 -0.91118,-1.89005 -1.02014,-2.6954 -0.56955,-4.2313 0.76305,-2.60092 0.23385,-2.83089 -0.8577,-0.37223 -0.84177,1.89609 -0.82639,2.16663 0.27469,4.5755 0.64363,1.40811 1.1705,3.26463 1.1705,4.12592 0,2.87171 0.67659,4.8578 1.76583,5.18317 1.62106,0.48424 1.30105,2.53506 -0.8005,5.12824 -2.13741,2.63741 -3.88165,3.62139 -6.43776,3.63259 -1.63948,0.006 -1.86916,0.22603 -2.6583,2.53833 -0.47497,1.39172 -0.94225,3.11588 -1.0371,3.83104 -0.0771,0.58106 -0.30404,0.97889 -0.7635,1.27365 -0.0535,0.14393 -0.0907,0.27593 -0.0931,0.38007 -0.0136,0.55677 -0.48833,0.78708 -1.11108,0.78708 -0.61497,0 -0.88012,-0.22122 -0.88012,-0.73437 0,-1.10315 -1.08354,-0.88464 -1.28934,0.26011 -0.13031,0.72486 -0.54745,1.01287 -1.25235,1.06062 -0.75581,0.0513 -1.05585,-0.16807 -1.37456,-0.99672 -0.50434,-1.31126 -1.47321,-1.18645 -1.47321,0.18949 0,0.73168 -0.25883,0.93957 -0.92833,1.03147 -2.10231,0.11312 -2.27469,0.27609 -2.31074,-0.65476 -0.11678,-0.9993 -0.77963,-1.6575 -1.3768,-1.10099 -0.20635,0.19231 -0.29299,0.72454 -0.37671,1.17162 -0.15928,0.85017 -0.18195,0.7285 -2.41501,0.61888 -0.44567,-0.0643 -0.73324,-0.44237 -0.73324,-1.06174 0,-1.37998 -0.96806,-1.50745 -1.47323,-0.19397 -0.31868,0.82865 -0.61873,0.98184 -1.37455,0.93058 -0.70489,-0.0478 -1.15119,-0.26962 -1.2815,-0.99448 -0.20577,-1.14475 -1.28822,-1.36326 -1.28822,-0.26011 0,0.51315 -0.26513,0.73437 -0.88013,0.73437 -0.59833,0 -1.09313,-0.21398 -1.09313,-0.66822 0,-0.11756 -0.0554,-0.29202 -0.13678,-0.48995 -0.64215,-0.43295 -0.99887,-1.18686 -0.62899,-1.75016 0.54656,-0.83229 -1.84181,-5.62872 -2.88925,-5.80205 -4.05866,-0.67167 -5.21438,-1.25423 -6.77748,-3.42294 -2.52015,-3.49653 -2.60479,-3.9444 -1.04381,-5.52963 1.16107,-1.17907 1.39673,-1.95973 1.40706,-4.66742 0.007,-2.08318 0.4153,-4.08915 1.13464,-5.58119 0.93169,-1.93253 1.02441,-2.67703 0.53928,-4.37258 -0.77945,-2.72432 -1.70113,-3.19037 -1.06848,-0.5404 0.38101,1.59596 0.23521,2.77433 -0.62897,5.13832 -0.61695,1.68769 -1.14618,3.81155 -1.17724,4.7179 -0.0479,1.39552 -0.21831,1.1776 -1.10996,-1.41716 -1.27333,-3.70544 -1.40023,-5.8284 -0.80724,-13.44846 0.60999,-7.83878 2.1532,-11.17622 6.99723,-15.12572 4.64512,-3.78731 10.51669,-5.99195 16.8613,-6.33125 0.52941,-0.0283 1.02727,-0.0489 1.48443,-0.0561 z m -15.66387,31.70561 c -0.40415,0.004 -0.78396,0.0403 -1.0797,0.13343 -0.75008,0.23625 -1.52927,1.12341 -1.52927,1.12341 -1.22496,1.41244 -1.4389,2.08453 -1.16715,3.66287 0.28238,1.63995 0.7604,2.15729 3.15385,3.4106 2.44413,1.27982 3.2388,1.4379 5.93549,1.17386 2.57902,-0.25249 3.38017,-0.59509 4.66968,-1.99119 1.69858,-1.83901 1.81886,-2.33828 1.03148,-4.28736 -0.38339,-0.94907 -1.15003,-1.23501 -2.68857,-1.6627 -1.1899,-0.33078 -3.68722,-0.81753 -5.68658,-1.27814 0,0 -1.42684,-0.29448 -2.63923,-0.28478 z m 30.16399,0.26012 c -0.80769,0.0219 -2.1881,0.0519 -4.87599,0.50004 -3.02668,0.50473 -5.3343,1.10091 -5.76953,1.71876 -1.62002,2.29959 1.05649,6.58802 4.37481,6.91762 1.14374,0.11358 2.48064,0.24893 2.96997,0.29824 0.48933,0.0493 2.07222,-0.29162 3.51936,-0.75567 2.31086,-0.74106 2.67764,-1.06983 3.00362,-2.7054 0.36407,-1.82643 -0.0375,-2.99828 -1.78154,-5.20447 -0.39745,-0.50278 -0.9967,-0.78123 -1.4407,-0.76912 z m -14.21534,8.27761 c -0.26973,-0.0226 -0.58703,0.006 -0.99,0.0628 -1.33227,0.18401 -2.08611,0.77901 -3.1516,2.49012 -1.40768,2.26068 -1.67401,3.80022 -1.0427,6.01733 0.41246,1.44847 2.31635,1.60291 3.35007,0.27243 0.68249,-0.87842 0.77373,-0.87842 1.80509,0 3.36475,2.86587 4.83189,-1.51022 2.16609,-6.4613 -0.95141,-1.76703 -1.3278,-2.31319 -2.13695,-2.38137 z"
       id="path4228"
       inkscape:connector-curvature="0" />
    <path
       style="fill:#000000"
       d="m 506.19162,769.73537 c -0.14144,0.006 -0.28613,0.006 -0.43698,-0.004 -1.00562,-0.0612 -2.28099,-0.48903 -4.6491,-1.43727 -2.46894,-0.98861 -5.03513,-1.79659 -5.70271,-1.79659 -0.6676,0 -3.29283,0.6637 -5.83485,1.47552 -2.54204,0.81183 -5.48087,1.47948 -6.53031,1.48364 -5.17244,0.0206 -11.35449,-10.46736 -9.70043,-16.4579 0.32222,-1.16695 3.05022,-5.83581 6.06089,-10.375 4.71751,-7.1126 5.64243,-8.20033 6.69721,-7.86674 0.67316,0.2129 2.34479,0.67365 3.71489,1.02348 2.8419,0.72564 2.72499,0.3093 3.67314,13.06756 0.26101,3.512 0.65412,6.56431 0.87397,6.78415 0.94081,0.94082 1.43743,-1.21202 2.14662,-9.30632 0.41437,-4.72942 0.87254,-8.9084 1.01768,-9.28663 0.14514,-0.37822 1.38089,-0.97949 2.74588,-1.33526 1.365,-0.35579 2.88218,-0.91273 3.37179,-1.23792 1.34375,-0.89248 1.79099,-0.75373 3.17823,0.98639 0.69976,0.87778 3.50431,4.54977 6.2324,8.15999 l 4.96091,6.56508 -0.2747,3.90844 c -0.47288,6.72765 -5.12503,13.68989 -10.28459,15.3927 -0.44087,0.14549 -0.8356,0.23572 -1.25994,0.25616 z m 24.19134,-1.59838 c -0.18448,-0.0918 -2.80919,-1.43842 -5.83369,-2.99161 l -5.49987,-2.82354 0.9319,-1.80122 c 0.51237,-0.99081 1.08907,-3.12648 1.2808,-4.74532 l 0.34772,-2.94291 3.92236,0.37901 c 2.15721,0.20856 4.09379,0.54611 4.30369,0.74993 0.47282,0.4591 1.0111,14.40665 0.54709,14.17566 z m -72.24716,-1.24951 c -0.11755,-0.11754 0.16148,-2.05531 0.62012,-4.30716 0.45864,-2.25185 1.01045,-5.09537 1.22515,-6.31935 0.38409,-2.1897 0.43455,-2.22636 3.1817,-2.28457 1.53561,-0.0325 3.45988,-0.27301 4.27588,-0.53435 0.816,-0.26132 1.63024,-0.50179 1.80934,-0.53433 0.17911,-0.0325 0.31387,0.94233 0.29905,2.16634 -0.0149,1.224 0.18463,3.22958 0.44393,4.45785 0.39526,1.87223 0.29867,2.29353 -0.59577,2.60447 -0.58679,0.204 -3.31201,1.40475 -6.05624,2.66823 -2.74426,1.26348 -5.08567,2.20037 -5.20316,2.08287 z m 4.25849,-16.75462 c -3.87777,-0.0364 -5.4336,-0.35275 -8.49147,-1.7282 -4.59234,-2.06564 -5.18061,-3.10288 -5.72243,-10.09566 -0.35587,-4.59298 -0.78703,-6.14788 -3.07738,-11.09595 -1.69756,-3.66739 -2.67508,-6.61777 -2.69605,-8.13681 -0.0399,-2.89104 2.09806,-6.78972 5.23097,-9.54045 4.77941,-4.19638 7.92837,-4.46291 17.52659,-1.48249 10.69405,3.32071 9.6923,2.46244 9.6923,8.30371 l 0,5.0293 -6.82472,3.05999 c -9.40934,4.21822 -10.29858,4.69749 -9.712,5.23676 0.2823,0.25953 4.1187,-0.42485 8.52509,-1.52073 8.43802,-2.09853 10.68216,-2.39869 10.68216,-1.42799 0,0.32546 0.9347,1.62627 2.0771,2.89077 1.14239,1.2645 2.07708,2.49011 2.07708,2.72385 0,0.92743 -11.88978,16.31735 -13.17073,17.04788 -0.83994,0.47904 -3.203,0.76343 -6.11651,0.73602 z m 66.09589,-0.27354 c -0.35251,0.0101 -0.70065,0.009 -1.04203,-0.003 -1.82067,-0.0594 -3.45895,-0.41744 -4.64679,-1.1417 -1.50527,-0.91781 -7.34376,-7.79887 -14.01106,-16.51123 -0.41352,-0.54036 -0.15582,-1.23361 0.88207,-2.37381 0.8063,-0.88579 1.89688,-2.30756 2.42365,-3.15967 l 0.95741,-1.5497 9.92991,2.29151 c 11.40501,2.63147 10.49341,2.48795 10.19998,1.60766 -0.12536,-0.37603 -4.3376,-2.44569 -9.35964,-4.59927 l -9.13014,-3.9154 -0.0382,-3.70329 -0.0371,-3.70328 2.37381,-0.84382 c 15.91534,-5.66043 14.88408,-5.49805 19.76479,-3.13186 3.08077,1.49359 7.56032,6.13849 8.81371,9.13826 1.1662,2.79112 0.7134,5.71986 -1.59027,10.28344 -1.56843,3.10701 -1.76646,4.09538 -1.76646,8.82877 0,2.93154 -0.28157,5.94843 -0.6259,6.70417 -1.46908,3.22426 -7.81018,5.63894 -13.09771,5.78153 z m -33.29946,-3.24198 -0.45322,-1.78035 c -0.24915,-0.97921 -0.48413,-3.1824 -0.52274,-4.896 -0.0568,-2.51748 0.11615,-3.11562 0.90061,-3.11562 0.81356,0 0.90971,0.44556 0.59345,2.75282 -0.20756,1.51436 -0.40994,3.71756 -0.44856,4.896 l -0.0695,2.14315 z m -0.68503,-14.5141 a 15.636238,15.636238 0 0 1 -1.57173,-0.0962 c -0.0707,0.005 -0.12398,0.0178 -0.204,0.0185 -0.58467,0.006 -1.3908,-0.099 -2.04462,-0.27818 l -1.58564,-0.43351 0.30948,-0.0835 a 15.636238,15.636238 0 0 1 -1.05941,-0.40916 c -0.0156,0.003 -0.028,0.008 -0.0463,0.008 -0.3187,0 -1.03767,-0.37492 -2.17098,-1.12548 l -1.78036,-1.17996 0.21559,0 a 15.636238,15.636238 0 0 1 -1.56825,-1.49869 c -0.37212,-0.0713 -0.94087,-0.76636 -1.6007,-2.04233 -0.0194,-0.0375 -0.0243,-0.0499 -0.0429,-0.0858 a 15.636238,15.636238 0 0 1 -1.60997,-3.32194 c -0.0629,-0.13243 -0.12486,-0.26335 -0.21211,-0.4764 -0.10922,-0.2665 -0.19188,-0.69327 -0.26311,-1.17414 a 15.636238,15.636238 0 0 1 -0.40221,-3.45758 15.636238,15.636238 0 0 1 5.42338,-11.8285 15.636238,15.636238 0 0 1 0.55868,-0.44972 c 0.19459,-0.15399 0.39053,-0.30511 0.5923,-0.44972 a 15.636238,15.636238 0 0 1 0.47406,-0.32571 c 0.30958,-0.20534 0.6271,-0.39831 0.95045,-0.58187 a 15.636238,15.636238 0 0 1 0.19009,-0.1101 c 3.5791,-1.96803 7.91433,-2.60278 11.90152,-1.49523 10.66361,2.96207 15.06319,16.21574 8.24576,24.84043 -2.36742,2.99503 -7.34183,6.01103 -9.91368,6.01103 l -1.36657,0 0.0476,-0.0476 a 15.636238,15.636238 0 0 1 -1.46625,0.073 z m -25.41186,-6.1397 c -0.15911,0.003 -0.26105,-0.0101 -0.29093,-0.0394 -0.23321,-0.23321 5.51236,-3.17334 6.43526,-3.29297 0.20988,-0.0272 0.53992,0.36156 0.73254,0.86352 0.19262,0.50195 0.02,1.02954 -0.3825,1.17184 -1.47447,0.52128 -5.38057,1.27651 -6.49437,1.29701 z m 53.44558,-0.23298 c -0.41684,0.009 -2.2185,-0.28581 -4.36049,-0.7221 -3.5327,-0.71955 -4.4509,-1.12492 -4.4509,-1.9635 0,-1.41004 0.41896,-1.35139 4.98872,0.69892 2.15202,0.96554 3.91307,1.84935 3.91307,1.9635 0,0.0142 -0.0309,0.0218 -0.0904,0.0232 z m 21.98792,-15.75664 -3.87369,-2.59752 c -2.13054,-1.42869 -4.15187,-2.59752 -4.49146,-2.59752 -0.33959,0 0.0958,-0.93612 0.96784,-2.07941 0.87202,-1.14328 1.8647,-2.87913 2.20575,-3.85744 0.70822,-2.03163 0.67308,-2.02555 5.84528,-0.88786 2.12159,0.46666 4.8589,0.85785 6.08289,0.86931 1.224,0.0113 2.22545,0.23092 2.22545,0.48797 0,0.25708 -1.34462,1.79125 -2.98813,3.41004 -1.6435,1.61879 -3.65996,3.91286 -4.48103,5.09768 l -1.4929,2.15475 z m -30.27889,-0.91569 c -0.44627,-0.0139 -0.64932,-0.18796 -0.81714,-0.47174 -0.3264,-0.55188 -1.44663,-2.2748 -2.48973,-3.82847 l -1.89627,-2.8247 4.71517,-7.85399 c 2.5935,-4.31966 4.71518,-7.95272 4.71518,-8.07305 0,-0.12032 -0.34682,-0.21791 -0.7708,-0.21791 -0.42397,0 -3.38878,2.96149 -6.58826,6.58131 -4.13086,4.67354 -6.10095,6.48846 -6.79574,6.26255 -0.53813,-0.17497 -2.21097,-0.75288 -3.7172,-1.28427 l -2.73776,-0.96552 -0.31412,-8.7094 c -0.25026,-6.96078 -0.13517,-9.09231 0.57027,-10.61492 1.97892,-4.27121 9.95156,-9.64822 14.32403,-9.66101 1.67078,-0.005 2.83046,0.78594 7.39034,5.04087 3.99516,3.72797 6.26836,5.36711 8.70012,6.27532 5.5901,2.08774 7.17012,3.01846 8.0661,4.75109 1.13866,2.20193 1.10557,8.41332 -0.0649,12.35473 -1.55863,5.24847 -3.47574,6.72414 -13.61118,10.47584 -5.53873,2.05021 -7.69627,2.79385 -8.67811,2.76327 z m -37.76311,-1.39206 c -1.37589,0.0622 -19.18734,-6.0221 -20.45675,-7.0206 -3.86781,-3.04242 -5.79904,-14.11667 -3.16664,-18.15944 1.6409,-2.52005 2.45741,-2.98045 7.78676,-4.38831 4.63435,-1.22427 4.95308,-1.4247 9.48832,-5.9867 4.48882,-4.51533 4.80845,-4.71955 7.37642,-4.71401 1.6188,0.004 3.97047,0.6044 5.92411,1.51377 4.23083,1.96936 7.93253,5.04267 9.14173,7.59087 0.73299,1.54467 1.00509,4.1726 1.11853,10.80967 l 0.14952,8.76965 -3.85746,1.01304 c -2.12159,0.55714 -4.28568,1.19253 -4.80906,1.41179 -0.69976,0.29315 -2.49651,-1.33668 -6.78993,-6.15941 -3.21109,-3.60696 -6.05425,-6.55812 -6.3182,-6.55812 -1.14751,0 -0.21699,2.21076 3.67431,8.73026 2.28481,3.82792 4.15418,7.21989 4.15418,7.5387 0,0.31882 -0.7244,1.66268 -1.60998,2.98582 -0.88557,1.32313 -1.66173,2.49216 -1.72471,2.59752 -0.009,0.0153 -0.0367,0.0235 -0.0811,0.0255 z m -31.13196,-1.05245 -3.80529,-3.73691 c -2.09241,-2.05511 -4.06558,-3.82514 -4.38599,-3.93394 -1.40502,-0.47709 -0.39097,-1.28794 1.64243,-1.31325 1.22399,-0.0153 3.9613,-0.36777 6.0829,-0.78355 4.12081,-0.80756 4.74762,-0.74682 4.74762,0.46595 0,0.42479 0.66763,1.75673 1.48364,2.95916 1.70723,2.51575 1.76193,2.72734 0.70936,2.72734 -0.42569,0 -2.0566,0.8127 -3.62447,1.80702 l -2.8502,1.80818 z m 36.63532,-5.48712 c -0.59133,0.0483 -1.47996,-1.17419 -3.17706,-4.1055 -1.33634,-2.30817 -2.23326,-4.11079 -1.99363,-4.00581 0.23963,0.10493 1.72967,1.58675 3.31151,3.29296 1.81106,1.95345 2.74747,3.43681 2.52913,4.00581 -0.19414,0.50592 -0.40117,0.79057 -0.66995,0.81254 z m 25.10934,-0.41264 c -0.30901,0.0429 -0.49146,-0.17816 -0.49146,-0.70821 0,-0.54842 5.21324,-6.50248 5.69345,-6.50248 0.10455,0 -0.76443,1.60232 -1.93105,3.56071 -1.30019,2.18265 -2.59109,3.55574 -3.27094,3.64998 z m -11.61523,-27.00445 -3.40888,-3.2756 c -3.09967,-2.97868 -3.34105,-3.38751 -2.6462,-4.49493 0.42041,-0.67 1.82097,-3.17441 3.11215,-5.5648 1.29119,-2.39038 2.54289,-4.12623 2.78182,-3.85744 0.23893,0.26879 1.70145,2.91934 3.24892,5.89048 l 2.81311,5.40252 -2.94987,2.94988 -2.95105,2.94989 z"
       id="path4360"
       inkscape:connector-curvature="0" />
    <path
       style="fill:#000000"
       d="m 765.94239,768.8635 c -0.41945,-0.41949 -0.76265,-1.27742 -0.76265,-1.90665 0,-1.51729 -1.35904,-1.4536 -2.71249,0.12711 -1.53087,1.78793 -2.81397,1.58197 -3.96073,-0.63555 -1.20503,-2.33037 -1.50344,-2.35238 -3.19081,-0.23627 -1.03445,1.29735 -1.65624,1.56754 -2.7841,1.20949 -1.27873,-0.40587 -1.40066,-0.7356 -1.02076,-2.7606 0.23729,-1.26487 0.8359,-3.08185 1.33026,-4.03783 1.53917,-2.97648 1.25983,-3.23909 -2.9283,-2.75302 -5.23923,0.60812 -6.6475,-0.34011 -7.2499,-4.88114 -0.24795,-1.86921 -1.34877,-5.01484 -2.4663,-7.0476 -2.23809,-4.07112 -2.33627,-3.51442 1.6116,-9.13701 2.32071,-3.30513 3.94494,-11.72341 3.34528,-17.33816 -0.4991,-4.67313 -0.82502,-5.76805 -1.71701,-5.76805 -0.38673,0 -0.47461,1.05424 -0.22515,2.70107 1.00766,6.65212 1.07638,9.03969 0.33625,11.6831 -1.96521,7.01909 -4.97841,-1.80768 -5.01884,-14.70196 -0.0182,-5.82336 1.32203,-8.69621 6.44904,-13.82321 8.27268,-8.27267 11.48648,-9.63909 22.74414,-9.67008 10.22042,-0.0281 13.03182,0.77091 17.71232,5.03409 1.96812,1.79265 4.83598,4.23424 6.373,5.42574 1.82883,1.41771 3.34311,3.3645 4.38184,5.6334 1.48786,3.2499 1.56294,3.90858 1.19899,10.51787 -0.41378,7.51403 -1.50349,14.2696 -2.47011,15.313 -0.98435,1.06262 -2.29967,-1.43934 -2.78069,-5.28944 -0.27034,-2.16366 -0.13079,-5.13716 0.35602,-7.58625 0.72868,-3.66594 0.59433,-5.3931 -0.34633,-4.4525 -0.19866,0.19868 -0.64783,2.42965 -0.99816,4.95769 -0.90112,6.50262 0.51592,12.70916 3.94295,17.27023 3.33948,4.44442 3.32661,6.46184 -0.0662,10.38195 -2.30664,2.66506 -2.54831,3.26317 -2.38329,5.89783 0.17518,2.79678 0.0957,2.9514 -1.72298,3.35303 -1.04865,0.23157 -3.40811,0.45494 -5.24324,0.49626 -3.74812,0.0848 -3.97514,0.49445 -2.3833,4.30423 2.05956,4.92922 0.53126,6.83695 -3.1545,3.93778 -1.43327,-1.12748 -1.83558,-1.21083 -2.30038,-0.47668 -0.30983,0.48931 -0.56771,1.33307 -0.57306,1.8748 -0.0123,1.24033 -1.25184,2.51044 -2.45007,2.51044 -1.13873,0 -2.59687,-1.85424 -2.62381,-3.33661 -0.0317,-1.74832 -1.22242,-1.29915 -1.68459,0.63555 -0.76307,3.19416 -2.79674,4.34112 -4.56395,2.57395 z m 1.92392,-13.66777 c 0.98145,-0.88823 1.42096,-0.94471 2.43334,-0.31241 1.00058,0.62482 1.23553,0.60407 1.23553,-0.10942 0,-1.28057 -1.77547,-5.32914 -2.54586,-5.80519 -0.65952,-0.40767 -2.0059,2.28301 -2.78379,5.56323 -0.47786,2.01509 -0.0301,2.19407 1.66078,0.66379 z m -10.27141,-8.53674 c 2.86159,-0.85738 3.46948,-1.67516 2.90809,-3.91189 -0.25728,-1.025 -1.6695,-2.08536 -4.78425,-3.59218 -3.96592,-1.91855 -4.61158,-2.0582 -6.29429,-1.36122 -2.31184,0.95761 -3.40518,3.20057 -2.89083,5.93049 0.65768,3.49078 1.98272,4.48493 5.43411,4.07726 1.64691,-0.1945 4.17913,-0.70863 5.62717,-1.14246 z m 30.49642,0.36672 c 0.45273,-0.54543 0.94626,-2.47634 1.09674,-4.29088 0.22642,-2.73029 0.0495,-3.50179 -1.0257,-4.475 -1.26806,-1.14751 -1.42432,-1.13416 -6.49931,0.55598 -9.29152,3.09439 -9.90361,5.46427 -2.04835,7.93096 4.63803,1.4563 7.42341,1.54805 8.47662,0.27894 z m -61.33518,-16.12435 c -0.17483,-0.28291 -0.74852,-2.16763 -1.27485,-4.1884 -0.52633,-2.02067 -1.06786,-3.78487 -1.20341,-3.92046 -0.13554,-0.13559 -4.30911,-1.49681 -9.27456,-3.02501 -4.96545,-1.52822 -9.14645,-2.89693 -9.2911,-3.04158 -0.14464,-0.14465 3.89104,-1.51071 8.96818,-3.03564 5.07716,-1.52498 9.45219,-3.07652 9.72232,-3.44789 0.27013,-0.37138 1.01836,-2.8711 1.66273,-5.55497 l 1.17161,-4.87974 -6.74523,-7.16563 c -3.70987,-3.9411 -6.68406,-7.22296 -6.60932,-7.29303 0.0748,-0.0701 4.46711,0.87614 9.76081,2.10268 l 9.62493,2.23009 3.93224,-3.93225 3.93224,-3.93224 -2.28156,-9.58194 c -1.25485,-5.27006 -2.20741,-9.65608 -2.11679,-9.74671 0.0906,-0.0906 3.43292,2.90267 7.42732,6.65176 l 7.26255,6.81651 4.49446,-1.22298 c 2.47194,-0.67264 4.9106,-1.42726 5.41923,-1.67693 0.51313,-0.25189 2.22942,-4.75437 3.85571,-10.115 l 2.93092,-9.66105 2.87734,9.68079 c 1.58255,5.32444 3.27942,9.87619 3.77084,10.115 0.49141,0.23882 2.932,0.98926 5.42353,1.66768 l 4.53007,1.23346 7.3864,-6.936 c 4.06251,-3.8148 7.3864,-6.73329 7.3864,-6.48554 0,0.24776 -0.99563,4.68864 -2.21249,9.86863 l -2.21248,9.41816 3.93665,3.93666 3.93665,3.93665 9.55663,-2.25603 c 5.25614,-1.24082 9.63076,-2.18189 9.72138,-2.09127 0.0906,0.0906 -2.84078,3.37122 -6.51421,7.29024 -3.67343,3.91902 -6.67897,7.20729 -6.67897,7.30728 0,0.92032 2.67009,10.29333 3.02758,10.62794 0.25735,0.24088 4.55363,1.65663 9.5473,3.14607 4.99367,1.48953 8.8546,2.89397 8.57986,3.12099 -0.27476,0.22708 -2.07252,0.87565 -3.99504,1.44135 -1.92252,0.5656 -5.96924,1.77147 -8.99271,2.67964 l -5.4972,1.65117 -1.09038,4.44947 c -1.21519,4.95863 -0.7804,4.79652 -6.66377,2.48337 -3.17296,-1.24746 -3.09416,-0.9383 -2.05303,-8.05491 2.53015,-17.29458 -8.32623,-33.62144 -25.27538,-38.0116 -5.55317,-1.43839 -14.75455,-1.04375 -19.99478,0.85755 -10.40535,3.77536 -18.90699,12.93802 -21.60081,23.2803 -1.22289,4.69497 -1.27775,13.78606 -0.10668,17.67721 0.992,3.29619 1.39492,2.8564 -4.52011,4.93355 -1.82772,0.64186 -3.46617,0.93551 -3.64102,0.6526 z"
       id="path4150"
       inkscape:connector-curvature="0" />
    <g
       id="g4295"
       transform="matrix(0.590592,0,0,0.590592,375.50896,156.53673)">
      <g
         id="g4226">
        <path
           sodipodi:nodetypes="ccccccccccccccccc"
           style="opacity:1;fill:none;fill-opacity:1;stroke:#000000;stroke-width:7;stroke-linecap:square;stroke-linejoin:miter;stroke-miterlimit:4;stroke-dasharray:none;stroke-opacity:1"
           d="m 152.01362,490.1035 25.31861,75.78132 -75.782,-25.31864 26.70099,50.31055 -26.70099,50.3104 75.782,-25.31777 -25.31861,75.78132 50.3105,-26.70097 50.31052,26.70097 -25.31864,-75.78132 75.78202,25.31777 -26.70099,-50.3104 26.70099,-50.31055 -75.78202,25.31864 25.31864,-75.78132 -50.31052,26.70097 z"
           id="path4232"
           inkscape:connector-curvature="0" />
        <path
           style="fill:#000000"
           d="m 215.95151,624.49196 c 24.33388,-24.22439 35.07625,-43.98986 31.87599,-58.65034 -2.75213,-12.60754 -10.80726,-19.93981 -22.85239,-20.80164 -7.69006,-0.55022 -13.78632,1.66518 -18.70247,6.79653 -3.53291,3.68757 -4.38975,3.68757 -7.92266,0 -4.91615,-5.13135 -11.0124,-7.34675 -18.70247,-6.79653 -8.99308,0.64345 -14.53128,3.91643 -19.16675,11.32721 -10.49722,16.78202 -1.46951,38.59835 28.19035,68.12477 6.79789,6.76731 12.93598,12.30419 13.6402,12.30419 0.70422,0 6.84231,-5.53688 13.6402,-12.30419 z"
           id="path4247"
           inkscape:connector-curvature="0" />
      </g>
    </g>
    <g
       id="g4266"
       transform="translate(-4.361006,0)">
      <path
         id="path4387"
         d="m 237.78052,644.90375 c -0.24816,-0.0222 -0.77729,0.33586 -1.65427,1.09746 -4.17411,3.62493 -7.72903,7.9127 -9.22715,11.13124 -0.77251,1.65961 -1.04005,2.70762 -1.04153,4.06919 -0.002,1.79045 0.37636,2.61355 2.14397,4.65707 1.47694,1.7075 2.18396,3.71495 2.04454,5.80674 -0.17547,2.63236 -1.71851,5.06826 -3.86412,6.10006 -1.18122,0.56803 -2.82553,0.67082 -4.02196,0.25106 -2.19564,-0.77031 -3.74341,-2.57013 -4.36624,-5.07717 -0.33527,-1.34959 -0.2963,-4.30215 0.0796,-6.02672 0.15735,-0.7221 0.32008,-1.53389 0.36168,-1.80467 0.0714,-0.46467 0.0555,-0.49218 -0.27468,-0.49218 -0.38865,0 -1.4076,0.48029 -2.31052,1.09 -2.47358,1.67035 -4.13241,4.05878 -4.94293,7.1155 -0.31136,1.17422 -0.34756,1.54853 -0.34801,3.54469 -3.9e-4,1.77706 0.0551,2.50061 0.27716,3.54594 0.15336,0.72208 0.42883,2.02071 0.61026,2.88721 1.40097,6.69084 0.15118,13.25616 -3.15319,16.57506 -1.25807,1.26361 -2.29973,1.76805 -3.79451,1.83946 -0.82799,0.0395 -1.22406,-0.009 -1.83325,-0.22248 -2.27963,-0.80056 -3.67205,-2.56306 -3.43532,-4.34759 0.18841,-1.4203 0.95198,-2.97012 2.19865,-4.46816 1.28527,-1.5444 0.68237,-1.6996 -1.80839,-0.46359 -5.25852,2.6095 -9.03702,6.52897 -10.99576,11.40715 -0.78065,1.94419 -1.05026,3.15823 -1.05894,4.75651 -0.0149,2.76528 0.5811,3.88093 3.85542,7.21989 1.20378,1.22756 2.34213,2.49763 2.52926,2.82258 0.25489,0.44258 0.57194,1.29984 0.69974,1.83201 l 36.28714,0 36.38533,0 -0.55309,-1.26277 c -0.84966,-1.94151 -1.55089,-3.8912 -1.97245,-5.47737 -0.23036,-0.86689 -0.28154,-1.40683 -0.27094,-2.90213 0.016,-2.2591 0.19843,-3.01706 2.17752,-9.0606 1.53848,-4.69807 1.68794,-5.34063 1.67665,-7.2174 -0.01,-1.61634 -0.23552,-2.53311 -1.00798,-4.10772 -0.95861,-1.9541 -2.83138,-3.70655 -5.27354,-4.93548 -0.95115,-0.47863 -1.52257,-0.59511 -1.67913,-0.34179 -0.0461,0.0746 0.0939,0.56143 0.31072,1.08254 0.63403,1.52412 0.95443,2.92128 1.03283,4.49924 0.0842,1.69423 -0.10234,2.53962 -0.78177,3.54966 -0.56539,0.84053 -1.27957,1.3161 -2.38261,1.58592 -1.66753,0.4079 -3.67304,-0.12835 -4.83977,-1.29509 -0.85817,-0.85817 -1.19148,-1.65397 -1.25407,-2.99161 -0.0863,-1.84428 0.39521,-3.24424 2.07686,-6.04164 0.55768,-0.9277 1.0691,-1.99035 1.32739,-2.75671 0.3776,-1.12035 0.42655,-1.44069 0.47727,-3.1507 0.0867,-2.92369 -0.43081,-5.09219 -1.9911,-8.33725 -1.01181,-2.10435 -2.01957,-3.74476 -3.50865,-5.71103 -1.79844,-2.3748 -2.82913,-3.47882 -3.24391,-3.47882 -0.34605,0 -0.35067,0.0127 -0.44744,1.18074 -0.27272,3.29191 -1.4191,5.46777 -3.06619,5.81791 -1.47263,0.31308 -3.34367,-0.48795 -4.97773,-2.13154 -2.16697,-2.17961 -3.00949,-4.7751 -3.00529,-9.26567 0.003,-3.23423 0.48574,-6.35402 1.52253,-9.84734 0.22502,-0.7582 0.4367,-1.56999 0.46981,-1.80466 0.0398,-0.28187 -0.009,-0.43165 -0.15785,-0.44495 z"
         style="opacity:1;fill:none;fill-opacity:1;stroke:#000000;stroke-width:3;stroke-linecap:butt;stroke-linejoin:miter;stroke-miterlimit:4;stroke-dasharray:none;stroke-opacity:1"
         inkscape:connector-curvature="0" />
      <path
         inkscape:connector-curvature="0"
         id="path4381"
         d="m 206.38,773.87293 c -0.37146,-0.1414 -0.41208,-0.35781 -0.41424,-2.20654 -0.002,-1.37409 0.0445,-1.86067 0.18773,-1.9795 0.10442,-0.0867 0.96779,-0.21695 1.91859,-0.28952 6.04204,-0.46118 9.88735,-1.95207 11.28424,-4.37507 0.17603,-0.30533 0.36167,-0.75494 0.41253,-0.99913 l 0.0925,-0.44399 -3.34561,-0.0417 c -2.79122,-0.0349 -3.36739,-0.0763 -3.47704,-0.24996 -0.201,-0.3184 -0.17328,-4.90321 0.0309,-5.10737 0.12021,-0.1202 1.08563,-0.16654 3.46969,-0.16654 l 3.30314,0 0,-1.86662 0,-1.86662 -3.33614,-0.0417 c -2.78284,-0.0348 -3.35794,-0.0762 -3.46756,-0.24989 -0.201,-0.3184 -0.17328,-4.90322 0.0309,-5.10738 0.12021,-0.1202 1.08563,-0.16654 3.46969,-0.16654 l 3.30314,0 0,-1.22775 0,-1.22775 -2.74106,-0.0954 c -4.29171,-0.14942 -6.48502,-0.47134 -9.18565,-1.3482 -3.31338,-1.07582 -5.90637,-2.67246 -8.41516,-5.18166 -2.50903,-2.50945 -4.25665,-5.31031 -5.54836,-8.89218 -0.87024,-2.41315 -1.7255,-6.44386 -1.72765,-8.14214 l -6.3e-4,-0.64761 -1.67077,-0.0463 c -1.29737,-0.036 -1.70012,-0.0928 -1.80211,-0.2545 -0.0722,-0.1145 -0.1323,-0.87957 -0.13347,-1.70015 l -0.002,-1.49196 42.12198,0 42.12197,0 0,1.59117 c 0,1.92755 0.0514,1.87851 -1.96888,1.87851 l -1.43198,0 -0.24684,2.0166 c -1.19856,9.7921 -6.4285,17.34278 -14.08614,20.33677 -3.15934,1.23524 -5.88537,1.71736 -10.61859,1.87796 l -2.88494,0.0979 0.0398,1.19368 0.0398,1.19368 3.40029,0.0694 3.40029,0.0694 0.0379,2.56704 c 0.0339,2.29144 0.0124,2.58572 -0.20001,2.74105 -0.17466,0.12771 -1.09963,0.17401 -3.47698,0.17401 l -3.239,0 0.0387,1.83893 0.0387,1.83893 3.40029,0.0694 3.40029,0.0694 0.038,2.56704 c 0.0339,2.29145 0.0124,2.58572 -0.20001,2.74105 -0.17438,0.12751 -1.0885,0.17401 -3.4209,0.17401 l -3.18293,0 0.0855,0.42744 c 0.54127,2.70636 4.46087,4.70837 10.32393,5.27315 0.82038,0.079 1.81948,0.17598 2.22023,0.21546 0.50533,0.0498 0.72864,0.13252 0.72864,0.26997 0,0.10901 0.0937,0.1982 0.20817,0.1982 0.17475,0 0.20819,0.30016 0.20819,1.86875 0,1.70553 -0.0234,1.88129 -0.26845,2.01241 -0.28472,0.15238 -48.46356,0.19429 -48.86229,0.0425 z"
         style="fill:#000000" />
    </g>
    <g
       id="g4244"
       transform="translate(5.0151157,0)">
      <path
         inkscape:connector-curvature="0"
         id="path4340"
         d="m 762.78223,435.47857 c -0.39236,0 -0.50362,0.1625 -0.59057,0.24229 -0.087,0.0798 -0.13784,0.14681 -0.1908,0.21806 -0.10592,0.14248 -0.2045,0.30226 -0.31649,0.49971 -0.22398,0.3949 -0.49417,0.93136 -0.80559,1.59151 -0.62287,1.32032 -1.40259,3.12357 -2.19875,5.10769 l -3.08158,7.68047 3.28146,2.88168 c 0.80211,0.70417 1.58141,1.34202 2.2048,1.81261 0.31171,0.23529 0.58315,0.42818 0.81318,0.57391 0.11502,0.0729 0.21842,0.13417 0.3286,0.18777 0.11018,0.0535 0.17368,0.13551 0.50729,0.1272 0.31722,-0.008 0.37139,-0.0829 0.47851,-0.13628 0.10712,-0.0534 0.2107,-0.1144 0.32709,-0.18777 0.23278,-0.14676 0.51167,-0.34137 0.83285,-0.57846 0.64239,-0.4742 1.44913,-1.11542 2.28204,-1.82017 l 3.41623,-2.88926 -3.13912,-7.67593 c -0.80938,-1.97896 -1.60195,-3.77572 -2.23358,-5.09255 -0.31581,-0.6584 -0.58968,-1.19476 -0.81619,-1.58848 -0.11327,-0.19686 -0.21139,-0.35642 -0.318,-0.4982 -0.0534,-0.0709 -0.10537,-0.13745 -0.19232,-0.21654 -0.0869,-0.0791 -0.19767,-0.23926 -0.58906,-0.23926 z m 0.005,2.21237 c 0.1588,0.2998 0.30734,0.56997 0.51335,0.99944 0.61214,1.27619 1.39602,3.0555 2.19571,5.01077 l 2.71208,6.63106 -2.55611,2.16392 c -0.80953,0.68497 -1.59768,1.30912 -2.20178,1.75505 -0.30204,0.22297 -0.55881,0.40224 -0.73745,0.51486 -0.16925,-0.10796 -0.4092,-0.27599 -0.69355,-0.49063 -0.58104,-0.43862 -1.33891,-1.0582 -2.11545,-1.73991 l -2.45769,-2.15786 2.67272,-6.66286 c 0.78659,-1.9603 1.55883,-3.74348 2.1624,-5.02289 0.2029,-0.43011 0.34911,-0.70059 0.50577,-1.00095 z m -15.56233,15.61987 c -3.40161,0 -7.59524,2.67631 -11.37835,6.81429 -0.9304,1.01769 -3.38616,2.80986 -5.20914,3.74635 -2.0781,1.06755 -4.14931,2.63417 -5.83153,4.29451 -1.68221,1.66036 -2.98456,3.37693 -3.46317,4.96233 -0.5212,1.72651 -0.41146,3.9283 0.0772,6.08289 0.4887,2.15457 1.36006,4.24981 2.57883,5.69826 2.55165,3.03246 6.90814,5.00232 16.09082,7.53509 1.81506,0.50063 3.52665,0.96138 4.82603,1.30228 0.64969,0.17046 1.19653,0.31128 1.60362,0.4119 0.20356,0.0503 0.37137,0.0896 0.50426,0.11962 0.1329,0.03 0.19234,0.0487 0.33769,0.0636 0.27025,0.0277 0.38907,-0.0319 0.51183,-0.0772 0.12276,-0.0453 0.23266,-0.0995 0.35131,-0.16353 0.23733,-0.12808 0.50151,-0.29663 0.79803,-0.50275 0.59307,-0.41224 1.30805,-0.97243 2.02763,-1.59757 1.34459,-1.16811 3.953,-3.08096 5.6801,-4.16127 1.57016,-0.98214 2.53978,-1.61603 3.13456,-2.73934 0.59479,-1.12331 0.73702,-2.49119 1.00246,-4.96989 0.45506,-4.24925 0.48398,-8.76002 0.17112,-12.54738 -0.15643,-1.89368 -0.39876,-3.60504 -0.72231,-5.02441 -0.32356,-1.41935 -0.70244,-2.53938 -1.27504,-3.32537 -1.14183,-1.56739 -3.13067,-2.99085 -5.3106,-4.08251 -2.17993,-1.09168 -4.53331,-1.83986 -6.50538,-1.83986 z m 30.91114,0.0137 c -4.19048,0.016 -9.06528,2.50501 -11.58581,5.9042 -0.58196,0.78482 -0.96907,1.90245 -1.29775,3.3178 -0.32866,1.41535 -0.57332,3.1215 -0.7314,5.0138 -0.31614,3.78461 -0.28567,8.30759 0.17567,12.61553 0.25297,2.36224 0.42455,3.72497 0.90251,4.78212 0.47796,1.05714 1.30041,1.65352 2.41074,2.25628 1.16922,0.63474 3.82557,2.54379 5.69221,4.12492 1.03867,0.87981 2.07257,1.60176 2.9786,2.09275 0.45302,0.24548 0.87309,0.4337 1.26898,0.55422 0.39587,0.12052 0.76729,0.20306 1.2084,0.0772 0.66422,-0.18948 4.05724,-1.0971 7.46694,-1.99735 3.63512,-0.95977 6.98002,-2.21919 9.70507,-3.61158 2.72504,-1.39238 4.83311,-2.89288 6.0102,-4.49137 0.5118,-0.69502 0.91798,-1.70385 1.27352,-2.87563 0.35553,-1.17179 0.63363,-2.48751 0.75563,-3.71001 0.29439,-2.94995 -0.0972,-5.35625 -1.54003,-7.4624 -1.44286,-2.10614 -3.84307,-3.87145 -7.45937,-5.84817 -2.84036,-1.55258 -7.09059,-4.6173 -9.25987,-6.66892 -1.82104,-1.72227 -2.97396,-2.73497 -4.14612,-3.34355 -1.17216,-0.60858 -2.31167,-0.73566 -3.82812,-0.72988 z m -30.91114,1.53699 c 1.55949,0 3.78732,0.66248 5.81183,1.67632 2.02452,1.01384 3.8638,2.39162 4.75033,3.60854 0.32488,0.44598 0.71717,1.43809 1.0176,2.756 0.30041,1.31793 0.53556,2.96872 0.68749,4.80787 0.30384,3.67831 0.27678,8.11507 -0.16658,12.25512 -0.26437,2.46861 -0.45089,3.69109 -0.83134,4.4096 -0.38046,0.71852 -1.03194,1.17796 -2.58641,2.15029 -1.82594,1.14214 -4.41858,3.03948 -5.87543,4.30512 -0.68112,0.59172 -1.36322,1.1254 -1.89438,1.4946 -0.26556,0.1846 -0.49572,0.32883 -0.64962,0.41189 -0.041,0.0221 -0.0545,0.0252 -0.0818,0.0378 -0.0271,-0.005 -0.0107,-0.002 -0.0424,-0.009 -0.11545,-0.0261 -0.27658,-0.0633 -0.47397,-0.11205 -0.39478,-0.0976 -0.93563,-0.23654 -1.58091,-0.40583 -1.29057,-0.33861 -2.99833,-0.80015 -4.80787,-1.29926 -9.1029,-2.51077 -13.11589,-4.42433 -15.31549,-7.03841 -0.96831,-1.15078 -1.80669,-3.07373 -2.25326,-5.04257 -0.44657,-1.96884 -0.49698,-3.99577 -0.106,-5.29093 0.33096,-1.09629 1.49345,-2.7526 3.06794,-4.30663 1.5745,-1.55402 3.55164,-3.04296 5.45143,-4.01891 2.01483,-1.03504 4.44355,-2.76505 5.64527,-4.07949 3.6097,-3.94831 7.71094,-6.31003 10.23355,-6.31003 z m 30.9172,0.0137 c 1.43751,-0.005 2.20414,0.0853 3.10732,0.55422 0.90316,0.46892 1.99391,1.392 3.7948,3.0952 2.33752,2.21074 6.56652,5.25361 9.5824,6.90213 3.52586,1.92727 5.70951,3.59331 6.92332,5.36511 1.21381,1.7718 1.55022,3.6889 1.27654,6.43117 -0.10954,1.09776 -0.3699,2.3381 -0.69656,3.41473 -0.32666,1.07662 -0.74559,2.01007 -1.03729,2.4062 -0.9141,1.24134 -2.86437,2.69912 -5.46809,4.02951 -2.60372,1.3304 -5.85793,2.55777 -9.39615,3.49195 -3.41306,0.90113 -6.75249,1.79485 -7.49421,2.00643 0.0708,-0.0202 -0.084,0.006 -0.33314,-0.0696 -0.24911,-0.0758 -0.59214,-0.22373 -0.98126,-0.43461 -0.77824,-0.42173 -1.74605,-1.09018 -2.71511,-1.91102 -1.94447,-1.64706 -4.52998,-3.53115 -5.95569,-4.30512 -1.04032,-0.56476 -1.42268,-0.8375 -1.73689,-1.53246 -0.31421,-0.69496 -0.52158,-1.96712 -0.77229,-4.30815 -0.44984,-4.20059 -0.481,-8.64839 -0.17414,-12.32175 0.15344,-1.83668 0.39194,-3.48091 0.69658,-4.79272 0.30462,-1.3118 0.70075,-2.29617 1.03274,-2.74388 2.14644,-2.89471 6.80078,-5.26376 10.34712,-5.27729 z m 29.14245,23.76067 -0.51183,3.32689 c -0.21588,1.40377 -0.6475,3.34568 -0.90705,4.14611 -0.2462,0.75922 -0.25538,1.5975 0.1802,2.28355 0.43557,0.68605 1.14411,1.19444 2.20176,1.84743 0.73232,0.45212 1.48621,0.8669 2.13061,1.18114 0.32219,0.15713 0.61622,0.2889 0.87525,0.38918 0.25904,0.10026 0.4499,0.17706 0.74049,0.19988 0.63493,0.0499 0.94294,-0.19401 1.45372,-0.47397 0.51078,-0.27997 1.11229,-0.66788 1.78231,-1.1342 1.34005,-0.93265 2.94762,-2.17874 4.48381,-3.45561 1.53619,-1.27686 2.99671,-2.57949 4.04617,-3.63428 0.52472,-0.52739 0.9437,-0.9871 1.23869,-1.38861 0.14749,-0.20075 0.26682,-0.37961 0.35585,-0.61025 0.0445,-0.11533 0.0865,-0.24745 0.0848,-0.4346 -0.002,-0.18716 -0.0803,-0.4558 -0.26349,-0.63903 -0.18644,-0.18645 -0.27676,-0.19195 -0.36343,-0.22412 -0.0867,-0.0322 -0.16378,-0.0532 -0.24986,-0.0742 -0.17215,-0.0421 -0.37412,-0.0796 -0.61783,-0.11812 -0.4874,-0.0771 -1.1383,-0.15586 -1.92162,-0.23622 -1.56666,-0.16072 -3.6542,-0.32402 -5.90118,-0.45126 l -8.83738,-0.49971 z m -90.49833,0.16506 -7.73649,0.55271 c -1.99215,0.14231 -3.87454,0.33777 -5.31817,0.5406 -0.72182,0.10141 -1.33282,0.20428 -1.80655,0.3074 -0.23686,0.0515 -0.4382,0.10247 -0.61631,0.16051 -0.17813,0.0581 -0.31459,0.07 -0.55877,0.29226 -0.25429,0.23143 -0.32519,0.5934 -0.30438,0.82226 0.0208,0.22887 0.0902,0.39499 0.1696,0.55726 0.15886,0.32455 0.38754,0.63596 0.68446,0.98882 0.59385,0.70576 1.46161,1.54191 2.49858,2.39107 2.01087,1.64666 4.57259,3.77257 5.67402,4.70943 0.59094,0.50263 1.22706,0.95541 1.80352,1.29774 0.57647,0.34234 0.97966,0.61441 1.61575,0.63146 0.33811,0.009 0.57753,-0.073 0.86769,-0.17565 0.29014,-0.10265 0.60591,-0.2418 0.94793,-0.40736 0.68406,-0.33108 1.46539,-0.7703 2.21541,-1.23565 0.75002,-0.46534 1.46571,-0.95444 2.02006,-1.39314 0.27717,-0.21935 0.51322,-0.42269 0.70716,-0.62843 0.19396,-0.20575 0.41892,-0.33433 0.45278,-0.86769 0.0137,-0.21464 -0.0175,-0.28611 -0.0424,-0.39674 -0.025,-0.11063 -0.0565,-0.22706 -0.0969,-0.3604 -0.081,-0.26669 -0.19525,-0.59489 -0.33466,-0.9752 -0.27881,-0.76062 -0.6615,-1.72441 -1.08877,-2.72118 l -1.75355,-4.09008 z m 91.81728,1.4628 7.4306,0.42097 c 2.22665,0.1261 4.29862,0.28794 5.83151,0.4452 0.66541,0.0683 1.17185,0.1333 1.59607,0.19534 -0.21853,0.26171 -0.43622,0.52522 -0.80106,0.89191 -0.9914,0.99645 -2.42987,2.28177 -3.93866,3.53587 -1.50879,1.2541 -3.09307,2.48271 -4.37781,3.37686 -0.64236,0.44707 -1.21198,0.81095 -1.64148,1.04637 -0.42951,0.23542 -0.83082,0.27002 -0.58603,0.28922 0.0655,0.005 -0.10399,-0.0245 -0.30286,-0.10145 -0.19888,-0.077 -0.46147,-0.19272 -0.75563,-0.33617 -0.58831,-0.2869 -1.30802,-0.68382 -1.99583,-1.10846 -0.99521,-0.61444 -1.52425,-1.07112 -1.7066,-1.35831 -0.18235,-0.28721 -0.19093,-0.43161 -0.0151,-0.97369 0.32427,-0.99996 0.7354,-2.89802 0.9646,-4.38841 l 0.29832,-1.93525 z m -92.80762,0.16354 1.31743,3.074 c 0.41726,0.97344 0.79409,1.91854 1.06,2.64395 0.13295,0.3627 0.23881,0.67114 0.30589,0.89191 0.0157,0.0515 0.0206,0.0775 0.0318,0.11812 -0.10874,0.11432 -0.29437,0.28175 -0.53151,0.46942 -0.48219,0.38161 -1.16311,0.84868 -1.87469,1.29017 -0.71157,0.44151 -1.45853,0.861 -2.07306,1.15843 -0.30726,0.14873 -0.58233,0.26709 -0.79045,0.34072 -0.20813,0.0737 -0.37328,0.0861 -0.30892,0.0878 0.13264,0.004 -0.37629,-0.12337 -0.86466,-0.4134 -0.48837,-0.29003 -1.07029,-0.70297 -1.59152,-1.14632 -1.12288,-0.9551 -3.6775,-3.07532 -5.69522,-4.7276 -0.97734,-0.80032 -1.79417,-1.59548 -2.29414,-2.18966 -0.11479,-0.1364 -0.14311,-0.19916 -0.22109,-0.30891 0.40994,-0.0889 0.98752,-0.18879 1.68085,-0.2862 1.39537,-0.19605 3.25161,-0.38843 5.21218,-0.52849 l 6.63712,-0.47397 z m 47.61827,10.43647 c -1.17546,-0.0685 -2.36322,0.0722 -3.50255,0.44822 -1.60367,0.52926 -3.21819,1.66013 -4.58829,3.02707 -1.3701,1.36693 -2.49195,2.96336 -2.99375,4.54437 -0.69616,2.19343 -0.2033,4.86311 0.8904,7.22618 1.09371,2.36306 2.80194,4.45393 4.91841,5.30908 5.42273,2.19103 12.17529,-0.33573 14.31909,-5.46657 0.76418,-1.82894 1.16411,-3.28542 1.09484,-4.77455 -0.0693,-1.48913 -0.60044,-2.93249 -1.53246,-4.7594 -1.66354,-3.26079 -5.07934,-5.34873 -8.60569,-5.5544 z m 38.57191,0.65114 c -1.21783,-0.033 -2.56831,0.30408 -5.05317,0.92825 -3.98212,1.00029 -8.30616,2.45974 -11.76753,3.88112 -1.73068,0.71069 -3.24428,1.41012 -4.40354,2.04884 -0.57964,0.31935 -1.07117,0.62279 -1.46735,0.91766 -0.39617,0.29486 -0.70586,0.5541 -0.92069,0.95551 -0.52952,0.98942 -0.86314,2.45157 -0.86314,3.63428 0,0.32234 -0.15132,1.10429 -0.41946,1.94586 -0.26814,0.84158 -0.64327,1.77757 -1.04637,2.56823 -0.43613,0.85546 -0.83067,1.71601 -1.12208,2.43043 -0.14571,0.35722 -0.26634,0.6768 -0.35435,0.95097 -0.088,0.27418 -0.159,0.4521 -0.159,0.77229 0,0.45155 0.1415,0.75429 0.32861,1.19478 0.1871,0.44048 0.44461,0.96117 0.76168,1.55063 0.63413,1.17892 1.50296,2.62964 2.47586,4.1552 1.94579,3.05112 4.29134,6.37701 6.01626,8.33464 1.88241,2.13635 4.38781,4.48339 5.87089,5.40903 1.92552,1.20177 3.58979,1.47941 6.35394,1.08725 3.64022,-0.51643 6.37234,-1.63273 8.34373,-3.73271 1.97139,-2.09999 3.12963,-5.09014 3.88717,-9.22655 0.44315,-2.41975 1.8709,-6.75076 3.10883,-9.39615 0.65628,-1.40243 1.24592,-2.95775 1.67783,-4.35812 0.43192,-1.40038 0.71626,-2.60098 0.71626,-3.49801 0,-1.95225 -1.08673,-4.17056 -2.64092,-6.24794 -1.55418,-2.07738 -3.60398,-3.98769 -5.74974,-5.09557 -1.42083,-0.73361 -2.35589,-1.17689 -3.57372,-1.20992 z m -77.75106,0.24834 c -1.51399,-0.034 -2.63445,0.0603 -3.77511,0.67084 -1.14068,0.61048 -2.23554,1.6421 -4.01892,3.4253 -2.7387,2.73843 -4.3193,4.88891 -4.63675,7.44727 -0.31745,2.55836 0.62625,5.29309 2.52431,9.24321 0.75345,1.56801 1.44208,3.2171 1.93678,4.59283 0.4947,1.37574 0.77479,2.58556 0.77532,2.82566 0.0148,6.71395 3.8752,12.60619 9.35979,13.83604 2.44435,0.54811 3.94721,0.82903 5.32122,0.74048 1.37401,-0.0885 2.51871,-0.56589 4.11279,-1.38102 1.77741,-0.90889 4.01196,-3.21307 6.43725,-6.21161 2.42527,-2.99854 4.95314,-6.67529 6.94148,-10.24264 1.10995,-1.99139 1.72431,-3.00299 1.85804,-4.07797 0.0668,-0.53749 -0.0328,-1.06192 -0.23169,-1.54761 -0.19889,-0.48568 -0.48124,-0.95824 -0.83741,-1.56273 -0.67783,-1.15045 -1.5747,-3.89637 -1.83833,-5.77399 -0.24629,-1.75402 -0.43091,-2.87216 -1.21144,-3.80691 -0.78052,-0.93475 -1.94124,-1.50006 -3.99014,-2.50008 -6.06144,-2.95848 -14.51482,-5.58236 -18.72719,-5.67707 z m 39.08828,0.66477 c 2.97453,0.19443 5.92573,1.97006 7.31553,4.69429 0.88977,1.74409 1.31002,2.95983 1.36436,4.12795 0.0544,1.16812 -0.25111,2.36711 -0.97671,4.10372 -1.75515,4.20066 -7.70107,6.4885 -12.3066,4.62766 -1.53984,-0.62217 -3.11834,-2.41706 -4.09312,-4.52318 -0.97478,-2.10611 -1.33227,-4.48914 -0.81923,-6.10561 0.38602,-1.21626 1.37505,-2.68322 2.61063,-3.91594 1.23558,-1.23272 2.72021,-2.23741 3.97954,-2.65303 0.93983,-0.31017 1.9341,-0.42067 2.9256,-0.35586 z m 38.62038,0.63752 c 0.87756,0.0238 1.50232,0.31336 2.90441,1.03729 1.84984,0.9551 3.7875,2.73297 5.21974,4.64734 1.43224,1.91438 2.332,3.99277 2.332,5.31817 0,0.51443 -0.2384,1.71227 -0.64811,3.04069 -0.40972,1.32843 -0.97993,2.83187 -1.60061,4.15824 -1.31598,2.81218 -2.74024,7.10742 -3.22845,9.77321 -0.73074,3.99 -1.81943,6.66193 -3.49346,8.44517 -1.67404,1.78324 -3.98687,2.77018 -7.43061,3.25875 -2.6109,0.37041 -3.59973,0.20448 -5.31515,-0.86617 -1.10895,-0.69214 -3.73272,-3.08332 -5.52714,-5.11981 -1.60733,-1.82417 -3.95665,-5.13829 -5.87241,-8.14232 -0.95788,-1.50201 -1.81263,-2.93225 -2.41831,-4.05829 -0.30285,-0.56302 -0.54397,-1.05044 -0.70112,-1.4204 -0.15726,-0.37 -0.20454,-0.67979 -0.20454,-0.58909 0,0.11117 0.0154,-0.0819 0.0848,-0.29831 0.0695,-0.21644 0.1781,-0.50709 0.31345,-0.83892 0.2707,-0.66365 0.65086,-1.49496 1.06757,-2.31231 0.44975,-0.88215 0.84932,-1.8788 1.14329,-2.80144 0.29396,-0.92263 0.49214,-1.73521 0.49214,-2.41679 0,-0.82516 0.36059,-2.30471 0.67992,-2.90138 5e-4,-5.9e-4 0.1705,-0.21331 0.48003,-0.44369 0.30952,-0.23037 0.74969,-0.50713 1.28865,-0.80407 1.07793,-0.59391 2.55138,-1.27632 4.24455,-1.97161 3.38634,-1.39058 7.66245,-2.83507 11.55553,-3.81298 2.47696,-0.62219 3.75615,-0.90511 4.63371,-0.88131 z m -77.74349,0.24834 c 3.5734,0.0804 12.21699,2.65766 18.08059,5.51957 2.0358,0.99364 3.01788,1.54528 3.48134,2.10033 0.46346,0.55503 0.62328,1.29863 0.86617,3.02857 0.29812,2.12319 1.14569,4.83153 2.03824,6.34637 0.35564,0.60362 0.60724,1.04119 0.73897,1.36286 0.13172,0.32169 0.16039,0.50247 0.1272,0.76925 -0.0664,0.53358 -0.56372,1.52243 -1.67329,3.51315 -1.93653,3.47441 -4.42654,7.09713 -6.79309,10.02307 -2.36656,2.92593 -4.69696,5.17064 -5.93903,5.80578 -1.54703,0.79107 -2.42539,1.14636 -3.50558,1.21597 -1.08019,0.0696 -2.46356,-0.16486 -4.88207,-0.70717 -4.58743,-1.02868 -8.13488,-6.20719 -8.14836,-12.3263 -0.002,-0.83799 -0.35025,-1.9118 -0.86618,-3.34658 -0.51593,-1.43477 -1.22133,-3.1231 -1.99886,-4.74123 -1.86179,-3.87463 -2.63642,-6.34157 -2.38348,-8.38006 0.25293,-2.03848 1.53239,-3.8798 4.19457,-6.54171 1.76613,-1.76597 2.80733,-2.70115 3.65398,-3.15427 0.84663,-0.45312 1.5651,-0.52006 3.00888,-0.4876 z m 31.40025,22.79759 -3.89323,4.32783 c -5.90023,6.55866 -9.30322,11.81289 -10.21992,16.47848 -0.9167,4.66557 0.83051,8.67439 4.86389,12.21574 l 2.73934,2.4062 13.95416,-0.11811 c 6.67352,-0.056 10.0907,-0.0887 12.19758,-0.35888 2.10688,-0.27019 3.0095,-0.92024 4.0174,-1.86106 2.92913,-2.7342 5.22884,-7.29812 5.22884,-10.70601 0,-1.97081 -1.03638,-4.50666 -2.73784,-7.44272 -1.70145,-2.93607 -4.1012,-6.22772 -6.94602,-9.44612 l -4.85784,-5.49535 -7.1747,0 -7.17166,0 z m 0.69052,1.55063 6.48114,0 6.47661,0 4.39446,4.97292 c 2.78362,3.14915 5.12968,6.37288 6.76584,9.19626 1.63615,2.82339 2.52886,5.29017 2.52886,6.66438 0,2.64441 -2.16915,7.17514 -4.7367,9.5718 -0.97847,0.91335 -1.24994,1.21387 -3.15577,1.45826 -1.90583,0.2444 -5.34098,0.2893 -12.01284,0.34526 l -13.36358,0.11206 -2.29566,-2.01552 c -3.77981,-3.31872 -5.18126,-6.59131 -4.36417,-10.74992 0.81709,-4.1586 4.02964,-9.27065 9.85044,-15.74101 l 3.43137,-3.81449 z m -23.75008,20.15819 c -1.06915,0 -2.1195,0.11277 -2.99072,0.30285 -0.4356,0.0951 -0.82622,0.208 -1.16599,0.3498 -0.33978,0.14182 -0.63875,0.2849 -0.89646,0.6148 -0.22627,0.28968 -0.33862,0.57664 -0.50578,0.99337 -0.16715,0.41674 -0.34949,0.93351 -0.5406,1.52489 -0.38221,1.18279 -0.79823,2.66217 -1.16297,4.17337 -0.71908,2.97934 -1.50751,6.08465 -1.70508,6.74464 -0.0968,0.32338 -0.15979,0.61875 -0.15749,0.92978 0.002,0.31102 0.087,0.68396 0.36494,0.9646 0.27791,0.28063 0.66311,0.37272 0.9858,0.371 0.32271,-0.002 0.6318,-0.0747 0.97975,-0.18929 1.39179,-0.45862 3.46729,-1.66644 6.71586,-3.74786 2.6416,-1.69252 4.16248,-2.71788 5.0668,-3.6252 0.45217,-0.45366 0.76632,-0.90386 0.90858,-1.40829 0.14224,-0.50443 0.082,-1.00695 -0.0454,-1.45372 -0.26047,-0.91358 -0.69178,-2.65086 -0.9434,-3.80237 -0.11111,-0.50849 -0.21621,-0.93698 -0.41491,-1.33863 -0.19871,-0.40165 -0.53252,-0.7708 -0.954,-0.98731 -0.84296,-0.43302 -1.83095,-0.41643 -3.53889,-0.41643 z m 63.75452,0.053 c -0.69835,-1.7e-4 -1.56697,0.0511 -2.71513,0.10601 l -5.44991,0.26044 -0.69507,4.08556 c -0.17504,1.03029 -0.30809,1.85122 -0.27559,2.63334 0.0325,0.78211 0.27301,1.53059 0.77229,2.1942 0.99853,1.32724 2.82807,2.41418 6.31608,4.53832 2.11013,1.28502 3.86151,2.22381 5.13343,2.756 0.63597,0.26609 1.13236,0.43712 1.60667,0.48609 0.23715,0.0245 0.48993,0.0421 0.80257,-0.12569 0.31263,-0.16778 0.53625,-0.64042 0.51486,-0.95248 -0.0109,-0.1591 -0.0167,-0.12387 -0.0242,-0.159 -0.008,-0.0351 -0.0175,-0.0747 -0.0288,-0.12266 -0.0226,-0.096 -0.054,-0.22524 -0.0939,-0.38615 -0.0798,-0.32181 -0.19355,-0.7703 -0.33315,-1.31591 -0.2792,-1.09123 -0.66176,-2.567 -1.0812,-4.16731 -0.41521,-1.58419 -0.79534,-3.22836 -1.0706,-4.5883 -0.27527,-1.35994 -0.43843,-2.50431 -0.44066,-2.81809 -0.003,-0.44148 -5.9e-4,-0.83605 -0.17263,-1.26745 -0.17196,-0.43141 -0.60768,-0.80777 -1.07363,-0.95704 -0.46595,-0.14927 -0.99312,-0.19971 -1.69146,-0.19988 z m -63.75452,1.49763 c 1.68194,0 2.55399,0.10265 2.83172,0.24531 0.13887,0.0713 0.18101,0.11328 0.27106,0.29529 0.0901,0.18202 0.18603,0.5105 0.28923,0.98277 0.26087,1.19383 0.68942,2.92049 0.96762,3.89626 0.0843,0.29574 0.0894,0.44582 0.0439,0.60723 -0.0455,0.16141 -0.17188,0.39032 -0.51485,0.73443 -0.68595,0.68821 -2.17784,1.73253 -4.80332,3.41472 -3.21993,2.06307 -5.34348,3.24433 -6.36606,3.58129 -0.1239,0.0408 -0.1593,0.0357 -0.2438,0.053 0.0146,-0.0766 0.0107,-0.1076 0.0424,-0.21351 0.24921,-0.8325 1.00449,-3.83279 1.72629,-6.82338 0.35571,-1.47377 0.76411,-2.92542 1.13117,-4.06132 0.18353,-0.56794 0.3574,-1.0588 0.50426,-1.42495 0.14686,-0.36615 0.30732,-0.63795 0.28923,-0.61479 -0.0495,0.0633 0.0572,-0.0494 0.27257,-0.13931 0.21537,-0.0899 0.52858,-0.18441 0.89798,-0.26501 0.73877,-0.16119 1.7026,-0.26802 2.6606,-0.26802 z m 61.1136,0.15597 c 2.28615,-0.10932 3.5204,-0.0845 3.85991,0.0242 0.16976,0.0543 0.0852,6e-4 0.106,0.053 0.0208,0.0521 0.0591,0.30156 0.0621,0.70566 0.005,0.66603 0.19036,1.71965 0.47246,3.11337 0.2821,1.39373 0.66726,3.0591 1.09028,4.67309 0.4188,1.59785 0.80009,3.07283 1.07818,4.15975 0.10096,0.39462 0.16911,0.66866 0.23925,0.94794 -0.20115,-0.0621 -0.29921,-0.069 -0.58299,-0.18776 -1.1378,-0.47607 -2.85634,-1.38813 -4.92599,-2.6485 -3.48214,-2.12055 -5.22476,-3.27272 -5.883,-4.14763 -0.32911,-0.43745 -0.43915,-0.78029 -0.46185,-1.32651 -0.0227,-0.54622 0.0831,-1.29055 0.25591,-2.30778 l 0.48458,-2.85745 4.20517,-0.2014 z"
         style="color:#000000;font-style:normal;font-variant:normal;font-weight:normal;font-stretch:normal;font-size:medium;line-height:normal;font-family:sans-serif;text-indent:0;text-align:start;text-decoration:none;text-decoration-line:none;text-decoration-style:solid;text-decoration-color:#000000;letter-spacing:normal;word-spacing:normal;text-transform:none;direction:ltr;block-progression:tb;writing-mode:lr-tb;baseline-shift:baseline;text-anchor:start;clip-rule:nonzero;display:inline;overflow:visible;visibility:visible;opacity:1;isolation:auto;mix-blend-mode:normal;color-interpolation:sRGB;color-interpolation-filters:linearRGB;solid-color:#000000;solid-opacity:1;fill:none;fill-opacity:1;fill-rule:nonzero;stroke:#000000;stroke-width:1.78092015;stroke-linecap:butt;stroke-linejoin:miter;stroke-miterlimit:4;stroke-dasharray:none;stroke-dashoffset:0;stroke-opacity:1;color-rendering:auto;image-rendering:auto;shape-rendering:auto;text-rendering:auto;enable-background:accumulate" />
      <g
         transform="matrix(0.59364003,0,0,0.59364003,286.67634,366.17726)"
         id="g4219"
         style="fill:none;stroke:#000000;stroke-width:3;stroke-miterlimit:4;stroke-dasharray:none">
        <path
           inkscape:connector-curvature="0"
           style="color:#000000;font-style:normal;font-variant:normal;font-weight:normal;font-stretch:normal;font-size:medium;line-height:normal;font-family:sans-serif;text-indent:0;text-align:start;text-decoration:none;text-decoration-line:none;text-decoration-style:solid;text-decoration-color:#000000;letter-spacing:normal;word-spacing:normal;text-transform:none;direction:ltr;block-progression:tb;writing-mode:lr-tb;baseline-shift:baseline;text-anchor:start;clip-rule:nonzero;display:inline;overflow:visible;visibility:visible;opacity:1;isolation:auto;mix-blend-mode:normal;color-interpolation:sRGB;color-interpolation-filters:linearRGB;solid-color:#000000;solid-opacity:1;fill:none;fill-opacity:1;fill-rule:nonzero;stroke:#000000;stroke-width:3;stroke-linecap:butt;stroke-linejoin:miter;stroke-miterlimit:4;stroke-dasharray:none;stroke-dashoffset:0;stroke-opacity:1;color-rendering:auto;image-rendering:auto;shape-rendering:auto;text-rendering:auto;enable-background:accumulate"
           d="m 775.804,149.39054 c 2.627,0 6.37983,1.11596 9.79016,2.82379 3.41034,1.70783 6.50866,4.02874 8.00203,6.07867 0.54728,0.75126 1.2081,2.42249 1.71417,4.64255 0.50606,2.22007 0.90216,5.00086 1.15809,8.09895 0.51183,6.1962 0.46625,13.67002 -0.2806,20.64403 -0.44533,4.15843 -0.75954,6.21772 -1.40041,7.42808 -0.64089,1.21036 -1.73832,1.98429 -4.35686,3.62221 -3.07584,1.92396 -7.44321,5.12007 -9.8973,7.25207 -1.14736,0.99677 -2.29638,1.89576 -3.19112,2.51768 -0.44735,0.31097 -0.83506,0.55393 -1.09431,0.69384 -0.069,0.0372 -0.0918,0.0424 -0.13774,0.0637 -0.0456,-0.009 -0.0181,-0.004 -0.0714,-0.0153 -0.19449,-0.0439 -0.46591,-0.10657 -0.79842,-0.18876 -0.66502,-0.16437 -1.57609,-0.39845 -2.66308,-0.68363 -2.174,-0.57039 -5.05075,-1.34787 -8.09896,-2.18863 -15.33404,-4.22944 -22.09401,-7.45287 -25.79929,-11.85636 -1.63115,-1.93851 -3.04342,-5.17776 -3.79567,-8.49432 -0.75225,-3.31656 -0.83718,-6.73097 -0.17856,-8.91268 0.55751,-1.84674 2.51575,-4.63683 5.16802,-7.25462 2.65227,-2.61779 5.98282,-5.12594 9.18306,-6.76995 3.39402,-1.74354 7.48526,-4.65778 9.50957,-6.87199 6.08062,-6.65101 12.98926,-10.62939 17.23865,-10.62939 z"
           id="path4209" />
        <path
           inkscape:connector-curvature="0"
           style="color:#000000;font-style:normal;font-variant:normal;font-weight:normal;font-stretch:normal;font-size:medium;line-height:normal;font-family:sans-serif;text-indent:0;text-align:start;text-decoration:none;text-decoration-line:none;text-decoration-style:solid;text-decoration-color:#000000;letter-spacing:normal;word-spacing:normal;text-transform:none;direction:ltr;block-progression:tb;writing-mode:lr-tb;baseline-shift:baseline;text-anchor:start;clip-rule:nonzero;display:inline;overflow:visible;visibility:visible;opacity:1;isolation:auto;mix-blend-mode:normal;color-interpolation:sRGB;color-interpolation-filters:linearRGB;solid-color:#000000;solid-opacity:1;fill:none;fill-opacity:1;fill-rule:nonzero;stroke:#000000;stroke-width:3;stroke-linecap:butt;stroke-linejoin:miter;stroke-miterlimit:4;stroke-dasharray:none;stroke-dashoffset:0;stroke-opacity:1;color-rendering:auto;image-rendering:auto;shape-rendering:auto;text-rendering:auto;enable-background:accumulate"
           d="m 827.88471,149.41354 c 2.42152,-0.009 3.71294,0.1437 5.23436,0.9336 1.5214,0.78991 3.35878,2.34485 6.39243,5.21394 3.9376,3.72403 11.06145,8.84982 16.14177,11.62678 5.93938,3.24654 9.6178,6.05301 11.66249,9.03766 2.04469,2.98464 2.61138,6.21403 2.15036,10.83345 -0.18453,1.84919 -0.62312,3.93858 -1.17338,5.75218 -0.55027,1.8136 -1.25596,3.38601 -1.74733,4.0533 -1.53983,2.09107 -4.8251,4.54674 -9.21113,6.78781 -4.38603,2.24108 -9.86781,4.30861 -15.82802,5.88226 -5.74938,1.51798 -11.37472,3.02346 -12.62417,3.37988 0.11924,-0.034 -0.14153,0.0104 -0.56118,-0.11728 -0.41964,-0.12773 -0.99747,-0.37688 -1.65295,-0.7321 -1.31097,-0.71042 -2.94126,-1.83644 -4.57367,-3.21917 -3.2755,-2.7745 -7.63085,-5.9483 -10.0325,-7.25207 -1.75244,-0.95135 -2.39653,-1.41078 -2.92583,-2.58146 -0.52928,-1.17068 -0.87861,-3.31365 -1.30093,-7.25717 -0.75777,-7.07599 -0.81026,-14.56841 -0.29335,-20.75627 0.25847,-3.09393 0.66023,-5.86367 1.1734,-8.07344 0.51315,-2.20977 1.18043,-3.86796 1.73968,-4.62214 3.61573,-4.87619 11.45607,-8.86691 17.42995,-8.88971 z"
           id="path4207" />
        <path
           inkscape:connector-curvature="0"
           style="color:#000000;font-style:normal;font-variant:normal;font-weight:normal;font-stretch:normal;font-size:medium;line-height:normal;font-family:sans-serif;text-indent:0;text-align:start;text-decoration:none;text-decoration-line:none;text-decoration-style:solid;text-decoration-color:#000000;letter-spacing:normal;word-spacing:normal;text-transform:none;direction:ltr;block-progression:tb;writing-mode:lr-tb;baseline-shift:baseline;text-anchor:start;clip-rule:nonzero;display:inline;overflow:visible;visibility:visible;opacity:1;isolation:auto;mix-blend-mode:normal;color-interpolation:sRGB;color-interpolation-filters:linearRGB;solid-color:#000000;solid-opacity:1;fill:none;fill-opacity:1;fill-rule:nonzero;stroke:#000000;stroke-width:3;stroke-linecap:butt;stroke-linejoin:miter;stroke-miterlimit:4;stroke-dasharray:none;stroke-dashoffset:0;stroke-opacity:1;color-rendering:auto;image-rendering:auto;shape-rendering:auto;text-rendering:auto;enable-background:accumulate"
           d="m 802.92209,212.67207 c 5.01065,0.32752 9.98202,3.31861 12.32316,7.90763 1.49884,2.93796 2.20677,4.9859 2.29831,6.95362 0.0916,1.96773 -0.42301,3.98746 -1.64529,6.91281 -2.9566,7.07611 -12.97264,10.93003 -20.73076,7.7954 -2.59389,-1.04806 -5.2529,-4.07159 -6.89494,-7.6194 -1.64205,-3.54779 -2.24425,-7.56205 -1.38002,-10.28503 0.65027,-2.04883 2.31631,-4.51995 4.39766,-6.59649 2.08137,-2.07655 4.58227,-3.76897 6.70364,-4.46909 1.58315,-0.52249 3.25803,-0.70863 4.92824,-0.59945 z"
           id="path4190" />
        <path
           inkscape:connector-curvature="0"
           style="color:#000000;font-style:normal;font-variant:normal;font-weight:normal;font-stretch:normal;font-size:medium;line-height:normal;font-family:sans-serif;text-indent:0;text-align:start;text-decoration:none;text-decoration-line:none;text-decoration-style:solid;text-decoration-color:#000000;letter-spacing:normal;word-spacing:normal;text-transform:none;direction:ltr;block-progression:tb;writing-mode:lr-tb;baseline-shift:baseline;text-anchor:start;clip-rule:nonzero;display:inline;overflow:visible;visibility:visible;opacity:1;isolation:auto;mix-blend-mode:normal;color-interpolation:sRGB;color-interpolation-filters:linearRGB;solid-color:#000000;solid-opacity:1;fill:none;fill-opacity:1;fill-rule:nonzero;stroke:#000000;stroke-width:3;stroke-linecap:butt;stroke-linejoin:miter;stroke-miterlimit:4;stroke-dasharray:none;stroke-dashoffset:0;stroke-opacity:1;color-rendering:auto;image-rendering:auto;shape-rendering:auto;text-rendering:auto;enable-background:accumulate"
           d="m 867.97898,213.74598 c 1.47827,0.0401 2.53069,0.52787 4.89254,1.74733 3.11611,1.60889 6.38014,4.60375 8.79278,7.82856 2.41264,3.22481 3.9283,6.72591 3.9283,8.95858 0,0.86657 -0.40158,2.88435 -1.09176,5.12211 -0.69018,2.23776 -1.6507,4.77035 -2.69625,7.00464 -2.21681,4.73718 -4.616,11.97261 -5.43841,16.46319 -1.23094,6.72125 -3.06487,11.22218 -5.88481,14.22609 -2.81995,3.0039 -6.71597,4.66643 -12.51703,5.48943 -4.39811,0.62397 -6.06382,0.34445 -8.95349,-1.45908 -1.86805,-1.16593 -6.28785,-5.19392 -9.31059,-8.62443 -2.70758,-3.07286 -6.66507,-8.65557 -9.8922,-13.71592 -1.61357,-2.53018 -3.05342,-4.93944 -4.07371,-6.83629 -0.51015,-0.94841 -0.91633,-1.76948 -1.18105,-2.39269 -0.2649,-0.62327 -0.34454,-1.14512 -0.34454,-0.99234 0,0.18727 0.0259,-0.13792 0.14285,-0.50251 0.11702,-0.36459 0.30002,-0.85421 0.52802,-1.41317 0.456,-1.11794 1.09639,-2.5183 1.79834,-3.89515 0.75762,-1.486 1.43071,-3.16487 1.9259,-4.71908 0.49519,-1.5542 0.82903,-2.923 0.82903,-4.07115 0,-1.38999 0.60741,-3.88232 1.14533,-4.88743 8.5e-4,-0.001 0.28721,-0.35933 0.80862,-0.74741 0.5214,-0.38806 1.26288,-0.85427 2.17077,-1.35448 1.81579,-1.00045 4.29786,-2.14999 7.15003,-3.32121 5.70438,-2.34246 12.90758,-4.77574 19.46555,-6.42305 4.17251,-1.0481 6.32733,-1.52469 7.8056,-1.48459 z"
           id="path4188" />
        <path
           inkscape:connector-curvature="0"
           style="color:#000000;font-style:normal;font-variant:normal;font-weight:normal;font-stretch:normal;font-size:medium;line-height:normal;font-family:sans-serif;text-indent:0;text-align:start;text-decoration:none;text-decoration-line:none;text-decoration-style:solid;text-decoration-color:#000000;letter-spacing:normal;word-spacing:normal;text-transform:none;direction:ltr;block-progression:tb;writing-mode:lr-tb;baseline-shift:baseline;text-anchor:start;clip-rule:nonzero;display:inline;overflow:visible;visibility:visible;opacity:1;isolation:auto;mix-blend-mode:normal;color-interpolation:sRGB;color-interpolation-filters:linearRGB;solid-color:#000000;solid-opacity:1;fill:none;fill-opacity:1;fill-rule:nonzero;stroke:#000000;stroke-width:3;stroke-linecap:butt;stroke-linejoin:miter;stroke-miterlimit:4;stroke-dasharray:none;stroke-dashoffset:0;stroke-opacity:1;color-rendering:auto;image-rendering:auto;shape-rendering:auto;text-rendering:auto;enable-background:accumulate"
           d="m 737.01832,214.16432 c 6.01948,0.13534 20.57979,4.47688 30.45716,9.29784 3.42935,1.67381 5.08369,2.60306 5.8644,3.53804 0.78071,0.93497 1.04992,2.18758 1.45909,5.1017 0.50218,3.57657 1.92994,8.13882 3.43345,10.69061 0.59908,1.0168 1.02291,1.7539 1.24481,2.29577 0.22189,0.54188 0.27018,0.84642 0.21427,1.29582 -0.1118,0.89882 -0.94959,2.56456 -2.81869,5.91798 -3.26212,5.85271 -7.4566,11.95527 -11.44311,16.88408 -3.98652,4.9288 -7.91214,8.71006 -10.00444,9.77996 -2.606,1.33259 -4.08561,1.93108 -5.90522,2.04833 -1.8196,0.11729 -4.14992,-0.2777 -8.22395,-1.19124 -7.72764,-1.73283 -13.70339,-10.45615 -13.72611,-20.76393 -0.003,-1.41161 -0.58999,-3.22046 -1.45909,-5.63738 -0.8691,-2.41691 -2.05736,-5.26094 -3.36712,-7.98671 -3.13623,-6.5269 -4.44112,-10.68253 -4.01504,-14.1164 0.42608,-3.43387 2.58135,-6.53561 7.06585,-11.01967 2.97509,-2.97481 4.72902,-4.55014 6.15521,-5.31343 1.42618,-0.7633 2.63646,-0.87606 5.06853,-0.82137 z"
           id="path4186" />
        <path
           inkscape:connector-curvature="0"
           style="color:#000000;font-style:normal;font-variant:normal;font-weight:normal;font-stretch:normal;font-size:medium;line-height:normal;font-family:sans-serif;text-indent:0;text-align:start;text-decoration:none;text-decoration-line:none;text-decoration-style:solid;text-decoration-color:#000000;letter-spacing:normal;word-spacing:normal;text-transform:none;direction:ltr;block-progression:tb;writing-mode:lr-tb;baseline-shift:baseline;text-anchor:start;clip-rule:nonzero;display:inline;overflow:visible;visibility:visible;opacity:1;isolation:auto;mix-blend-mode:normal;color-interpolation:sRGB;color-interpolation-filters:linearRGB;solid-color:#000000;solid-opacity:1;fill:none;fill-opacity:1;fill-rule:nonzero;stroke:#000000;stroke-width:3;stroke-linecap:butt;stroke-linejoin:miter;stroke-miterlimit:4;stroke-dasharray:none;stroke-dashoffset:0;stroke-opacity:1;color-rendering:auto;image-rendering:auto;shape-rendering:auto;text-rendering:auto;enable-background:accumulate"
           d="m 791.07595,255.17944 10.91763,0 10.90999,0 7.40257,8.37699 c 4.68906,5.30482 8.64106,10.73526 11.3972,15.49132 2.75614,4.75606 4.25992,8.9114 4.25992,11.22629 0,4.45457 -3.65397,12.08669 -7.97907,16.12392 -1.64825,1.53856 -2.10555,2.04478 -5.31597,2.45647 -3.21041,0.4117 -8.99699,0.48732 -20.23589,0.5816 l -22.51126,0.18876 -3.86708,-3.39518 c -6.36718,-5.59047 -8.72796,-11.10322 -7.35155,-18.10849 1.3764,-7.00526 6.78801,-15.61662 16.59328,-26.51609 l 5.78023,-6.42559 z"
           id="path4182" />
      </g>
      <g
         transform="matrix(0.59364003,0,0,0.59364003,286.67634,366.17726)"
         id="g4227"
         style="fill:none;stroke:#000000;stroke-width:3;stroke-miterlimit:4;stroke-dasharray:none">
        <path
           inkscape:connector-curvature="0"
           style="color:#000000;font-style:normal;font-variant:normal;font-weight:normal;font-stretch:normal;font-size:medium;line-height:normal;font-family:sans-serif;text-indent:0;text-align:start;text-decoration:none;text-decoration-line:none;text-decoration-style:solid;text-decoration-color:#000000;letter-spacing:normal;word-spacing:normal;text-transform:none;direction:ltr;block-progression:tb;writing-mode:lr-tb;baseline-shift:baseline;text-anchor:start;clip-rule:nonzero;display:inline;overflow:visible;visibility:visible;opacity:1;isolation:auto;mix-blend-mode:normal;color-interpolation:sRGB;color-interpolation-filters:linearRGB;solid-color:#000000;solid-opacity:1;fill:none;fill-opacity:1;fill-rule:nonzero;stroke:#000000;stroke-width:3;stroke-linecap:butt;stroke-linejoin:miter;stroke-miterlimit:4;stroke-dasharray:none;stroke-dashoffset:0;stroke-opacity:1;color-rendering:auto;image-rendering:auto;shape-rendering:auto;text-rendering:auto;enable-background:accumulate"
           d="m 802.0191,120.4664 c 0.2675,0.50502 0.51772,0.96014 0.86474,1.68358 1.03117,2.14977 2.35163,5.14707 3.69873,8.44076 l 4.56856,11.17017 -4.30583,3.64517 c -1.36367,1.15384 -2.69133,2.20524 -3.70894,2.95643 -0.5088,0.37559 -0.94134,0.67757 -1.24226,0.86729 -0.28511,-0.18186 -0.68931,-0.46491 -1.16829,-0.82648 -0.97878,-0.73886 -2.25544,-1.78256 -3.56353,-2.93092 l -4.14004,-3.63497 4.50226,-11.22373 c 1.32503,-3.30217 2.62588,-6.30597 3.64261,-8.46118 0.3418,-0.72452 0.58808,-1.18016 0.85199,-1.68612 z"
           id="path4215" />
        <path
           inkscape:connector-curvature="0"
           style="color:#000000;font-style:normal;font-variant:normal;font-weight:normal;font-stretch:normal;font-size:medium;line-height:normal;font-family:sans-serif;text-indent:0;text-align:start;text-decoration:none;text-decoration-line:none;text-decoration-style:solid;text-decoration-color:#000000;letter-spacing:normal;word-spacing:normal;text-transform:none;direction:ltr;block-progression:tb;writing-mode:lr-tb;baseline-shift:baseline;text-anchor:start;clip-rule:nonzero;display:inline;overflow:visible;visibility:visible;opacity:1;isolation:auto;mix-blend-mode:normal;color-interpolation:sRGB;color-interpolation-filters:linearRGB;solid-color:#000000;solid-opacity:1;fill:none;fill-opacity:1;fill-rule:nonzero;stroke:#000000;stroke-width:3;stroke-linecap:butt;stroke-linejoin:miter;stroke-miterlimit:4;stroke-dasharray:none;stroke-dashoffset:0;stroke-opacity:1;color-rendering:auto;image-rendering:auto;shape-rendering:auto;text-rendering:auto;enable-background:accumulate"
           d="m 879.19763,192.18109 12.51701,0.70914 c 3.75085,0.21241 7.24113,0.48503 9.82332,0.74995 1.1209,0.11506 1.97401,0.22455 2.68861,0.32905 -0.36811,0.44086 -0.73482,0.88474 -1.3494,1.50245 -1.67003,1.67853 -4.09318,3.84369 -6.63476,5.95624 -2.5416,2.11256 -5.21035,4.18218 -7.37452,5.6884 -1.08207,0.75311 -2.04161,1.36606 -2.76512,1.76264 -0.72351,0.39656 -1.39952,0.45485 -0.98717,0.4872 0.11036,0.009 -0.17517,-0.0413 -0.51018,-0.1709 -0.33501,-0.12969 -0.77736,-0.32465 -1.27287,-0.56629 -0.99102,-0.48328 -2.2034,-1.1519 -3.36202,-1.86722 -1.67646,-1.03504 -2.56764,-1.80432 -2.87481,-2.28811 -0.30717,-0.4838 -0.32162,-0.72705 -0.0255,-1.6402 0.54623,-1.68445 1.23879,-4.88178 1.62489,-7.39237 l 0.50253,-3.25998 z"
           id="path4201" />
        <path
           inkscape:connector-curvature="0"
           style="color:#000000;font-style:normal;font-variant:normal;font-weight:normal;font-stretch:normal;font-size:medium;line-height:normal;font-family:sans-serif;text-indent:0;text-align:start;text-decoration:none;text-decoration-line:none;text-decoration-style:solid;text-decoration-color:#000000;letter-spacing:normal;word-spacing:normal;text-transform:none;direction:ltr;block-progression:tb;writing-mode:lr-tb;baseline-shift:baseline;text-anchor:start;clip-rule:nonzero;display:inline;overflow:visible;visibility:visible;opacity:1;isolation:auto;mix-blend-mode:normal;color-interpolation:sRGB;color-interpolation-filters:linearRGB;solid-color:#000000;solid-opacity:1;fill:none;fill-opacity:1;fill-rule:nonzero;stroke:#000000;stroke-width:3;stroke-linecap:butt;stroke-linejoin:miter;stroke-miterlimit:4;stroke-dasharray:none;stroke-dashoffset:0;stroke-opacity:1;color-rendering:auto;image-rendering:auto;shape-rendering:auto;text-rendering:auto;enable-background:accumulate"
           d="m 722.8611,192.45658 2.21925,5.17823 c 0.70288,1.63977 1.33766,3.23182 1.78559,4.45378 0.22396,0.61098 0.40228,1.13055 0.51528,1.50245 0.0264,0.0867 0.0347,0.13048 0.0535,0.19897 -0.18317,0.19258 -0.49587,0.47462 -0.89534,0.79076 -0.81226,0.64282 -1.95929,1.42961 -3.15795,2.17332 -1.19867,0.74372 -2.45694,1.45037 -3.49212,1.9514 -0.51759,0.25053 -0.98095,0.44992 -1.33154,0.57395 -0.35059,0.12408 -0.6288,0.14505 -0.52038,0.14795 0.22343,0.007 -0.63386,-0.20783 -1.45653,-0.69638 -0.82268,-0.48856 -1.80293,-1.18418 -2.68095,-1.931 -1.89153,-1.60889 -6.19484,-5.18045 -9.59374,-7.96376 -1.64635,-1.34815 -3.02232,-2.68761 -3.86453,-3.68853 -0.19336,-0.22977 -0.24106,-0.33549 -0.37243,-0.52036 0.69056,-0.14976 1.66351,-0.31802 2.83144,-0.48211 2.35053,-0.33026 5.4774,-0.65433 8.78002,-0.89025 l 11.18038,-0.79842 z"
           id="path4198" />
        <path
           inkscape:connector-curvature="0"
           style="color:#000000;font-style:normal;font-variant:normal;font-weight:normal;font-stretch:normal;font-size:medium;line-height:normal;font-family:sans-serif;text-indent:0;text-align:start;text-decoration:none;text-decoration-line:none;text-decoration-style:solid;text-decoration-color:#000000;letter-spacing:normal;word-spacing:normal;text-transform:none;direction:ltr;block-progression:tb;writing-mode:lr-tb;baseline-shift:baseline;text-anchor:start;clip-rule:nonzero;display:inline;overflow:visible;visibility:visible;opacity:1;isolation:auto;mix-blend-mode:normal;color-interpolation:sRGB;color-interpolation-filters:linearRGB;solid-color:#000000;solid-opacity:1;fill:none;fill-opacity:1;fill-rule:nonzero;stroke:#000000;stroke-width:3;stroke-linecap:butt;stroke-linejoin:miter;stroke-miterlimit:4;stroke-dasharray:none;stroke-dashoffset:0;stroke-opacity:1;color-rendering:auto;image-rendering:auto;shape-rendering:auto;text-rendering:auto;enable-background:accumulate"
           d="m 751.06841,291.74845 c 2.83325,0 4.30225,0.17292 4.77009,0.41323 0.23392,0.12016 0.30491,0.19082 0.4566,0.49742 0.1517,0.30662 0.31337,0.85996 0.48722,1.65551 0.43944,2.01102 1.16134,4.91962 1.62998,6.56333 0.14205,0.49818 0.15065,0.751 0.0739,1.0229 -0.0767,0.27189 -0.28953,0.6575 -0.86728,1.23716 -1.15549,1.15931 -3.66862,2.91848 -8.0913,5.75217 -5.42405,3.47529 -9.00122,5.46514 -10.72377,6.03276 -0.20872,0.0688 -0.26834,0.0601 -0.41069,0.0893 0.0246,-0.12903 0.018,-0.18126 0.0714,-0.35967 0.4198,-1.40235 1.69208,-6.45641 2.90797,-11.49413 0.5992,-2.48259 1.28716,-4.92794 1.90548,-6.84138 0.30916,-0.95672 0.60204,-1.78357 0.84943,-2.40036 0.2474,-0.61679 0.51769,-1.07464 0.48722,-1.03563 -0.0833,0.1067 0.0964,-0.0833 0.45915,-0.23468 0.36279,-0.15143 0.89041,-0.31064 1.51266,-0.44641 1.24448,-0.27152 2.86808,-0.45149 4.48184,-0.45149 z"
           id="path4176-8" />
        <path
           inkscape:connector-curvature="0"
           style="color:#000000;font-style:normal;font-variant:normal;font-weight:normal;font-stretch:normal;font-size:medium;line-height:normal;font-family:sans-serif;text-indent:0;text-align:start;text-decoration:none;text-decoration-line:none;text-decoration-style:solid;text-decoration-color:#000000;letter-spacing:normal;word-spacing:normal;text-transform:none;direction:ltr;block-progression:tb;writing-mode:lr-tb;baseline-shift:baseline;text-anchor:start;clip-rule:nonzero;display:inline;overflow:visible;visibility:visible;opacity:1;isolation:auto;mix-blend-mode:normal;color-interpolation:sRGB;color-interpolation-filters:linearRGB;solid-color:#000000;solid-opacity:1;fill:none;fill-opacity:1;fill-rule:nonzero;stroke:#000000;stroke-width:3;stroke-linecap:butt;stroke-linejoin:miter;stroke-miterlimit:4;stroke-dasharray:none;stroke-dashoffset:0;stroke-opacity:1;color-rendering:auto;image-rendering:auto;shape-rendering:auto;text-rendering:auto;enable-background:accumulate"
           d="m 854.01563,292.01119 c 3.85108,-0.18415 5.9302,-0.1424 6.50211,0.0408 0.28596,0.0915 0.14356,0.001 0.17856,0.0893 0.035,0.0878 0.0995,0.50798 0.10462,1.1887 0.008,1.12194 0.32066,2.89679 0.79586,5.24454 0.47521,2.34776 1.12402,5.15312 1.83661,7.87192 0.70547,2.69162 1.34776,5.17625 1.81621,7.0072 0.17007,0.66474 0.28487,1.12637 0.40303,1.59682 -0.33885,-0.10461 -0.50404,-0.11624 -0.98207,-0.31629 -1.91664,-0.80194 -4.81157,-2.33833 -8.29793,-4.46145 -5.86575,-3.57212 -8.80124,-5.51298 -9.91005,-6.98678 -0.5544,-0.73689 -0.73976,-1.31442 -0.778,-2.23453 -0.0383,-0.92013 0.13995,-2.17396 0.43109,-3.88751 l 0.81628,-4.81344 7.08371,-0.33927 z"
           id="path4172" />
      </g>
    </g>
    <text
       sodipodi:linespacing="125%"
       id="text4276"
       y="601.76154"
       x="224.76654"
       style="font-style:normal;font-weight:normal;font-size:40px;line-height:125%;font-family:sans-serif;letter-spacing:0px;word-spacing:0px;fill:#000000;fill-opacity:1;stroke:none;stroke-width:1px;stroke-linecap:butt;stroke-linejoin:miter;stroke-opacity:1"
       xml:space="preserve"><tspan
         style="font-style:normal;font-variant:normal;font-weight:normal;font-stretch:normal;font-size:13.75px;font-family:'Roboto Condensed';-inkscape-font-specification:'Roboto Condensed, ';text-align:center;text-anchor:middle"
         y="601.76154"
         x="224.76654"
         id="tspan4278"
         sodipodi:role="line">Order of Our Martyred Lady</tspan></text>
    <text
       sodipodi:linespacing="125%"
       id="text4276-8"
       y="604.5545"
       x="767.85059"
       style="font-style:normal;font-weight:normal;font-size:40px;line-height:125%;font-family:sans-serif;letter-spacing:0px;word-spacing:0px;fill:#000000;fill-opacity:1;stroke:none;stroke-width:1px;stroke-linecap:butt;stroke-linejoin:miter;stroke-opacity:1"
       xml:space="preserve"><tspan
         style="font-style:normal;font-variant:normal;font-weight:normal;font-stretch:normal;font-size:13.75px;font-family:'Roboto Condensed';-inkscape-font-specification:'Roboto Condensed, ';text-align:center;text-anchor:middle"
         y="604.5545"
         x="767.85059"
         id="tspan4278-1"
         sodipodi:role="line">Order of the Sacred Rose</tspan></text>
    <text
       sodipodi:linespacing="125%"
       id="text4276-7"
       y="802.63031"
       x="494.8959"
       style="font-style:normal;font-weight:normal;font-size:40px;line-height:125%;font-family:sans-serif;letter-spacing:0px;word-spacing:0px;fill:#000000;fill-opacity:1;stroke:none;stroke-width:1px;stroke-linecap:butt;stroke-linejoin:miter;stroke-opacity:1"
       xml:space="preserve"><tspan
         style="font-style:normal;font-variant:normal;font-weight:normal;font-stretch:normal;font-size:13.75px;font-family:'Roboto Condensed';-inkscape-font-specification:'Roboto Condensed, ';text-align:center;text-anchor:middle"
         y="802.63031"
         x="494.8959"
         id="tspan4278-8"
         sodipodi:role="line">Order of the Bloody Rose</tspan></text>
    <text
       xml:space="preserve"
       style="font-style:normal;font-weight:normal;font-size:40px;line-height:125%;font-family:sans-serif;letter-spacing:0px;word-spacing:0px;fill:#000000;fill-opacity:1;stroke:none;stroke-width:1px;stroke-linecap:butt;stroke-linejoin:miter;stroke-opacity:1"
       x="494.83212"
       y="604.5545"
       id="text4198"
       sodipodi:linespacing="125%"><tspan
         sodipodi:role="line"
         id="tspan4200"
         x="494.83212"
         y="604.5545"
         style="font-style:normal;font-variant:normal;font-weight:normal;font-stretch:normal;font-size:13.75px;font-family:'Roboto Condensed';-inkscape-font-specification:'Roboto Condensed, ';text-align:center;text-anchor:middle">Order of the Valorous Heart</tspan></text>
    <text
       sodipodi:linespacing="125%"
       id="text4202"
       y="805.42328"
       x="224.89746"
       style="font-style:normal;font-weight:normal;font-size:40px;line-height:125%;font-family:sans-serif;letter-spacing:0px;word-spacing:0px;fill:#000000;fill-opacity:1;stroke:none;stroke-width:1px;stroke-linecap:butt;stroke-linejoin:miter;stroke-opacity:1"
       xml:space="preserve"><tspan
         style="font-style:normal;font-variant:normal;font-weight:normal;font-stretch:normal;font-size:13.75px;font-family:'Roboto Condensed';-inkscape-font-specification:'Roboto Condensed, ';text-align:center;text-anchor:middle"
         y="805.42328"
         x="224.89746"
         id="tspan4204"
         sodipodi:role="line">Order of the Ebon Chalice</tspan></text>
    <text
       xml:space="preserve"
       style="font-style:normal;font-weight:normal;font-size:40px;line-height:125%;font-family:sans-serif;letter-spacing:0px;word-spacing:0px;fill:#000000;fill-opacity:1;stroke:none;stroke-width:1px;stroke-linecap:butt;stroke-linejoin:miter;stroke-opacity:1"
       x="768.06543"
       y="802.63031"
       id="text4206"
       sodipodi:linespacing="125%"><tspan
         sodipodi:role="line"
         id="tspan4208"
         x="768.06543"
         y="802.63031"
         style="font-style:normal;font-variant:normal;font-weight:normal;font-stretch:normal;font-size:13.75px;font-family:'Roboto Condensed';-inkscape-font-specification:'Roboto Condensed, ';text-align:center;text-anchor:middle">Order of the Argent Shroud</tspan></text>
  </g>
</svg>
