<?xml version="1.0" encoding="UTF-8" standalone="no"?>
<!-- Created with Inkscape (http://www.inkscape.org/) -->

<svg
   xmlns:dc="http://purl.org/dc/elements/1.1/"
   xmlns:cc="http://creativecommons.org/ns#"
   xmlns:rdf="http://www.w3.org/1999/02/22-rdf-syntax-ns#"
   xmlns:svg="http://www.w3.org/2000/svg"
   xmlns="http://www.w3.org/2000/svg"
   xmlns:xlink="http://www.w3.org/1999/xlink"
   xmlns:sodipodi="http://sodipodi.sourceforge.net/DTD/sodipodi-0.dtd"
   xmlns:inkscape="http://www.inkscape.org/namespaces/inkscape"
   width="11in"
   height="8.5in"
   id="svg2"
   version="1.1"
   inkscape:version="0.91pre2_64bit r13532"
   viewBox="0 0 990 765.00002"
   sodipodi:docname="Adeptus Astartes.svg">
  <defs
     id="defs4">
    <pattern
       y="0"
       x="0"
       height="6"
       width="6"
       patternUnits="userSpaceOnUse"
       id="EMFhbasepattern" />
    <pattern
       y="0"
       x="0"
       height="6"
       width="6"
       patternUnits="userSpaceOnUse"
       id="EMFhbasepattern-4" />
    <pattern
       y="0"
       x="0"
       height="6"
       width="6"
       patternUnits="userSpaceOnUse"
       id="EMFhbasepattern-1" />
  </defs>
  <sodipodi:namedview
     id="base"
     pagecolor="#ffffff"
     bordercolor="#666666"
     borderopacity="1.0"
     inkscape:pageopacity="0.0"
     inkscape:pageshadow="2"
     inkscape:zoom="1.2584233"
     inkscape:cx="489.1151"
     inkscape:cy="288.52214"
     inkscape:document-units="px"
     inkscape:current-layer="layer1"
     showgrid="false"
     units="in"
     inkscape:window-width="1920"
     inkscape:window-height="1017"
     inkscape:window-x="1912"
     inkscape:window-y="-8"
     inkscape:window-maximized="1"
     inkscape:snap-global="false"
     inkscape:object-nodes="true"
     showguides="true" />
  <metadata
     id="metadata7">
    <rdf:RDF>
      <cc:Work
         rdf:about="">
        <dc:format>image/svg+xml</dc:format>
        <dc:type
           rdf:resource="http://purl.org/dc/dcmitype/StillImage" />
        <dc:title></dc:title>
      </cc:Work>
    </rdf:RDF>
  </metadata>
  <g
     inkscape:label="Layer 1"
     inkscape:groupmode="layer"
     id="layer1"
     transform="translate(0,-287.36219)">
    <path
       style="fill:none;fill-rule:evenodd;stroke:#000000;stroke-width:1px;stroke-linecap:butt;stroke-linejoin:miter;stroke-opacity:1"
       d="m 495.00003,376.6629 0,-21"
       id="path4433-9"
       inkscape:connector-curvature="0" />
    <a
       xlink:href="Adeptus Terra.svg"
       id="a4590">
      <g
         id="g4584">
        <circle
           style="opacity:1;fill:#ffffff;fill-opacity:1;stroke:#000000;stroke-width:1;stroke-linecap:square;stroke-linejoin:miter;stroke-miterlimit:4;stroke-dasharray:none;stroke-opacity:1"
           id="path4327-6"
           cx="-494.99997"
           cy="-337.42352"
           r="11.727594"
           transform="scale(-1,-1)" />
        <g
           id="g4189"
           transform="translate(-15.801351,1.4716355)">
          <path
             sodipodi:nodetypes="ccc"
             inkscape:connector-curvature="0"
             d="m 505.15578,336.28879 5.64554,-5.64554 5.64554,5.64554"
             style="fill:none;fill-rule:evenodd;stroke:#000000;stroke-width:1px;stroke-linecap:butt;stroke-linejoin:miter;stroke-opacity:1"
             id="path4176" />
          <path
             style="fill:none;fill-rule:evenodd;stroke:#000000;stroke-width:1;stroke-linecap:butt;stroke-linejoin:miter;stroke-miterlimit:4;stroke-dasharray:none;stroke-opacity:1"
             d="m 510.80132,341.96763 0,-11.32438"
             id="path4183"
             inkscape:connector-curvature="0"
             sodipodi:nodetypes="cc" />
        </g>
      </g>
    </a>
    <path
       style="fill:#000000;fill-opacity:1"
       d="m 253.02099,546.51475 c -1.27185,-3.02499 -3.07136,-7.30386 -3.99891,-9.50855 l -1.68645,-4.00855 1.54093,-20.14497 c 0.84752,-11.07975 1.65574,-21.65096 1.79602,-23.49157 l 0.25509,-3.34657 -1.40255,0 -1.40256,0 -1.50986,1.51322 c -0.83044,0.83229 -1.56344,1.51324 -1.62887,1.51324 -0.0655,0 -1.36263,-1.24445 -2.88266,-2.76546 l -2.76366,-2.76546 2.79344,-2.79161 2.7934,-2.79159 1.77676,1.77397 1.77676,1.77398 1.42456,0 c 1.42219,0 1.42456,-5.3e-4 1.42456,-0.27662 0,-0.15216 0.31429,-4.34911 0.69843,-9.32658 0.38411,-4.97747 0.69841,-9.10913 0.69841,-9.18146 0,-0.0723 -1.15418,-1.01945 -2.56481,-2.10471 -1.41064,-1.08524 -2.54993,-2.03002 -2.53175,-2.09952 0.0499,-0.19101 7.7065,-12.62509 7.77586,-12.62787 0.0728,-0.004 7.72454,12.42133 7.77233,12.62014 0.0185,0.0769 -1.12135,1.02663 -2.53297,2.11051 l -2.56656,1.97071 0.0728,0.93121 c 0.0401,0.51217 0.36801,4.75505 0.72871,9.42861 l 0.65584,8.49739 1.39157,0.033 1.39155,0.033 1.78067,-1.77788 1.78065,-1.77788 2.79341,2.7916 2.79343,2.7916 -2.76366,2.76547 c -1.52001,1.521 -2.81721,2.76545 -2.88265,2.76545 -0.0655,0 -0.79844,-0.68095 -1.62886,-1.51323 l -1.50988,-1.51324 -1.36942,0 -1.3694,0 0.002,0.37832 c 0,0.30891 1.30052,17.4427 3.22676,42.52657 l 0.31368,4.08466 -0.83117,1.96826 c -0.75468,1.78721 -4.84203,11.50795 -6.49294,15.4419 -0.36942,0.8803 -0.70602,1.60055 -0.74797,1.60055 -0.0419,0 -1.11689,-2.47503 -2.38873,-5.50001 z m -13.85806,-16.80629 c -2.62487,-0.99253 -4.81294,-1.8442 -4.8624,-1.89253 -0.0494,-0.0481 0.41502,-1.15795 1.03213,-2.46578 1.42859,-3.02738 3.60004,-7.66809 3.95422,-8.45072 l 0.27246,-0.60199 -1.18763,-0.75888 c -0.65318,-0.4174 -1.65802,-1.10245 -2.23298,-1.52236 -0.57492,-0.41991 -1.09272,-0.76346 -1.15063,-0.76346 -0.0579,0 -2.08926,1.96429 -4.51409,4.36508 -2.42483,2.4008 -4.45251,4.36511 -4.50595,4.36511 -0.10989,0 -6.53908,-7.2082 -6.52857,-7.31962 0.004,-0.0396 1.01206,-0.81113 2.24074,-1.71455 1.22869,-0.90344 3.37641,-2.48964 4.77272,-3.5249 l 2.53875,-1.88232 -0.2107,-0.27251 c -1.3024,-1.68462 -2.14634,-2.86997 -2.68282,-3.76817 -0.35475,-0.59394 -0.69144,-1.1086 -0.74822,-1.14368 -0.0568,-0.035 -2.70316,1.19758 -5.88086,2.73926 -3.1777,1.54168 -5.78984,2.78967 -5.80476,2.77331 -0.0148,-0.0163 -0.75052,-1.41784 -1.63468,-3.1144 -0.88418,-1.69657 -2.16805,-4.15848 -2.85305,-5.47093 -0.68501,-1.31243 -1.22646,-2.40592 -1.20323,-2.42993 0.0502,-0.0518 0.65834,-0.16442 8.31646,-1.53887 3.23307,-0.58027 5.91323,-1.09014 5.95591,-1.13307 0.0427,-0.0429 0.004,-0.4901 -0.0837,-0.99373 -0.0887,-0.50363 -0.22244,-1.45959 -0.29725,-2.12435 l -0.136,-1.20865 -7.89941,0 c -4.34467,0 -7.89941,-0.0255 -7.89941,-0.0567 0,-0.16366 -1.28327,-11.45786 -1.33269,-11.7291 l -0.0584,-0.32011 15.47863,0 c 9.43655,0 15.47863,0.0422 15.47863,0.10798 0,0.482 0.30614,2.16289 0.59073,3.24337 1.28476,4.87795 4.20146,9.26054 7.72202,11.60305 1.17776,0.78365 2.69159,1.50598 3.7233,1.77656 l 0.76822,0.2015 0,0.47788 c 0,0.63807 -0.6434,6.56591 -2.33151,21.48137 -0.77087,6.81098 -1.46182,12.94669 -1.53548,13.63492 -0.1077,1.0066 -0.1695,1.24988 -0.31599,1.24391 -0.10016,-0.005 -2.32974,-0.8195 -4.95462,-1.81203 z m 27.36081,1.67396 c -0.0245,-0.08 -0.12649,-0.905 -0.22648,-1.83331 -0.1,-0.92832 -0.83538,-7.47598 -1.63422,-14.55034 -1.72734,-15.29692 -2.18705,-19.59269 -2.139,-19.988 0.0315,-0.25923 0.1566,-0.33392 1.04068,-0.62139 4.56199,-1.48337 8.40722,-5.5787 10.50123,-11.18431 0.54398,-1.4562 0.96931,-3.10717 1.13666,-4.41198 l 0.13377,-1.04314 15.47926,0 15.47926,0 -0.0693,0.37832 c -0.0381,0.20806 -0.33054,2.70926 -0.64983,5.55821 -0.31928,2.84897 -0.61136,5.40217 -0.64906,5.67383 l -0.0685,0.49388 -7.87925,0.0299 -7.87927,0.0299 -0.19859,1.56259 c -0.10923,0.85943 -0.25004,1.80229 -0.31292,2.09525 -0.0629,0.29295 -0.0782,0.56753 -0.0341,0.61016 0.044,0.0427 3.19678,0.63428 7.00605,1.31481 3.80928,0.68052 7.01866,1.26497 7.13196,1.2988 0.2225,0.0664 0.35929,-0.21313 -3.77598,7.71632 -0.94851,1.81879 -1.74279,3.32512 -1.76507,3.3474 -0.0223,0.0223 -2.56098,-1.1866 -5.64158,-2.6864 -3.08061,-1.4998 -5.70195,-2.75891 -5.82523,-2.79804 -0.18546,-0.0588 -0.34745,0.12955 -0.93891,1.092 -0.59262,0.96435 -1.65219,2.44511 -2.71909,3.79991 l -0.20583,0.26135 2.01006,1.49716 c 1.10554,0.82343 3.25247,2.41265 4.77096,3.53159 1.5725,1.15872 2.73942,2.09603 2.71096,2.17752 -0.0666,0.1907 -6.3498,7.24849 -6.45299,7.24849 -0.0443,0 -2.08166,-1.96962 -4.52756,-4.37691 -2.44589,-2.40729 -4.51181,-4.35181 -4.5909,-4.32115 -0.0791,0.0307 -0.72852,0.47463 -1.44312,0.98659 -0.71462,0.51196 -1.69659,1.17844 -2.18214,1.48107 -0.48555,0.30264 -0.86214,0.58423 -0.83686,0.62577 0.0252,0.0416 0.59506,1.25407 1.26618,2.69456 0.67112,1.44048 1.85776,3.9756 2.63699,5.63356 0.77924,1.658 1.3738,3.05752 1.32127,3.11009 -0.10324,0.1032 -9.66143,3.71142 -9.83168,3.71142 -0.0566,0 -0.12308,-0.0656 -0.14765,-0.14551 z"
       id="path3025-1"
       inkscape:connector-curvature="0" />
    <path
       inkscape:connector-curvature="0"
       id="path4011"
       d="m 493.11356,697.78098 c -4.11525,-0.52231 -6.5318,-1.9916 -7.90094,-4.80386 -1.54067,-3.16431 -1.64476,-7.40149 -0.34197,-13.92094 0.67436,-3.37486 1.3325,-5.78604 3.52583,-12.91681 2.79149,-9.07543 4.8943,-16.88781 6.21209,-23.07886 0.18285,-0.85906 0.35898,-1.56192 0.39142,-1.56192 0.0326,0 0.20857,0.70286 0.39142,1.56192 1.31773,6.19105 3.4206,14.00343 6.21209,23.07886 3.1228,10.15261 4.01747,14.02719 4.36317,18.89468 0.31625,4.45253 -0.57808,7.92856 -2.5614,9.95578 -1.85143,1.89241 -4.19247,2.71883 -7.93372,2.80086 -1.06993,0.0238 -2.13104,0.019 -2.35799,-0.01 z m -34.3681,-18.98154 c -3.1229,-0.31604 -5.58664,-1.11592 -7.60185,-2.46797 -0.76315,-0.51207 -0.93666,-0.76006 -0.53177,-0.76006 0.0905,0 0.99808,-0.24141 2.01689,-0.53649 5.84551,-1.69299 9.94605,-4.07806 9.94809,-5.78618 1.9e-4,-0.20288 -0.0813,-0.43662 -0.18117,-0.51946 -0.12172,-0.10103 -1.05303,-0.20071 -2.82646,-0.30241 -2.86667,-0.16434 -4.24623,-0.35764 -5.89347,-0.8258 -3.57824,-1.01688 -6.58304,-3.45772 -8.28578,-6.7306 -0.27382,-0.52631 -0.49784,-0.97711 -0.49784,-1.00188 0,-0.0251 1.84366,-0.0434 4.09706,-0.0406 4.23936,0.007 5.89531,-0.10286 8.3109,-0.53717 2.12898,-0.38275 3.20237,-0.89894 3.13198,-1.50627 l -0.036,-0.31056 -2.18118,-0.0694 c -2.42212,-0.0771 -3.34193,-0.25599 -5.07575,-0.98728 -2.79252,-1.17775 -5.65477,-3.51586 -8.23214,-6.72476 -1.12228,-1.39731 -2.90638,-3.9271 -2.82611,-4.00743 0.0228,-0.0231 0.40206,0.1125 0.8429,0.30057 4.44416,1.89588 10.39747,3.1777 13.15238,2.8318 1.12145,-0.14079 1.94096,-0.51552 1.99809,-0.91361 0.0472,-0.32913 -0.30108,-0.58907 -2.51212,-1.87435 -5.39202,-3.13434 -8.30837,-5.84305 -10.01948,-9.30612 -1.06391,-2.15315 -1.45189,-3.66336 -1.55862,-6.06681 l -0.0704,-1.58661 0.51872,0.4417 c 5.50543,4.68845 11.00165,8.2303 13.06151,8.41709 0.62362,0.0562 0.71044,0.0374 0.83025,-0.18687 0.17764,-0.33193 0.0115,-0.6424 -1.18862,-2.22161 -2.1639,-2.84741 -3.34804,-5.14107 -4.49558,-8.70795 -0.91646,-2.84856 -1.54092,-5.96226 -1.91018,-9.52459 -0.19313,-1.86317 -0.46326,-7.61278 -0.3624,-7.71361 0.0331,-0.0333 0.25785,0.38505 0.49952,0.92922 0.24167,0.54408 1.0086,2.12994 1.7043,3.52412 4.45443,8.92677 9.59026,15.34945 15.79431,19.75198 2.58474,1.83413 5.50901,3.35092 9.89261,5.13102 3.54577,1.43992 4.82176,2.1041 5.6682,2.9506 1.08974,1.08967 1.47845,2.5418 1.12665,4.20901 -0.3685,1.7468 -1.22083,2.77039 -3.929,4.71851 -0.92033,0.66207 -2.022,1.55585 -2.44817,1.98616 -1.39635,1.41028 -2.03692,3.20796 -1.90543,5.34767 0.17784,2.89368 1.35483,4.76349 3.74281,5.94598 1.05601,0.52292 2.80819,1.00453 3.66947,1.00859 0.17831,6.8e-4 0.32425,0.0271 0.32425,0.0584 0,0.0781 -2.84054,7.65647 -2.88749,7.70377 -0.0211,0.0211 -0.3744,-0.23415 -0.78577,-0.56669 -2.08714,-1.68709 -4.31615,-1.97314 -6.55548,-0.84121 -0.98769,0.49931 -1.88052,1.19539 -3.8015,2.96362 -2.0756,1.91074 -3.26378,2.80724 -4.52601,3.41503 -1.65432,0.79671 -2.44972,0.96551 -4.72918,1.00392 -1.10238,0.0183 -2.21655,0.0122 -2.47593,-0.0143 z m 68.10709,-0.0502 c -0.94073,-0.16895 -2.3396,-0.66364 -3.20265,-1.13276 -1.11953,-0.60841 -2.21673,-1.46549 -4.13384,-3.22925 -1.91473,-1.76152 -2.80804,-2.45746 -3.79418,-2.95596 -2.23933,-1.13194 -4.46833,-0.84589 -6.55547,0.84121 -0.41144,0.33253 -0.76501,0.58751 -0.78578,0.56661 -0.0468,-0.0475 -2.88749,-7.6256 -2.88749,-7.70369 0,-0.0312 0.14595,-0.0577 0.32426,-0.0584 0.86129,-0.007 2.61344,-0.48574 3.66947,-1.00859 2.38798,-1.1825 3.56497,-3.05237 3.74281,-5.94598 0.13149,-2.13972 -0.50907,-3.93748 -1.90543,-5.34768 -0.42617,-0.4303 -1.52785,-1.32415 -2.44817,-1.98616 -2.70816,-1.94811 -3.5605,-2.97177 -3.92906,-4.7185 -0.35173,-1.66729 0.0367,-3.11934 1.12671,-4.20908 0.84643,-0.84644 2.12242,-1.51061 5.66821,-2.95054 3.12537,-1.2692 5.53269,-2.41614 7.41926,-3.53478 6.22389,-3.69043 11.40602,-9.23596 16.03821,-17.16275 0.96658,-1.65411 3.10963,-5.85416 3.93373,-7.70966 0.24169,-0.5441 0.46648,-0.96225 0.49952,-0.92921 0.10082,0.10089 -0.16929,5.85051 -0.36238,7.71367 -0.36925,3.56233 -0.99375,6.67604 -1.91019,9.52459 -1.14755,3.56688 -2.33167,5.86055 -4.49561,8.70795 -1.20013,1.57921 -1.36624,1.88969 -1.18861,2.22162 0.47414,0.88591 4.33596,-0.94 8.69642,-4.11172 1.23609,-0.89908 3.82282,-2.94965 5.19534,-4.1185 l 0.51872,-0.44178 -0.0704,1.58662 c -0.10672,2.40344 -0.49476,3.91372 -1.55864,6.06688 -1.71111,3.46307 -4.62746,6.17178 -10.01943,9.3061 -2.2111,1.28529 -2.55944,1.54517 -2.51214,1.87437 0.0569,0.39808 0.87662,0.77282 1.99805,0.9136 2.75498,0.34584 8.70821,-0.93591 13.15239,-2.83179 0.44083,-0.18808 0.82018,-0.32331 0.8429,-0.30058 0.0803,0.0802 -1.70385,2.61013 -2.82609,4.00736 -2.57742,3.20891 -5.43961,5.54709 -8.23218,6.72483 -1.73378,0.73123 -2.65361,0.91014 -5.07573,0.98722 l -2.18118,0.0694 -0.0359,0.31054 c -0.0703,0.60734 1.00302,1.1236 3.13203,1.50634 2.41552,0.43425 4.07154,0.54131 8.31088,0.53717 2.25337,0 4.09707,0.0163 4.09707,0.0407 0,0.0243 -0.22405,0.47555 -0.49783,1.00188 -1.70277,3.27287 -4.70757,5.71365 -8.28577,6.73059 -1.64727,0.46809 -3.02687,0.66139 -5.89354,0.82579 -1.7734,0.10172 -2.7047,0.20132 -2.82643,0.30234 -0.0999,0.083 -0.18136,0.31666 -0.18116,0.51947 0,1.70819 4.10257,4.09326 9.94812,5.78626 1.01877,0.29507 1.9264,0.53649 2.01684,0.53649 0.40493,0 0.23137,0.24798 -0.53175,0.75999 -1.63891,1.09957 -3.68005,1.87401 -5.94773,2.25669 -1.27769,0.21555 -5.17453,0.31903 -6.0561,0.16073 z"
       style="fill:#000000" />
    <path
       inkscape:connector-curvature="0"
       id="path3047"
       d="m 724.17081,453.27389 c -0.15056,0.005 -0.20591,0.20062 -0.25825,0.59092 l -0.0633,0.47448 -0.54269,-0.39807 c -0.68211,-0.50066 -1.1591,-0.69745 -1.1591,-0.4779 0,0.0851 0.12929,0.7275 0.28719,1.42692 0.81341,3.60339 1.21142,6.835 1.21212,9.8423 0.002,5.34782 -1.14547,8.05746 -4.30369,10.16997 -2.22758,1.49001 -4.73296,2.5226 -10.76095,4.4339 -4.72412,1.4979 -7.40893,2.40047 -9.00545,3.02892 -3.09372,1.21775 -5.64564,2.66915 -7.10395,4.03987 l -0.7314,0.68734 0.25206,0.35401 c 0.4539,0.63747 0.27028,1.07712 -0.54063,1.29546 -0.23971,0.0646 -1.10734,0.19259 -1.92836,0.2844 -1.45999,0.16319 -1.56911,0.19605 -4.95658,1.48965 -12.34868,4.71565 -16.98953,7.14801 -16.43309,8.61152 0.25317,0.66587 0.67069,1.02528 1.87671,1.61573 1.18684,0.58112 1.23978,0.6243 2.80302,2.29264 2.26832,2.42095 3.10562,3.23663 4.32778,4.21696 1.85314,1.48639 4.98148,3.45193 8.22378,5.16661 1.26841,0.6708 1.36937,0.70584 1.29476,0.44768 -0.63931,-2.21218 -0.71141,-3.2879 -0.25068,-3.7486 0.39717,-0.39719 0.92836,-0.36889 2.56748,0.13769 1.95365,0.60388 2.39794,0.716 2.43731,0.61435 0.0191,-0.0498 -0.0461,-0.4014 -0.14464,-0.78169 -0.21362,-0.82439 -0.23321,-1.77019 -0.0406,-1.96279 0.26483,-0.26484 1.14087,-0.13965 2.78373,0.39667 0.9009,0.2942 1.7098,0.56158 1.7975,0.59507 0.13119,0.0498 0.14686,-0.1114 0.0889,-0.90978 -0.13096,-1.80271 0.24201,-2.14625 1.67975,-1.5475 0.39999,0.16657 0.98691,0.39621 1.30439,0.51031 l 0.57713,0.2073 -0.0338,-2.37943 -0.0338,-2.37951 c 1.50686,2.36858 4.04802,6.39089 7.30023,8.47244 -2.15547,0.65058 -3.83905,-0.4721 -5.87393,-1.67217 -0.0181,0.0181 -0.0843,0.702 -0.14669,1.5193 -0.0624,0.81724 -0.16719,1.64833 -0.23279,1.84703 -0.16103,0.48801 -0.54974,0.67883 -1.20108,0.58957 -0.41444,-0.0568 -2.80036,-0.77485 -3.64186,-1.09573 -0.11539,-0.044 -0.0852,0.0624 0.0943,0.33265 0.49901,0.7511 0.94069,1.78389 0.94078,2.1983 6e-5,0.27485 -0.0815,0.48868 -0.24174,0.63363 -0.50825,0.45997 -2.25282,0.13991 -4.51374,-0.82783 -0.51392,-0.22 -0.95368,-0.38039 -0.97726,-0.35675 -0.0236,0.0239 0.0863,0.27335 0.2438,0.55509 0.36155,0.64695 0.62277,1.67317 0.67285,2.63981 0.0452,0.8738 -0.21154,0.68858 2.68043,1.9366 2.25925,0.975 4.49046,1.82174 5.71483,2.16876 0.63098,0.17879 1.16987,0.2607 1.50964,0.23 0.74715,-0.0677 2.25113,-0.7484 4.72449,-2.13775 1.17472,-0.65985 3.09729,-1.74049 4.27201,-2.40145 2.4595,-1.38383 5.59542,-2.94031 7.1005,-3.52413 2.34105,-0.90806 3.92178,-1.18348 5.72379,-0.99856 3.62912,0.3724 6.007,2.19875 8.40629,6.45651 l 0.85399,1.51448 0.49862,-0.93248 c 0.27411,-0.51311 1.04978,-1.77571 1.72382,-2.8058 1.95076,-2.98112 3.05507,-5.47992 3.05507,-6.91317 0,-0.50564 0.004,-0.50735 0.48072,-0.26034 0.19463,0.10068 0.39683,0.13914 0.44972,0.0861 0.20318,-0.20374 1.31562,-2.94256 1.84434,-4.54127 0.51675,-1.56264 0.91941,-3.17013 0.91941,-3.66944 0,-0.11861 0.12429,-0.33183 0.27616,-0.47453 0.64053,-0.60171 1.1553,-2.96169 1.40221,-6.4276 0.073,-1.02558 0.0678,-1.05891 -0.2748,-1.59919 -0.29575,-0.4664 -0.59503,-1.37819 -0.59503,-1.81333 0,-0.0653 0.21667,0.0668 0.48209,0.29407 0.26542,0.22723 0.52207,0.41321 0.57024,0.41321 0.1917,0 0.27485,-1.23211 0.27273,-4.04065 -0.002,-1.65606 -0.0668,-3.47441 -0.14945,-4.15625 -0.80577,-6.6446 -2.69693,-12.18476 -5.65492,-16.5674 -1.02014,-1.51147 -2.41963,-3.20574 -2.57091,-3.11221 -0.0594,0.0368 -0.10881,0.25799 -0.10951,0.49241 -0.003,0.80164 -0.84745,4.29166 -1.00138,4.1377 -0.0291,-0.0291 -0.13115,-0.43452 -0.22657,-0.9008 -0.5138,-2.51048 -1.80479,-5.00809 -4.01857,-7.7748 -0.96253,-1.20288 -3.82149,-4.13262 -5.17628,-5.30434 -0.43269,-0.37423 -0.67864,-0.56007 -0.82921,-0.5551 z m 32.07212,20.69686 c -1.4091,-0.005 -3.90935,0.55624 -6.66181,1.49654 -1.7215,0.58812 -5.13298,1.9221 -5.2961,2.07093 -0.0478,0.0436 0.0925,0.43633 0.31198,0.87255 0.94933,1.88684 1.55914,6.48561 1.56334,11.79196 0.002,2.49996 -0.10738,2.76864 -0.97451,2.40634 -0.23934,-0.0999 -0.45913,-0.15806 -0.48829,-0.12877 -0.0292,0.029 0.0677,0.5907 0.21487,1.24786 0.39985,1.78618 0.37144,3.83238 -0.0716,5.17838 -0.32824,0.99718 -0.79524,2.00686 -1.29131,2.79268 -0.15101,0.23919 -0.27478,0.60502 -0.27548,0.81268 -5.2e-4,0.20762 -0.12631,0.9228 -0.27893,1.5895 -0.71503,3.12362 -2.22912,6.42376 -3.13703,6.83743 -0.21768,0.0992 -0.49022,0.54675 -1.07163,1.75684 -1.53224,3.18919 -3.25723,5.73264 -5.26993,7.77131 -0.70525,0.71441 -1.33845,1.29822 -1.40771,1.29822 -0.0692,0 -0.37528,-0.42794 -0.67974,-0.95178 -1.55002,-2.66707 -2.70728,-4.18269 -4.17146,-5.46282 -1.01471,-0.88706 -2.76252,-2.12877 -2.99448,-2.12877 -0.23981,0 -1.13286,2.49052 -2.52684,7.04267 -0.91411,2.98521 -1.31012,4.01645 -2.49447,6.49722 -0.56922,1.19229 -1.06647,2.36034 -1.10468,2.59573 -0.0813,0.50072 -0.26283,0.59663 1.65977,-0.8712 2.18369,-1.6672 3.42375,-2.08487 4.04543,-1.36228 0.3894,0.4526 0.32964,0.70657 -0.60193,2.57231 -1.79132,3.58759 -5.05009,7.95094 -8.26234,11.06258 -1.79169,1.73565 -2.36613,2.18047 -4.79335,3.71485 -0.3188,0.20151 -0.20531,0.18906 2.34502,-0.25276 10.50808,-1.8205 17.5972,-4.12319 21.69615,-7.04811 0.41548,-0.29647 1.15286,-0.87099 1.63911,-1.27685 0.48622,-0.4059 0.94609,-0.73829 1.02133,-0.73829 2.33943,1.19935 2.51053,4.2843 1.82506,6.55848 0.11497,0.11493 1.12267,-0.83295 2.14807,-2.02069 2.78936,-3.23098 7.62764,-10.37287 9.68312,-14.29326 0.26634,-0.50797 0.52851,-0.96924 0.58264,-1.0248 0.89636,-0.25646 3.27499,1.74266 3.08125,4.38564 0,0 0.67818,-0.89256 1.13016,-1.61775 2.1167,-3.39614 4.61871,-11.14698 5.05368,-15.65486 0.0705,-0.73021 0.1421,-1.34689 0.1591,-1.3698 2.84923,0.78992 4.45688,3.9588 4.83468,6.64386 1.54628,-2.52778 1.43532,-4.4324 1.47037,-5.85118 -0.009,-3.45432 -0.65115,-7.79719 -1.87809,-12.69968 -0.60655,-2.42359 -1.07232,-3.91256 -1.67423,-5.35462 -0.0842,-0.20177 -0.0402,-0.21405 0.61432,-0.16667 1.68046,0.12157 5.22687,2.59269 7.24032,5.04474 0.31748,0.38666 0.59146,0.66105 0.60881,0.61019 0.0673,-0.19694 -0.93943,-2.91041 -1.53305,-4.1322 -0.98016,-2.01744 -2.10119,-3.59381 -3.69006,-5.19004 -1.54197,-1.54921 -2.35489,-2.18222 -4.657,-3.62672 -0.86018,-0.53975 -1.66631,-1.12103 -1.79199,-1.29199 -0.21493,-0.29237 -0.2172,-0.32861 -0.0385,-0.60124 0.50649,-0.77302 1.90414,-1.20562 4.27064,-1.32299 l 1.63566,-0.0813 -1.55853,-0.7679 c -2.58186,-1.27161 -4.54655,-1.87356 -7.65904,-2.34779 -2.31228,-0.35225 -2.8122,-0.48206 -3.02546,-0.7865 -0.546,-0.77951 0.29699,-2.00359 2.33056,-3.38495 1.03307,-0.7017 1.06486,-0.83943 0.19422,-0.84296 z m -51.6994,13.5281 c 0.0193,0.0197 -0.99876,1.12658 -2.26239,2.46009 -1.56291,1.64927 -2.38091,2.43049 -2.55852,2.4435 -0.26067,0.0192 -3.97037,-0.80305 -4.06885,-0.90155 -0.0286,-0.0285 1.95232,-0.94922 4.40149,-2.04541 2.44919,-1.09609 4.46892,-1.97632 4.48827,-1.95663 z m -18.3711,7.45179 c 0.28135,-0.0166 0.57261,0.0568 0.78444,0.24448 0.35873,0.31782 0.36971,0.61735 0.0338,0.94285 -0.5413,0.5244 -1.72864,0.19952 -1.72864,-0.47314 0,-0.41072 0.44154,-0.68682 0.91046,-0.71419 z m -2.89185,0.0861 c 0.29934,0.008 0.60303,0.12229 0.8099,0.36293 0.2308,0.26843 0.16486,0.65172 -0.15977,0.92627 -0.50763,0.42927 -1.65105,0.0467 -1.64255,-0.54955 0.006,-0.47454 0.49353,-0.75359 0.99242,-0.73965 z m 2.75067,2.47652 c 0.41807,0.0124 0.80685,0.24385 0.90495,0.63089 0.0643,0.25401 0.0154,0.35032 -0.30027,0.59085 -0.3874,0.29523 -0.62923,0.33732 -1.10192,0.19222 -0.58778,-0.1805 -0.71194,-0.81859 -0.23071,-1.18529 0.21587,-0.16449 0.4771,-0.23604 0.72795,-0.22867 z m -3.09572,0.007 c 0.16485,-0.0151 0.33843,0 0.50689,0.0482 0.2262,0.0661 0.56336,0.51352 0.56336,0.74727 0,0.0846 -0.16278,0.27842 -0.36227,0.43046 -0.21646,0.16495 -0.4938,0.27615 -0.688,0.27615 -0.45036,0 -0.93456,-0.39158 -0.93456,-0.75623 0,-0.39579 0.42008,-0.70102 0.91458,-0.74581 z m -2.78372,0.0978 c 0.21048,0.016 0.41792,0.0827 0.58677,0.21145 0.48909,0.37268 0.39536,0.90776 -0.20042,1.14254 -0.41727,0.16428 -0.59006,0.16895 -0.92147,0.0239 -0.37358,-0.1633 -0.55003,-0.37652 -0.55441,-0.67013 -0.005,-0.39528 0.41561,-0.66924 0.87947,-0.7073 0.0696,-0.005 0.1399,-0.006 0.21006,0 z"
       style="fill:#000000" />
    <path
       style="fill:#000000"
       d="m 240.84361,687.88502 -16.00679,-7.42174 1.1654,-2.29607 c 0.64096,-1.2628 3.26395,-6.42231 5.82886,-11.46553 l 4.66347,-9.16953 19.49152,0.0159 19.49153,0.0159 5.27325,11.40335 c 2.90026,6.27179 5.26099,11.4352 5.24605,11.47413 -0.0265,0.0691 -29.00331,14.87614 -29.0985,14.86926 -0.0264,0 -7.25107,-3.34327 -16.05479,-7.42526 z m -5.07992,-34.45738 c -3.28772,-6.05717 -5.56418,-10.88438 -6.08975,-12.91334 -0.1376,-0.53114 -0.16187,-0.75211 -0.13136,-1.19617 0.11912,-1.7338 1.49549,-5.43511 3.88761,-10.45443 0.82619,-1.73361 1.65302,-3.3077 2.1076,-4.01247 0.37663,-0.58392 1.01782,-1.26981 1.34136,-1.4349 0.78889,-0.40247 2.76561,-0.5902 3.98174,-0.37823 1.37121,0.23904 2.41538,0.67615 4.86712,2.03761 3.02463,1.67958 4.02453,2.03935 5.99373,2.15643 1.42523,0.0846 1.7628,0.23017 2.00486,0.86401 0.47881,1.25379 -1.0092,3.35789 -2.76511,3.91003 -0.95598,0.30057 -3.45472,0.2972 -5.83112,-0.008 -0.67025,-0.0861 -1.09593,-0.1121 -1.19809,-0.0732 -0.21845,0.083 -0.62592,0.54849 -0.82301,0.94011 -0.43823,0.87079 -0.77817,2.35209 -0.84031,3.66177 l -0.0387,0.81695 0.43403,0.16395 c 0.7786,0.29408 2.39406,1.15427 3.04849,1.62329 0.79569,0.57021 1.70765,1.46138 2.17931,2.1296 0.5156,0.73046 0.84142,1.41417 1.23851,2.59902 0.78009,2.32754 2.75126,6.87173 4.45999,10.28167 l 0.43551,0.86913 -8.70161,0 -8.70161,0 -0.85914,-1.58284 z m 19.51246,1.33498 c -0.39841,-0.95349 -5.2906,-12.41286 -5.70513,-13.36356 -0.65085,-1.49264 -0.7527,-1.66402 -1.27854,-2.15118 -0.58651,-0.5434 -1.33935,-1.02111 -2.83587,-1.79951 -1.14832,-0.59729 -1.28146,-0.68503 -1.3994,-0.9217 -0.11767,-0.23607 -0.12211,-0.30136 -0.0456,-0.67179 0.16615,-0.80448 0.86514,-2.06543 1.25852,-2.27037 0.18192,-0.0948 0.4827,-0.10801 2.1869,-0.0962 2.73585,0.0193 3.59495,-0.0926 4.72607,-0.61437 0.76797,-0.35434 1.80629,-1.05388 2.30623,-1.55383 0.35531,-0.35526 0.41778,-0.39334 0.49429,-0.30117 0.12075,0.14548 0.52509,0.34084 0.81152,0.39209 0.13104,0.0231 0.77648,0.0457 1.43427,0.0497 1.24077,0.007 1.37856,-0.0172 1.84584,-0.32103 0.18151,-0.11807 0.18443,-0.11713 0.54464,0.17165 1.57104,1.25941 2.41206,1.75326 3.53548,2.07609 0.84603,0.24302 1.48341,0.31447 2.80737,0.31447 1.89872,0 2.70696,-0.15866 3.14672,-0.61769 0.10502,-0.10959 0.2296,-0.19932 0.27686,-0.19932 0.0472,0 0.27894,0.32513 0.51487,0.72245 0.6958,1.17181 1.39917,1.73884 2.5537,2.05881 1.26693,0.35109 3.43513,0.37069 5.4266,0.049 0.59607,-0.0963 1.09657,-0.16216 1.11221,-0.14654 0.0991,0.0991 0.16059,1.33459 0.13917,2.79656 l -0.0249,1.70196 -1.86964,7.47181 -1.86961,7.47173 -9.99451,0 -9.99448,0 -0.10358,-0.24792 z m 18.88902,-19.62832 c -1.30834,-0.23986 -2.40736,-0.88131 -3.13195,-1.82805 l -0.3286,-0.42929 0,-0.70841 c 0,-1.59369 0.57171,-4.86159 1.3658,-7.80674 0.59354,-2.20145 1.40886,-4.4358 1.70793,-4.68062 0.088,-0.072 0.37931,-0.2413 0.64726,-0.37612 2.05266,-1.03261 4.43185,-0.17521 5.94393,2.14212 l 0.28875,0.44253 -0.0359,1.0893 c -0.0547,1.65601 -0.62193,5.13607 -1.53779,9.4348 l -0.33963,1.59409 -0.31215,0.28553 c -0.367,0.33567 -0.87797,0.59133 -1.47678,0.73887 -0.50006,0.12323 -2.31361,0.18952 -2.79078,0.10199 z m -9.65887,-2.45593 c -1.33308,-0.18667 -2.77674,-0.83026 -3.93799,-1.75547 l -0.16263,-0.12959 0.0378,-1.55839 c 0.0498,-2.05438 0.32388,-4.3668 0.90598,-7.64504 0.46856,-2.63881 1.26407,-5.83653 1.51164,-6.0763 0.2457,-0.23793 1.33131,-0.79681 1.93563,-0.9964 1.17123,-0.38685 2.10776,-0.42989 3.17102,-0.14554 1.5287,0.40876 2.88936,1.5821 3.92528,3.38484 l 0.32425,0.56425 -0.0794,0.55909 c -0.43888,3.09109 -2.10606,8.851 -3.5567,12.28796 -0.46506,1.10188 -0.38442,1.02858 -1.4848,1.35034 -0.65849,0.19263 -1.8382,0.2656 -2.59008,0.16025 z m -8.06439,-2.27767 c -0.22467,-0.0497 -0.55717,-0.15476 -0.7389,-0.23349 -0.26092,-0.11304 -0.32088,-0.16806 -0.28502,-0.26156 0.21261,-0.55399 0.21623,-1.51111 0.007,-1.9426 -0.45482,-0.93957 -2.16694,-1.78731 -4.44128,-2.19905 -0.81889,-0.14827 -0.77164,-0.0656 -0.77114,-1.34683 0.002,-2.02696 0.35754,-6.04168 0.81439,-9.16469 0.19409,-1.32669 0.19421,-1.3271 0.42157,-1.52065 0.67551,-0.57491 1.60538,-1.08473 2.48329,-1.36166 2.34743,-0.74032 4.77886,-0.10754 6.64557,1.72957 l 0.52762,0.51922 -3.5e-4,1.25259 c -0.002,4.27954 -1.28785,11.13669 -2.63182,14.02755 -0.20837,0.44823 -0.27058,0.5263 -0.44732,0.56166 -0.33648,0.0672 -1.14684,0.0365 -1.58395,-0.0602 z m -8.50998,-5.75759 c -1.28492,-0.86747 -3.28188,-1.92293 -4.68236,-2.4748 -1.31376,-0.5177 -2.23823,-0.73159 -3.3372,-0.77218 -0.84484,-0.0311 -1.74483,0.043 -2.07994,0.17171 -0.0874,0.0338 -0.095,-0.12575 -0.0579,-1.21539 0.0772,-2.26461 0.40565,-4.00855 1.03896,-5.51509 0.28792,-0.68484 0.37965,-0.83013 0.7752,-1.2277 0.77159,-0.77544 1.96494,-1.2669 3.56553,-1.46828 2.28154,-0.28712 4.58298,0.37401 6.1276,1.76031 0.32193,0.28896 0.33015,0.30631 0.39781,0.83964 0.1095,0.86343 0.0248,4.02737 -0.14035,5.24215 -0.25919,1.90665 -0.61715,3.58424 -0.96966,4.54433 -0.079,0.21529 -0.16297,0.39136 -0.18649,0.39123 -0.0236,-1.3e-4 -0.22657,-0.1243 -0.45123,-0.27593 z"
       id="path3085"
       inkscape:connector-curvature="0" />
    <path
       inkscape:connector-curvature="0"
       d="m 701.22097,618.74592 -1.33434,1.22253 c -1.00942,1.36246 -1.05762,2.31177 -0.43908,5.54087 l 0.50508,3.05942 1.16772,-1.31176 c 1.30286,-1.73214 1.32519,-1.71446 3.6353,-0.55623 l 1.02812,0.52341 -0.55814,-2.94768 c -0.58255,-3.25562 -0.86358,-4.08575 -2.46083,-4.91003 z m 1.74092,7.96074 3.33173,1.93006 2.08199,8.51805 -3.5902,-0.6691 -3.07271,4.90959 -0.61607,-4.42988 -1.06506,-7.12374 z m 7.28094,-20.15854 c 1.61525,-0.12567 1.57493,0.77633 1.97642,3.88752 l 0.1985,1.44914 -3.07406,-2.0273 -2.86061,2.93776 -0.0566,-1.70346 c -0.11944,-3.57927 -0.4785,-3.90253 1.21051,-4.24132 0.53912,-0.10811 2.06774,-0.26043 2.60617,-0.30234 z m 0.0267,13.76115 -2.8945,3.04021 c 0.21483,2.03144 0.0767,1.03804 0.76844,6.72098 l 0.77576,6.161 2.57856,-3.40023 4.11412,2.30948 -0.58071,-5.26117 -0.85945,-7.09194 c -1.52336,-0.93462 -2.39026,-1.52271 -3.90222,-2.47833 z m -0.88266,-9.43188 1.81971,1.26731 c 1.52023,1.14538 1.818,1.63102 2.17986,5.30396 l 0.52392,4.11596 -1.67452,-1.04045 c -1.95384,-1.44996 -1.97222,-1.42383 -4.09039,0.55819 l -0.94017,0.89062 -0.43131,-4.01249 c -0.409,-3.69005 -0.31437,-4.15215 1.14272,-5.54779 z m 8.72429,-0.46903 c -1.36346,1.31418 -1.59979,1.82945 -1.51501,5.50022 l -0.0178,3.48947 -0.006,0.23455 0,0 0,0.40511 1.52887,-1.22921 c 0.76719,-0.72889 1.2027,-1.13509 1.64503,-1.21859 0,-1.8e-4 0,1.2e-4 0.006,0 0.0528,-0.01 0.10545,-0.0134 0.15887,-0.014 0.0534,3.8e-4 0.10551,0.006 0.15779,0.014 3.8e-4,1.2e-4 0,-1.3e-4 0,0 3.2e-4,0 3.8e-4,-7e-5 0,0 0.44232,0.0835 0.87784,0.4897 1.64502,1.21859 l 1.52888,1.22921 0,-0.4062 0,0 0,-0.24523 -0.0191,-3.47878 c 0.0848,-3.67078 -0.15048,-4.18604 -1.51395,-5.50015 l -1.7991,-1.45849 z m 13.04499,-4.5567 c 1.57181,0.17642 1.36727,1.03385 1.18036,4.09053 l -0.19473,1.50636 -2.67427,-2.5278 -2.88848,1.85011 0.0826,-1.26438 c 0.228,-3.48877 0.25852,-3.82957 1.94017,-3.84395 0.53682,-0.006 2.03034,0.13037 2.55426,0.18913 z m -2.59942,13.16054 -3.33397,2.38281 c -0.16746,1.98716 -0.11721,1.00935 -0.49867,6.58513 l -0.36384,5.91978 3.46828,-2.17662 3.1196,3.94178 0.41477,-6.60193 0.47959,-6.95751 c -1.28875,-1.1761 -2.01177,-1.89933 -3.28576,-3.09344 z m -7.12794,-16.16406 c 1.67051,0.0712 1.50999,0.94049 1.50999,4.00327 l 0,3.65603 -1.40614,-1.32181 -1.40613,-1.29364 -1.60305,1.23742 -1.60303,1.26553 0,-3.59974 c 0,-3.49672 0.0254,-3.83894 1.79988,-3.96543 0.56633,-0.0407 2.15162,-0.006 2.70848,0.0185 z m 8.01112,6.97449 1.41217,1.53047 c 1.24702,1.37758 1.44322,1.89794 1.115,5.48598 l -0.2542,4.04257 -1.41428,-1.30534 c -1.60673,-1.74937 -1.62912,-1.72768 -4.02432,-0.21667 l -1.06514,0.68106 0.32404,-3.92632 c 0.28613,-3.61309 0.46184,-4.03875 2.11537,-5.1091 z m -28.1172,5.1697 c 0.62662,-0.0779 1.23144,-0.006 1.38903,0.76044 0.16294,0.55413 0.61753,2.06578 0.80884,3.36284 l -2.40698,-1.23805 -2.01795,2.09936 c -0.5748,-3.55014 -0.84305,-3.61635 0.26323,-4.29277 0.61728,-0.33032 1.58784,-0.64513 1.96383,-0.69182 z m 18.71991,3.61272 3.3844,2.60908 c 0.0407,1.99417 0.0547,1.01515 0.0743,6.60448 l 0.0279,6.18714 c -1.23507,-0.87147 -2.45932,-1.7579 -3.6842,-2.64363 -1.05584,1.33963 -2.25606,2.53742 -3.45913,3.74068 l -0.028,-6.66545 -0.0279,-6.97461 c 1.4536,-1.08376 2.27362,-1.75497 3.71276,-2.85769 z m 18.53281,5.72625 c 0.70186,0 2.64495,5.44077 2.64495,7.18264 0.0344,0.33248 -4.9283,0.57912 -5.93689,0.53053 -0.71897,-0.5968 -0.26602,-2.7658 -0.22895,-3.27502 0.10055,-1.38331 2.41715,-4.43815 3.52089,-4.43815 z m -3.80905,8.82307 3.77763,-0.37936 c 2.07144,-0.20803 3.79455,-0.21121 3.81699,0.012 -0.31957,2.94469 -1.19016,9.72259 -1.54039,9.99085 -2.14661,0.12267 -5.37011,-0.0407 -7.21876,0.0736 -0.10347,-1.4682 0.16109,-1.99766 0.58993,-5.28692 z m -14.80784,-0.26564 c 4.14484,2.57499 4.02489,3.02767 7.5644,0.1689 l 2.55924,3.43102 2.53105,3.40298 -0.25408,18.63227 -12.73888,-6.48299 -14.28666,7.93078 c -0.2292,0.12523 -3.82774,-15.36609 -3.82507,-16.36642 l 3.51433,-5.97116 c 4.25824,0.88013 4.36043,-0.11873 6.60689,-3.56852 3.63542,2.23723 5.09962,2.72388 8.32878,-1.17686 z m 13.44177,10.95879 3.88103,0 c 2.14203,0 3.90915,0.25503 3.90915,0.56246 0,0.30743 -1.31202,3.70512 -2.7001,6.38239 -6.02509,11.62046 -5.33131,7.48643 -5.20245,-0.22337 z m -13.75143,9.22589 15.41176,7.95973 -4.52851,11.83911 -10.60252,0 -10.60252,0 -4.94966,-11.27748 z m 12.28939,19.68634 c 1.61187,-0.14704 10.77124,2.41498 10.77124,3.09356 0,0.23145 -1.41968,0.98647 -3.14979,1.65926 -1.7301,0.67281 -3.58849,1.39375 -4.10604,1.60305 -0.68926,0.27881 -1.36244,-0.44933 -2.58733,-2.69985 -0.96803,-1.7785 -1.45957,-3.29327 -1.15303,-3.5998 0.0357,-0.0357 0.11753,-0.0464 0.22495,-0.056 z m -24.41105,0.0279 c 0.33788,-0.0286 0.57905,-0.0114 0.64684,0.0566 0.2879,0.28651 -0.22684,1.84178 -1.15309,3.54351 -0.91275,1.67714 -1.83008,3.04105 -2.02487,3.00925 -1.15308,-0.18876 -7.8464,-3.18611 -7.8464,-3.51548 0,-0.60303 8.01226,-2.89438 10.37752,-3.09357 z m 22.44163,1.0687 4.35992,6.9746 c 2.11716,3.38682 4.83766,7.28382 5.28622,7.98702 0.77786,1.21948 -0.30813,1.60424 -9.6172,8.52136 -5.36795,3.98864 -9.9034,7.23885 -10.06818,7.22772 -0.41816,-0.0286 -18.12731,-13.03411 -18.95516,-13.92103 -0.50948,-0.54586 0.69436,-2.69928 4.19005,-8.80266 l 4.58424,-7.93105 z"
       style="fill:#000000"
       id="path3120" />
    <g
       inkscape:label="Layer 1"
       id="g3122"
       transform="matrix(0.22045223,0,0,0.22045223,635.60663,682.29799)"
       style="fill:#000000">
      <path
         style="fill:#000000"
         d="m 440.15335,368.72792 c -0.24799,-0.0616 -0.26265,0.019 -0.41407,2.17774 -0.24797,3.53713 -0.62739,7.49272 -0.9082,9.47656 l -0.25781,1.82422 1.23437,1.1914 c 3.19391,3.08301 6.44785,6.35205 7.42383,7.45899 4.61996,5.23988 7.86849,10.57737 9.83985,16.19336 l 0,-0.65039 c 0.9121,2.45153 1.58367,4.95287 2.00976,7.52343 1.06288,6.41229 0.46057,11.63547 -2.00976,17.23243 l 0,-0.55469 c -0.28971,0.68792 -0.60236,1.37677 -0.94922,2.07031 -4.59932,9.19595 -12.48387,15.20961 -21.81641,16.63867 -1.54014,0.23581 -2.52947,0.17603 -4.20703,-0.2539 -4.30528,-1.10343 -7.21778,-4.13871 -7.73633,-8.06446 -0.0727,-0.55054 -0.15976,-4.14576 -0.19336,-7.98828 -0.0604,-6.90968 -0.14434,-9.05457 -0.51953,-13.34375 -0.52262,-5.97453 -1.74115,-11.95678 -3.27148,-16.05664 -3.87396,-10.37863 -10.6852,-15.9627 -21.0293,-17.24219 -1.06707,-0.13211 -2.43001,-0.19998 -3.80274,-0.20117 -1.37272,-10e-4 -2.75522,0.0644 -3.86523,0.19532 -8.26881,0.97544 -22.26345,3.95909 -33.47461,7.13671 -15.25969,4.32513 -26.9506,9.09384 -33.93359,13.83985 -5.0608,3.43959 -7.66312,6.74695 -8,10.16601 -0.0825,0.83759 -0.0767,0.86842 0.21093,0.94532 0.55063,0.14749 5.82436,0.0856 10.75977,-0.12696 6.7709,-0.2908 15.96747,-0.29033 18.95703,0.002 5.96315,0.5829 9.75033,1.61662 12.50781,3.41406 1.92467,1.25456 3.10193,2.70367 3.78711,4.66406 0.31395,0.89827 0.35147,1.18112 0.35547,2.64258 0.005,1.96308 -0.19468,2.72678 -1.31445,5.03516 -1.25801,2.59332 -2.92706,4.88298 -5.28516,7.24804 -4.5536,4.56706 -10.50058,7.47282 -16.74804,8.1836 -1.80025,0.20481 -5.54555,0.0785 -7.42578,-0.25 -9.18827,-1.60496 -16.78329,-7.40865 -21.27149,-16.25391 -0.32152,-0.63366 -0.60234,-1.25673 -0.87695,-1.87891 -2.47033,-5.59696 -3.07265,-10.82013 -2.00977,-17.23242 0.42609,-2.57056 1.09767,-5.07191 2.00977,-7.52344 1.78811,-4.80608 4.51922,-9.41726 8.26758,-13.95898 1.71267,-2.07525 4.09456,-4.56636 7.0625,-7.38672 2.81656,-2.67645 2.93542,-2.80689 2.86132,-3.17773 -0.25357,-1.26667 -0.80366,-6.664 -1.11718,-10.96094 -0.15149,-2.07598 -0.1657,-2.13923 -0.42969,-2.11133 -0.0706,0.007 -11.13203,2.4774 -16.64453,3.70313 -20.82231,4.62992 -62.61756,13.95936 -62.65821,14 -0.0204,0.0204 -0.18204,1.1939 -0.35742,2.60742 -1.40884,11.3627 -4.33003,25.56071 -8.04492,39.09765 -10.18811,37.12483 -26.7166,72.17192 -47.57031,100.8711 -8.67297,11.93586 -16.97647,21.67834 -27.20703,31.91601 -7.29417,7.29925 -14.46802,13.69836 -21.86524,19.50391 l -1.5957,1.25195 0.38672,0.44532 24.90625,24.73437 c 11.94065,-8.98728 26.77571,-29.27617 43.60156,-59.6309 11.72041,-21.14431 25.0036,-48.47137 35.91602,-73.89258 0.33366,-0.77727 0.33617,-0.77851 0.61132,-1.41797 l 5.45313,1.78125 c -9.11287,25.45226 -41.42663,106.1773 -69.81055,147.375 0.0282,0.0283 48.59536,-12.03724 51.63477,-12.95898 15.34764,-27.30814 40.54902,-87.19209 54.29297,-122.61133 l 5.93164,1.93945 c -10.28588,35.86852 -22.38814,78.06585 -37.04688,114.50977 0.037,0.0571 45.65364,-14.907 45.74024,-15 0.0517,-0.0557 0.55781,-1.91537 1.125,-4.13086 2.28036,-8.90772 4.47151,-17.23941 6.55664,-25.06641 4.62177,-17.34879 8.44503,-30.94657 9.59961,-33.84374 0.46037,-1.15524 0.67111,-1.27971 1.24414,-0.73633 2.4308,2.30513 5.77648,18.40443 10.03515,46.36718 l 3.40821,22.38672 -24.28711,11.64453 -55.00196,26.3711 -10.17382,34.83789 c 0.0828,0.0761 10.03573,5.87866 22.11718,12.89453 12.08143,7.01583 22.1551,12.86765 22.38672,13.00391 l 0.42188,0.25 -0.3418,-0.68164 c -0.18791,-0.37425 -3.91218,-7.72874 -8.27734,-16.34375 -4.36515,-8.61514 -7.93555,-15.72523 -7.93555,-15.79883 8.3e-4,-0.14632 9.58703,-20.08003 9.74219,-20.25781 0.0522,-0.0599 2.50745,2.9146 5.45508,6.60937 l 5.35937,6.7168 0,0.94531 c 0,0.51923 -0.0572,2.46761 -0.12695,4.33008 -0.0701,1.8626 -0.10231,3.4111 -0.0723,3.4414 0.10177,0.10178 15.24479,-12.31745 15.21289,-12.47656 -0.0174,-0.087 -1.47837,-4.05787 -3.24609,-8.82226 -1.76769,-4.76441 -3.19754,-8.6743 -3.17774,-8.6875 0.0256,-0.0178 5.03122,-2.11746 7.65821,-3.22852 9.28402,-3.92658 26.91189,-11.3658 27.0664,-11.40625 0.13303,-0.0345 0.24219,-0.0262 0.24219,0.0195 0,0.0455 1.13463,5.02034 2.52149,11.05469 1.38689,6.03422 2.49348,11.04341 2.45898,11.13281 -0.0343,0.0892 -11.02983,12.62939 -24.43555,27.86719 -3.06063,3.47891 -5.15061,5.86452 -7.85351,8.94141 -9.13595,10.39999 -16.49208,18.79307 -16.47071,18.81445 0.0385,0.0385 8.45434,4.91609 16.47071,9.57226 5.84129,3.39282 11.98176,6.97461 12.00195,6.97461 0.0205,0 7.84379,-11.95324 17.38477,-26.5625 9.54095,-14.6093 17.36326,-26.54714 17.38086,-26.52734 0.019,0.019 -3.57893,14.42113 -7.9961,32.00586 -7.98585,31.79174 -8.02919,31.97275 -7.76367,32.13867 0.14688,0.0919 9.97997,5.81369 21.85352,12.71484 l 0.002,0 21.58789,12.54883 3.02734,-1.76367 c 1.66549,-0.96943 11.50025,-6.68604 21.85352,-12.70312 l 18.82226,-10.93946 -0.85351,-3.41015 c -0.47044,-1.87563 -4.0861,-16.2674 -8.0332,-31.98047 -3.94709,-15.71297 -7.16043,-28.58372 -7.14063,-28.60352 0.0195,-0.0196 7.83954,11.91596 17.37891,26.52344 9.53935,14.60746 17.36276,26.55859 17.38476,26.55859 0.0192,0 6.25726,-3.63756 12.25196,-7.11914 7.94403,-4.61371 16.20002,-9.39774 16.23632,-9.43359 0.0149,-0.0147 -9.02215,-10.2971 -16.23632,-18.51172 -3.62311,-4.12555 -3.66219,-4.19098 -8.1543,-9.29687 -13.43658,-15.27254 -24.42969,-27.8281 -24.42969,-27.9004 0,-0.10177 4.66675,-20.53626 4.99609,-21.87695 0.0499,-0.20329 0.14023,-0.27417 0.29297,-0.23437 0.13523,0.0353 18.13261,7.63139 27.29493,11.50586 2.48926,1.05263 7.38671,3.10669 7.41601,3.125 0.0251,0.0156 -6.05476,16.46583 -6.44336,17.43359 -0.0562,0.13993 1.96637,1.85766 7.49024,6.35742 4.16268,3.39091 7.62752,6.18629 7.69921,6.21289 0.0873,0.032 0.10512,-0.32166 0.0527,-1.07031 -0.0428,-0.61474 -0.1125,-2.59058 -0.1543,-4.39063 l -0.0762,-3.27148 5.33008,-6.69531 c 2.93106,-3.68184 5.3626,-6.70313 5.4043,-6.70313 0.0861,-0.0103 9.8417,20.12645 9.8457,20.32227 0.001,0.0694 -3.28576,6.61195 -7.30469,14.53906 -4.01888,7.9271 -7.74131,15.27949 -8.27148,16.33984 l -0.96485,1.92774 0.54102,-0.31445 c 0.29693,-0.1729 10.39669,-6.04232 22.44336,-13.04297 12.04662,-7.00064 21.93887,-12.76811 21.98437,-12.81641 L 511.82713,629.9857 457.07127,603.37047 432.5908,591.47008 434.81541,577.4525 c 4.32891,-32.66799 8.50793,-51.70629 11.17382,-54.23437 0.55549,-0.52677 0.78228,-0.41023 1.19336,0.61133 1.12698,2.80077 5.20912,17.35176 9.88868,34.90624 l 0,-0.90429 c 2.08513,7.82699 4.27628,16.15868 6.55664,25.0664 0.56719,2.21549 1.0733,4.07516 1.125,4.13086 0.0866,0.093 45.70323,15.0571 45.74023,15 -14.65874,-36.44392 -26.76099,-78.64124 -37.04687,-114.50976 l 5.93164,-1.93945 c 13.74395,35.41923 38.94532,95.30318 54.29296,122.61132 3.03941,0.92174 51.60657,12.98729 51.63477,12.95899 -28.38392,-41.1977 -60.69768,-121.92274 -69.81055,-147.375 l 5.45313,-1.78125 c 0.27515,0.63946 0.27767,0.6407 0.61133,1.41797 10.91242,25.42121 24.1956,52.74826 35.91601,73.89257 16.82585,30.35473 31.66091,50.64362 43.60157,59.63086 l 24.90624,-24.73437 0.38672,-0.44531 -1.5957,-1.25196 c -7.39722,-5.80555 -14.57106,-12.20465 -21.86523,-19.5039 -10.23056,-10.23767 -18.53407,-19.98016 -27.20703,-31.91602 -20.85372,-28.69918 -37.38221,-63.74626 -47.57032,-100.87109 -3.71489,-13.53694 -6.63608,-27.73496 -8.04492,-39.09766 -0.17538,-1.41352 -0.33702,-2.58702 -0.35742,-2.60742 -0.0407,-0.0406 -41.83589,-9.37008 -62.6582,-14 -5.41336,-1.20978 -16.85769,-3.76433 -16.91797,-3.7793 z m -57.32813,28.67774 c 0.45708,-0.005 0.90965,3e-4 1.35742,0.0156 3.07107,0.1054 4.5588,0.43558 5.3418,1.18555 0.52894,0.50679 0.46819,0.96468 -0.21484,1.61914 -1.57024,1.50455 -6.05518,2.80325 -11.45118,3.31641 -1.78546,0.16989 -4.62033,0.1468 -6.05273,-0.0508 -2.17784,-0.30038 -3.46094,-0.93685 -3.46094,-1.71484 0,-2.07776 7.62424,-4.30343 14.48047,-4.37109 z"
         id="path3124"
         inkscape:connector-curvature="0" />
    </g>
    <g
       inkscape:label="Layer 1"
       id="g3140"
       transform="matrix(0.2830132,0,0,0.2830132,150.12262,656.25354)"
       style="fill:#000000">
      <path
         style="fill:#000000"
         d=""
         id="path3142"
         inkscape:connector-curvature="0" />
      <path
         style="fill:#000000"
         d=""
         id="path3144"
         inkscape:connector-curvature="0" />
      <path
         style="fill:#000000"
         d=""
         id="path3146"
         inkscape:connector-curvature="0" />
      <path
         style="fill:#000000"
         d=""
         id="path3148"
         inkscape:connector-curvature="0" />
      <path
         style="fill:#000000"
         d=""
         id="path3150"
         inkscape:connector-curvature="0" />
      <path
         style="fill:#000000;fill-opacity:1"
         d="m 237.04724,397.43109 0,37.80284 46,0 c -28.1918,22.98479 -46,56.70568 -46,94.28864 0,69.2612 60.44156,125.40852 135,125.40852 74.55844,0 135,-56.14732 135,-125.40852 0,-37.58296 -17.8082,-71.30385 -46,-94.28864 l 46,0 0,-37.80284 -114.5,0 0,38.32538 c 35.78666,8.47216 62.25,38.60834 62.25,74.49034 0,42.45456 -37.04844,76.87078 -82.75,76.87078 -45.70156,0 -82.75,-34.41622 -82.75,-76.87078 0,-35.882 26.46334,-66.01818 62.25,-74.49034 l 0,-38.32538 z"
         id="path3152"
         inkscape:connector-curvature="0"
         sodipodi:nodetypes="cccssscccccsssccc" />
    </g>
    <path
       id="path3938"
       d="m 507.0814,766.33661 c -0.0496,-0.0376 -21.36858,14.86971 -26.27046,18.37111 l -2.1574,1.5433 0,0.64725 c -0.005,0.79162 -0.3159,1.61269 -1.0787,2.871 -1.28111,2.11316 -3.12577,4.16472 -5.89135,6.55516 -2.04207,1.76492 -2.89399,2.33995 -3.45183,2.33995 -0.45781,0 -0.67108,-0.31587 -0.91274,-1.37748 l -0.19914,-0.87948 -2.00805,1.75904 c -3.74577,3.29032 -5.52349,5.57845 -6.67133,8.56324 -0.45304,1.17801 -0.82658,2.89812 -0.82976,3.85012 l 0,0.49784 -1.02891,0.71367 c -1.28909,0.89825 -3.98611,3.13766 -5.44328,4.5305 -0.61434,0.5872 -1.84126,1.86342 -2.72163,2.82116 -2.15934,2.34916 -2.78833,2.90421 -3.28589,2.90421 -0.64777,0 -0.98319,-0.69624 -1.16167,-2.43951 -0.0466,-0.45486 -0.13773,-0.82978 -0.19914,-0.82978 -0.17458,0 -0.89282,1.39482 -1.21146,2.35652 -0.34375,1.03746 -0.66382,3.06912 -0.66382,4.1987 0,2.78526 0.94783,6.13591 2.5059,8.86183 0.66408,1.16208 2.13933,3.20131 2.8544,3.94975 l 0.29872,0.29866 0.0664,-0.29866 c 0.35065,-1.41791 1.55411,-4.00611 2.00803,-4.3314 0.29547,-0.21171 0.46933,-0.0177 0.77999,0.89613 0.18362,0.54005 0.37089,0.8729 0.64721,1.11195 0.48746,0.42187 0.61712,0.41748 0.71361,0 0.3828,-1.6566 1.66044,-3.71545 2.55568,-4.11564 0.52702,-0.23579 0.84073,-0.0731 1.26125,0.64717 0.34489,0.59074 1.03695,1.26645 1.22805,1.2115 0.0547,-0.0156 0.38628,-0.57141 0.7302,-1.24471 1.18536,-2.32055 1.85914,-3.31907 2.25696,-3.31907 0.0903,0 0.22237,0.18941 0.29872,0.4315 0.33447,1.06026 0.51018,1.43164 0.79658,1.72592 0.29252,0.30064 0.3183,0.31438 0.48125,0.13275 0.0938,-0.10457 0.68394,-1.12929 1.32764,-2.2736 1.53058,-2.72068 1.99993,-3.29316 2.52249,-3.11989 0.10222,0.034 0.5145,0.43865 0.92934,0.8962 0.75088,0.82801 1.34375,1.35956 1.4106,1.27778 0.0193,-0.0234 0.1675,-0.41351 0.31532,-0.86292 0.5216,-1.586 1.7361,-3.4963 3.02035,-4.72969 1.1452,-1.09998 2.86107,-2.00709 4.33139,-2.30674 2.10048,-0.42816 5.3683,0.087 8.44703,1.32763 1.31319,0.52914 2.83139,1.36367 2.68845,1.47696 -0.0574,0.0453 -0.61077,0.26616 -1.22806,0.49791 -3.00347,1.12711 -5.82044,2.75063 -11.13548,6.42232 -1.45007,1.00177 -2.97969,2.02996 -3.40205,2.29018 -0.886,0.54592 -2.32813,1.23501 -2.97056,1.41061 -0.39035,0.10678 -0.44202,0.13743 -0.33191,0.3153 0.0686,0.11089 0.25462,0.25215 0.41488,0.31538 l 0.29872,0.11612 -0.38169,0.34851 c -0.56053,0.49997 -1.46218,0.73568 -3.2361,0.87956 l -1.52677,0.13277 0.56424,0.49784 c 0.53542,0.47016 0.5677,0.51243 0.36511,0.64717 -0.76708,0.5108 -2.71909,1.00355 -4.2982,1.09539 -0.55582,0.0318 -1.0553,0.0804 -1.12848,0.0995 -0.23087,0.0594 -0.0378,0.56001 0.36509,0.92934 l 0.38169,0.34851 -0.36509,0.24895 c -0.6269,0.41175 -2.84757,1.08186 -5.60923,1.69279 l -0.49786,0.0995 0.24892,0.2988 c 0.523,0.63493 2.32623,1.66573 3.70077,2.10757 0.39634,0.12738 0.82895,0.227 0.96253,0.23231 0.78133,0.017 3.02594,-0.90943 9.55893,-3.98288 14.58012,-6.85934 19.01568,-8.63532 29.12482,-11.61671 5.38294,-1.58763 6.63962,-2.0005 7.76666,-2.62212 0.6563,-0.36203 1.02513,-0.84288 0.89612,-1.14508 -0.0431,-0.10182 -0.19783,-0.32437 -0.34851,-0.49778 -0.33194,-0.38235 -0.53381,-1.23288 -0.43149,-1.80897 0.27806,-1.56461 2.03492,-2.74475 5.59267,-3.73392 1.87107,-0.52022 3.76041,-0.90626 9.50915,-1.99144 10.13713,-1.91363 15.82341,-3.36269 21.25861,-5.41007 1.11932,-0.42172 1.37167,-0.35148 -2.58883,-0.82979 -4.25139,-0.51335 -6.16933,-0.97954 -7.03644,-1.6927 -0.38476,-0.31658 -0.48127,-0.43957 -0.48127,-0.76344 0,-0.21568 0.11938,-0.58473 0.24889,-0.81315 1.07067,-1.88827 6.26145,-6.21167 14.65368,-12.18096 1.55294,-1.10453 2.82123,-2.00979 2.82123,-2.02466 0,-0.0149 -0.0854,-0.007 -0.19911,0.0163 -4.89006,0.9486 -9.14031,1.76288 -11.08573,2.1242 -11.12014,2.06615 -17.69873,2.71715 -19.43314,1.94167 -1.21484,-0.54316 -1.23586,-3.36305 -0.0496,-6.88702 1.13426,-3.37006 2.93175,-7.08097 6.93687,-14.30525 2.87136,-5.17923 3.75057,-6.90841 3.75057,-7.3683 0,-0.063 -0.5251,0.31984 -1.16172,0.84636 -4.18335,3.46011 -9.78104,7.24495 -13.97324,9.44272 -1.55937,0.81754 -3.49743,1.63825 -4.74632,2.00808 -1.40509,0.41614 -2.82923,0.46499 -3.5846,0.11613 -1.66884,-0.77053 -2.39624,-2.76791 -1.85867,-5.02835 0.40586,-1.70652 1.64923,-4.50367 3.41869,-7.66703 0.54705,-0.97806 0.97926,-1.7796 0.96248,-1.79234 z m -39.04888,36.82513 c 2.97464,2.15416 -1.91246,6.30762 -5.84156,6.83726 -0.25462,0 0.46003,-1.78123 1.12847,-2.8378 1.31796,-2.08321 3.56805,-3.99946 4.71309,-3.99946 z m -23.38286,21.24205 c 0.30566,1.05602 0.23625,2.79835 -0.73019,3.93304 -0.53145,-1.33662 -0.3866,-2.74107 0.73019,-3.93304 z"
       style="fill:#000000"
       inkscape:connector-curvature="0" />
    <path
       style="fill:#000000;fill-opacity:1"
       d="m 478.7818,546.35692 c -0.0833,-0.21709 2.234,-7.24376 5.14956,-15.61491 2.91553,-8.37113 5.24942,-15.27182 5.18636,-15.33486 -0.16629,-0.16628 -7.20488,0.3497 -10.92368,0.80077 -6.15947,0.74714 -10.71029,2.07015 -19.28494,5.60649 -5.96439,2.45982 -6.05962,2.49202 -6.51867,2.2037 -0.28175,-0.17697 -0.0781,-1.29326 1.08345,-5.93979 1.65376,-6.61529 2.04626,-8.76668 2.46687,-13.52151 0.33365,-3.77202 0.19295,-7.4937 -0.42056,-11.12408 -0.47006,-2.78153 -3.03734,-13.06513 -3.46469,-13.87831 -0.56157,-1.06857 0.0196,-1.21587 2.39225,-0.60638 1.16904,0.3003 4.13937,1.06436 6.60073,1.69792 9.54598,2.45713 15.08019,3.2921 23.82933,3.59518 l 5.03345,0.17438 1.68424,-3.36107 c 1.52483,-3.04294 1.62931,-3.34842 1.10396,-3.22753 -0.31915,0.0734 -2.81873,0.59545 -5.55462,1.16003 -3.99832,0.82508 -5.03623,0.96315 -5.28968,0.70367 -0.25128,-0.25724 1.1838,-3.17978 7.06497,-14.38775 l 7.38031,-14.06493 15.24207,-0.0659 c 16.69151,-0.0722 15.93516,-0.14318 15.12726,1.41911 -0.21615,0.41803 -2.63499,4.25471 -5.37516,8.52598 -2.74019,4.27127 -4.87224,7.80462 -4.7379,7.85189 0.13434,0.0473 2.49031,-0.3892 5.23549,-0.96994 4.75067,-1.00498 5.48932,-1.07213 5.48932,-0.49907 0,0.13694 -1.83417,3.26598 -4.07593,6.95344 -2.24178,3.68746 -4.1483,6.89396 -4.23671,7.12556 -0.1858,0.4867 -1.042,0.61977 11.19045,-1.73933 5.68352,-1.09609 7.68231,-1.39381 7.8995,-1.17663 0.21718,0.21718 -0.006,1.79901 -0.88387,6.2516 -1.588,8.05869 -1.8105,10.50636 -1.63218,17.95476 0.16344,6.82647 0.22454,7.35653 1.76581,15.31961 1.1865,6.1301 1.17913,6.2167 -0.48938,5.756 -0.48617,-0.13424 -3.6173,-1.20748 -6.95804,-2.38499 -7.10009,-2.50254 -12.16572,-4.00785 -16.33754,-4.85486 -3.56277,-0.72337 -8.7188,-1.28686 -9.00339,-0.98398 -0.11135,0.11851 -5.46438,6.83238 -11.89565,14.91971 -6.43125,8.08732 -11.98808,15.02077 -12.3485,15.40748 -0.73398,0.78772 -1.26811,0.898 -1.49429,0.30858 z m 50.80042,-32.0186 c -5e-4,-0.38678 -0.18941,-2.48693 -0.41988,-4.66699 -0.59149,-5.59524 -0.55554,-14.39329 0.0776,-18.98767 0.26651,-1.93392 0.42397,-3.51619 0.3499,-3.51614 -0.074,5e-5 -2.66635,0.51066 -5.76065,1.1347 -3.09427,0.62404 -6.5859,1.27845 -7.75917,1.45425 -1.90945,0.28611 -2.19419,0.40179 -2.71451,1.1029 -0.99218,1.33691 -1.99081,3.21267 -1.71039,3.21267 0.14697,0 2.29035,-0.17723 4.76305,-0.39386 2.4727,-0.2166 4.60738,-0.32489 4.74372,-0.24063 0.13635,0.0843 0.2479,0.37807 0.2479,0.65288 0,0.27482 -2.71355,3.9067 -6.03011,8.07087 -3.31655,4.16417 -5.93455,7.65502 -5.81777,7.75744 0.1168,0.10242 1.07543,0.33137 2.1303,0.50877 2.45566,0.41297 9.90582,2.28653 14.19279,3.56919 1.82844,0.54708 3.41074,1.00598 3.51624,1.01978 0.10548,0.0138 0.19142,-0.29137 0.19095,-0.67816 z m -63.51531,-0.84205 c 9.27147,-2.77047 13.82969,-3.67487 20.86013,-4.13887 l 4.52542,-0.29866 0.8662,-2.50669 c 0.47642,-1.37869 0.77569,-2.5067 0.66506,-2.5067 -0.11063,0 -2.93963,0.63263 -6.28666,1.40584 -3.34704,0.7732 -6.28286,1.40612 -6.52406,1.40649 -0.24119,2.6e-4 -0.54922,-0.2062 -0.68453,-0.45904 -0.19287,-0.36035 0.52411,-2.02682 3.31794,-7.71189 1.96017,-3.98872 3.50418,-7.31197 3.43115,-7.38502 -0.0731,-0.073 -1.59894,-0.22723 -3.39086,-0.34264 -5.02166,-0.32344 -12.53345,-1.57085 -19.56061,-3.24824 l -1.98187,-0.47308 0.008,0.79594 c 0.004,0.43778 0.18341,2.00425 0.39771,3.48107 0.62883,4.3338 0.75826,13.73725 0.2495,18.12746 -0.23447,2.02342 -0.49223,4.00849 -0.57278,4.41128 -0.083,0.41507 -0.0359,0.73232 0.10905,0.73232 0.14056,0 2.19753,-0.5803 4.57112,-1.28957 z"
       id="path3994"
       inkscape:connector-curvature="0" />
    <text
       xml:space="preserve"
       style="font-style:normal;font-weight:normal;font-size:40px;line-height:125%;font-family:sans-serif;letter-spacing:0px;word-spacing:0px;fill:#000000;fill-opacity:1;stroke:none;stroke-width:1px;stroke-linecap:butt;stroke-linejoin:miter;stroke-opacity:1"
       x="495.17789"
       y="401.59061"
       id="text4503-0-1-0-3-9-3"
       sodipodi:linespacing="125%"><tspan
         sodipodi:role="line"
         id="tspan4505-9-1-1-0-1-5"
         x="495.17789"
         y="401.59061"
         style="font-style:normal;font-variant:normal;font-weight:normal;font-stretch:normal;font-size:13.75px;font-family:'Roboto Condensed';-inkscape-font-specification:'Roboto Condensed, ';text-align:center;text-anchor:middle">Adeptus Astartes</tspan></text>
    <a
       xlink:href="Space Marine Armor Markings.svg"
       transform="translate(361.66702,111.99562)"
       id="a4322">
      <g
         style="fill:#ffffff"
         transform="translate(-619.82036,30.944585)"
         id="g4961">
        <circle
           style="opacity:1;fill:#ffffff;fill-opacity:1;stroke:#000000;stroke-width:1;stroke-linecap:square;stroke-linejoin:miter;stroke-miterlimit:4;stroke-dasharray:none;stroke-opacity:1"
           id="circle4963"
           cx="753.15332"
           cy="856.60156"
           r="11.727594"
           d="m 764.88091,856.60156 a 11.727594,11.727594 0 0 1 -11.72759,11.7276 11.727594,11.727594 0 0 1 -11.72759,-11.7276 11.727594,11.727594 0 0 1 11.72759,-11.72759 11.727594,11.727594 0 0 1 11.72759,11.72759 z" />
        <path
           inkscape:connector-curvature="0"
           style="opacity:1;fill:#ffffff;fill-opacity:1;stroke:#000000;stroke-width:1;stroke-linecap:square;stroke-linejoin:miter;stroke-miterlimit:4;stroke-dasharray:none;stroke-opacity:1"
           d="m 765.15234,557.51172 a 11.727594,11.727594 0 0 0 -6,1.66601 11.727594,11.727594 0 0 1 5.72852,10.0625 11.727594,11.727594 0 0 1 -5.72656,10.06055 11.727594,11.727594 0 0 0 5.99804,1.66602 11.727594,11.727594 0 0 0 11.72852,-11.72657 11.727594,11.727594 0 0 0 -11.72852,-11.72851 z"
           transform="translate(-1.2941176e-5,287.36219)"
           id="path4965" />
        <path
           inkscape:connector-curvature="0"
           style="opacity:1;fill:#ffffff;fill-opacity:1;stroke:#000000;stroke-width:1;stroke-linecap:square;stroke-linejoin:miter;stroke-miterlimit:4;stroke-dasharray:none;stroke-opacity:1"
           d="m 741.15234,557.51172 a 11.727594,11.727594 0 0 0 -11.72656,11.72851 11.727594,11.727594 0 0 0 11.72656,11.72657 11.727594,11.727594 0 0 0 6.00196,-1.66602 11.727594,11.727594 0 0 1 -5.72852,-10.06055 11.727594,11.727594 0 0 1 5.72656,-10.0625 11.727594,11.727594 0 0 0 -6,-1.66601 z"
           transform="translate(-1.2941176e-5,287.36219)"
           id="path4967" />
        <g
           style="fill:#ffffff"
           id="g4969"
           transform="translate(1.0404503,24.809953)">
          <path
             inkscape:connector-curvature="0"
             id="path4971"
             d="m 752.11287,827.79961 0,7.984"
             style="fill:#ffffff;fill-rule:evenodd;stroke:#000000;stroke-width:1px;stroke-linecap:butt;stroke-linejoin:miter;stroke-opacity:1" />
          <path
             style="fill:#ffffff;fill-rule:evenodd;stroke:#000000;stroke-width:1px;stroke-linecap:butt;stroke-linejoin:miter;stroke-opacity:1"
             d="m 756.10487,831.79161 -7.984,0"
             id="path4973"
             inkscape:connector-curvature="0" />
        </g>
      </g>
    </a>
    <path
       style="fill:none;fill-rule:evenodd;stroke:#000000;stroke-width:1px;stroke-linecap:butt;stroke-linejoin:miter;stroke-opacity:1"
       d="m 494.99997,960.30243 0,21"
       id="path4975"
       inkscape:connector-curvature="0" />
    <text
       xml:space="preserve"
       style="font-style:normal;font-weight:normal;font-size:40px;line-height:125%;font-family:sans-serif;letter-spacing:0px;word-spacing:0px;fill:#000000;fill-opacity:1;stroke:none;stroke-width:1px;stroke-linecap:butt;stroke-linejoin:miter;stroke-opacity:1"
       x="494.99051"
       y="941.81366"
       id="text4503-0-1-0-3-9-3-8"
       sodipodi:linespacing="125%"><tspan
         sodipodi:role="line"
         id="tspan4505-9-1-1-0-1-5-9"
         x="494.99051"
         y="941.81366"
         style="font-style:normal;font-variant:normal;font-weight:normal;font-stretch:normal;font-size:13.75px;font-family:'Roboto Condensed';-inkscape-font-specification:'Roboto Condensed, ';text-align:center;text-anchor:middle">Space Marine Armor Markings</tspan></text>
    <text
       xml:space="preserve"
       style="font-style:normal;font-weight:normal;font-size:40px;line-height:125%;font-family:sans-serif;letter-spacing:0px;word-spacing:0px;fill:#000000;fill-opacity:1;stroke:none;stroke-width:1px;stroke-linecap:butt;stroke-linejoin:miter;stroke-opacity:1"
       x="255.59482"
       y="574.56958"
       id="text4503-0-1-0-3-9-3-5"
       sodipodi:linespacing="125%"><tspan
         sodipodi:role="line"
         id="tspan4505-9-1-1-0-1-5-3"
         x="255.59482"
         y="574.56958"
         style="font-style:normal;font-variant:normal;font-weight:normal;font-stretch:normal;font-size:13.75px;font-family:'Roboto Condensed';-inkscape-font-specification:'Roboto Condensed, ';text-align:center;text-anchor:middle">Dark Angels</tspan></text>
    <text
       xml:space="preserve"
       style="font-style:normal;font-weight:normal;font-size:40px;line-height:125%;font-family:sans-serif;letter-spacing:0px;word-spacing:0px;fill:#000000;fill-opacity:1;stroke:none;stroke-width:1px;stroke-linecap:butt;stroke-linejoin:miter;stroke-opacity:1"
       x="495.17789"
       y="574.56958"
       id="text4503-0-1-0-3-9-3-1"
       sodipodi:linespacing="125%"><tspan
         sodipodi:role="line"
         id="tspan4505-9-1-1-0-1-5-5"
         x="495.17789"
         y="574.56958"
         style="font-style:normal;font-variant:normal;font-weight:normal;font-stretch:normal;font-size:13.75px;font-family:'Roboto Condensed';-inkscape-font-specification:'Roboto Condensed, ';text-align:center;text-anchor:middle">White Scars</tspan></text>
    <text
       xml:space="preserve"
       style="font-style:normal;font-weight:normal;font-size:40px;line-height:125%;font-family:sans-serif;letter-spacing:0px;word-spacing:0px;fill:#000000;fill-opacity:1;stroke:none;stroke-width:1px;stroke-linecap:butt;stroke-linejoin:miter;stroke-opacity:1"
       x="720.10754"
       y="574.56958"
       id="text4503-0-1-0-3-9-3-9"
       sodipodi:linespacing="125%"><tspan
         sodipodi:role="line"
         id="tspan4505-9-1-1-0-1-5-6"
         x="720.10754"
         y="574.56958"
         style="font-style:normal;font-variant:normal;font-weight:normal;font-stretch:normal;font-size:13.75px;font-family:'Roboto Condensed';-inkscape-font-specification:'Roboto Condensed, ';text-align:center;text-anchor:middle">Space Wolves</tspan></text>
    <text
       xml:space="preserve"
       style="font-style:normal;font-weight:normal;font-size:40px;line-height:125%;font-family:sans-serif;letter-spacing:0px;word-spacing:0px;fill:#000000;fill-opacity:1;stroke:none;stroke-width:1px;stroke-linecap:butt;stroke-linejoin:miter;stroke-opacity:1"
       x="720.10754"
       y="731.48596"
       id="text4503-0-1-0-3-9-3-12"
       sodipodi:linespacing="125%"><tspan
         sodipodi:role="line"
         id="tspan4505-9-1-1-0-1-5-56"
         x="720.10754"
         y="731.48596"
         style="font-style:normal;font-variant:normal;font-weight:normal;font-stretch:normal;font-size:13.75px;font-family:'Roboto Condensed';-inkscape-font-specification:'Roboto Condensed, ';text-align:center;text-anchor:middle">Iron Hands</tspan></text>
    <text
       xml:space="preserve"
       style="font-style:normal;font-weight:normal;font-size:40px;line-height:125%;font-family:sans-serif;letter-spacing:0px;word-spacing:0px;fill:#000000;fill-opacity:1;stroke:none;stroke-width:1px;stroke-linecap:butt;stroke-linejoin:miter;stroke-opacity:1"
       x="495.17789"
       y="731.48596"
       id="text4503-0-1-0-3-9-3-7"
       sodipodi:linespacing="125%"><tspan
         sodipodi:role="line"
         id="tspan4505-9-1-1-0-1-5-565"
         x="495.17789"
         y="731.48596"
         style="font-style:normal;font-variant:normal;font-weight:normal;font-stretch:normal;font-size:13.75px;font-family:'Roboto Condensed';-inkscape-font-specification:'Roboto Condensed, ';text-align:center;text-anchor:middle">Blood Angels</tspan></text>
    <text
       xml:space="preserve"
       style="font-style:normal;font-weight:normal;font-size:40px;line-height:125%;font-family:sans-serif;letter-spacing:0px;word-spacing:0px;fill:#000000;fill-opacity:1;stroke:none;stroke-width:1px;stroke-linecap:butt;stroke-linejoin:miter;stroke-opacity:1"
       x="255.59482"
       y="731.48596"
       id="text4503-0-1-0-3-9-3-2"
       sodipodi:linespacing="125%"><tspan
         sodipodi:role="line"
         id="tspan4505-9-1-1-0-1-5-50"
         x="255.59482"
         y="731.48596"
         style="font-style:normal;font-variant:normal;font-weight:normal;font-stretch:normal;font-size:13.75px;font-family:'Roboto Condensed';-inkscape-font-specification:'Roboto Condensed, ';text-align:center;text-anchor:middle">Imperial Fists</tspan></text>
    <text
       xml:space="preserve"
       style="font-style:normal;font-weight:normal;font-size:40px;line-height:125%;font-family:sans-serif;letter-spacing:0px;word-spacing:0px;fill:#000000;fill-opacity:1;stroke:none;stroke-width:1px;stroke-linecap:butt;stroke-linejoin:miter;stroke-opacity:1"
       x="255.59482"
       y="884.94489"
       id="text4503-0-1-0-3-9-3-81"
       sodipodi:linespacing="125%"><tspan
         sodipodi:role="line"
         id="tspan4505-9-1-1-0-1-5-7"
         x="255.59482"
         y="884.94489"
         style="font-style:normal;font-variant:normal;font-weight:normal;font-stretch:normal;font-size:13.75px;font-family:'Roboto Condensed';-inkscape-font-specification:'Roboto Condensed, ';text-align:center;text-anchor:middle">Ultramarines</tspan></text>
    <text
       xml:space="preserve"
       style="font-style:normal;font-weight:normal;font-size:40px;line-height:125%;font-family:sans-serif;letter-spacing:0px;word-spacing:0px;fill:#000000;fill-opacity:1;stroke:none;stroke-width:1px;stroke-linecap:butt;stroke-linejoin:miter;stroke-opacity:1"
       x="495.17789"
       y="884.94489"
       id="text4503-0-1-0-3-9-3-98"
       sodipodi:linespacing="125%"><tspan
         sodipodi:role="line"
         id="tspan4505-9-1-1-0-1-5-74"
         x="495.17789"
         y="884.94489"
         style="font-style:normal;font-variant:normal;font-weight:normal;font-stretch:normal;font-size:13.75px;font-family:'Roboto Condensed';-inkscape-font-specification:'Roboto Condensed, ';text-align:center;text-anchor:middle">Salamanders</tspan></text>
    <text
       xml:space="preserve"
       style="font-style:normal;font-weight:normal;font-size:40px;line-height:125%;font-family:sans-serif;letter-spacing:0px;word-spacing:0px;fill:#000000;fill-opacity:1;stroke:none;stroke-width:1px;stroke-linecap:butt;stroke-linejoin:miter;stroke-opacity:1"
       x="720.10754"
       y="884.94489"
       id="text4503-0-1-0-3-9-3-84"
       sodipodi:linespacing="125%"><tspan
         sodipodi:role="line"
         id="tspan4505-9-1-1-0-1-5-1"
         x="720.10754"
         y="884.94489"
         style="font-style:normal;font-variant:normal;font-weight:normal;font-stretch:normal;font-size:13.75px;font-family:'Roboto Condensed';-inkscape-font-specification:'Roboto Condensed, ';text-align:center;text-anchor:middle">Raven Guard</tspan></text>
    <text
       sodipodi:linespacing="125%"
       id="text4739"
       y="423.59061"
       x="495.17789"
       style="font-style:normal;font-weight:normal;font-size:40px;line-height:125%;font-family:sans-serif;letter-spacing:0px;word-spacing:0px;fill:#000000;fill-opacity:1;stroke:none;stroke-width:1px;stroke-linecap:butt;stroke-linejoin:miter;stroke-opacity:1"
       xml:space="preserve"><tspan
         style="font-style:normal;font-variant:normal;font-weight:normal;font-stretch:normal;font-size:13.75px;font-family:'Roboto Condensed';-inkscape-font-specification:'Roboto Condensed, ';text-align:center;text-anchor:middle"
         y="423.59061"
         x="495.17789"
         id="tspan4741"
         sodipodi:role="line">Progenitor Legions</tspan></text>
  </g>
</svg>
