<?xml version="1.0" encoding="UTF-8" standalone="no"?>
<!-- Created with Inkscape (http://www.inkscape.org/) -->

<svg
   xmlns:dc="http://purl.org/dc/elements/1.1/"
   xmlns:cc="http://creativecommons.org/ns#"
   xmlns:rdf="http://www.w3.org/1999/02/22-rdf-syntax-ns#"
   xmlns:svg="http://www.w3.org/2000/svg"
   xmlns="http://www.w3.org/2000/svg"
   xmlns:xlink="http://www.w3.org/1999/xlink"
   xmlns:sodipodi="http://sodipodi.sourceforge.net/DTD/sodipodi-0.dtd"
   xmlns:inkscape="http://www.inkscape.org/namespaces/inkscape"
   width="11in"
   height="8.5in"
   id="svg2"
   version="1.1"
   inkscape:version="0.91 r13725"
   viewBox="0 0 990 765.00002"
   sodipodi:docname="Astra Militarum.svg">
  <defs
     id="defs4">
    <pattern
       y="0"
       x="0"
       height="6"
       width="6"
       patternUnits="userSpaceOnUse"
       id="EMFhbasepattern" />
    <pattern
       y="0"
       x="0"
       height="6"
       width="6"
       patternUnits="userSpaceOnUse"
       id="EMFhbasepattern-4" />
    <pattern
       y="0"
       x="0"
       height="6"
       width="6"
       patternUnits="userSpaceOnUse"
       id="EMFhbasepattern-1" />
  </defs>
  <sodipodi:namedview
     id="base"
     pagecolor="#ffffff"
     bordercolor="#666666"
     borderopacity="1.0"
     inkscape:pageopacity="0.0"
     inkscape:pageshadow="2"
     inkscape:zoom="1"
     inkscape:cx="607.89284"
     inkscape:cy="367.48322"
     inkscape:document-units="px"
     inkscape:current-layer="layer1"
     showgrid="false"
     units="in"
     inkscape:window-width="1920"
     inkscape:window-height="1017"
     inkscape:window-x="1912"
     inkscape:window-y="-8"
     inkscape:window-maximized="1"
     inkscape:snap-global="false"
     inkscape:object-nodes="true"
     showguides="true" />
  <metadata
     id="metadata7">
    <rdf:RDF>
      <cc:Work
         rdf:about="">
        <dc:format>image/svg+xml</dc:format>
        <dc:type
           rdf:resource="http://purl.org/dc/dcmitype/StillImage" />
        <dc:title />
      </cc:Work>
    </rdf:RDF>
  </metadata>
  <g
     inkscape:label="Layer 1"
     inkscape:groupmode="layer"
     id="layer1"
     transform="translate(0,-287.36219)">
    <path
       style="fill:none;fill-rule:evenodd;stroke:#000000;stroke-width:1px;stroke-linecap:butt;stroke-linejoin:miter;stroke-opacity:1"
       d="m 495.00003,376.6629 0,-21"
       id="path4433-9"
       inkscape:connector-curvature="0" />
    <a
       xlink:href="Adeptus Administratum.svg"
       id="a4156">
      <g
         id="g4150">
        <circle
           style="opacity:1;fill:#ffffff;fill-opacity:1;stroke:#000000;stroke-width:1;stroke-linecap:square;stroke-linejoin:miter;stroke-miterlimit:4;stroke-dasharray:none;stroke-opacity:1"
           id="path4327-6"
           cx="-494.99997"
           cy="-337.42352"
           r="11.727594"
           transform="scale(-1,-1)" />
        <g
           id="g4189"
           transform="translate(-15.801351,1.4716355)">
          <path
             sodipodi:nodetypes="ccc"
             inkscape:connector-curvature="0"
             d="m 505.15578,336.28879 5.64554,-5.64554 5.64554,5.64554"
             style="fill:none;fill-rule:evenodd;stroke:#000000;stroke-width:1px;stroke-linecap:butt;stroke-linejoin:miter;stroke-opacity:1"
             id="path4176" />
          <path
             style="fill:none;fill-rule:evenodd;stroke:#000000;stroke-width:1;stroke-linecap:butt;stroke-linejoin:miter;stroke-miterlimit:4;stroke-dasharray:none;stroke-opacity:1"
             d="m 510.80132,341.96763 0,-11.32438"
             id="path4183"
             inkscape:connector-curvature="0"
             sodipodi:nodetypes="cc" />
        </g>
      </g>
    </a>
    <g
       transform="translate(-309.39813,-35.90946)"
       id="g4577">
      <path
         id="path4579"
         style="fill:none;fill-rule:evenodd;stroke:#000000;stroke-width:1;stroke-linecap:butt;stroke-linejoin:miter;stroke-miterlimit:4;stroke-dasharray:none;stroke-opacity:1"
         d="m 568.70155,693.83477 13.26446,13.26446 -13.26446,13.26446"
         inkscape:connector-curvature="0"
         sodipodi:nodetypes="ccc" />
      <path
         sodipodi:nodetypes="ccc"
         inkscape:connector-curvature="0"
         d="m 587.49792,693.83477 13.26446,13.26446 -13.26446,13.26446"
         style="fill:none;fill-rule:evenodd;stroke:#000000;stroke-width:1;stroke-linecap:butt;stroke-linejoin:miter;stroke-miterlimit:4;stroke-dasharray:none;stroke-opacity:1"
         id="path4581" />
    </g>
    <g
       id="g4392"
       transform="matrix(0.69903184,0,0,0.69903184,968.13442,209.41242)">
      <path
         id="path4195-9"
         transform="translate(-7.7272727e-6,62.362184)"
         d="m -241.17578,514.04688 16.11133,51.64453 17.56445,-17.58594 17.56445,17.58594 16.11133,-51.64453 -33.67578,15.57226 -33.67578,-15.57226 z m -50.50977,50.51171 18.9375,33.67383 -18.9375,33.67578 51.65625,-16.11328 -17.54297,-17.56054 17.54297,-17.5625 -51.65625,-16.11329 z m 168.3711,0 -51.65625,16.11329 17.54297,17.5625 -17.54297,17.56054 51.65625,16.11328 -18.9375,-33.67578 18.9375,-33.67383 z m -101.75196,66.21875 -16.10937,51.64258 33.67578,-18.93945 33.67578,18.93945 -16.10937,-51.64258 -17.56641,17.58399 -17.56641,-17.58399 z"
         style="opacity:1;fill:#000000;fill-opacity:1;stroke:none;stroke-width:0.47777072;stroke-linecap:square;stroke-linejoin:miter;stroke-miterlimit:4;stroke-dasharray:none;stroke-opacity:1"
         inkscape:connector-curvature="0" />
      <path
         inkscape:connector-curvature="0"
         id="rect4372"
         d="m -264.63899,660.59644 3.53358,3.53749 53.60553,53.66476 57.1391,-57.20225 -57.1391,-57.20224 -57.13911,57.20224 z m 14.13432,0 43.00479,-43.0523 43.00478,43.0523 -43.00478,43.05231 -43.00479,-43.05231 z"
         style="color:#000000;font-style:normal;font-variant:normal;font-weight:normal;font-stretch:normal;font-size:medium;line-height:normal;font-family:sans-serif;text-indent:0;text-align:start;text-decoration:none;text-decoration-line:none;text-decoration-style:solid;text-decoration-color:#000000;letter-spacing:normal;word-spacing:normal;text-transform:none;direction:ltr;block-progression:tb;writing-mode:lr-tb;baseline-shift:baseline;text-anchor:start;clip-rule:nonzero;display:inline;overflow:visible;visibility:visible;opacity:1;isolation:auto;mix-blend-mode:normal;color-interpolation:sRGB;color-interpolation-filters:linearRGB;solid-color:#000000;solid-opacity:1;fill:#000000;fill-opacity:1;fill-rule:nonzero;stroke:none;stroke-width:10.00000286;stroke-linecap:square;stroke-linejoin:miter;stroke-miterlimit:4;stroke-dasharray:none;stroke-dashoffset:0;stroke-opacity:1;color-rendering:auto;image-rendering:auto;shape-rendering:auto;text-rendering:auto;enable-background:accumulate" />
      <path
         inkscape:connector-curvature="0"
         d="m -220.51518,672.39279 c -0.87831,-0.63473 -1.28607,-1.51719 -1.28607,-2.78324 0,-2.37079 0.88238,-3.22564 3.32948,-3.22564 2.01913,0 8.67391,2.66122 8.67391,3.46867 0,0.25003 -0.81239,1.03307 -1.80529,1.74009 -2.35878,1.67959 -7.10536,2.10574 -8.91203,0.80012 z m 22.14911,0.77556 c -3.50199,-0.95075 -5.17299,-1.7689 -5.72696,-2.80397 -0.45042,-0.84162 -0.1417,-1.16991 1.87952,-1.99863 5.56053,-2.27987 7.36738,-2.62568 8.80329,-1.68483 1.57394,1.03127 1.7134,2.89189 0.36449,4.86301 -1.6635,2.43078 -1.98667,2.52946 -5.32034,1.62442 z m -11.43179,4.94631 c 0,-1.70456 2.01502,-5.44326 2.93373,-5.44326 0.59973,0 1.88451,2.75926 2.54315,5.46175 0.39999,1.64126 0.38206,1.65825 -0.72069,0.68283 -1.41276,-1.24961 -2.37455,-1.26369 -3.71091,-0.0543 -0.9889,0.89494 -1.04528,0.86005 -1.04528,-0.64703 z m -5.14432,8.27489 c 0,-0.62875 0.2685,-1.14318 0.59666,-1.14318 0.32815,0 0.62231,1.39508 0.59742,1.94524 0.052,0.52314 2.3438,0.61217 2.40017,-0.25205 0.10051,-0.70733 0.40439,-1.96104 0.91916,-2.02854 0.30963,-0.0406 0.54306,1.47687 0.55768,2.1832 0.017,0.82088 1.94871,0.63628 1.93732,0.088 0,0 0.11074,-2.33807 0.64203,-2.40734 0.60668,-0.0791 0.7796,2.13006 0.7796,2.13006 0.0886,0.89365 2.34182,0.57647 2.13829,-0.18165 0,0 0.22257,-1.97545 0.70264,-1.99685 0.49105,-0.0219 0.66777,2.23893 0.66777,2.23893 0.10682,0.92905 3.02384,0.46265 2.7876,-0.39509 0,0 -0.28091,-1.44714 0.135,-1.57832 0.49306,-0.1555 1.26104,1.77659 1.26104,1.77659 0.1327,0.55033 2.84133,1.02223 2.74009,-0.0152 -0.10427,-1.06827 -0.98802,-6.16867 -1.40547,-7.24816 -0.28168,-0.7284 0.17985,-0.87822 2.64102,-0.85737 2.92599,0.0248 3.01256,-0.0234 4.58117,-2.54689 2.07408,-3.33674 2.62606,-7.18266 1.40318,-9.77675 -0.8281,-1.75666 -0.83238,-2.23918 -0.0451,-5.08459 1.45015,-5.24087 1.72245,-13.02092 0.57647,-16.47111 -2.6953,-8.11496 -12.94369,-12.85301 -23.18296,-10.71806 -8.80495,1.83588 -14.72589,7.57233 -15.78401,15.2922 -0.25646,1.871 0.0308,3.57727 1.14701,6.81095 1.73994,5.04107 1.94509,9.35071 0.52008,10.92533 -0.85035,0.93962 -0.88254,1.4004 -0.2627,3.76033 0.38853,1.47924 1.27475,3.84698 1.96938,5.26167 1.26095,2.56802 1.26782,2.57211 4.26383,2.54775 1.65047,-0.0134 3.00055,-0.0134 3.00018,0 -3.7e-4,0.0134 -0.35423,1.8783 -0.78636,4.14419 -0.43213,2.26587 -0.64617,4.2593 -0.47565,4.42981 0.17051,0.17053 0.9102,0.31004 1.64374,0.31004 0.95265,0 1.3337,-0.32663 1.3337,-1.14318 z"
         style="fill:#000000"
         id="path4342" />
    </g>
    <g
       id="g4600"
       transform="matrix(0.69903184,0,0,0.69903184,432.22612,352.61628)">
      <path
         id="path4449"
         transform="translate(-7.7272727e-6,62.362184)"
         d="m -424.63867,321.05859 -8.5,23.12305 -23.12305,8.50195 41.9082,10.28321 -10.28515,-41.90821 z m 80.88281,2.02735 -9.78711,39.88086 39.88281,-9.78711 -23.51172,-6.58399 -6.58398,-23.50976 z m -9.78711,100.6914 9.78711,39.88282 6.58398,-23.50977 23.51172,-6.58594 -39.88281,-9.78711 z m -60.8125,0.002 -39.87695,9.78711 23.50586,6.58398 6.58594,23.50586 9.78515,-39.87695 z"
         style="opacity:1;fill:#000000;fill-opacity:1;stroke:none;stroke-width:0.47777072;stroke-linecap:square;stroke-linejoin:miter;stroke-miterlimit:4;stroke-dasharray:none;stroke-opacity:1"
         inkscape:connector-curvature="0" />
      <path
         style="opacity:1;fill:#000000;fill-opacity:1;stroke:none;stroke-width:0.47777072;stroke-linecap:square;stroke-linejoin:miter;stroke-miterlimit:4;stroke-dasharray:none;stroke-opacity:1"
         d="m -418.09142,370.38135 16.65416,67.86493 -67.86492,-16.65416 19.20043,34.14319 -19.20043,34.14158 67.86492,-16.65256 -16.65416,67.86493 34.14319,-19.20204 34.14158,19.20204 -16.65256,-67.86493 67.86493,16.65256 -19.20204,-34.14158 19.20204,-34.14319 -67.86493,16.65416 16.65256,-67.86493 -34.14158,15.78724 -34.14319,-15.78724 z m 19.23409,69.43051 0.0256,0.94384 0.0272,0.94544 -0.34132,0.11537 c -0.59075,0.20123 -1.8466,1.01683 -2.26424,1.3781 -0.29443,0.25468 -0.85091,0.75314 -1.28997,1.26753 -0.52609,0.61635 -0.92234,1.24835 -1.00954,1.41656 -0.0981,0.1467 -0.33681,0.60608 -0.5304,1.01915 -0.41841,0.89274 -0.50576,1.42101 -0.44709,2.71614 0.072,1.59039 0.59559,2.61903 1.9021,3.7417 0.60107,0.5165 0.90699,0.68199 1.66493,0.89736 0.86307,0.24523 1.914,0.28786 3.16643,0.1298 1.07374,-0.13551 3.02712,-0.69904 4.49484,-1.29638 1.18555,-0.4825 3.10047,-1.17346 3.25295,-1.17459 0.21671,-0.002 3.11983,3.08188 3.12155,3.31546 7.2e-4,0.10577 -4.64652,11.98759 -4.82975,12.3484 -0.0578,0.11385 -0.12086,0.20656 -0.14101,0.20671 -0.0202,1.5e-4 -0.7569,-0.45577 -1.6377,-1.01435 -0.88081,-0.55858 -1.71748,-1.08436 -1.85883,-1.16817 -0.14134,-0.0838 -0.31471,-0.21544 -0.38618,-0.29325 -0.12531,-0.13643 -0.12516,-0.15407 0.0224,-0.4647 0.0842,-0.17719 0.26087,-0.46421 0.3926,-0.63938 0.13171,-0.17518 0.68352,-0.98204 1.22586,-1.79153 3.33412,-4.97643 3.37017,-5.03732 3.25135,-5.49637 -0.0253,-0.0977 -0.1339,-0.20735 -0.25479,-0.25639 -0.17593,-0.0714 -0.25303,-0.0647 -0.46951,0.04 -0.34218,0.16547 -0.4672,0.42887 -0.46311,0.9839 l 0.003,0.45349 -0.79802,1.22426 c -0.43903,0.67331 -0.84275,1.22546 -0.89736,1.22587 -0.0669,4.8e-4 -0.18757,-0.31995 -0.37016,-0.97909 -0.28259,-1.02013 -0.37322,-1.20504 -0.5913,-1.20344 -0.3037,0.002 -0.33187,0.18927 -0.28364,1.95979 0.0506,1.8596 0.0367,1.93983 -0.43425,2.38763 -0.12549,0.11933 -0.73527,0.78543 -1.35567,1.48066 -0.6204,0.69523 -1.16212,1.26402 -1.20343,1.26432 -0.0956,7.2e-4 -0.10722,0.2482 0.18909,-4.24806 0.0578,-0.8765 0.0656,-1.58143 0.0417,-1.64251 -0.0628,-0.16023 -0.22402,-0.30444 -0.41664,-0.10896 -0.11935,0.12112 -0.20989,0.47902 -0.31889,0.9871 -0.084,0.39145 -0.368,1.66693 -0.62976,2.83311 -0.26175,1.16619 -0.55263,2.49233 -0.64738,2.94689 -0.27508,1.31966 -0.25126,1.28388 -1.43419,2.09279 -0.39543,0.2704 -1.35894,0.95222 -2.14085,1.51591 -0.78192,0.56369 -1.68343,0.70003 -1.69539,0.66501 l 3.61991,-11.24432 c -0.13111,-0.19715 -0.19148,-0.19737 -0.29484,-0.19229 -0.34008,0.0156 -0.24283,0.0925 -1.1169,2.16169 -1.22183,2.84267 -2.33928,5.35703 -3.61511,8.2782 -0.37167,0.85127 -0.71059,1.57314 -0.75314,1.60244 -0.11306,0.0779 -0.32699,0.0587 -1.40534,-0.12178 -0.53345,-0.0893 -1.51743,-0.23851 -2.18573,-0.33171 -0.6683,-0.0932 -1.24574,-0.19989 -1.28356,-0.23716 -0.0435,-0.0428 0.25607,-0.61912 0.81404,-1.56879 2.71372,-4.61868 5.03183,-8.56882 5.9098,-10.13703 0.25029,-0.44706 0.38301,-0.7006 0.37497,-0.7211 -0.18997,-0.55388 -0.3691,-0.14648 -2.32353,2.35559 -1.093,1.39923 -3.10105,3.98809 -4.46119,5.75436 -1.36017,1.76627 -2.55299,3.29891 -2.65044,3.40518 -0.11187,0.12198 -0.22009,0.17649 -0.29325,0.14903 -0.0637,-0.024 -0.86251,-0.51918 -1.77551,-1.10248 -0.91298,-0.58331 -1.83012,-1.16903 -2.0383,-1.30118 -0.20817,-0.13214 -0.37947,-0.27404 -0.37977,-0.31568 -2.4e-4,-0.0416 0.90613,-1.00798 2.01266,-2.14727 1.10653,-1.1393 2.74841,-2.83632 3.64876,-3.77054 0.90033,-0.93422 2.54811,-2.63294 3.66317,-3.77535 1.11506,-1.14241 2.05333,-2.12374 2.08478,-2.18092 0.0375,-0.0681 -0.003,-0.17437 -0.11858,-0.30607 -0.1446,-0.10993 -0.20419,-0.17486 -0.41343,0.024 -0.13022,0.12358 -0.42958,0.36813 -0.66502,0.54323 -0.49429,0.36763 -9.06758,7.19072 -10.12581,8.05867 -1.14593,0.93988 -2.54881,2.00073 -2.64563,2.00144 -0.0494,4.8e-4 -0.13444,-0.053 -0.18909,-0.11857 -0.0546,-0.0656 -0.39097,-0.35903 -0.74834,-0.6522 -1.92978,-1.58317 -3.72446,-3.16937 -3.70484,-3.27539 0.0117,-0.0633 0.35818,-0.29056 0.77078,-0.50637 1.16992,-0.61194 11.92032,-6.3674 14.00853,-7.49941 0.45206,-0.24507 1.18049,-0.62381 1.61846,-0.84128 0.44673,-0.22183 0.86281,-0.47938 0.94704,-0.5881 0.1899,-0.24513 0.20149,-0.60547 0.0192,-0.60412 -0.0705,4.7e-4 -0.5786,0.17876 -1.12812,0.3958 -0.54952,0.21703 -2.07722,0.81251 -3.39558,1.32361 -1.31835,0.51111 -4.76397,1.85171 -7.65645,2.97894 -7.79319,3.03711 -8.07375,3.14234 -8.24455,3.08951 -0.083,-0.0257 -0.43084,-0.309 -0.77238,-0.62976 -0.34153,-0.32076 -1.35113,-1.23766 -2.24502,-2.0367 -1.67098,-1.49372 -1.9852,-1.7716 -2.02548,-1.84121 l 25.8121,-6.97862 c 0.10193,-0.10875 0.17832,-0.18814 0.16184,-0.35575 -0.1017,-0.27019 0.26955,-0.33788 -4.85378,0.60573 -0.76855,0.14155 -3.41122,0.62805 -5.87455,1.08004 -2.46332,0.45199 -6.12391,1.12276 -8.13398,1.49187 -2.01007,0.36911 -4.70255,0.85934 -5.98351,1.08967 -1.28098,0.23031 -2.6087,0.47389 -2.95009,0.54002 l -0.62015,0.12017 -0.28523,-0.22273 c -0.15642,-0.12202 -0.41208,-0.37399 -0.56726,-0.56085 -0.15518,-0.18687 -1.03689,-1.10763 -1.96139,-2.04632 -0.9245,-0.93871 -1.68223,-1.74545 -1.68256,-1.79153 -4.9e-4,-0.0557 0.24649,-0.0986 0.73551,-0.12979 0.40434,-0.0258 1.55815,-0.1189 2.56391,-0.20672 1.00574,-0.0878 2.31197,-0.19804 2.90362,-0.24517 0.59164,-0.0471 1.46245,-0.11792 1.93575,-0.15704 0.4733,-0.0391 1.32857,-0.10935 1.90049,-0.15544 0.57193,-0.0461 1.21727,-0.1001 1.43418,-0.12019 0.21692,-0.0201 0.84673,-0.0715 1.39893,-0.11537 0.55221,-0.0439 1.42301,-0.11662 1.93575,-0.16024 0.51275,-0.0437 1.35249,-0.11318 1.86525,-0.15544 0.51274,-0.0423 1.36025,-0.11302 1.88286,-0.15704 0.5226,-0.0441 1.37629,-0.11623 1.89889,-0.16025 0.5226,-0.044 1.35459,-0.11374 1.84761,-0.15543 1.83511,-0.15516 2.87122,-0.24096 4.33781,-0.35574 0.82831,-0.0648 1.68359,-0.13527 1.90049,-0.15704 0.2169,-0.0218 1.07219,-0.0941 1.9005,-0.16024 0.82831,-0.0661 1.66171,-0.15247 1.85081,-0.1923 0.18912,-0.0398 0.46692,-0.0726 0.61854,-0.0737 0.29224,-0.002 0.26741,0.0297 0.55285,-0.70346 0.0438,-0.11259 -0.58701,-0.11207 -2.92125,0.002 -0.92747,0.0453 -3.07396,0.14246 -4.77046,0.21632 -1.69651,0.0738 -4.71544,0.20821 -6.70782,0.29966 -1.99237,0.0915 -4.97705,0.22679 -6.6341,0.29966 -1.65705,0.0729 -4.56252,0.20712 -6.45623,0.29805 -7.53319,0.36174 -7.47409,0.35927 -7.66447,0.2596 -0.0975,-0.051 -0.32327,-0.26977 -0.49996,-0.48554 -0.17667,-0.21576 -0.76548,-0.93071 -1.3092,-1.58962 -0.54372,-0.6589 -1.1248,-1.39731 -1.29156,-1.6409 -0.16678,-0.24359 -0.44611,-0.60838 -0.62014,-0.81084 -0.17405,-0.20245 -0.28685,-0.38646 -0.25158,-0.40862 0.095,-0.0597 5.23389,-0.14927 15.51161,-0.27081 5.03152,-0.0595 11.65042,-0.13805 14.7088,-0.17467 3.05836,-0.0366 8.33763,-0.0983 11.73146,-0.1362 l 6.17099,-0.0689 z m 29.8182,0 6.16939,0.0689 c 3.39383,0.0379 8.67309,0.0996 11.73146,0.1362 3.05837,0.0366 9.67728,0.11519 14.7088,0.17467 10.27773,0.12154 15.41665,0.21116 15.51162,0.27081 0.0353,0.0222 -0.0775,0.20617 -0.25158,0.40862 -0.17404,0.20246 -0.45338,0.56725 -0.62015,0.81084 -0.16676,0.24359 -0.74785,0.982 -1.29157,1.6409 -0.54372,0.65891 -1.13253,1.37386 -1.30919,1.58962 -0.17668,0.21577 -0.40086,0.43451 -0.49836,0.48554 -0.19038,0.0997 -0.13288,0.10214 -7.66607,-0.2596 -1.89372,-0.0909 -4.79918,-0.2252 -6.45623,-0.29805 -1.65705,-0.0729 -4.64174,-0.2082 -6.63411,-0.29966 -1.99237,-0.0915 -5.01131,-0.22582 -6.70781,-0.29966 -1.69652,-0.0738 -3.843,-0.17104 -4.77046,-0.21632 -2.33424,-0.11367 -2.96506,-0.11419 -2.92125,-0.002 0.28543,0.73317 0.26061,0.70101 0.55284,0.70347 0.15164,8.2e-4 0.43103,0.0339 0.62015,0.0737 0.18909,0.0398 1.02091,0.12617 1.84922,0.1923 0.82831,0.0661 1.68358,0.13841 1.90048,0.16024 0.21691,0.0217 1.07218,0.0922 1.9005,0.15704 1.46659,0.11478 2.50271,0.20058 4.33781,0.35574 0.49302,0.0417 1.32501,0.11138 1.84761,0.15543 0.52261,0.0441 1.37788,0.1162 1.90049,0.16025 0.52261,0.0441 1.36852,0.11478 1.88127,0.15704 0.51275,0.0423 1.3525,0.11179 1.86523,0.15544 0.51274,0.0437 1.38355,0.11635 1.93575,0.16024 0.55221,0.0439 1.18202,0.0953 1.39894,0.11537 0.21691,0.0201 0.86225,0.0741 1.43417,0.12019 0.57191,0.0461 1.42719,0.1163 1.9005,0.15544 0.47331,0.0391 1.34412,0.10994 1.93575,0.15704 0.59166,0.0471 1.89948,0.15735 2.90522,0.24516 1.00576,0.0878 2.15956,0.18096 2.5639,0.20672 0.48902,0.0312 0.7344,0.0741 0.73392,0.1298 -3.4e-4,0.0461 -0.75645,0.85282 -1.68096,1.79153 -0.92449,0.93869 -1.8078,1.85945 -1.96298,2.04632 -0.15518,0.18686 -0.41086,0.43883 -0.56727,0.56085 l -0.28363,0.22273 -0.62175,-0.12018 c -0.34139,-0.0661 -1.66752,-0.3097 -2.94848,-0.54002 -1.28096,-0.23032 -3.97505,-0.72055 -5.98512,-1.08966 -2.01007,-0.36911 -5.66907,-1.03988 -8.13238,-1.49187 -2.46332,-0.45199 -5.1076,-0.93849 -5.87615,-1.08004 -5.12334,-0.94361 -4.75209,-0.87592 -4.85379,-0.60573 -0.0165,0.16761 0.0599,0.247 0.16184,0.35575 l 25.81211,6.97862 c -0.0403,0.0696 -0.3529,0.34749 -2.02389,1.84121 -0.89387,0.79904 -1.90508,1.71594 -2.24662,2.0367 -0.34154,0.32076 -0.68935,0.60408 -0.77237,0.62976 -0.1708,0.0528 -0.45136,-0.0524 -8.24455,-3.08951 -2.89248,-1.12723 -6.33809,-2.46783 -7.65646,-2.97894 -1.31835,-0.5111 -2.84605,-1.10658 -3.39557,-1.32361 -0.54951,-0.21704 -1.05764,-0.39533 -1.12811,-0.3958 -0.18227,-0.002 -0.17069,0.35899 0.0192,0.60412 0.0842,0.10872 0.50031,0.36627 0.94705,0.5881 0.43796,0.21747 1.16641,0.59621 1.61847,0.84128 2.0882,1.13201 12.8386,6.88747 14.00853,7.49941 0.41259,0.21581 0.75903,0.44304 0.77077,0.50637 0.0196,0.10601 -1.77506,1.69222 -3.70485,3.27539 -0.35736,0.29317 -0.6937,0.58656 -0.74834,0.65219 -0.0546,0.0656 -0.13969,0.11906 -0.18908,0.11858 -0.0968,-7.1e-4 -1.49971,-1.06156 -2.64563,-2.00144 -1.05824,-0.86795 -9.63152,-7.69104 -10.12582,-8.05867 -0.23543,-0.1751 -0.5348,-0.41965 -0.66501,-0.54323 -0.20924,-0.1989 -0.26883,-0.13397 -0.41343,-0.024 -0.11542,0.1317 -0.15607,0.23797 -0.11858,0.30607 0.0314,0.0572 0.96972,1.03851 2.08477,2.18092 1.11507,1.14241 2.76284,2.84113 3.66318,3.77535 0.90034,0.93422 2.54383,2.63124 3.65036,3.77054 1.10653,1.13929 2.0113,2.10567 2.01106,2.14727 -3e-4,0.0416 -0.17161,0.18353 -0.37978,0.31568 -0.20817,0.13215 -1.12531,0.71787 -2.0383,1.30118 -0.913,0.5833 -1.71175,1.07852 -1.7755,1.10248 -0.0732,0.0275 -0.18139,-0.0271 -0.29325,-0.14903 -0.0975,-0.10627 -1.29028,-1.63891 -2.65043,-3.40518 -1.36015,-1.76627 -3.3666,-4.35513 -4.45959,-5.75436 -1.95445,-2.50207 -2.13517,-2.90947 -2.32514,-2.35559 -0.008,0.0205 0.12628,0.27404 0.37657,0.7211 0.87797,1.56821 3.19608,5.51835 5.90979,10.13703 0.55798,0.94967 0.85593,1.52596 0.81244,1.56879 -0.0378,0.0372 -0.61525,0.14397 -1.28355,0.23716 -0.66829,0.0932 -1.65068,0.24241 -2.18412,0.33171 -1.07834,0.18049 -1.29389,0.19964 -1.40695,0.12178 -0.0426,-0.0293 -0.38147,-0.75117 -0.75315,-1.60244 -1.27583,-2.92118 -2.39167,-5.43553 -3.61349,-8.2782 -0.87407,-2.06921 -0.77843,-2.14611 -1.11851,-2.16169 -0.10337,-0.005 -0.16373,-0.005 -0.29485,0.19229 l 3.61991,11.24432 c -0.012,0.035 -0.91347,-0.10132 -1.69538,-0.66501 -0.78191,-0.56369 -1.74543,-1.24551 -2.14086,-1.51591 -1.18293,-0.80891 -1.1591,-0.77313 -1.43418,-2.09279 -0.0948,-0.45456 -0.38563,-1.7807 -0.64739,-2.94689 -0.26175,-1.16618 -0.54418,-2.44166 -0.62816,-2.83311 -0.10899,-0.50808 -0.20113,-0.86598 -0.32048,-0.9871 -0.19263,-0.19548 -0.35379,-0.0513 -0.41663,0.10896 -0.024,0.061 -0.0161,0.76601 0.0417,1.64251 0.29631,4.49626 0.28468,4.24878 0.18909,4.24806 -0.0413,-3e-4 -0.58303,-0.5691 -1.20343,-1.26432 -0.62039,-0.69523 -1.23018,-1.36133 -1.35566,-1.48066 -0.47096,-0.4478 -0.48489,-0.52803 -0.43427,-2.38763 0.0482,-1.77052 0.0217,-1.95733 -0.28203,-1.95979 -0.21808,-0.002 -0.31031,0.18331 -0.5929,1.20344 -0.18259,0.65914 -0.3033,0.97957 -0.37016,0.97909 -0.0546,-4.1e-4 -0.45833,-0.55257 -0.89737,-1.22587 l -0.79801,-1.22426 0.003,-0.45349 c 0.004,-0.55503 -0.11932,-0.81843 -0.4615,-0.9839 -0.21648,-0.10469 -0.2952,-0.11144 -0.47112,-0.04 -0.12089,0.0491 -0.22951,0.15865 -0.25478,0.25639 -0.11883,0.45905 -0.0811,0.51994 3.25295,5.49637 0.54234,0.80949 1.09255,1.61635 1.22426,1.79153 0.13174,0.17517 0.30844,0.46219 0.3926,0.63937 0.14758,0.31064 0.14934,0.32828 0.024,0.46471 -0.0715,0.0778 -0.24645,0.20943 -0.3878,0.29325 -0.14134,0.0838 -0.978,0.60959 -1.85882,1.16817 -0.8808,0.55858 -1.61752,1.0145 -1.6377,1.01435 -0.0201,-1.5e-4 -0.0832,-0.0929 -0.14101,-0.20671 -0.18323,-0.36081 -4.83047,-12.24263 -4.82976,-12.3484 0.002,-0.23358 2.90485,-3.3171 3.12156,-3.31546 0.15249,8.2e-4 2.0674,0.69209 3.25295,1.17459 1.46772,0.59734 3.4211,1.16087 4.49485,1.29638 1.25242,0.15806 2.30335,0.11543 3.16641,-0.1298 0.75795,-0.21537 1.06546,-0.38086 1.66654,-0.89736 1.30651,-1.12267 1.82846,-2.15131 1.9005,-3.7417 0.0587,-1.29513 -0.0286,-1.8234 -0.44708,-2.71614 -0.1936,-0.41307 -0.43231,-0.87245 -0.53041,-1.01915 -0.0872,-0.16821 -0.48185,-0.80021 -1.00793,-1.41656 -0.43907,-0.51439 -0.99555,-1.01285 -1.28997,-1.26753 -0.41765,-0.36128 -1.6735,-1.17688 -2.26425,-1.3781 l -0.34292,-0.11537 0.0272,-0.94544 0.0272,-0.94384 z m -26.50756,4.17596 c 0.0885,2.4e-4 0.5485,0.0281 1.02235,0.0625 1.1818,0.0859 2.50062,0.17151 4.45158,0.29005 0.90814,0.0552 1.87722,0.12146 2.15368,0.14741 l 0.50156,0.0481 0.024,0.25478 c 0.0299,0.32768 -0.0917,0.43386 -0.73391,0.64579 -0.66688,0.22008 -0.90361,0.37274 -1.52553,0.97749 -0.59969,0.58313 -0.93358,1.05151 -1.35085,1.89729 -0.16122,0.32678 -0.31698,0.59467 -0.34613,0.5945 -0.0291,-2e-5 -0.7828,-0.41772 -1.67455,-0.92781 -0.89175,-0.51009 -2.04226,-1.16879 -2.5575,-1.46302 -0.51522,-0.29424 -0.95882,-0.56867 -0.98549,-0.60893 -0.0267,-0.0403 0.15555,-0.4888 0.40541,-0.99672 0.38083,-0.77417 0.48042,-0.92183 0.61534,-0.9214 z m 15.94427,0.24518 c 0.69754,0.005 2.14291,0.0121 3.2129,0.016 3.10496,0.0114 3.52699,0.0198 3.58145,0.0689 0.0283,0.0255 0.0885,0.33171 0.133,0.68104 l 0.0802,0.63617 -0.40222,0.1298 c -1.04211,0.33552 -1.80718,1.20705 -2.36359,2.6937 -0.19991,0.53411 -0.23871,0.58657 -0.5865,0.79 -0.62258,0.36418 -0.6195,0.36716 -0.84288,-0.58649 -0.10685,-0.45614 -0.25355,-0.96078 -0.3269,-1.12011 -0.31004,-0.67342 -1.41079,-1.77362 -2.09599,-2.09599 -0.17985,-0.0846 -0.65116,-0.20517 -1.04799,-0.2692 -0.39683,-0.0641 -0.75616,-0.14598 -0.79802,-0.18109 -0.11087,-0.093 -0.0479,-0.65703 0.0802,-0.71949 0.0591,-0.0288 0.67896,-0.0485 1.37649,-0.0432 z m -14.24729,0.81564 c -0.15596,-0.007 -0.30446,0.0528 -0.43746,0.17786 -0.36325,0.34166 -0.30125,0.86449 0.13299,1.12492 0.27545,0.1652 0.46138,0.16714 0.68906,0.008 0.27288,-0.19105 0.35054,-0.32506 0.35093,-0.60892 2.4e-4,-0.21117 -0.0487,-0.30412 -0.25478,-0.48234 -0.1604,-0.13875 -0.32477,-0.21228 -0.48074,-0.21953 z m 21.50314,1.24029 c 0.23649,-0.0129 0.63073,0.0668 1.48546,0.22433 1.27093,0.2342 1.43156,0.31506 1.46784,0.72912 0.0114,0.13039 -0.0687,0.45551 -0.17948,0.72269 -0.20302,0.48957 -1.10472,2.11937 -1.21945,2.20496 -0.034,0.0254 -0.0975,-0.009 -0.14102,-0.0753 -0.0435,-0.0666 -0.19894,-0.47276 -0.34613,-0.90377 -0.15783,-0.46223 -0.31047,-0.79649 -0.37176,-0.81404 -0.0572,-0.0164 -0.6136,-0.0498 -1.23708,-0.0753 -1.32082,-0.0541 -1.45889,-0.0701 -1.46623,-0.15383 -0.005,-0.0583 0.57702,-0.66188 1.46943,-1.52392 0.22403,-0.2164 0.30194,-0.322 0.53842,-0.33491 z m -15.502,0.008 c 0.0541,-4.7e-4 0.42138,0.26404 0.81564,0.5881 0.39427,0.32405 1.09905,0.90208 1.56559,1.28355 0.46653,0.38146 0.84902,0.72335 0.84929,0.75956 7.2e-4,0.0921 -0.23713,0.72792 -0.94224,2.51904 -0.76542,1.9443 -0.89344,2.22985 -0.99511,2.2306 -0.0451,2.3e-4 -0.16453,-0.0877 -0.2644,-0.19551 -0.0999,-0.1078 -0.29333,-0.33938 -0.42946,-0.51598 -0.13612,-0.17659 -0.87387,-1.0869 -1.6409,-2.02228 -0.76703,-0.9354 -1.39538,-1.73945 -1.39572,-1.78672 -8.2e-4,-0.13561 0.69442,-1.33532 1.03518,-1.78512 0.42204,-0.5571 1.09502,-1.07297 1.40213,-1.07524 z m 7.79907,0 c 0.30712,0.002 0.9801,0.51814 1.40214,1.07524 0.34077,0.4498 1.03599,1.64951 1.03517,1.78512 -3.4e-4,0.0473 -0.62708,0.85132 -1.39411,1.78672 -0.76703,0.93538 -1.50638,1.84569 -1.64251,2.02228 -0.13612,0.1766 -0.32958,0.40818 -0.42946,0.51598 -0.0999,0.1078 -0.21775,0.19574 -0.26279,0.19551 -0.10167,-7.5e-4 -0.22971,-0.2863 -0.99512,-2.2306 -0.70512,-1.79112 -0.94296,-2.42691 -0.94224,-2.51904 2.7e-4,-0.0362 0.38117,-0.3781 0.8477,-0.75956 0.46655,-0.38147 1.17132,-0.9595 1.56558,-1.28355 0.39426,-0.32406 0.76158,-0.58857 0.81564,-0.5881 z m -16.56121,0.38139 0.7195,0.37497 c 0.86823,0.451 1.26242,0.68695 1.26112,0.75795 -4.9e-4,0.0291 -0.5119,0.29212 -1.13454,0.58489 -0.62264,0.29277 -1.23993,0.62577 -1.37328,0.73873 -0.24068,0.20388 -0.24317,0.20943 -0.26281,0.89416 -0.0109,0.37938 -0.0414,0.68887 -0.0673,0.68744 -0.0259,-0.002 -0.2574,-0.2305 -0.51598,-0.50957 -0.99802,-1.07706 -1.66379,-1.85052 -1.66334,-1.93254 8.2e-4,-0.18685 0.16067,-0.28126 1.57199,-0.92622 l 1.46463,-0.66981 z m 12.66248,3.6151 c 2.43877,6.61386 4.88713,13.25876 7.32956,19.88307 l -3.17284,3.27539 2.39726,5.66623 -1.28997,1.42296 c -0.65894,-1.74747 -1.93094,-5.02204 -1.93094,-5.02204 -0.12403,-0.0702 -0.31608,0.1254 -0.33651,0.27401 l 1.46944,5.62777 -1.46623,1.61846 c -0.5134,-2.05896 -1.54636,-5.96107 -1.54636,-5.96107 -0.16479,-0.008 -0.27237,0.19199 -0.32209,0.32209 l 1.03998,6.55238 -2.1713,2.34597 -2.17291,-2.34758 1.03998,-6.55077 c -0.0496,-0.1301 -0.1573,-0.33029 -0.32209,-0.32209 0,0 -1.03132,3.9004 -1.54475,5.95947 l -1.46783,-1.61846 1.47103,-5.62617 c -0.0204,-0.14861 -0.21408,-0.34416 -0.33811,-0.27401 0,0 -1.27196,3.27448 -1.93094,5.02204 l -1.28836,-1.42296 2.39725,-5.66623 -3.17444,-3.27539 c 2.4002,-6.51053 5.02439,-13.6502 7.33117,-19.88307 z m -7.9449,21.0833 c 0.007,8e-5 0.0212,0.007 0.0353,0.0144 l 2.19374,1.9758 c -0.15021,0.34913 -1.03378,1.87623 -1.89088,3.25777 -0.82301,1.32658 -0.83155,1.42861 -0.19389,2.41167 0.51311,0.79104 0.92069,1.62272 0.91659,1.87005 -0.002,0.10224 -0.0361,0.24208 -0.0753,0.31248 -0.0693,0.12458 -3.08599,2.21401 -3.32026,2.29949 -0.0928,0.0339 -0.1061,0.0138 -0.0609,-0.0945 0.23682,-0.56715 0.65849,-1.71468 0.76918,-2.09279 l 0.1346,-0.4583 -0.35093,-0.31888 c -0.19282,-0.17544 -0.39524,-0.30959 -0.45029,-0.29966 -0.0551,0.01 -0.3515,0.40153 -0.657,0.87013 -0.3055,0.46859 -0.8322,1.2746 -1.17138,1.79152 -0.33917,0.51693 -0.63658,1.04767 -0.66021,1.1794 -0.0621,0.34664 0.14789,0.7123 0.77398,1.35086 0.29406,0.29991 0.53409,0.57031 0.53362,0.60091 -8.3e-4,0.0712 -1.09504,0.0403 -1.47105,-0.0417 -1.13023,-0.24636 -2.02813,-0.9611 -2.01746,-1.60404 0.004,-0.25165 0.2691,-0.74025 2.52704,-4.65348 0.24421,-0.42326 0.42601,-0.8152 0.40542,-0.87173 -0.0289,-0.0791 -0.19589,-0.1066 -0.72751,-0.11538 -0.66843,-0.0111 -0.69723,-0.005 -0.88455,0.19069 -0.10648,0.11137 -0.40899,0.56776 -0.67142,1.01275 -0.45923,0.77868 -0.47806,0.80091 -0.5272,0.59289 -0.0931,-0.39407 -0.51379,-3.78518 -0.47432,-3.82341 0.0213,-0.0206 0.95969,0.0144 2.08477,0.0785 1.4251,0.0812 2.08737,0.0954 2.18573,0.0449 0.0776,-0.0399 0.20652,-0.17701 0.28684,-0.30446 0.19124,-0.30344 1.08421,-2.01203 1.9694,-3.77214 0.38881,-0.77312 0.74302,-1.40446 0.78839,-1.40374 z m 15.59495,0.17306 c 0.18882,0.14268 1.42545,2.11748 1.54635,2.47737 0.31476,0.93714 0.99157,1.94272 1.50789,2.24022 0.65599,0.37797 2.27099,0.63582 2.82351,0.45028 0.15394,-0.0517 0.40438,-0.20212 0.55604,-0.3333 0.32396,-0.28024 0.58125,-0.35195 1.02717,-0.28845 l 0.32529,0.0464 -0.0481,0.37176 c -0.0261,0.20427 -0.18023,1.44943 -0.34292,2.76742 -0.1627,1.31799 -0.31194,2.4124 -0.33171,2.4325 -0.0584,0.0593 -0.35286,-0.0394 -0.53521,-0.17948 l -0.16986,-0.12979 0.14903,-0.28203 c 0.18505,-0.35172 0.18337,-0.50024 -0.007,-0.99672 -0.18577,-0.48563 -0.77043,-1.14056 -1.1201,-1.25311 -0.21211,-0.0683 -0.28456,-0.0584 -0.48073,0.0577 -0.45369,0.26846 -0.41522,0.37133 1.17459,3.04624 0.49863,0.83897 0.66671,1.06365 0.81084,1.09286 0.52404,0.10635 0.57396,0.19454 0.74352,1.30118 0.0737,0.48064 0.0738,0.60576 0,0.65219 -0.0504,0.0317 -0.42077,0.10063 -0.82205,0.15224 -0.40126,0.0516 -1.29404,0.19092 -1.98382,0.31088 -1.45026,0.25221 -1.42564,0.25131 -1.47584,0.12338 -0.0213,-0.0536 -0.0295,-0.28834 -0.0192,-0.52079 0.0167,-0.37738 0.0336,-0.42002 0.16184,-0.39901 0.49107,0.0804 0.72527,0.0317 1.14575,-0.24197 0.90293,-0.58766 0.93689,-0.73232 0.3942,-1.73063 -0.44288,-0.81473 -1.58467,-2.53054 -1.71621,-2.57993 -0.12546,-0.0471 -0.71872,0.30144 -0.85891,0.50477 -0.15848,0.22982 -0.12469,0.59869 0.0913,0.9887 0.24763,0.44713 0.58547,0.70594 0.9214,0.70347 l 0.25639,-0.002 0.005,0.61213 c 0.006,0.72815 -0.0403,0.76851 -0.5913,0.54483 -0.35453,-0.14392 -2.26092,-1.15095 -3.68882,-1.94857 -0.59599,-0.33289 -0.64754,-0.37991 -0.64098,-0.57527 0.004,-0.11692 0.0663,-0.34155 0.13941,-0.49996 0.13159,-0.2851 0.13729,-0.28949 0.60573,-0.33331 0.8083,-0.0756 0.87062,-0.12471 1.29958,-1.03517 0.20774,-0.44092 0.39896,-0.88846 0.42464,-0.99512 0.0932,-0.38681 -0.15678,-0.82548 -1.35246,-2.37001 -0.64197,-0.82928 -1.32568,-1.71167 -1.51911,-1.96139 -0.18111,-0.23382 -0.31709,-0.44145 -0.3253,-0.49035 l 1.91973,-1.73063 z"
         id="path4418"
         inkscape:connector-curvature="0" />
    </g>
    <path
       id="path4477"
       d="m 359.71709,611.52494 11.64188,47.43997 -47.43996,-11.64189 13.42223,23.86675 -13.42223,23.86675 47.43996,-11.64188 -11.64188,47.43996 23.86811,-13.42223 23.86539,13.42223 -11.64052,-47.43996 47.43995,11.64188 -13.42359,-23.86675 13.42359,-23.86675 -47.43995,11.64189 11.64052,-47.43997 -23.86539,11.03569 -23.86811,-11.03569 z m -7.89961,48.55132 11.1258,0 8.91403,0 c 4.41887,0.38762 -3.10101,7.94529 2.28687,11.47259 l 0,0.27169 c -0.0775,0.96906 0.93094,1.97636 0.34951,2.71284 -0.0387,0.15512 -0.11605,0.34873 -0.11605,0.5038 l -0.15564,0 -2.28687,6.78416 -3.52656,-0.73727 3.33269,-6.89884 c -0.1163,-0.42637 -0.27058,-0.11627 -1.74349,1.78307 -0.85276,1.08533 -2.36445,3.10103 -3.37228,4.45771 -0.11628,0.11629 -0.11718,0.11666 -0.23347,0.27169 -1.24037,-0.46515 -2.48028,-0.93104 -3.60437,-1.43492 0.85276,-0.85277 2.05388,-2.09244 2.71284,-2.8289 0.65894,-0.69772 1.93843,-2.01573 2.75243,-2.86849 0.85279,-0.89153 1.5892,-1.6291 1.5892,-1.70662 0.0388,-0.0389 -3.4e-4,-0.11581 -0.0778,-0.2321 -0.11629,-0.0775 -0.15492,-0.11687 -0.30992,0.0382 -0.11629,0.0775 -0.34878,0.27146 -0.5038,0.38774 -0.38763,0.3101 -6.89907,5.50482 -7.67433,6.20255 -0.11628,0.0389 -0.19417,0.11635 -0.2717,0.19386 -1.58925,-0.73647 -3.02324,-1.55015 -4.37986,-2.40292 1.24033,-0.65893 8.79899,-4.72914 10.31071,-5.5431 0.34885,-0.1938 0.89084,-0.46563 1.23969,-0.65943 0.34886,-0.15511 0.65892,-0.34844 0.69766,-0.42598 0.15512,-0.1938 0.15585,-0.46556 0.0396,-0.46556 -0.0775,0 -0.46568,0.11664 -0.85331,0.27169 -0.42637,0.19381 -1.58899,0.61998 -2.5968,1.00758 -1.00782,0.38758 -3.60451,1.39588 -5.77519,2.24865 -2.98462,1.16286 -4.497,1.74331 -5.31101,2.0534 -1.47296,-1.08534 -2.86814,-2.24712 -4.186,-3.44873 l 18.99264,-5.00108 c 0.0775,-0.11628 0.11742,-0.15546 0.11742,-0.27169 -0.0775,-0.23257 0.19399,-0.27037 -3.68221,0.42733 -0.58143,0.0775 -2.59712,0.42663 -4.4577,0.77549 -1.86057,0.31009 -4.6526,0.81409 -6.1643,1.0854 -1.5505,0.27134 -3.56514,0.61908 -4.53416,0.77414 -0.96904,0.19381 -1.93907,0.34898 -2.21042,0.38773 -1.20161,-1.16286 -2.32464,-2.36399 -3.44873,-3.60438 l 0.0765,0 c 0.31008,-0.0389 1.20225,-0.078 1.93872,-0.15563 0.77525,-0.0775 1.78267,-0.11547 2.20905,-0.15429 0.46514,-0.0389 1.12436,-0.0772 1.47315,-0.11604 0.34886,-0.0389 1.00856,-0.0786 1.43493,-0.11742 0.4264,0 0.92899,-0.0377 1.08404,-0.0765 0.19381,0 0.65903,-0.0393 1.08542,-0.0778 0.38761,0 1.08553,-0.0778 1.47315,-0.0778 0.38763,-0.0389 1.00771,-0.0772 1.39534,-0.11605 0.38762,-0.0389 1.0473,-0.0772 1.43492,-0.11605 0.38763,-0.0389 1.04593,-0.0772 1.43356,-0.11606 0.38761,0 1.00771,-0.0778 1.39534,-0.0778 1.39544,-0.11629 2.17179,-0.15463 3.29582,-0.2321 0.6202,-0.0389 1.27851,-0.11741 1.43356,-0.11741 0.15512,0 0.81336,-0.0772 1.43357,-0.11605 0.65893,-0.0389 1.27988,-0.0772 1.43493,-0.11606 0.11628,-0.0389 0.34928,-0.0778 0.46556,-0.0778 0.19382,0 0.19394,0.0395 0.38775,-0.54202 0.0387,-0.0775 -0.42737,-0.0775 -2.21043,0 -0.69771,0 -2.32529,0.0772 -3.60438,0.11605 -1.27914,0.0389 -3.56582,0.11681 -5.07753,0.15564 -1.5117,0.0775 -3.79893,0.15518 -5.03932,0.19387 -1.24038,0.0389 -3.44947,0.11545 -4.88365,0.15427 -3.99248,0.15511 -5.11726,0.19388 -5.50488,0.19388 -0.93026,-1.00782 -1.86038,-2.05401 -2.79067,-3.10059 -0.11628,-0.19379 -0.23187,-0.38751 -0.34815,-0.50379 -0.11629,-0.15512 -0.23262,-0.30992 -0.19387,-0.30992 0.0775,-0.0389 3.95267,-0.0778 11.7825,-0.0778 z m 31.51378,0 c 1.43419,-0.0388 2.44252,0.0771 3.33405,0.42597 3.13972,1.08532 4.96151,2.98432 5.46529,5.58133 0.38755,1.86059 0.3095,5.50477 -0.15565,6.90021 -0.3486,1.08533 -0.38775,1.124 -0.38775,0.5038 -0.0387,-0.38761 -0.19339,-1.12407 -0.42596,-1.5892 -0.31011,-0.69773 -0.34899,-1.00784 -0.19388,-1.58921 0.27134,-0.96907 0.0777,-1.04635 -0.30992,-0.11605 -0.31009,0.69765 -0.27158,0.77496 0.11605,1.70526 0.19381,0.50391 0.38775,1.20075 0.38775,1.5496 0,1.04658 0.23237,1.82244 0.61984,1.93872 0.58142,0.15507 0.46599,0.93007 -0.27033,1.89914 -0.73649,1.00773 -1.35796,1.3571 -2.28824,1.3571 -0.54266,0 -0.65843,0.0765 -0.92977,0.96799 -0.15502,0.50392 -0.30935,1.1636 -0.34814,1.43494 -0.0388,0.1938 -0.11658,0.34926 -0.2717,0.46556 -0.0388,0.0388 -0.0396,0.11541 -0.0396,0.15427 -1e-5,0.19385 -0.15518,0.2717 -0.38774,0.2717 -0.23263,0 -0.30993,-0.0779 -0.30993,-0.2717 0,-0.38762 -0.38674,-0.31034 -0.4642,0.11606 -0.0389,0.2713 -0.19477,0.38774 -0.42734,0.38774 -0.27133,0.0387 -0.38752,-0.0776 -0.5038,-0.38774 -0.15505,-0.46522 -0.50379,-0.4261 -0.50379,0.0778 0,0.27132 -0.0773,0.34887 -0.30992,0.38775 -0.77514,0.0387 -0.81371,0.11674 -0.81371,-0.23211 -0.0775,-0.38751 -0.30999,-0.62114 -0.5038,-0.42733 -0.0774,0.0775 -0.11605,0.27175 -0.11605,0.46556 -0.0775,0.31003 -0.0781,0.27089 -0.85331,0.23209 -0.15506,-0.0387 -0.27169,-0.19339 -0.27169,-0.42596 0,-0.50386 -0.34871,-0.54297 -0.5038,-0.0778 -0.1163,0.30999 -0.23245,0.38831 -0.5038,0.34951 -0.23257,0 -0.38811,-0.0782 -0.46556,-0.34951 -0.0388,-0.4264 -0.42597,-0.50368 -0.42597,-0.11606 0,0.19385 -0.1161,0.2717 -0.30993,0.2717 -0.2325,0 -0.38775,-0.077 -0.38775,-0.2321 0,-0.0388 -0.0382,-0.11642 -0.0382,-0.19387 -0.23257,-0.15506 -0.38857,-0.42687 -0.23346,-0.65944 0.19381,-0.31011 -0.65873,-2.09337 -1.00759,-2.17082 -1.43416,-0.23258 -1.86026,-0.46534 -2.40293,-1.27928 -0.89154,-1.31791 -0.93039,-1.47197 -0.38773,-2.05341 0.42644,-0.46514 0.50378,-0.73705 0.50378,-1.74485 0,-0.77526 0.15463,-1.55034 0.42597,-2.093 0.31022,-0.73649 0.34946,-1.00726 0.15566,-1.62743 -0.2714,-1.04659 -0.58074,-1.20254 -0.34816,-0.23347 0.11628,0.62017 0.0766,1.04721 -0.23347,1.93872 -0.23256,0.6202 -0.3871,1.43422 -0.42597,1.78307 0,0.5039 -0.0777,0.42568 -0.38773,-0.54338 -0.42646,-1.39543 -0.50427,-2.17099 -0.2717,-5.03931 0.19381,-2.94591 0.73699,-4.1862 2.44252,-5.65916 1.66671,-1.43418 3.72089,-1.93712 5.96907,-2.0534 z m 12.01598,0 8.87716,0 11.16265,0 c 7.79117,0 11.66818,0.0389 11.74565,0.0778 0.0388,0 -0.0387,0.15481 -0.19387,0.30992 -0.0775,0.11628 -0.23324,0.30999 -0.34952,0.50378 -0.93029,1.04658 -1.86091,2.0928 -2.75243,3.1006 -0.38763,0 -1.51103,-0.0388 -5.50352,-0.19388 -1.4342,-0.0388 -3.6441,-0.11541 -4.92325,-0.15427 -1.24038,-0.0387 -3.488,-0.11642 -4.99973,-0.19387 -1.51172,-0.0388 -3.7992,-0.11678 -5.11712,-0.15565 -1.27913,-0.0387 -2.90667,-0.11606 -3.60438,-0.11606 -1.78305,-0.0775 -2.24792,-0.0775 -2.20906,0 0.19383,0.58147 0.1934,0.54204 0.42598,0.54204 0.11629,0 0.31046,0.0389 0.46556,0.0778 0.15503,0.0388 0.77514,0.0772 1.39534,0.11605 0.62019,0.0388 1.27845,0.11605 1.43356,0.11605 0.15505,0 0.81337,0.0785 1.43356,0.11741 1.1241,0.0775 1.90039,0.11581 3.29582,0.23211 0.38762,0 1.00771,0.0778 1.39534,0.0778 0.42638,0.0387 1.04677,0.0772 1.47316,0.11605 0.38762,0.0388 1.0077,0.0772 1.39533,0.11605 0.38762,0.0389 1.04593,0.0772 1.43355,0.11606 0.38762,0 1.04679,0.0778 1.47317,0.0778 0.38762,0.0385 0.89207,0.0778 1.04718,0.0778 0.15505,0.0387 0.65901,0.0765 1.08541,0.0765 0.42637,0.0389 1.0847,0.0786 1.43356,0.11742 0.38762,0.0388 1.04676,0.0772 1.47316,0.11605 0.46513,0.0387 1.43379,0.0768 2.20904,0.15428 0.77525,0.0776 1.62863,0.11678 1.93872,0.15564 l 0.11605,0 c -1.12409,1.24038 -2.2867,2.44152 -3.48832,3.60438 -0.27134,-0.0388 -1.24055,-0.19393 -2.17082,-0.38774 -0.96907,-0.15505 -3.02382,-0.50279 -4.53553,-0.77413 -1.55048,-0.27132 -4.30237,-0.77532 -6.16294,-1.08541 -1.89934,-0.34885 -3.87626,-0.69802 -4.4577,-0.77548 -3.91495,-0.69771 -3.60474,-0.6599 -3.6822,-0.42733 -0.0388,0.11623 0.0385,0.1554 0.11604,0.27168 l 18.99401,5.00109 c -1.3179,1.20162 -2.71387,2.36341 -4.22559,3.44873 -0.81401,-0.3101 -2.32549,-0.89054 -5.27141,-2.0534 -2.20944,-0.85277 -4.80699,-1.86107 -5.8148,-2.24865 -1.0078,-0.3876 -2.17094,-0.81377 -2.55856,-1.00758 -0.42638,-0.15506 -0.81308,-0.2717 -0.85194,-0.2717 -0.15511,0 -0.15511,0.27176 0,0.46557 0.0775,0.0775 0.38757,0.27086 0.69766,0.42598 0.34886,0.1938 0.89083,0.46563 1.23969,0.65943 1.55047,0.81395 9.07034,4.88416 10.31071,5.5431 -1.35666,0.85277 -2.79115,1.66645 -4.34164,2.40292 -0.11621,-0.0775 -0.19286,-0.155 -0.27033,-0.19386 -0.81401,-0.69773 -7.32683,-5.89246 -7.67569,-6.20255 -0.19382,-0.11628 -0.42633,-0.31028 -0.5038,-0.38774 -0.15498,-0.1551 -0.23246,-0.1157 -0.30992,-0.0383 -0.11628,0.11629 -0.15491,0.19324 -0.11604,0.2321 0.0388,0.0775 0.73643,0.8151 1.5892,1.70662 0.85277,0.85276 2.09295,2.17078 2.79066,2.8685 0.65895,0.73646 1.86061,1.97612 2.67461,2.82889 -1.12409,0.50389 -2.32523,0.96977 -3.60437,1.43492 -0.11635,-0.15504 -0.11642,-0.1554 -0.19387,-0.27168 -1.04658,-1.35668 -2.55828,-3.37239 -3.37229,-4.45771 -1.51171,-1.89934 -1.62796,-2.20944 -1.78308,-1.78307 l 3.37228,6.89884 -3.56615,0.73727 -2.28687,-6.78417 -0.11605,0 c -0.0387,-0.15506 -0.0782,-0.34867 -0.15564,-0.50379 -0.58142,-0.73648 0.4658,-1.7438 0.34951,-2.71284 0,-0.0775 0.0382,-0.15541 0.0382,-0.27169 5.34915,-3.5273 -2.17061,-11.08498 2.28687,-11.47259 z m -17.01843,11.52992 c -0.14353,0.003 -0.27843,0.0199 -0.38501,0.0587 -0.27132,0.0775 -0.5434,0.42733 -0.5434,0.42733 -0.42648,0.50391 -0.50403,0.77432 -0.38773,1.35575 0.0775,0.62021 0.23263,0.81413 1.08541,1.27928 0.85271,0.46526 1.1627,0.54362 2.09299,0.42734 0.93029,-0.0775 1.2019,-0.23335 1.66704,-0.73727 0.58143,-0.6977 0.62086,-0.89148 0.34952,-1.5892 -0.11629,-0.38762 -0.3885,-0.46424 -0.93115,-0.65807 -0.42637,-0.11629 -1.31746,-0.27174 -2.01518,-0.46556 0,0 -0.50189,-0.1092 -0.93249,-0.0984 z m 10.62337,0.0983 c -0.27134,0 -0.77632,5e-5 -1.70661,0.19388 -1.08534,0.19379 -1.89849,0.38727 -2.05341,0.61984 -0.54267,0.89154 0.38675,2.4805 1.54961,2.59679 0.38762,0.0389 0.89207,0.11606 1.04718,0.11606 0.19381,0 0.7358,-0.11522 1.23969,-0.27034 0.814,-0.27132 0.9309,-0.42617 1.04719,-1.00758 0.15505,-0.69773 3.3e-4,-1.12419 -0.61985,-1.97696 -0.11629,-0.19387 -0.34868,-0.27169 -0.5038,-0.27169 z m -5.34922,3.10059 c -0.46516,0.0775 -0.7374,0.31039 -1.12501,0.96936 -0.50396,0.814 -0.58072,1.39593 -0.34815,2.24864 0.11628,0.54261 0.81437,0.58035 1.16323,0.0765 0.23257,-0.3101 0.27045,-0.3101 0.65807,0 1.16286,1.08533 1.70624,-0.5424 0.73726,-2.40291 -0.31012,-0.65895 -0.46592,-0.85268 -0.73726,-0.89154 l -0.34814,0 z"
       style="opacity:1;fill:#000000;fill-opacity:1;stroke:none;stroke-width:0.47777072;stroke-linecap:square;stroke-linejoin:miter;stroke-miterlimit:4;stroke-dasharray:none;stroke-opacity:1"
       inkscape:connector-curvature="0" />
    <g
       id="g5008"
       transform="translate(683.02723,150.91246)">
      <g
         id="g4479"
         transform="matrix(0.69903183,0,0,0.69903183,65.356826,58.499969)">
        <path
           id="path4481"
           transform="translate(-7.7272727e-6,62.362184)"
           d="m -241.17578,514.04688 16.11133,51.64453 17.56445,-17.58594 17.56445,17.58594 16.11133,-51.64453 -33.67578,15.57226 -33.67578,-15.57226 z m -50.50977,50.51171 18.9375,33.67383 -18.9375,33.67578 51.65625,-16.11328 -17.54297,-17.56054 17.54297,-17.5625 -51.65625,-16.11329 z m 168.3711,0 -51.65625,16.11329 17.54297,17.5625 -17.54297,17.56054 51.65625,16.11328 -18.9375,-33.67578 18.9375,-33.67383 z m -101.75196,66.21875 -16.10937,51.64258 33.67578,-18.93945 33.67578,18.93945 -16.10937,-51.64258 -17.56641,17.58399 -17.56641,-17.58399 z"
           style="opacity:1;fill:#000000;fill-opacity:1;stroke:none;stroke-width:0.47777072;stroke-linecap:square;stroke-linejoin:miter;stroke-miterlimit:4;stroke-dasharray:none;stroke-opacity:1"
           inkscape:connector-curvature="0" />
        <path
           inkscape:connector-curvature="0"
           id="path4483"
           d="m -264.63899,660.59644 3.53358,3.53749 53.60553,53.66476 57.1391,-57.20225 -57.1391,-57.20224 -57.13911,57.20224 z m 14.13432,0 43.00479,-43.0523 43.00478,43.0523 -43.00478,43.05231 -43.00479,-43.05231 z"
           style="color:#000000;font-style:normal;font-variant:normal;font-weight:normal;font-stretch:normal;font-size:medium;line-height:normal;font-family:sans-serif;text-indent:0;text-align:start;text-decoration:none;text-decoration-line:none;text-decoration-style:solid;text-decoration-color:#000000;letter-spacing:normal;word-spacing:normal;text-transform:none;direction:ltr;block-progression:tb;writing-mode:lr-tb;baseline-shift:baseline;text-anchor:start;clip-rule:nonzero;display:inline;overflow:visible;visibility:visible;opacity:1;isolation:auto;mix-blend-mode:normal;color-interpolation:sRGB;color-interpolation-filters:linearRGB;solid-color:#000000;solid-opacity:1;fill:#000000;fill-opacity:1;fill-rule:nonzero;stroke:none;stroke-width:10.00000286;stroke-linecap:square;stroke-linejoin:miter;stroke-miterlimit:4;stroke-dasharray:none;stroke-dashoffset:0;stroke-opacity:1;color-rendering:auto;image-rendering:auto;shape-rendering:auto;text-rendering:auto;enable-background:accumulate" />
        <path
           inkscape:connector-curvature="0"
           d="m -220.51518,672.39279 c -0.87831,-0.63473 -1.28607,-1.51719 -1.28607,-2.78324 0,-2.37079 0.88238,-3.22564 3.32948,-3.22564 2.01913,0 8.67391,2.66122 8.67391,3.46867 0,0.25003 -0.81239,1.03307 -1.80529,1.74009 -2.35878,1.67959 -7.10536,2.10574 -8.91203,0.80012 z m 22.14911,0.77556 c -3.50199,-0.95075 -5.17299,-1.7689 -5.72696,-2.80397 -0.45042,-0.84162 -0.1417,-1.16991 1.87952,-1.99863 5.56053,-2.27987 7.36738,-2.62568 8.80329,-1.68483 1.57394,1.03127 1.7134,2.89189 0.36449,4.86301 -1.6635,2.43078 -1.98667,2.52946 -5.32034,1.62442 z m -11.43179,4.94631 c 0,-1.70456 2.01502,-5.44326 2.93373,-5.44326 0.59973,0 1.88451,2.75926 2.54315,5.46175 0.39999,1.64126 0.38206,1.65825 -0.72069,0.68283 -1.41276,-1.24961 -2.37455,-1.26369 -3.71091,-0.0543 -0.9889,0.89494 -1.04528,0.86005 -1.04528,-0.64703 z m -5.14432,8.27489 c 0,-0.62875 0.2685,-1.14318 0.59666,-1.14318 0.32815,0 0.62231,1.39508 0.59742,1.94524 0.052,0.52314 2.3438,0.61217 2.40017,-0.25205 0.10051,-0.70733 0.40439,-1.96104 0.91916,-2.02854 0.30963,-0.0406 0.54306,1.47687 0.55768,2.1832 0.017,0.82088 1.94871,0.63628 1.93732,0.088 0,0 0.11074,-2.33807 0.64203,-2.40734 0.60668,-0.0791 0.7796,2.13006 0.7796,2.13006 0.0886,0.89365 2.34182,0.57647 2.13829,-0.18165 0,0 0.22257,-1.97545 0.70264,-1.99685 0.49105,-0.0219 0.66777,2.23893 0.66777,2.23893 0.10682,0.92905 3.02384,0.46265 2.7876,-0.39509 0,0 -0.28091,-1.44714 0.135,-1.57832 0.49306,-0.1555 1.26104,1.77659 1.26104,1.77659 0.1327,0.55033 2.84133,1.02223 2.74009,-0.0152 -0.10427,-1.06827 -0.98802,-6.16867 -1.40547,-7.24816 -0.28168,-0.7284 0.17985,-0.87822 2.64102,-0.85737 2.92599,0.0248 3.01256,-0.0234 4.58117,-2.54689 2.07408,-3.33674 2.62606,-7.18266 1.40318,-9.77675 -0.8281,-1.75666 -0.83238,-2.23918 -0.0451,-5.08459 1.45015,-5.24087 1.72245,-13.02092 0.57647,-16.47111 -2.6953,-8.11496 -12.94369,-12.85301 -23.18296,-10.71806 -8.80495,1.83588 -14.72589,7.57233 -15.78401,15.2922 -0.25646,1.871 0.0308,3.57727 1.14701,6.81095 1.73994,5.04107 1.94509,9.35071 0.52008,10.92533 -0.85035,0.93962 -0.88254,1.4004 -0.2627,3.76033 0.38853,1.47924 1.27475,3.84698 1.96938,5.26167 1.26095,2.56802 1.26782,2.57211 4.26383,2.54775 1.65047,-0.0134 3.00055,-0.0134 3.00018,0 -3.7e-4,0.0134 -0.35423,1.8783 -0.78636,4.14419 -0.43213,2.26587 -0.64617,4.2593 -0.47565,4.42981 0.17051,0.17053 0.9102,0.31004 1.64374,0.31004 0.95265,0 1.3337,-0.32663 1.3337,-1.14318 z"
           style="fill:#000000"
           id="path4485" />
      </g>
      <path
         id="path4449-8"
         d="m -107.42828,470.43579 -5.94177,16.16375 -16.16375,5.94313 29.29516,7.18829 -7.18964,-29.29517 z m 56.539659,1.41717 -6.84151,27.878 27.87937,-6.8415 -16.43545,-4.60242 -4.60241,-16.43408 z m -6.84151,70.38651 6.84151,27.87936 4.60241,-16.43408 16.43545,-4.60378 -27.87937,-6.8415 z m -42.509859,10e-4 -27.87527,6.84151 16.43135,4.6024 4.60378,16.43135 6.84014,-27.87526 z"
         style="opacity:1;fill:#000000;fill-opacity:1;stroke:none;stroke-width:0.47777072;stroke-linecap:square;stroke-linejoin:miter;stroke-miterlimit:4;stroke-dasharray:none;stroke-opacity:1"
         inkscape:connector-curvature="0" />
    </g>
    <text
       sodipodi:linespacing="125%"
       id="text4276-1-0"
       y="755.54596"
       x="602.96906"
       style="font-style:normal;font-weight:normal;font-size:40px;line-height:125%;font-family:sans-serif;letter-spacing:0px;word-spacing:0px;fill:#000000;fill-opacity:1;stroke:none;stroke-width:1px;stroke-linecap:butt;stroke-linejoin:miter;stroke-opacity:1"
       xml:space="preserve"><tspan
         style="font-style:normal;font-variant:normal;font-weight:normal;font-stretch:normal;font-size:13.75px;font-family:'Roboto Condensed';-inkscape-font-specification:'Roboto Condensed, ';text-align:center;text-anchor:middle"
         y="755.54596"
         x="602.96906"
         id="tspan4278-2-0"
         sodipodi:role="line">Lord General Militant</tspan></text>
    <text
       xml:space="preserve"
       style="font-style:normal;font-weight:normal;font-size:40px;line-height:125%;font-family:sans-serif;letter-spacing:0px;word-spacing:0px;fill:#000000;fill-opacity:1;stroke:none;stroke-width:1px;stroke-linecap:butt;stroke-linejoin:miter;stroke-opacity:1"
       x="383.13135"
       y="755.54596"
       id="text4623"
       sodipodi:linespacing="125%"><tspan
         sodipodi:role="line"
         id="tspan4625"
         x="383.13135"
         y="755.54596"
         style="font-style:normal;font-variant:normal;font-weight:normal;font-stretch:normal;font-size:13.75px;font-family:'Roboto Condensed';-inkscape-font-specification:'Roboto Condensed, ';text-align:center;text-anchor:middle">Lord Commander</tspan></text>
    <text
       xml:space="preserve"
       style="font-style:normal;font-weight:normal;font-size:40px;line-height:125%;font-family:sans-serif;letter-spacing:0px;word-spacing:0px;fill:#000000;fill-opacity:1;stroke:none;stroke-width:1px;stroke-linecap:butt;stroke-linejoin:miter;stroke-opacity:1"
       x="163.46817"
       y="755.54596"
       id="text4637"
       sodipodi:linespacing="125%"><tspan
         sodipodi:role="line"
         id="tspan4639"
         x="163.46817"
         y="755.54596"
         style="font-style:normal;font-variant:normal;font-weight:normal;font-stretch:normal;font-size:13.75px;font-family:'Roboto Condensed';-inkscape-font-specification:'Roboto Condensed, ';text-align:center;text-anchor:middle">Lord Commander Militant</tspan></text>
    <text
       xml:space="preserve"
       style="font-style:normal;font-weight:normal;font-size:40px;line-height:125%;font-family:sans-serif;letter-spacing:0px;word-spacing:0px;fill:#000000;fill-opacity:1;stroke:none;stroke-width:1px;stroke-linecap:butt;stroke-linejoin:miter;stroke-opacity:1"
       x="823.02826"
       y="755.54596"
       id="text4641"
       sodipodi:linespacing="125%"><tspan
         sodipodi:role="line"
         id="tspan4643"
         x="823.02826"
         y="755.54596"
         style="font-style:normal;font-variant:normal;font-weight:normal;font-stretch:normal;font-size:13.75px;font-family:'Roboto Condensed';-inkscape-font-specification:'Roboto Condensed, ';text-align:center;text-anchor:middle">Lord General</tspan></text>
    <text
       xml:space="preserve"
       style="font-style:normal;font-weight:normal;font-size:40px;line-height:125%;font-family:sans-serif;letter-spacing:0px;word-spacing:0px;fill:#000000;fill-opacity:1;stroke:none;stroke-width:1px;stroke-linecap:butt;stroke-linejoin:miter;stroke-opacity:1"
       x="822.95105"
       y="923.62244"
       id="text5390"
       sodipodi:linespacing="125%"><tspan
         sodipodi:role="line"
         id="tspan5392"
         x="822.95105"
         y="923.62244"
         style="font-style:normal;font-variant:normal;font-weight:normal;font-stretch:normal;font-size:13.75px;font-family:'Roboto Condensed';-inkscape-font-specification:'Roboto Condensed, ';text-align:center;text-anchor:middle">Sanctioned Pysker</tspan></text>
    <g
       transform="translate(408.58533,-254.05347)"
       id="g5504">
      <path
         id="circle4214"
         d="m 414.49999,1075.1259 a 12.530152,12.530152 0 0 0 -12.5293,12.5312 12.530152,12.530152 0 0 0 12.5293,12.5293 12.530152,12.530152 0 0 0 12.5293,-12.5293 12.530152,12.530152 0 0 0 -12.5293,-12.5312 z m -5.5957,4.3379 1.35547,4.1211 4.12109,1.3535 -4.12109,1.3554 -1.35547,4.1211 -1.35547,-4.1211 -4.11914,-1.3554 4.11914,-1.3535 1.35547,-4.1211 z"
         style="opacity:1;fill:#000000;fill-opacity:1;stroke:none;stroke-width:13;stroke-linecap:square;stroke-linejoin:miter;stroke-miterlimit:4;stroke-dasharray:none;stroke-opacity:1"
         inkscape:connector-curvature="0" />
      <path
         sodipodi:nodetypes="ccscscsccscscs"
         style="color:#000000;font-style:normal;font-variant:normal;font-weight:normal;font-stretch:normal;font-size:medium;line-height:normal;font-family:sans-serif;text-indent:0;text-align:start;text-decoration:none;text-decoration-line:none;text-decoration-style:solid;text-decoration-color:#000000;letter-spacing:normal;word-spacing:normal;text-transform:none;direction:ltr;block-progression:tb;writing-mode:lr-tb;baseline-shift:baseline;text-anchor:start;clip-rule:nonzero;display:inline;overflow:visible;visibility:visible;opacity:1;isolation:auto;mix-blend-mode:normal;color-interpolation:sRGB;color-interpolation-filters:linearRGB;solid-color:#000000;solid-opacity:1;fill:#000000;fill-opacity:1;fill-rule:evenodd;stroke:none;stroke-width:10.60326195;stroke-linecap:butt;stroke-linejoin:miter;stroke-miterlimit:4;stroke-dasharray:none;stroke-dashoffset:0;stroke-opacity:1;color-rendering:auto;image-rendering:auto;shape-rendering:auto;text-rendering:auto;enable-background:accumulate"
         d="m 414.49997,1071.2246 c -10.49651,0 -20.66604,5.7137 -30.35388,16.2374 0,0 -0.91739,1.4019 -0.91731,2.1949 7e-5,0.7926 0.91731,2.1938 0.91731,2.1938 9.68784,10.5239 19.85737,16.2376 30.35388,16.2376 10.49654,0 20.66605,-5.7137 30.3539,-16.2376 0,0 0.91725,-1.4012 0.91731,-2.1938 9e-5,-0.793 -0.91731,-2.1949 -0.91731,-2.1949 -9.68785,-10.5237 -19.85736,-16.2375 -30.3539,-16.2374 z m 0,6.4799 c 7.50678,0 15.29059,3.757 23.47292,11.9524 -8.18212,8.1951 -15.96633,11.9514 -23.47292,11.9514 -7.50657,0 -15.29182,-3.7563 -23.47409,-11.9514 8.18248,-8.1954 15.96734,-11.9524 23.47409,-11.9524 z"
         id="path4216"
         inkscape:connector-curvature="0" />
      <path
         sodipodi:nodetypes="cscccccccsc"
         inkscape:connector-curvature="0"
         id="rect5382"
         d="m 407.77147,1102.6317 c 2.26545,0.581 4.50748,0.8692 6.72852,0.8692 2.22104,0 4.46319,-0.2882 6.72852,-0.8692 z m -10.3789,3.961 0,45.707 17.10742,-17.1074 17.10742,17.1074 0,-45.707 c -5.60398,2.894 -11.31192,4.414 -17.10742,4.414 -5.79549,0 -11.50344,-1.52 -17.10742,-4.414 z"
         style="opacity:1;fill:#000000;fill-opacity:1;stroke:none;stroke-width:2;stroke-linecap:square;stroke-linejoin:miter;stroke-miterlimit:4;stroke-dasharray:none;stroke-opacity:1" />
    </g>
    <text
       sodipodi:linespacing="125%"
       id="text4674-1"
       y="400.97531"
       x="495.32901"
       style="font-style:normal;font-weight:normal;font-size:40px;line-height:125%;font-family:sans-serif;letter-spacing:0px;word-spacing:0px;fill:#000000;fill-opacity:1;stroke:none;stroke-width:1px;stroke-linecap:butt;stroke-linejoin:miter;stroke-opacity:1"
       xml:space="preserve"><tspan
         style="font-style:normal;font-variant:normal;font-weight:normal;font-stretch:normal;font-size:13.75px;font-family:'Roboto Condensed';-inkscape-font-specification:'Roboto Condensed, ';text-align:center;text-anchor:middle"
         y="400.97531"
         x="495.32901"
         id="tspan4676-5"
         sodipodi:role="line">Astra Militarum</tspan></text>
    <g
       id="g4439"
       transform="translate(-90.396312,-35.90946)">
      <path
         sodipodi:nodetypes="ccc"
         inkscape:connector-curvature="0"
         d="m 568.70155,693.83477 13.26446,13.26446 -13.26446,13.26446"
         style="fill:none;fill-rule:evenodd;stroke:#000000;stroke-width:1;stroke-linecap:butt;stroke-linejoin:miter;stroke-miterlimit:4;stroke-dasharray:none;stroke-opacity:1"
         id="path4441" />
      <path
         id="path4443"
         style="fill:none;fill-rule:evenodd;stroke:#000000;stroke-width:1;stroke-linecap:butt;stroke-linejoin:miter;stroke-miterlimit:4;stroke-dasharray:none;stroke-opacity:1"
         d="m 587.49792,693.83477 13.26446,13.26446 -13.26446,13.26446"
         inkscape:connector-curvature="0"
         sodipodi:nodetypes="ccc" />
    </g>
    <g
       transform="translate(125.58189,-35.90946)"
       id="g4445">
      <path
         id="path4447"
         style="fill:none;fill-rule:evenodd;stroke:#000000;stroke-width:1;stroke-linecap:butt;stroke-linejoin:miter;stroke-miterlimit:4;stroke-dasharray:none;stroke-opacity:1"
         d="m 568.70155,693.83477 13.26446,13.26446 -13.26446,13.26446"
         inkscape:connector-curvature="0"
         sodipodi:nodetypes="ccc" />
      <path
         sodipodi:nodetypes="ccc"
         inkscape:connector-curvature="0"
         d="m 587.49792,693.83477 13.26446,13.26446 -13.26446,13.26446"
         style="fill:none;fill-rule:evenodd;stroke:#000000;stroke-width:1;stroke-linecap:butt;stroke-linejoin:miter;stroke-miterlimit:4;stroke-dasharray:none;stroke-opacity:1"
         id="path4450" />
    </g>
    <g
       transform="matrix(0.74804995,0,0,0.74804995,389.37436,304.13657)"
       id="g5594">
      <path
         inkscape:connector-curvature="0"
         id="path5493"
         d="m 141.02539,155.66797 c -0.012,0.003 -0.0358,0.043 -0.0469,0.0469 -0.0105,0.005 -0.037,-0.005 -0.0469,0 -0.50179,0.25854 -1.31494,1.05875 -2.75781,2.57032 -1.79602,1.88156 -4.87647,4.81279 -6.84766,7.9707 3.81493,-0.0834 7.66725,1.75857 9.84766,5.53516 2.18855,-3.79067 6.06176,-5.63132 9.89062,-5.53321 -1.95733,-3.15848 -5.01814,-6.0908 -6.81445,-7.97265 -1.41588,-1.48332 -2.25065,-2.30518 -2.75781,-2.57032 -0.0105,-0.005 -0.0364,0.005 -0.0469,0 -0.0332,-0.0117 -0.10413,-0.0411 -0.14062,-0.0469 -0.0495,-0.005 -0.13605,-0.005 -0.18555,0 -0.0244,0.004 -0.0705,-0.006 -0.0937,0 z m -9.45117,12.80078 c -3.78217,0 -7.56848,1.87589 -9.72852,5.61719 l -0.1289,0.2207 0.25781,0 c 5.22197,-1.2e-4 9.45117,4.23115 9.45117,9.45313 l 0,9.1582 c -1.45953,-1.36112 -3.19889,-2.97991 -5.49023,-5.125 -2.92049,-2.73408 -6.21423,-4.04944 -9.50391,-4.06641 -3.7283,-0.0192 -7.44289,1.62655 -10.60937,4.72266 -6.326309,6.18572 -6.216558,15.5066 -1.69532,21.0918 1.49187,1.8429 4.36495,3.71054 7.31055,5.4121 2.9456,1.70158 5.96769,3.23193 7.73047,4.3418 1.71583,1.08033 3.57538,2.30702 4.98828,3.68946 1.38327,1.35341 2.31654,2.84776 2.31445,4.49023 -0.71844,0.0544 -1.37979,0.4138 -1.7832,0.95312 -0.002,0.002 -0.004,0.003 -0.006,0.006 l -0.0215,0.0215 -0.0137,0.0117 -0.01,0.0156 c -0.16962,0.2587 -0.28735,0.58826 -0.34961,0.89258 l 0,0.002 0,0.002 c -0.0249,0.13511 -0.0488,0.29357 -0.0488,0.44531 1e-5,0.67003 0.29998,1.28869 0.7461,1.72461 -4e-5,0.006 1.8e-4,0.0121 0.002,0.0254 0.001,0.007 0.003,0.0171 0.008,0.0312 0.003,0.007 0.0116,0.0252 0.0117,0.0254 1e-4,1.7e-4 0.0207,0.0236 0.0254,0.0293 0.003,0.002 0.0204,0.0183 0.0293,0.0234 0.01,0.005 0.0184,0.009 0.0254,0.0117 0.0139,0.005 0.0239,0.006 0.0312,0.008 0.0107,0.001 0.0139,0 0.0195,0 0.11715,0.0905 0.25427,0.19309 0.39844,0.26563 l 0.002,0 c 0.33127,0.15868 0.72321,0.24805 1.0918,0.24805 0.0234,0 0.0619,0.001 0.0996,0 l 0.002,0 0.002,0 c 0.1098,-0.007 0.24651,-0.0287 0.3457,-0.0488 l 0.002,0 0.002,0 c 0.29589,-0.066 0.59655,-0.19039 0.8418,-0.34766 l 0.002,-0.002 0.002,0 c 0.63279,-0.42761 1.09375,-1.1654 1.09375,-1.99219 2e-5,-6.84838 -4.80642,-11.15012 -8.88281,-14.83203 -2.04025,-1.84282 -4.02657,-3.54524 -5.51758,-5.38281 -1.49102,-1.83756 -2.48678,-3.80328 -2.5664,-6.19727 -0.0578,-1.68881 0.25626,-3.14342 1.17187,-4.04883 2.21875,-2.19405 6.684,-2.72734 10.26953,0.28907 1.49178,1.25498 2.97701,2.45109 4.23633,3.9082 1.47694,1.70892 2.54736,3.32356 3.69336,5.30078 l 0,13.62891 9.77539,-9.77539 9.72266,9.72265 0,-13.45507 c 1.17366,-2.0328 2.26251,-3.67424 3.76953,-5.41797 1.25933,-1.45712 2.74453,-2.65518 4.23633,-3.91016 3.58553,-3.01641 8.05079,-2.48311 10.26953,-0.28906 0.91558,0.90539 1.22766,2.36192 1.16992,4.05078 -0.0796,2.39399 -1.07358,4.35969 -2.56445,6.19726 -1.49087,1.83756 -3.47733,3.53805 -5.51758,5.38086 -4.07639,3.68191 -8.88281,7.98365 -8.88281,14.83203 1e-5,0.82679 0.46098,1.56458 1.09375,1.99219 l 0.002,0.002 0.002,0 c 0.23008,0.14754 0.50752,0.27888 0.79102,0.34765 l 0.002,0 c 0.0863,0.0192 0.20724,0.0393 0.29883,0.0488 l 0.004,0 0.004,0.002 c 0.064,0.003 0.15168,0 0.19532,0 0.54189,0 1.08258,-0.19036 1.49023,-0.49804 l 0.002,-0.002 c 0.0301,-0.0237 0.047,-0.0437 0.0645,-0.0625 0.0175,-0.0188 0.036,-0.0358 0.0351,-0.0351 l 0,-0.002 0.002,-0.002 c 0.0484,-0.044 0.1071,-0.10247 0.14844,-0.14648 l 0.002,-0.004 0.004,-0.002 c -0.007,0.008 3.7e-4,-0.003 0.01,-0.0117 0.009,-0.008 0.0202,-0.0154 0.0371,-0.0352 l 0,-0.002 c 0.34382,-0.42084 0.59375,-1.00841 0.59375,-1.58985 0,-0.14605 -0.023,-0.29786 -0.0469,-0.42968 l 0,-0.002 c 8.9e-4,-0.009 0.007,-0.0259 -0.002,-0.0664 l 0,-0.002 0,-0.002 c -0.0522,-0.21143 -0.15205,-0.46019 -0.2461,-0.63867 l -0.002,-0.002 c -0.02,-0.0396 -0.0384,-0.063 -0.0566,-0.0879 -0.01,-0.0133 -0.0129,-0.0177 -0.0195,-0.0273 4e-5,-0.005 10e-4,-0.01 0,-0.0195 -8.9e-4,-0.007 -0.003,-0.0154 -0.006,-0.0273 -0.002,-0.006 -0.004,-0.0136 -0.008,-0.0215 -0.004,-0.008 -0.0175,-0.0253 -0.0176,-0.0254 l -0.008,-0.01 -0.01,-0.01 c -8e-5,-7e-5 -0.0103,-0.007 -0.0176,-0.0117 l -0.002,-0.004 -0.008,-0.008 c -0.40334,-0.53924 -1.06289,-0.90064 -1.78125,-0.95507 -0.002,-1.64247 0.92924,-3.13487 2.3125,-4.48829 1.41289,-1.38242 3.27442,-2.61107 4.99023,-3.6914 1.76275,-1.10987 4.78487,-2.63828 7.73047,-4.33985 2.9456,-1.70157 5.81668,-3.57116 7.3086,-5.41406 4.52154,-5.58547 4.58581,-14.9043 -1.74024,-21.08984 -3.16635,-3.09597 -6.86985,-4.74189 -10.58594,-4.72266 -3.27891,0.017 -6.56201,1.33247 -9.48242,4.06641 -2.32305,2.1748 -4.09593,3.82762 -5.56445,5.19726 l 0,-9.23047 c 0,-5.22196 4.2292,-9.45324 9.45117,-9.45312 l 0.25586,0 -0.12695,-0.22266 c -4.28079,-7.41456 -14.93132,-7.4711 -19.32813,-0.1914 -2.1783,-3.60661 -5.88623,-5.42383 -9.59961,-5.42383 l -0.002,-0.006 z m -41.187501,41.96484 c -4.024543,0.0431 -8.198312,1.60022 -11.484375,4.96094 -2.913859,2.98009 -4.541537,6.43492 -4.707032,9.92969 -0.165491,3.49477 1.134559,7.02358 4.050782,10.13867 2.16413,2.31167 3.805246,4.07175 5.171875,5.53711 l -9.232422,0 c -5.221973,0 -9.453243,-4.22919 -9.453125,-9.45117 l 0,-0.25586 -0.220703,0.12695 c -7.414558,4.2808 -7.471109,14.93132 -0.191407,19.32813 -7.279707,4.39681 -7.223154,15.04732 0.191407,19.32812 l 0.220703,0.12891 0,-0.25586 c -1.09e-4,-5.22197 4.231149,-9.45313 9.453125,-9.45313 l 9.210937,0 c -1.364247,1.46281 -2.994525,3.21474 -5.15039,5.51758 -2.916347,3.11519 -4.218214,6.65576 -4.052735,10.16211 0.16548,3.50636 1.79499,6.9729 4.708985,9.95313 6.185718,6.3263 15.504643,6.2146 21.089844,1.69336 1.842892,-1.49188 3.712492,-4.363 5.414062,-7.3086 1.70157,-2.9456 3.22997,-5.96769 4.33984,-7.73047 1.08033,-1.71582 2.309,-3.57732 3.69141,-4.99023 1.35342,-1.38326 2.84581,-2.31458 4.48828,-2.3125 0.0544,0.71835 0.41584,1.37789 0.95508,1.78125 0.002,0.002 0.002,0.004 0.004,0.006 0.008,0.009 0.0188,0.0187 0.0195,0.0195 l 0.0137,0.0156 0.0156,0.01 c 0.2587,0.16961 0.59024,0.28734 0.89453,0.34961 l 0.002,0 c 0.1351,0.0249 0.2955,0.0488 0.44726,0.0488 0.67052,-10e-6 1.2887,-0.30149 1.72461,-0.74805 0.006,4e-5 0.0101,10e-4 0.0215,0 0.007,-8.9e-4 0.0159,-0.002 0.0293,-0.006 0.007,-0.002 0.0156,-0.007 0.0254,-0.0117 0.009,-0.005 0.0286,-0.0213 0.0313,-0.0234 l 0,-0.002 c 0.001,-10e-4 0.0198,-0.0216 0.0254,-0.0312 0.006,-0.01 0.01,-0.0183 0.0117,-0.0254 0.005,-0.0144 0.009,-0.0236 0.01,-0.0312 0.001,-0.0102 0,-0.0141 0,-0.0195 0.0905,-0.11718 0.19114,-0.25231 0.26367,-0.39648 l 0,-0.002 0.002,0 c 0.15859,-0.33124 0.24804,-0.72514 0.24804,-1.09375 0,-0.0235 10e-4,-0.062 0,-0.0996 l 0,-0.002 0,-0.002 c -0.007,-0.10929 -0.0286,-0.24624 -0.0488,-0.34571 l -0.002,-0.002 0,-0.002 c -0.066,-0.29613 -0.19049,-0.59672 -0.34766,-0.8418 l 0,-0.002 -0.002,0 c -0.42757,-0.63273 -1.16344,-1.09375 -1.99023,-1.09375 -6.84839,-2e-5 -11.15011,4.80446 -14.83203,8.88086 -1.84281,2.04025 -3.54526,4.02671 -5.38282,5.51757 -1.837555,1.49089 -3.803272,2.48679 -6.197262,2.56641 -1.688818,0.0578 -3.145369,-0.25626 -4.050782,-1.17187 -2.194054,-2.21875 -2.725397,-6.684 0.291016,-10.26954 1.254962,-1.49175 2.451059,-2.97699 3.908203,-4.23632 1.72264,-1.4888 3.348546,-2.56427 5.347656,-3.72071 l 13.558599,0 -9.75,-9.75 9.74609,-9.74414 -13.531251,0 c -2.010437,-1.16305 -3.641169,-2.24709 -5.371094,-3.74218 -1.457162,-1.25936 -2.655208,-2.74456 -3.910156,-4.23633 -3.016407,-3.58552 -2.483108,-8.05079 -0.289063,-10.26953 0.905392,-0.91558 2.359974,-1.22767 4.048828,-1.16993 2.393991,0.0796 4.3597,1.07359 6.197266,2.56446 1.83756,1.49087 3.54,3.47733 5.38281,5.51758 3.68192,4.07641 7.98366,8.88281 14.83203,8.88281 0.8268,-2e-5 1.56462,-0.46103 1.99219,-1.09375 l 0,-0.002 0,-0.002 c 0.14744,-0.22992 0.27884,-0.50926 0.34766,-0.79297 l 0.002,-0.002 c 0.0193,-0.0867 0.0394,-0.2056 0.0488,-0.29687 l 0,-0.006 0,-0.006 c 0.002,-0.0595 0,-0.1459 0,-0.19141 0,-0.5419 -0.18837,-1.08252 -0.49609,-1.49023 l -0.002,-0.002 0,-0.002 c -0.0234,-0.0296 -0.0437,-0.0449 -0.0625,-0.0625 -0.0187,-0.0175 -0.0377,-0.0359 -0.0371,-0.0352 l 0,-0.002 c -0.0443,-0.0489 -0.10512,-0.10753 -0.14843,-0.14844 l -0.002,0 c 8.9e-4,5.9e-4 -0.0184,-0.0249 -0.0508,-0.0527 l -0.002,0 c -0.42072,-0.34373 -1.00833,-0.5957 -1.58985,-0.59571 -0.14671,0 -0.29811,0.023 -0.42968,0.0469 l -0.002,0 c -0.009,-8.9e-4 -0.0257,-0.005 -0.0684,0.004 l -0.002,0 c -0.21117,0.0521 -0.45993,0.14995 -0.63867,0.24414 l -0.002,0.002 c -0.0394,0.02 -0.063,0.0404 -0.0879,0.0586 -0.0133,0.01 -0.0177,0.011 -0.0273,0.0176 -0.005,-2e-5 -0.008,-8.9e-4 -0.0156,0 -0.006,5.9e-4 -0.0144,0.002 -0.0254,0.006 -0.005,10e-4 -0.0122,0.003 -0.0195,0.006 -0.007,0.003 -0.0253,0.0136 -0.0254,0.0137 l -0.01,0.008 -0.01,0.008 c -1.4e-4,1.2e-4 -0.0206,0.0277 -0.0234,0.0312 -0.002,0.001 -0.009,0.002 -0.01,0.002 l 0,0.002 c -0.5393,0.40339 -0.89874,1.0628 -0.95313,1.78125 -1.64248,0.002 -3.13668,-0.92923 -4.49023,-2.3125 -1.38256,-1.4129 -2.61108,-3.27441 -3.69141,-4.99023 -1.10986,-1.76274 -2.63841,-4.78486 -4.33984,-7.73047 -1.70143,-2.9456 -3.56921,-5.81668 -5.412109,-7.30859 -2.618188,-2.11949 -6.056349,-3.25878 -9.607422,-3.22071 z m 101.630861,0.002 c -3.55107,-0.0381 -6.98924,1.10123 -9.60742,3.2207 -1.84289,1.49191 -3.71053,4.36495 -5.41211,7.31055 -1.70157,2.9456 -3.23193,5.96576 -4.3418,7.72851 -1.08033,1.71582 -2.30703,3.57733 -3.68945,4.99024 -1.35341,1.38327 -2.84581,2.31458 -4.48828,2.3125 -0.0544,-0.71846 -0.41577,-1.37786 -0.95508,-1.78125 l -0.002,0 -0.002,-0.002 c -2e-5,-1e-5 -0.004,-0.004 -0.006,-0.004 -0.005,-0.006 -0.0253,-0.0292 -0.0254,-0.0293 l -0.008,-0.008 -0.0117,-0.008 c -1.9e-4,-1.2e-4 -0.0181,-0.0106 -0.0254,-0.0137 -0.007,-0.003 -0.0121,-0.005 -0.0176,-0.006 -0.0109,-0.003 -0.019,-0.003 -0.0254,-0.004 -0.008,-8.8e-4 -0.0128,-0.002 -0.0176,-0.002 -0.01,-0.007 -0.0121,-0.008 -0.0254,-0.0176 -0.0249,-0.0182 -0.0503,-0.0386 -0.0898,-0.0586 -0.17885,-0.0944 -0.42687,-0.19386 -0.63867,-0.24609 l -0.002,0 c -0.0415,-0.01 -0.0595,-0.003 -0.0684,-0.002 l -0.002,0 c -0.13145,-0.0238 -0.28318,-0.0488 -0.42969,-0.0488 -0.58153,0 -1.16907,0.25193 -1.58984,0.5957 l -0.002,0 0,0.002 c -0.0324,0.0277 -0.0534,0.0515 -0.0527,0.0508 -0.0439,0.0414 -0.10456,0.10006 -0.14844,0.14843 l -0.002,0.002 c 8.9e-4,-10e-4 -0.0164,0.0179 -0.0352,0.0352 -0.0187,0.0174 -0.0387,0.0325 -0.0625,0.0625 l -0.002,0.002 0,0.002 c -0.30777,0.40779 -0.49609,0.9504 -0.49609,1.49219 0,0.0455 -0.002,0.12991 0,0.18945 l 0,0.008 0,0.004 c 0.009,0.0913 0.0295,0.21217 0.0488,0.29883 l 0,0.002 c 0.0688,0.2835 0.2001,0.56096 0.34765,0.79101 l 0,0.002 0.002,0.002 c 0.42759,0.63278 1.16539,1.09374 1.99218,1.09375 6.84838,0 11.15013,-4.80445 14.83203,-8.88086 1.84281,-2.04024 3.5433,-4.02866 5.38086,-5.51953 1.83756,-1.49087 3.80328,-2.48482 6.19727,-2.56445 1.68886,-0.0577 3.14539,0.25434 4.05078,1.16992 2.19406,2.21875 2.72734,6.68401 -0.28906,10.26953 -1.25495,1.49175 -2.45299,2.97697 -3.91016,4.23633 -1.72994,1.4951 -3.36059,2.57912 -5.37109,3.74219 l -13.53125,0 9.74414,9.74218 -9.75391,9.75391 13.56446,0 c 1.99917,1.15647 3.625,2.23189 5.34765,3.7207 1.45715,1.25933 2.6552,2.74262 3.91016,4.23438 3.0164,3.58553 2.48117,8.05076 0.28711,10.26953 -0.90541,0.9156 -2.36,1.22963 -4.04883,1.17187 -2.39398,-0.0796 -4.35971,-1.07357 -6.19727,-2.56445 -1.83757,-1.49087 -3.53999,-3.47929 -5.38281,-5.51953 -3.68189,-4.07639 -7.9817,-8.88088 -14.83008,-8.88086 -0.8268,0 -1.56458,0.46096 -1.99218,1.09375 l -0.002,0 0,0.002 c -0.15726,0.24524 -0.2817,0.54586 -0.34765,0.8418 l 0,0.002 0,0.002 c -0.0201,0.0995 -0.044,0.23836 -0.0508,0.34765 l 0,0.002 c -0.001,0.0377 0,0.0761 0,0.0996 0,0.36861 0.0894,0.76251 0.24804,1.09375 l 0.002,0 0,0.002 c 0.0725,0.14417 0.17313,0.2793 0.26367,0.39648 -4e-5,0.005 4.6e-4,0.009 0.002,0.0195 8.8e-4,0.008 0.002,0.0168 0.008,0.0312 0.003,0.007 0.006,0.0155 0.0117,0.0254 0.005,0.009 0.0212,0.0288 0.0234,0.0313 l 0.002,0.002 c 0.004,0.003 0.033,0.0253 0.0332,0.0254 2.1e-4,1e-4 0.0166,0.007 0.0234,0.01 0.0135,0.005 0.0224,0.007 0.0293,0.008 0.0112,10e-4 0.016,0 0.0215,0 0.4359,0.44643 1.05421,0.74607 1.72461,0.74609 0.15176,0 0.31225,-0.0239 0.44727,-0.0488 l 0.002,0 c 0.30433,-0.0623 0.63388,-0.17803 0.89258,-0.34765 l 0.0176,-0.0117 0.0137,-0.0137 c 5.9e-4,-8.9e-4 0.011,-0.0128 0.0195,-0.0215 0.002,-0.002 0.002,-0.004 0.004,-0.006 0,-0.001 0.007,-0.005 0.006,-0.004 0.53617,-0.40372 0.89497,-1.06146 0.94922,-1.77735 1.64247,-0.002 3.13487,0.93119 4.48828,2.31446 1.38242,1.41291 2.60912,3.27245 3.68945,4.98828 1.10987,1.76278 2.64023,4.78486 4.3418,7.73046 1.70158,2.94561 3.56921,5.81672 5.41211,7.3086 5.5852,4.52124 14.90607,4.63294 21.09179,-1.69336 2.914,-2.98023 4.54156,-6.44678 4.70703,-9.95313 0.16548,-3.50636 -1.13443,-7.0469 -4.05078,-10.16211 -2.15587,-2.30284 -3.78809,-4.05282 -5.15234,-5.51562 l 9.1582,0 c 5.22189,1.2e-4 9.45324,4.22928 9.45313,9.45117 l 0,0.25586 0.2207,-0.12695 c 7.41457,-4.28079 7.47111,-14.93132 0.19141,-19.32813 7.2797,-4.39681 7.22315,-15.04928 -0.19141,-19.33007 l -0.2207,-0.12696 0,0.25586 c 1.2e-4,5.2219 -4.23124,9.45301 -9.45313,9.45313 l -9.17773,0 c 1.36664,-1.46537 3.00765,-3.22731 5.17187,-5.53907 2.91622,-3.11502 4.21642,-6.64388 4.05078,-10.13867 -0.16563,-3.49478 -1.79512,-6.94961 -4.70898,-9.92969 -3.28607,-3.36072 -7.45788,-4.91779 -11.48242,-4.96093 z M 125,231.56641 c 0.0123,0.0118 0.0168,0.0316 0.0293,0.043 -0.009,-0.0114 -0.0294,-0.0392 -0.0293,-0.0391 2e-5,2e-5 1.1e-4,-0.003 0,-0.004 z m 100.66406,9.30078 c 0.0946,3.82554 -1.74589,7.69425 -5.5332,9.88086 3.79179,2.18918 5.63249,6.06264 5.5332,9.89257 3.16887,-1.97039 6.11274,-5.06376 8,-6.86523 1.51158,-1.44288 2.31176,-2.25601 2.57032,-2.75781 0.005,-0.01 -0.005,-0.0363 0,-0.0469 0.004,-0.0111 0.0439,-0.0354 0.0469,-0.0469 0.006,-0.0231 -0.005,-0.0695 0,-0.0937 0.006,-0.0495 0.005,-0.13611 0,-0.18555 -0.006,-0.0365 -0.035,-0.10734 -0.0469,-0.14062 -0.004,-0.0106 0.005,-0.0369 0,-0.0469 -0.26516,-0.50716 -1.08699,-1.34193 -2.57032,-2.75781 -1.88725,-1.80146 -4.83117,-4.87546 -8,-6.83203 z m -168.982419,0.0352 c -3.147585,1.95805 -6.067184,5.00599 -7.94336,6.79688 -1.483313,1.41588 -2.305161,2.25065 -2.570312,2.75781 -0.0045,0.01 0.0045,0.0363 0,0.0469 -0.01196,0.0333 -0.0412,0.10413 -0.04687,0.14062 -0.0045,0.0494 -0.006,0.13606 0,0.18555 0.0045,0.0243 -0.006,0.0707 0,0.0937 0.003,0.0115 0.04299,0.0358 0.04687,0.0469 0.0045,0.0106 -0.0045,0.0369 0,0.0469 0.258541,0.5018 1.058732,1.31493 2.570312,2.75781 1.876357,1.79106 4.79738,4.85823 7.945313,6.83008 -0.08721,-3.81858 1.752926,-7.67488 5.533203,-9.85742 -3.775796,-2.17996 -5.617687,-6.03157 -5.535156,-9.84571 z m 69.949219,28.37891 c -0.36858,0 -0.76248,0.0893 -1.09375,0.24805 l -0.002,0 c -0.14417,0.0725 -0.27933,0.1751 -0.39649,0.26562 -0.006,-4e-5 -0.0108,-10e-4 -0.0215,0 -0.007,8.9e-4 -0.0173,0.003 -0.0312,0.008 -0.007,0.002 -0.0138,0.006 -0.0234,0.0117 -0.008,0.005 -0.0248,0.0177 -0.0293,0.0215 -0.003,0.004 -0.0253,0.031 -0.0254,0.0312 -1.2e-4,2e-4 -0.009,0.0183 -0.0117,0.0254 -0.005,0.0142 -0.007,0.0238 -0.008,0.0312 -0.002,0.0132 -0.002,0.0193 -0.002,0.0254 -0.44615,0.436 -0.74608,1.05457 -0.7461,1.72461 0,0.15172 0.0239,0.31016 0.0488,0.44531 l 0,0.002 0,0.002 c 0.0623,0.30432 0.18,0.63389 0.34961,0.89257 l 0.01,0.0156 0.0137,0.0117 0.0195,0.0215 c 0.003,0.003 0.008,0.007 0.01,0.01 0.40363,0.53745 1.06232,0.89493 1.77929,0.94922 0.002,1.64247 -0.92923,3.13681 -2.3125,4.49023 -1.4129,1.38241 -3.27441,2.60913 -4.99023,3.68945 -1.76279,1.10988 -4.78487,2.64022 -7.73047,4.3418 -2.9456,1.70157 -5.81671,3.56922 -7.30859,5.41211 -4.521248,5.5852 -4.632945,14.90609 1.69336,21.0918 2.98023,2.914 6.44691,4.54155 9.95312,4.70703 3.50621,0.16548 7.04692,-1.13443 10.16211,-4.05078 2.29133,-2.14509 4.03071,-3.76388 5.49023,-5.125 l 0,9.1582 c -1.2e-4,5.2219 -4.23123,9.45129 -9.45312,9.45117 l -0.25586,0 0.12891,0.22266 c 4.28079,7.41456 14.93131,7.47111 19.32812,0.19141 4.39681,7.2797 15.04733,7.22315 19.32813,-0.19141 l 0.12695,-0.22266 -0.25586,0 c -5.2218,5.9e-4 -9.45105,-4.22928 -9.45117,-9.45117 l 0,-9.23047 c 1.46862,1.36969 3.24127,3.02237 5.56445,5.19727 3.11502,2.91623 6.64402,4.21822 10.13867,4.05273 3.49464,-0.16549 6.94959,-1.79512 9.92969,-4.70898 6.32604,-6.18553 6.26178,-15.50438 1.74024,-21.08985 -1.49191,-1.8429 -4.363,-3.71248 -7.3086,-5.41406 -2.9456,-1.70157 -5.96772,-3.22997 -7.73047,-4.33984 -1.71581,-1.08033 -3.57731,-2.30899 -4.99023,-3.69141 -1.38327,-1.35341 -2.31461,-2.84581 -2.3125,-4.48828 0.71836,-0.0544 1.37792,-0.41584 1.78125,-0.95508 l 0.008,-0.01 0,-0.002 c 0.008,-0.006 0.0194,-0.0117 0.0195,-0.0117 l 0.01,-0.01 0.008,-0.0117 c 1.4e-4,-1.9e-4 0.0138,-0.0176 0.0176,-0.0254 0.004,-0.008 0.006,-0.0135 0.008,-0.0195 0.004,-0.012 0.005,-0.0222 0.006,-0.0293 0.001,-0.01 0,-0.014 0,-0.0195 0.007,-0.01 0.01,-0.014 0.0195,-0.0273 0.0182,-0.0249 0.0366,-0.0483 0.0566,-0.0879 0.0944,-0.17883 0.19384,-0.4269 0.2461,-0.63868 l 0,-0.002 0.002,-0.004 c 0.009,-0.0403 0.003,-0.0579 0.002,-0.0664 0.0237,-0.13162 0.0469,-0.28549 0.0469,-0.43164 0,-0.58142 -0.24993,-1.16704 -0.59375,-1.58789 l 0,-0.002 -0.002,-0.002 c -0.0167,-0.0197 -0.026,-0.0267 -0.0352,-0.0351 -0.009,-0.008 -0.0167,-0.0179 -0.01,-0.01 l -0.004,-0.004 -0.004,-0.002 c -0.0409,-0.0435 -0.0995,-0.1039 -0.14844,-0.14844 l 0,-0.002 -0.002,-0.002 c 3e-4,3e-4 -0.0177,-0.0166 -0.0352,-0.0352 -0.0175,-0.0187 -0.0331,-0.0374 -0.0625,-0.0605 l -0.002,-0.002 c -0.40766,-0.30768 -0.95028,-0.49805 -1.49219,-0.49805 -0.0436,0 -0.12936,-0.003 -0.19336,0 l -0.004,0 -0.004,0 c -0.0916,0.009 -0.21252,0.0316 -0.29883,0.0508 l -0.002,0 c -0.2835,0.0688 -0.5629,0.20013 -0.79297,0.34766 l -0.002,0 0,0.002 c -0.63278,0.4276 -1.09373,1.16344 -1.09375,1.99024 0,6.84837 4.80447,11.15013 8.88086,14.83203 2.04026,1.84281 4.02866,3.54525 5.51953,5.38281 1.49087,1.83756 2.48482,3.80328 2.56445,6.19727 0.0577,1.68882 -0.25627,3.14341 -1.17187,4.04883 -2.21875,2.19405 -6.68205,2.72735 -10.26758,-0.28907 -1.49179,-1.25497 -2.97699,-2.45107 -4.23633,-3.9082 -1.50701,-1.74373 -2.59588,-3.38713 -3.76953,-5.41992 l 0,-13.46485 -9.72266,9.72266 -9.77539,-9.77539 0,13.63477 c -1.146,1.97723 -2.21641,3.59186 -3.69336,5.30078 -1.25932,1.45713 -2.74259,2.65322 -4.23437,3.9082 -3.58553,3.0164 -8.05273,2.4831 -10.27149,0.28906 -0.9156,-0.90542 -1.22767,-2.36001 -1.16992,-4.04883 0.0796,-2.39398 1.07343,-4.3597 2.56445,-6.19726 1.49102,-1.83757 3.4793,-3.54 5.51953,-5.38281 4.07641,-3.6819 8.88087,-7.98365 8.88086,-14.83203 0,-0.8268 -0.46096,-1.56459 -1.09375,-1.99219 l -0.002,-0.002 c -0.24525,-0.15727 -0.54591,-0.2797 -0.8418,-0.3457 l -0.002,0 -0.002,-0.002 c -0.0992,-0.0202 -0.23786,-0.042 -0.34766,-0.0488 l -0.002,0 c -0.0377,-0.001 -0.0761,0 -0.0996,0 z m -1.5957,0.59766 c -0.0147,0.0133 -0.0208,0.0351 -0.0352,0.0488 2.3e-4,-6e-4 0,-0.004 0,-0.004 -7e-5,1.6e-4 0.0348,-0.0443 0.0352,-0.0449 z m 16.13867,59.82617 c -2.18051,3.77676 -6.03257,5.61673 -9.84766,5.5332 1.97117,3.15826 5.05147,6.09093 6.84766,7.97266 1.44287,1.51158 2.25602,2.31177 2.75781,2.57031 0.01,0.004 0.0364,-0.005 0.0469,0 0.0111,0.004 0.035,0.0439 0.0469,0.0469 0.0232,0.006 0.0695,-0.005 0.0937,0 0.0495,0.006 0.13604,0.004 0.18555,0 0.0365,-0.006 0.10742,-0.035 0.14062,-0.0469 0.0105,-0.005 0.0365,0.004 0.0469,0 0.50717,-0.26515 1.34193,-1.08698 2.75781,-2.57031 1.79642,-1.88196 4.85714,-4.81395 6.81445,-7.97266 -3.82916,0.0985 -7.70189,-1.74221 -9.89062,-5.5332 z"
         style="fill:#000000;fill-opacity:1;fill-rule:evenodd;stroke:none;stroke-width:6.02803278;stroke-opacity:1" />
      <path
         inkscape:connector-curvature="0"
         id="rect5499"
         d="m 141.20117,221.74609 -29.00195,29.00196 29.00195,29.00195 29.00195,-29.00195 -29.00195,-29.00196 z m -0.4082,11.09375 c 2.31096,-0.0628 3.93454,0.12321 5.37109,0.68555 5.05914,1.7488 7.99489,4.80951 8.80664,8.99414 0.62446,2.99804 0.49951,8.86874 -0.25,11.11719 -0.56171,1.74879 -0.625,1.81184 -0.625,0.8125 -0.0623,-0.62456 -0.31275,-1.81112 -0.6875,-2.56055 -0.49969,-1.12421 -0.56047,-1.62372 -0.31054,-2.56055 0.43721,-1.56154 0.12458,-1.68653 -0.5,-0.1875 -0.49967,1.12423 -0.4371,1.24903 0.1875,2.74805 0.31228,0.81195 0.62304,1.93408 0.62304,2.4961 0,1.68643 0.37566,2.9376 1,3.125 0.93686,0.24991 0.75091,1.499 -0.43554,3.06054 -1.18673,1.62375 -2.18852,2.18555 -3.6875,2.18555 -0.87441,0 -1.06083,0.12486 -1.49805,1.56055 -0.2498,0.81194 -0.49806,1.87535 -0.56055,2.3125 -0.0625,0.31229 -0.18755,0.56261 -0.4375,0.75 -0.0625,0.0628 -0.0644,0.18552 -0.0644,0.24804 -2e-5,0.31244 -0.25027,0.4375 -0.625,0.4375 -0.37486,0 -0.5,-0.12538 -0.5,-0.4375 0,-0.62454 -0.62324,-0.49956 -0.74805,0.1875 -0.0626,0.43717 -0.31275,0.625 -0.6875,0.625 -0.43719,0.0628 -0.62514,-0.12596 -0.8125,-0.625 -0.24983,-0.74958 -0.81054,-0.68727 -0.81054,0.125 0,0.43715 -0.12518,0.56249 -0.5,0.625 -1.24903,0.0628 -1.31055,0.18917 -1.31055,-0.37304 -0.12488,-0.62438 -0.5002,-1.00175 -0.8125,-0.68946 -0.12471,0.12567 -0.1875,0.43756 -0.1875,0.75 -0.12487,0.49952 -0.12588,0.43753 -1.375,0.375 -0.24987,-0.0628 -0.4375,-0.31269 -0.4375,-0.6875 0,-0.81195 -0.5626,-0.87426 -0.8125,-0.125 -0.1874,0.49951 -0.37332,0.62502 -0.81055,0.5625 -0.37475,0 -0.62521,-0.12501 -0.75,-0.5625 -0.0625,-0.68706 -0.6875,-0.81204 -0.6875,-0.1875 0,0.31244 -0.18571,0.4375 -0.49804,0.4375 -0.37463,0 -0.62501,-0.12313 -0.625,-0.37304 0,-0.0628 -0.0625,-0.18779 -0.0625,-0.3125 -0.37475,-0.24993 -0.62494,-0.68769 -0.375,-1.0625 0.31228,-0.49966 -1.06286,-3.37335 -1.625,-3.49805 -2.31091,-0.3748 -2.99668,-0.75087 -3.8711,-2.0625 -1.43658,-2.12357 -1.49939,-2.37177 -0.625,-3.30859 0.68715,-0.74943 0.8125,-1.18666 0.8125,-2.81055 0,-1.24927 0.24833,-2.49875 0.68555,-3.37305 0.49986,-1.18675 0.56227,-1.62369 0.25,-2.62305 -0.43732,-1.68641 -0.93532,-1.93654 -0.56055,-0.375 0.18737,0.99921 0.12462,1.68654 -0.375,3.12305 -0.37474,0.99933 -0.62488,2.31103 -0.6875,2.87305 0,0.81196 -0.12544,0.68637 -0.625,-0.875 -0.68717,-2.24862 -0.81226,-3.49735 -0.4375,-8.11914 0.3123,-4.74698 1.18737,-6.74566 3.93555,-9.11914 2.68562,-2.31097 5.99656,-3.12121 9.61914,-3.3086 z m -8.06055,18.57813 c -0.23128,0 -0.44935,0.0329 -0.62109,0.0957 -0.43719,0.12408 -0.875,0.6875 -0.875,0.6875 -0.68721,0.8121 -0.81239,1.24872 -0.625,2.18555 0.12487,0.99935 0.37391,1.31096 1.74805,2.06055 1.37398,0.74959 1.87402,0.87684 3.37304,0.68945 1.499,-0.12569 1.93606,-0.37734 2.68555,-1.18945 0.93688,-1.12424 1.00166,-1.43615 0.56445,-2.56055 -0.18739,-0.62455 -0.6256,-0.74827 -1.5,-1.06055 -0.687,-0.1874 -2.12379,-0.43773 -3.24804,-0.75 0,0 -0.80813,-0.17625 -1.50196,-0.1582 z m 17.11719,0.1582 c -0.43722,0 -1.25099,2.3e-4 -2.75,0.3125 -1.74885,0.31228 -3.05896,0.62342 -3.30859,0.99805 -0.87442,1.43667 0.62233,3.99618 2.49609,4.18359 0.62459,0.0628 1.43757,0.1875 1.6875,0.1875 0.3123,0 1.18612,-0.18547 1.99805,-0.43554 1.31163,-0.43717 1.50011,-0.68621 1.6875,-1.62305 0.24984,-1.12439 0.001,-1.81141 -0.99805,-3.18555 -0.18739,-0.31244 -0.56255,-0.4375 -0.8125,-0.4375 z m -8.61914,4.99414 0,0.002 c -0.74952,0.1257 -1.18793,0.50064 -1.8125,1.5625 -0.81206,1.31162 -0.9353,2.24906 -0.56055,3.62304 0.18737,0.87431 1.31092,0.93386 1.87305,0.1211 0.37475,-0.49967 0.43596,-0.49967 1.06055,0 1.87375,1.74878 2.74885,-0.87322 1.1875,-3.8711 -0.4997,-1.06188 -0.75029,-1.37496 -1.1875,-1.4375 l -0.56055,0 z"
         style="opacity:1;fill:#000000;fill-opacity:1;stroke:none;stroke-width:1.5;stroke-linecap:square;stroke-linejoin:bevel;stroke-miterlimit:4;stroke-dasharray:none;stroke-opacity:1" />
    </g>
    <text
       sodipodi:linespacing="125%"
       id="text4282"
       y="585.62238"
       x="494.91269"
       style="font-style:normal;font-weight:normal;font-size:40px;line-height:125%;font-family:sans-serif;letter-spacing:0px;word-spacing:0px;fill:#000000;fill-opacity:1;stroke:none;stroke-width:1px;stroke-linecap:butt;stroke-linejoin:miter;stroke-opacity:1"
       xml:space="preserve"><tspan
         style="font-style:normal;font-variant:normal;font-weight:normal;font-stretch:normal;font-size:13.75px;font-family:'Roboto Condensed';-inkscape-font-specification:'Roboto Condensed, ';text-align:center;text-anchor:middle"
         y="585.62238"
         x="494.91269"
         id="tspan4284"
         sodipodi:role="line">Warmaster</tspan></text>
    <g
       transform="translate(125.58189,130.09054)"
       id="g4299">
      <path
         id="path4301"
         style="fill:none;fill-rule:evenodd;stroke:#000000;stroke-width:1;stroke-linecap:butt;stroke-linejoin:miter;stroke-miterlimit:4;stroke-dasharray:none;stroke-opacity:1"
         d="m 568.70155,693.83477 13.26446,13.26446 -13.26446,13.26446"
         inkscape:connector-curvature="0"
         sodipodi:nodetypes="ccc" />
      <path
         sodipodi:nodetypes="ccc"
         inkscape:connector-curvature="0"
         d="m 587.49792,693.83477 13.26446,13.26446 -13.26446,13.26446"
         style="fill:none;fill-rule:evenodd;stroke:#000000;stroke-width:1;stroke-linecap:butt;stroke-linejoin:miter;stroke-miterlimit:4;stroke-dasharray:none;stroke-opacity:1"
         id="path4303" />
    </g>
    <a
       xlink:href="Ranks of the Imperial Guard.svg"
       transform="translate(195.90063,322.19559)"
       id="a4208">
      <g
         style="fill:#ffffff"
         transform="translate(-565.46942,-205.70991)"
         id="g4961">
        <circle
           style="opacity:1;fill:#ffffff;fill-opacity:1;stroke:#000000;stroke-width:1;stroke-linecap:square;stroke-linejoin:miter;stroke-miterlimit:4;stroke-dasharray:none;stroke-opacity:1"
           id="circle4963"
           cx="753.15332"
           cy="856.60156"
           r="11.727594" />
        <path
           inkscape:connector-curvature="0"
           style="opacity:1;fill:#ffffff;fill-opacity:1;stroke:#000000;stroke-width:1;stroke-linecap:square;stroke-linejoin:miter;stroke-miterlimit:4;stroke-dasharray:none;stroke-opacity:1"
           d="m 765.15234,557.51172 a 11.727594,11.727594 0 0 0 -6,1.66601 11.727594,11.727594 0 0 1 5.72852,10.0625 11.727594,11.727594 0 0 1 -5.72656,10.06055 11.727594,11.727594 0 0 0 5.99804,1.66602 11.727594,11.727594 0 0 0 11.72852,-11.72657 11.727594,11.727594 0 0 0 -11.72852,-11.72851 z"
           transform="translate(-1.2941176e-5,287.36219)"
           id="path4965" />
        <path
           inkscape:connector-curvature="0"
           style="opacity:1;fill:#ffffff;fill-opacity:1;stroke:#000000;stroke-width:1;stroke-linecap:square;stroke-linejoin:miter;stroke-miterlimit:4;stroke-dasharray:none;stroke-opacity:1"
           d="m 741.15234,557.51172 a 11.727594,11.727594 0 0 0 -11.72656,11.72851 11.727594,11.727594 0 0 0 11.72656,11.72657 11.727594,11.727594 0 0 0 6.00196,-1.66602 11.727594,11.727594 0 0 1 -5.72852,-10.06055 11.727594,11.727594 0 0 1 5.72656,-10.0625 11.727594,11.727594 0 0 0 -6,-1.66601 z"
           transform="translate(-1.2941176e-5,287.36219)"
           id="path4967" />
        <g
           style="fill:#ffffff"
           id="g4969"
           transform="translate(1.0404503,24.809953)">
          <path
             inkscape:connector-curvature="0"
             id="path4971"
             d="m 752.11287,827.79961 0,7.984"
             style="fill:#ffffff;fill-rule:evenodd;stroke:#000000;stroke-width:1px;stroke-linecap:butt;stroke-linejoin:miter;stroke-opacity:1" />
          <path
             style="fill:#ffffff;fill-rule:evenodd;stroke:#000000;stroke-width:1px;stroke-linecap:butt;stroke-linejoin:miter;stroke-opacity:1"
             d="m 756.10487,831.79161 -7.984,0"
             id="path4973"
             inkscape:connector-curvature="0" />
        </g>
      </g>
    </a>
    <path
       style="fill:none;fill-rule:evenodd;stroke:#000000;stroke-width:1px;stroke-linecap:butt;stroke-linejoin:miter;stroke-opacity:1"
       d="m 383.58451,933.84787 0,21.00002"
       id="path4975"
       inkscape:connector-curvature="0" />
    <text
       sodipodi:linespacing="125%"
       id="text4305"
       y="923.76343"
       x="383.52744"
       style="font-style:normal;font-weight:normal;font-size:40px;line-height:125%;font-family:sans-serif;letter-spacing:0px;word-spacing:0px;fill:#000000;fill-opacity:1;stroke:none;stroke-width:1px;stroke-linecap:butt;stroke-linejoin:miter;stroke-opacity:1"
       xml:space="preserve"><tspan
         style="font-style:normal;font-variant:normal;font-weight:normal;font-stretch:normal;font-size:13.75px;font-family:'Roboto Condensed';-inkscape-font-specification:'Roboto Condensed, ';text-align:center;text-anchor:middle"
         y="923.76343"
         x="383.52744"
         id="tspan4307"
         sodipodi:role="line">Ranks of the Imperial Guard</tspan></text>
    <g
       id="g4243">
      <path
         id="rect4811"
         transform="translate(0,287.36219)"
         d="M 573.57422 556.02344 L 573.57422 575.56641 L 577.53125 579.52344 L 577.53125 559.60156 C 576.20513 558.49082 574.88665 557.29807 573.57422 556.02344 z M 633.0957 556.02344 C 631.78375 557.29755 630.46434 558.48925 629.13867 559.59961 L 629.13867 579.52344 L 633.0957 575.56641 L 633.0957 556.02344 z M 580.11523 561.65234 L 580.11523 582.10742 L 584.07227 586.06445 L 584.07227 564.36523 C 582.747 563.54268 581.4281 562.63884 580.11523 561.65234 z M 626.55469 561.65234 C 625.24199 562.63864 623.92275 563.54282 622.59766 564.36523 L 622.59766 586.06445 L 626.55469 582.10742 L 626.55469 561.65234 z M 586.65625 565.85938 L 586.65625 588.64844 L 590.61328 592.60547 L 590.61328 567.72656 C 589.28844 567.1867 587.96987 566.56359 586.65625 565.85938 z M 620.01367 565.85938 C 618.70051 566.56329 617.38101 567.18685 616.05664 567.72656 L 616.05664 592.60352 L 620.01367 588.64648 L 620.01367 565.85938 z "
         style="opacity:1;fill:#000000;fill-opacity:1;stroke:none;stroke-width:5;stroke-linecap:square;stroke-linejoin:miter;stroke-miterlimit:4;stroke-dasharray:none;stroke-opacity:1" />
      <path
         id="path4825"
         transform="translate(0,287.36219)"
         d="M 593.58008 568.79492 L 593.58008 600.09766 L 603.33398 609.94531 L 613.08984 600.09766 L 613.08984 568.79492 C 609.86713 569.7998 606.61511 570.33008 603.33398 570.33008 C 600.05347 570.33008 596.80201 569.79944 593.58008 568.79492 z "
         style="opacity:1;fill:#000000;fill-opacity:1;stroke:none;stroke-width:2;stroke-linecap:square;stroke-linejoin:miter;stroke-miterlimit:4;stroke-dasharray:none;stroke-opacity:1" />
      <path
         sodipodi:nodetypes="ccscscsccscscs"
         style="color:#000000;font-style:normal;font-variant:normal;font-weight:normal;font-stretch:normal;font-size:medium;line-height:normal;font-family:sans-serif;text-indent:0;text-align:start;text-decoration:none;text-decoration-line:none;text-decoration-style:solid;text-decoration-color:#000000;letter-spacing:normal;word-spacing:normal;text-transform:none;direction:ltr;block-progression:tb;writing-mode:lr-tb;baseline-shift:baseline;text-anchor:start;clip-rule:nonzero;display:inline;overflow:visible;visibility:visible;opacity:1;isolation:auto;mix-blend-mode:normal;color-interpolation:sRGB;color-interpolation-filters:linearRGB;solid-color:#000000;solid-opacity:1;fill:#000000;fill-opacity:1;fill-rule:evenodd;stroke:none;stroke-width:10.60326195;stroke-linecap:butt;stroke-linejoin:miter;stroke-miterlimit:4;stroke-dasharray:none;stroke-dashoffset:0;stroke-opacity:1;color-rendering:auto;image-rendering:auto;shape-rendering:auto;text-rendering:auto;enable-background:accumulate"
         d="m 603.33495,817.84082 c -10.49651,0 -20.66604,5.7137 -30.35388,16.2374 0,0 -0.91739,1.4019 -0.91731,2.1949 6e-5,0.7926 0.91731,2.1938 0.91731,2.1938 9.68784,10.5239 19.85737,16.2376 30.35388,16.2376 10.49654,0 20.66605,-5.7137 30.3539,-16.2376 0,0 0.91725,-1.4012 0.91731,-2.1938 9e-5,-0.793 -0.91731,-2.1949 -0.91731,-2.1949 -9.68785,-10.5237 -19.85736,-16.2375 -30.3539,-16.2374 z m 0,6.4799 c 7.50678,0 15.29059,3.757 23.47291,11.9524 -8.18212,8.1951 -15.96632,11.9514 -23.47291,11.9514 -7.50657,0 -15.29182,-3.7563 -23.47409,-11.9514 8.18248,-8.1954 15.96734,-11.9524 23.47409,-11.9524 z"
         id="path4829"
         inkscape:connector-curvature="0" />
      <path
         id="path4831"
         transform="translate(0,287.36219)"
         d="M 603.39258 534.65625 C 601.63172 534.64842 602.02123 535.62799 600.31836 536.07617 C 598.61545 536.52436 598.47223 535.47986 596.94336 536.35352 C 595.4145 537.22717 596.24285 537.87956 594.99219 539.11914 C 593.74154 540.35874 593.09425 539.52582 592.20703 541.04688 C 591.31984 542.56791 592.3637 542.72109 591.90039 544.41992 C 591.43708 546.11877 590.46113 545.71962 590.45312 547.48047 C 590.44529 549.24134 591.42486 548.85181 591.87305 550.55469 C 592.32124 552.25759 591.27673 552.40082 592.15039 553.92969 C 593.02404 555.45856 593.67839 554.6302 594.91797 555.88086 C 596.15757 557.13151 595.32271 557.77881 596.84375 558.66602 C 598.3648 559.55322 598.51796 558.50934 600.2168 558.97266 C 601.91564 559.43596 601.51648 560.41192 603.27734 560.41992 C 605.03819 560.42775 604.64869 559.44818 606.35156 559 C 608.05447 558.55182 608.1977 559.59631 609.72656 558.72266 C 611.25543 557.849 610.42707 557.19465 611.67773 555.95508 C 612.92838 554.71548 613.57567 555.55035 614.46289 554.0293 C 615.35008 552.50826 614.30622 552.35508 614.76953 550.65625 C 615.23284 548.9574 616.2088 549.35656 616.2168 547.5957 C 616.22463 545.83484 615.24506 546.22436 614.79688 544.52148 C 614.34868 542.81858 615.39319 542.67535 614.51953 541.14648 C 613.64588 539.61761 612.99153 540.44597 611.75195 539.19531 C 610.51235 537.94466 611.34721 537.29737 609.82617 536.41016 C 608.30512 535.52296 608.15197 536.56683 606.45312 536.10352 C 604.75429 535.64022 605.15343 534.66425 603.39258 534.65625 z M 598.12305 538.71875 L 599.47852 542.83984 L 603.59961 544.19336 L 599.47852 545.54688 L 598.12305 549.66797 L 596.76758 545.54688 L 592.64844 544.19336 L 596.76758 542.83984 L 598.12305 538.71875 z "
         style="color:#000000;display:inline;overflow:visible;visibility:visible;fill:#000000;fill-opacity:1;fill-rule:nonzero;stroke:none;stroke-width:11;marker:none;enable-background:accumulate" />
      <g
         id="g4835"
         transform="translate(284.27636,668.06184)">
        <path
           sodipodi:nodetypes="ccccccc"
           inkscape:connector-curvature="0"
           style="opacity:1;fill:#000000;fill-opacity:1;stroke:none;stroke-width:5;stroke-linecap:square;stroke-linejoin:miter;stroke-miterlimit:4;stroke-dasharray:none;stroke-opacity:1"
           d="m 309.41406,135.07939 0,-18.72656 9.64454,6.75347 9.64453,-6.75347 0,18.72656 c -8.65695,-1.89926 -9.02518,-2.49729 -9.94135,1.11648 -3.23058,-4.0035 -5.54092,-0.62817 -9.34772,-1.11648 z"
           id="path4837" />
        <path
           style="color:#000000;display:inline;overflow:visible;visibility:visible;fill:#000000;fill-opacity:1;fill-rule:nonzero;stroke:none;stroke-width:11;marker:none;enable-background:accumulate"
           d="m 319.2002,130.4648 c -4.16991,-0.0186 -3.2467,2.30389 -7.2793,3.36524 -4.03266,1.06137 -4.37166,-1.41464 -7.99219,0.65429 -3.62053,2.0689 -1.65941,3.61922 -4.62109,6.55469 -2.96169,2.93549 -4.49272,0.96049 -6.59375,4.5625 -2.10098,3.60199 0.3706,3.9633 -0.72656,7.98633 -1.0425,3.82258 -3.17764,3.17023 -3.4043,6.67187 l 1.39648,0 c 9.37484,-8.88938 19.10134,-13.64843 29.08399,-13.64843 9.98264,-1e-4 19.71066,4.75908 29.08593,13.64843 l 1.38477,0 c -0.28858,-3.20355 -2.34435,-2.70121 -3.32617,-6.43164 -1.06138,-4.03265 1.41463,-4.37164 -0.6543,-7.99218 -2.0689,-3.62052 -3.61921,-1.65941 -6.55469,-4.6211 -2.93549,-2.96168 -0.9605,-4.49271 -4.5625,-6.59375 -3.602,-2.10098 -3.96329,0.3706 -7.98632,-0.72656 -4.02306,-1.09716 -3.0801,-3.41119 -7.25,-3.42969 z"
           id="path4839"
           inkscape:connector-curvature="0" />
      </g>
    </g>
    <text
       sodipodi:linespacing="125%"
       id="text4645-5"
       y="923.62244"
       x="602.95898"
       style="font-style:normal;font-weight:normal;font-size:40px;line-height:125%;font-family:sans-serif;letter-spacing:0px;word-spacing:0px;fill:#000000;fill-opacity:1;stroke:none;stroke-width:1px;stroke-linecap:butt;stroke-linejoin:miter;stroke-opacity:1"
       xml:space="preserve"><tspan
         style="font-style:normal;font-variant:normal;font-weight:normal;font-stretch:normal;font-size:13.75px;font-family:'Roboto Condensed';-inkscape-font-specification:'Roboto Condensed, ';text-align:center;text-anchor:middle"
         y="923.62244"
         x="602.95898"
         id="tspan4647-2"
         sodipodi:role="line">Primaris Psyker</tspan></text>
  </g>
</svg>
