<?xml version="1.0" encoding="UTF-8" standalone="no"?>
<!-- Created with Inkscape (http://www.inkscape.org/) -->

<svg
   xmlns:dc="http://purl.org/dc/elements/1.1/"
   xmlns:cc="http://creativecommons.org/ns#"
   xmlns:rdf="http://www.w3.org/1999/02/22-rdf-syntax-ns#"
   xmlns:svg="http://www.w3.org/2000/svg"
   xmlns="http://www.w3.org/2000/svg"
   xmlns:xlink="http://www.w3.org/1999/xlink"
   xmlns:sodipodi="http://sodipodi.sourceforge.net/DTD/sodipodi-0.dtd"
   xmlns:inkscape="http://www.inkscape.org/namespaces/inkscape"
   width="11in"
   height="8.5in"
   id="svg2"
   version="1.1"
   inkscape:version="0.91pre2_64bit r13532"
   viewBox="0 0 990 765.00002"
   sodipodi:docname="Imperial Fleet.svg">
  <defs
     id="defs4">
    <pattern
       y="0"
       x="0"
       height="6"
       width="6"
       patternUnits="userSpaceOnUse"
       id="EMFhbasepattern" />
    <pattern
       y="0"
       x="0"
       height="6"
       width="6"
       patternUnits="userSpaceOnUse"
       id="EMFhbasepattern-4" />
    <pattern
       y="0"
       x="0"
       height="6"
       width="6"
       patternUnits="userSpaceOnUse"
       id="EMFhbasepattern-1" />
  </defs>
  <sodipodi:namedview
     id="base"
     pagecolor="#ffffff"
     bordercolor="#666666"
     borderopacity="1.0"
     inkscape:pageopacity="0.0"
     inkscape:pageshadow="2"
     inkscape:zoom="1.1084967"
     inkscape:cx="473.00121"
     inkscape:cy="454.66981"
     inkscape:document-units="px"
     inkscape:current-layer="layer1"
     showgrid="false"
     units="in"
     inkscape:window-width="1920"
     inkscape:window-height="1017"
     inkscape:window-x="1912"
     inkscape:window-y="-8"
     inkscape:window-maximized="1"
     inkscape:snap-global="false"
     inkscape:object-nodes="true"
     showguides="true" />
  <metadata
     id="metadata7">
    <rdf:RDF>
      <cc:Work
         rdf:about="">
        <dc:format>image/svg+xml</dc:format>
        <dc:type
           rdf:resource="http://purl.org/dc/dcmitype/StillImage" />
        <dc:title />
      </cc:Work>
    </rdf:RDF>
  </metadata>
  <g
     inkscape:label="Layer 1"
     inkscape:groupmode="layer"
     id="layer1"
     transform="translate(0,-287.36219)">
    <path
       style="fill:none;fill-rule:evenodd;stroke:#000000;stroke-width:1px;stroke-linecap:butt;stroke-linejoin:miter;stroke-opacity:1"
       d="m 495.00003,376.6629 0,-21"
       id="path4433-9"
       inkscape:connector-curvature="0" />
    <a
       xlink:href="Adeptus Administratum.svg"
       id="a4193">
      <g
         id="g4187">
        <circle
           style="opacity:1;fill:#ffffff;fill-opacity:1;stroke:#000000;stroke-width:1;stroke-linecap:square;stroke-linejoin:miter;stroke-miterlimit:4;stroke-dasharray:none;stroke-opacity:1"
           id="path4327-6"
           cx="-494.99997"
           cy="-337.42352"
           r="11.727594"
           transform="scale(-1,-1)" />
        <g
           id="g4189"
           transform="translate(-15.801351,1.4716355)">
          <path
             sodipodi:nodetypes="ccc"
             inkscape:connector-curvature="0"
             d="m 505.15578,336.28879 5.64554,-5.64554 5.64554,5.64554"
             style="fill:none;fill-rule:evenodd;stroke:#000000;stroke-width:1px;stroke-linecap:butt;stroke-linejoin:miter;stroke-opacity:1"
             id="path4176" />
          <path
             style="fill:none;fill-rule:evenodd;stroke:#000000;stroke-width:1;stroke-linecap:butt;stroke-linejoin:miter;stroke-miterlimit:4;stroke-dasharray:none;stroke-opacity:1"
             d="m 510.80132,341.96763 0,-11.32438"
             id="path4183"
             inkscape:connector-curvature="0"
             sodipodi:nodetypes="cc" />
        </g>
      </g>
    </a>
    <text
       sodipodi:linespacing="125%"
       id="text4377"
       y="636.46716"
       x="187.19377"
       style="font-style:normal;font-weight:normal;font-size:40px;line-height:125%;font-family:sans-serif;letter-spacing:0px;word-spacing:0px;fill:#000000;fill-opacity:1;stroke:none;stroke-width:1px;stroke-linecap:butt;stroke-linejoin:miter;stroke-opacity:1"
       xml:space="preserve"><tspan
         style="font-style:normal;font-variant:normal;font-weight:normal;font-stretch:normal;font-size:13.75px;font-family:'Roboto Condensed';-inkscape-font-specification:'Roboto Condensed, ';text-align:center;text-anchor:middle"
         y="636.46716"
         x="187.19377"
         id="tspan4379"
         sodipodi:role="line">Imperial Navy</tspan></text>
    <g
       id="g4566"
       transform="matrix(1.4917286,0,0,1.4917286,-1407.7025,-986.28168)">
      <path
         inkscape:connector-curvature="0"
         style="opacity:1;fill:#000000;fill-opacity:1;stroke:none;stroke-width:2.14858222;stroke-linecap:square;stroke-linejoin:miter;stroke-miterlimit:4;stroke-dasharray:none;stroke-opacity:1"
         d="m 1047.9282,982.11918 0,3.18958 0,0 0,0 0,0 0,0.053 0,0 0,0 c 1.7877,0.017 4.7118,0.5056 6.1638,1.3522 0,0 0,0 0,0 0.016,0.01 0.031,0.02 0.047,0.03 1.3033,0.8098 2.4266,1.9266 3.2828,3.2628 0.056,0.088 0.1089,0.1787 0.163,0.2685 0.054,0.091 0.1086,0.181 0.1605,0.2733 0.5129,0.9105 0.9089,1.9083 1.1604,2.9706 l 0,0 c 0.041,0.1749 0.079,0.3502 0.1127,0.5283 l 0,0 c 0.034,0.1782 0.062,0.3576 0.088,0.5389 1e-4,0 0,0 0,0 0.025,0.1812 0.047,0.363 0.064,0.5471 l 0,0 c 0.017,0.1841 0.032,0.3704 0.04,0.5572 l 0,0 c 0,0.1059 0.01,0.2128 0.01,0.3193 0,2e-4 0,0 0,0 -4.7885,3.2839 -7.9409,8.79224 -7.9409,15.01654 0,6.2268 3.1545,11.7378 7.9462,15.0212 l 0,5.1474 0,2.116 0,2.0469 0,0.1227 0,8.5949 0,0 c 0,0.1892 0,0.3763 -0.012,0.5631 l 0,0 c -0.01,0.1867 -0.023,0.373 -0.04,0.5571 l 0,0 c -0.017,0.1841 -0.038,0.3659 -0.064,0.5471 -10e-5,0 10e-5,0 0,0 -0.025,0.1813 -0.054,0.3607 -0.088,0.5389 l 0,0 c -0.034,0.1782 -0.071,0.3534 -0.1128,0.5283 l 0,0 c -0.2522,1.0651 -0.6496,2.0647 -1.1645,2.9771 -0.051,0.09 -0.1037,0.1781 -0.1564,0.2668 -0.053,0.088 -0.1048,0.177 -0.1599,0.2632 0,0 0,0 0,0.01 0,0.01 -0.01,0.011 -0.011,0.016 -0.8549,1.3288 -1.9738,2.44 -3.2716,3.2463 -0.016,0.01 -0.031,0.02 -0.047,0.03 0,0 0,0 0,0 -1.4519,0.8466 -4.3761,1.3355 -6.1637,1.3522 l 0,0 0,0 0,0.053 0,0 0,0 0,0 0,3.1895 0,0 9.6372,0 9.1107,0 5.6107,0 9.1042,0 9.6455,0 0,-3.1205 0,0 0,-0.065 0,0 -0.011,0 0,-0.055 c -0.6668,-0.01 -2.5546,-0.078 -3.1966,-0.2095 -0.014,0 -0.029,-0.01 -0.043,-0.01 -0.1998,-0.043 -0.3986,-0.091 -0.5938,-0.1457 l 0,0 c -0.2019,-0.057 -0.4002,-0.1196 -0.5967,-0.1883 -0.01,0 -0.016,-0.01 -0.024,-0.01 -0.396,-0.1396 -0.781,-0.303 -1.1533,-0.4899 -0.1868,-0.094 -0.3711,-0.1931 -0.5513,-0.298 0,0 0,0 0,0 0,0 0,0 -0.01,0 0,0 0,0 -0.01,0 -0.2913,-0.1794 -0.5744,-0.3735 -0.8469,-0.5826 -0.5489,-0.421 -1.0584,-0.9007 -1.5193,-1.4301 -0.2178,-0.2502 -0.4243,-0.5124 -0.6197,-0.7838 -0.019,-0.026 -0.038,-0.053 -0.057,-0.079 -0.062,-0.088 -0.1217,-0.1786 -0.1818,-0.2692 -0.046,-0.07 -0.093,-0.1399 -0.1381,-0.2113 -0.035,-0.056 -0.068,-0.113 -0.1027,-0.1694 -0.058,-0.097 -0.1167,-0.1923 -0.1723,-0.291 -0.3392,-0.6005 -0.6282,-1.2395 -0.857,-1.9099 -0.1191,-0.3489 -0.2217,-0.7064 -0.3081,-1.0713 l 0,0 c -0.041,-0.1749 -0.078,-0.3501 -0.1116,-0.5283 l 0,0 c -0.034,-0.1782 -0.064,-0.3576 -0.089,-0.5389 -10e-5,0 10e-5,0 0,0 -0.025,-0.1812 -0.047,-0.363 -0.064,-0.5471 l 0,0 c -0.017,-0.1841 -0.03,-0.3699 -0.039,-0.5566 l 0,0 c -0.01,-0.1868 -0.014,-0.374 -0.014,-0.5631 l 0,0 0,-8.3754 0,-0.01 0,-2.3816 0,0 0,-7.2568 0,0 c 4.7972,-3.2826 7.9563,-8.7963 7.9563,-15.0272 0,-6.2279 -3.1564,-11.73924 -7.9498,-15.02244 0,-2e-4 0,0 0,0 0,-0.1046 0,-0.2098 0.01,-0.314 l 0,0 c 0.01,-0.1867 0.022,-0.3724 0.039,-0.5565 l 0,0 c 0.017,-0.1841 0.038,-0.3659 0.064,-0.5472 10e-5,0 0,0 0,0 0.026,-0.1812 0.056,-0.3607 0.089,-0.5388 l 0,0 c 0.034,-0.1782 0.07,-0.3535 0.1115,-0.5283 l 0,0 c 0.086,-0.3648 0.189,-0.7224 0.3081,-1.0712 0.2288,-0.6702 0.518,-1.309 0.857,-1.9094 0.053,-0.094 0.1083,-0.1856 0.1635,-0.2774 0.039,-0.064 0.076,-0.1283 0.1163,-0.1913 0.043,-0.068 0.088,-0.1351 0.1322,-0.2024 0.058,-0.088 0.1164,-0.1766 0.1771,-0.2627 0.024,-0.034 0.049,-0.067 0.073,-0.1009 0.1924,-0.2664 0.395,-0.5238 0.6091,-0.7697 0.4608,-0.5294 0.9703,-1.0096 1.5192,-1.4307 0.2724,-0.2089 0.5552,-0.4027 0.8464,-0.5819 0,0 0,0 0.01,0 0,0 0,0 0.01,0 0,0 0,0 0,0 0.1802,-0.1049 0.3646,-0.2044 0.5513,-0.2981 0.3721,-0.1867 0.7569,-0.3503 1.1527,-0.4899 0.01,0 0.016,0 0.024,-0.01 0.1966,-0.069 0.3949,-0.1318 0.5967,-0.1883 l 0,0 c 0.201,-0.056 0.4056,-0.1068 0.6114,-0.1505 0,0 0.01,0 0.013,0 0,0 0,0 0.01,0 0.6363,-0.1324 2.5349,-0.2046 3.2037,-0.2107 l 0,-0.056 0.011,0 0,0 0,-0.066 0,0 0,-3.12049 -9.6455,0 -9.1042,0 -5.6107,0 -9.1107,0 -9.6372,0 0,0 z m 21.4588,10.73148 c -0.2439,0 -0.4867,0.01 -0.7283,0.018 0.2416,-0.011 0.4844,-0.017 0.7283,-0.018 z m 0.1924,0 c 0.2435,0 0.486,0.01 0.7272,0.018 -0.2412,-0.011 -0.4837,-0.017 -0.7272,-0.018 z m -1.2211,0.036 c -0.1868,0.011 -0.3727,0.025 -0.5578,0.043 0.1852,-0.017 0.371,-0.031 0.5578,-0.043 z m 2.2529,0 c 0.1833,0.011 0.3658,0.026 0.5477,0.043 -0.1819,-0.017 -0.3644,-0.031 -0.5477,-0.043 z m -3.0982,0.071 c -0.1959,0.021 -0.3908,0.047 -0.5849,0.074 0.1941,-0.027 0.3889,-0.053 0.5849,-0.074 z m 3.9457,0 c 0.198,0.022 0.3948,0.047 0.5908,0.075 -0.196,-0.028 -0.3929,-0.053 -0.5908,-0.075 z m 0.9314,0.1257 c 0.2153,0.035 0.4295,0.073 0.6422,0.1151 -0.2129,-0.042 -0.4268,-0.08 -0.6422,-0.1151 z m -5.8462,0.01 c -0.2042,0.033 -0.4072,0.069 -0.6091,0.1092 0.2017,-0.04 0.405,-0.076 0.6091,-0.1092 z m 6.8195,0.1801 c 0.1532,0.034 0.3056,0.069 0.4574,0.1062 -0.1517,-0.037 -0.3043,-0.073 -0.4574,-0.1062 z m -7.7745,0 c -0.1456,0.032 -0.2907,0.066 -0.435,0.1009 0.1443,-0.035 0.2894,-0.069 0.435,-0.1009 z m -0.7991,0.193 c -0.1422,0.038 -0.2831,0.08 -0.4238,0.121 0.1408,-0.042 0.2815,-0.083 0.4238,-0.121 z m 9.3857,0 c 0.1447,0.039 0.2882,0.08 0.4315,0.1228 -0.1433,-0.042 -0.2868,-0.084 -0.4315,-0.1228 z m 0.9497,0.2839 c 0.1648,0.054 0.3295,0.1084 0.4923,0.167 -0.1629,-0.059 -0.3274,-0.113 -0.4923,-0.167 z m -11.3855,0.034 c -0.1276,0.043 -0.2555,0.084 -0.3819,0.1298 0.1263,-0.045 0.2544,-0.087 0.3819,-0.1298 z m 12.2543,0.2756 c 0.1158,0.045 0.2313,0.089 0.3459,0.1363 -0.1146,-0.047 -0.2301,-0.092 -0.3459,-0.1363 z m -13.0334,0 c -0.1126,0.043 -0.2249,0.087 -0.3364,0.1328 0.1115,-0.046 0.2238,-0.089 0.3364,-0.1328 z m 13.7771,0.2998 c 0.098,0.043 0.1955,0.088 0.2927,0.1322 -0.097,-0.045 -0.1945,-0.089 -0.2927,-0.1322 z m -14.5125,0 c -0.1032,0.045 -0.2053,0.092 -0.3075,0.1393 0.1022,-0.047 0.2043,-0.094 0.3075,-0.1393 z m 16.2401,0.8677 c 0.074,0.042 0.1487,0.085 0.2225,0.1286 -0.074,-0.043 -0.1481,-0.086 -0.2225,-0.1286 z m -17.986,0.012 c -0.066,0.038 -0.1313,0.075 -0.1965,0.1139 0.065,-0.038 0.1308,-0.076 0.1965,-0.1139 z m 18.6293,0.3718 c 0.074,0.046 0.1474,0.094 0.2208,0.1417 -0.073,-0.048 -0.1467,-0.095 -0.2208,-0.1417 z m -19.2679,0.01 c -0.062,0.039 -0.1228,0.079 -0.1841,0.1186 0.061,-0.04 0.1222,-0.08 0.1841,-0.1186 z m 9.6425,1.6036 c 7.6559,0 13.8154,6.15964 13.8154,13.81544 0,7.6559 -6.1595,13.8154 -13.8154,13.8154 -7.6559,0 -13.8148,-6.1595 -13.8148,-13.8154 0,-7.6558 6.1589,-13.81544 13.8148,-13.81544 z m -9.917,29.05804 c 0.1071,0.07 0.2144,0.1394 0.3229,0.2072 -0.1086,-0.068 -0.2158,-0.1373 -0.3229,-0.2072 z m 19.7649,0.044 c -0.075,0.049 -0.1504,0.098 -0.2266,0.1458 0.076,-0.048 0.1512,-0.097 0.2266,-0.1458 z m -19.0755,0.3855 c 0.094,0.055 0.1881,0.1091 0.2827,0.1629 -0.095,-0.054 -0.1891,-0.1076 -0.2827,-0.1629 z m 18.4322,0.014 c -0.078,0.046 -0.1572,0.091 -0.2361,0.1358 0.079,-0.045 0.1579,-0.09 0.2361,-0.1358 z m -17.7694,0.3624 c 0.2022,0.1085 0.4067,0.2136 0.6133,0.3146 -0.2066,-0.101 -0.4111,-0.2061 -0.6133,-0.3146 z m 0.9456,0.4692 c 0.1269,0.059 0.254,0.1175 0.3825,0.1736 -0.1285,-0.056 -0.2556,-0.1147 -0.3825,-0.1736 z m 15.1971,0.019 c -0.1114,0.051 -0.2226,0.1026 -0.3352,0.1517 0.1125,-0.049 0.2239,-0.1004 0.3352,-0.1517 z m -14.4664,0.3017 c 0.1409,0.058 0.2829,0.1137 0.4255,0.1682 -0.1426,-0.055 -0.2846,-0.1103 -0.4255,-0.1682 z m 13.7594,0.01 c -0.1264,0.052 -0.2536,0.102 -0.3814,0.1511 0.1278,-0.049 0.2549,-0.099 0.3814,-0.1511 z m -13.0228,0.2792 c 0.2304,0.083 0.4624,0.1626 0.697,0.2366 -0.2347,-0.074 -0.4665,-0.1533 -0.697,-0.2366 z m 12.2867,0.01 c -0.1961,0.071 -0.394,0.1379 -0.5932,0.2019 0.1993,-0.064 0.397,-0.1312 0.5932,-0.2019 z m -11.3187,0.3111 c 0.1679,0.05 0.3365,0.099 0.5064,0.1446 -0.1699,-0.045 -0.3385,-0.094 -0.5064,-0.1446 z m 10.3431,0.01 c -0.1579,0.047 -0.3161,0.092 -0.4757,0.1352 0.1595,-0.043 0.3179,-0.088 0.4757,-0.1352 z m -9.5162,0.219 c 0.1692,0.042 0.3395,0.081 0.5105,0.118 -0.171,-0.037 -0.3413,-0.076 -0.5105,-0.118 z m 8.7064,0 c -0.1646,0.041 -0.3301,0.079 -0.4964,0.1151 0.1663,-0.036 0.3318,-0.075 0.4964,-0.1151 z m -7.9208,0.1759 c 0.2577,0.052 0.5164,0.099 0.7779,0.1399 -0.2614,-0.041 -0.5203,-0.088 -0.7779,-0.1399 z m 7.1358,0 c -0.2565,0.051 -0.5142,0.099 -0.7744,0.1393 0.2603,-0.04 0.5178,-0.088 0.7744,-0.1393 z m -6.218,0.1576 c 0.2322,0.034 0.4662,0.064 0.7012,0.089 -0.2352,-0.025 -0.4689,-0.055 -0.7012,-0.089 z m 5.3085,0 c -0.2296,0.034 -0.4607,0.063 -0.693,0.088 0.2322,-0.025 0.4634,-0.054 0.693,-0.088 z m -4.3659,0.1127 c 0.2048,0.019 0.4106,0.035 0.6173,0.047 -0.2067,-0.012 -0.4125,-0.028 -0.6173,-0.047 z m 3.4079,0 c -0.1976,0.018 -0.3962,0.033 -0.5955,0.045 0.1994,-0.012 0.3978,-0.027 0.5955,-0.045 z m -2.5391,0.061 c 0.2791,0.013 0.5594,0.021 0.8416,0.021 -0.2822,0 -0.5625,-0.01 -0.8416,-0.021 z m 1.6809,0 c -0.2776,0.013 -0.5563,0.021 -0.8369,0.021 0.2806,-10e-5 0.5594,-0.01 0.8369,-0.021 z"
         id="path4526" />
      <path
         id="path4528"
         d="m 1060.0557,998.79656 -2.8508,2.85084 4.8858,4.8857 c -0.8191,1.3242 -1.294,2.8807 -1.294,4.542 0,1.6614 0.4752,3.2177 1.2944,4.5419 l -4.8862,4.8863 2.8508,2.8508 4.8858,-4.8858 c 1.3241,0.8192 2.8806,1.2939 4.5419,1.2939 1.6614,0 3.2177,-0.4751 4.542,-1.2944 l 4.8862,4.8863 2.8508,-2.8508 -4.8862,-4.8863 c 0.8193,-1.3242 1.2944,-2.8805 1.2944,-4.5419 0,-1.6613 -0.4748,-3.2178 -1.294,-4.542 l 4.8858,-4.8857 -2.8508,-2.85084 -4.8858,4.88584 c -1.3243,-0.8193 -2.8808,-1.294 -4.5424,-1.294 -1.6613,0 -3.2177,0.4748 -4.5419,1.294 l -4.8858,-4.88584 z m 14.3594,5.14264 c 0.031,0.021 0.061,0.043 0.091,0.065 -0.03,-0.022 -0.061,-0.044 -0.091,-0.065 z m -9.8686,0 c -0.026,0.018 -0.051,0.036 -0.077,0.054 0.025,-0.018 0.051,-0.036 0.077,-0.054 z m 10.2645,0.2882 c 0.028,0.022 0.056,0.044 0.084,0.066 -0.028,-0.022 -0.056,-0.044 -0.084,-0.066 z m -10.663,0.01 c -0.023,0.018 -0.046,0.036 -0.069,0.054 0.023,-0.018 0.046,-0.036 0.069,-0.054 z m 11.0589,0.322 c 0.018,0.016 0.037,0.032 0.055,0.048 -0.018,-0.016 -0.037,-0.032 -0.055,-0.048 z m -11.4609,0.012 c -0.012,0.01 -0.024,0.021 -0.036,0.031 0.012,-0.01 0.024,-0.021 0.036,-0.031 z m -0.7349,0.7304 c -0.011,0.012 -0.021,0.024 -0.031,0.035 0.01,-0.012 0.021,-0.024 0.031,-0.035 z m 12.9452,0 c 0.011,0.012 0.021,0.025 0.032,0.037 -0.011,-0.012 -0.021,-0.025 -0.032,-0.037 z m 0.3048,0.3609 c 0.023,0.029 0.045,0.058 0.067,0.086 -0.022,-0.029 -0.045,-0.058 -0.067,-0.086 z m -13.5606,0.01 c -0.018,0.023 -0.036,0.046 -0.054,0.069 0.018,-0.023 0.036,-0.046 0.054,-0.069 z m 13.8599,0.3898 c 0.019,0.026 0.037,0.052 0.055,0.078 -0.018,-0.026 -0.037,-0.052 -0.055,-0.078 z m -14.1548,0 c -0.018,0.026 -0.036,0.051 -0.054,0.077 0.018,-0.026 0.036,-0.051 0.054,-0.077 z m 7.0778,0.3583 c 2.5951,0 4.6557,2.0602 4.6557,4.6553 0,2.595 -2.0606,4.6556 -4.6557,4.6556 -2.5951,0 -4.6552,-2.0606 -4.6552,-4.6556 0,-2.5951 2.0601,-4.6553 4.6552,-4.6553 z m -7.1263,9.6005 c 0.013,0.019 0.027,0.038 0.04,0.056 -0.013,-0.019 -0.027,-0.037 -0.04,-0.056 z m 14.2531,0 c -0.013,0.019 -0.026,0.037 -0.039,0.056 0.013,-0.019 0.026,-0.037 0.039,-0.056 z m -13.9631,0.3915 c 0.018,0.023 0.035,0.045 0.053,0.068 -0.018,-0.022 -0.036,-0.045 -0.053,-0.068 z m 13.6652,0.01 c -0.013,0.017 -0.026,0.033 -0.039,0.05 0.013,-0.017 0.026,-0.033 0.039,-0.05 z m -13.3323,0.391 c 0.01,0.012 0.021,0.024 0.031,0.035 -0.011,-0.012 -0.021,-0.024 -0.031,-0.035 z m 0.7349,0.7389 c 0.01,0.01 0.015,0.013 0.022,0.02 -0.01,-0.01 -0.015,-0.013 -0.022,-0.02 z m 0.3592,0.3031 c 0.026,0.021 0.052,0.041 0.079,0.062 -0.026,-0.021 -0.053,-0.041 -0.079,-0.062 z m 10.8109,0.01 c -0.02,0.016 -0.04,0.031 -0.06,0.047 0.02,-0.016 0.04,-0.031 0.06,-0.047 z m -10.4151,0.2926 c 0.025,0.018 0.051,0.036 0.077,0.054 -0.026,-0.018 -0.051,-0.036 -0.077,-0.054 z m 10.0144,0.01 c -0.019,0.013 -0.037,0.026 -0.056,0.039 0.019,-0.013 0.037,-0.026 0.056,-0.039 z"
         style="opacity:1;fill:#000000;fill-opacity:1;stroke:none;stroke-width:10;stroke-linecap:square;stroke-linejoin:miter;stroke-miterlimit:4;stroke-dasharray:none;stroke-opacity:1"
         inkscape:connector-curvature="0" />
      <g
         transform="matrix(1,0,0,1.0849774,0.0703,-83.328757)"
         id="g4562">
        <path
           inkscape:connector-curvature="0"
           style="color:#000000;font-style:normal;font-variant:normal;font-weight:normal;font-stretch:normal;font-size:medium;line-height:normal;font-family:sans-serif;text-indent:0;text-align:start;text-decoration:none;text-decoration-line:none;text-decoration-style:solid;text-decoration-color:#000000;letter-spacing:normal;word-spacing:normal;text-transform:none;direction:ltr;block-progression:tb;writing-mode:lr-tb;baseline-shift:baseline;text-anchor:start;clip-rule:nonzero;display:inline;overflow:visible;visibility:visible;opacity:1;isolation:auto;mix-blend-mode:normal;color-interpolation:sRGB;color-interpolation-filters:linearRGB;solid-color:#000000;solid-opacity:1;fill:#000000;fill-opacity:1;fill-rule:nonzero;stroke:none;stroke-width:1;stroke-linecap:butt;stroke-linejoin:miter;stroke-miterlimit:4;stroke-dasharray:none;stroke-dashoffset:0;stroke-opacity:1;color-rendering:auto;image-rendering:auto;shape-rendering:auto;text-rendering:auto;enable-background:accumulate"
           d="m 1135.2204,980.59889 c 2e-4,7.3e-4 -3e-4,0.003 0,0.004 0,0 0,0 0,0 l 0,-0.004 z m 0,0.004 c -0.017,0.003 -0.076,0.009 -0.1739,0.0645 -0.1118,0.0632 -0.2556,0.16776 -0.4257,0.31054 -0.3406,0.28549 -0.7882,0.72443 -1.3438,1.30274 -1.9029,1.98048 -7.6982,6.0571 -10.832,7.625 -1.2291,0.6149 -3.0734,1.57988 -4.0938,2.14258 -1.0431,0.5752 -3.5258,1.54447 -5.5508,2.17187 -3.4205,1.0595 -3.7544,1.29617 -5.7343,4.04297 l -1.961,2.72071 0.8164,0 c 0.114,4e-4 0.4713,-0.058 0.959,-0.166 0.4878,-0.1085 1.1232,-0.266 1.8574,-0.461 1.4682,-0.38986 3.337,-0.92814 5.252,-1.52144 8.1669,-2.5304 13.7948,-5.15598 16.3027,-7.58008 1.3721,-1.3261 2.235,-2.8536 3.6367,-6.45508 0.5499,-1.41313 0.9319,-2.46738 1.1348,-3.18359 0.1005,-0.35821 0.1569,-0.63471 0.1699,-0.81836 0,-0.0908 0,-0.15714 -0.014,-0.19532 z m 0.1406,9.91211 c -0.084,0.0399 -0.1778,0.0854 -0.3008,0.15235 -0.3046,0.1641 -0.7088,0.40001 -1.1367,0.66601 -0.2781,0.1728 -0.5367,0.30954 -0.7774,0.42774 l 0,0 c -0.065,0.0314 -0.2768,0.13768 -0.4883,0.23828 -0.1056,0.0503 -0.2118,0.0997 -0.3008,0.13867 -0.091,0.039 -0.1488,0.0661 -0.2148,0.0801 0.041,-0.0104 0.025,-0.001 0.012,0 -0.01,0.003 -0.018,0.004 -0.031,0.0137 -0.027,0.013 -0.067,0.0307 -0.1133,0.0527 -0.094,0.0441 -0.2199,0.10388 -0.3614,0.17188 -0.2828,0.135 -0.6221,0.29776 -0.8652,0.41016 -0.9847,0.6197 -2.8841,1.56821 -6.9316,3.54101 -4.0548,1.9763 -11.861,4.6224 -15.7012,5.3184 l -1.9883,0.3593 1.2344,0.5235 c 0.7128,0.3017 1.1268,0.4919 1.3437,0.7597 0.1111,0.1344 0.1434,0.2897 0.1114,0.4278 -0.031,0.1382 -0.1135,0.2707 -0.2285,0.4238 -0.1393,0.1845 -0.2364,0.3639 -0.2774,0.4941 -0.02,0.051 -0.019,0.086 -0.019,0.1133 0.058,0.017 0.137,0.036 0.2715,0.047 0.1625,0.011 0.3708,0.022 0.6152,0.012 0.489,-0.012 1.1241,-0.062 1.8594,-0.1406 1.4705,-0.1587 3.3399,-0.4371 5.2578,-0.7754 3.836,-0.6766 7.8842,-1.5995 9.2988,-2.2422 2.675,-1.2152 4.7544,-2.91502 6.5234,-5.33202 0.6885,-0.9409 1.5789,-2.45058 2.252,-3.73828 0.3366,-0.6439 0.6195,-1.23291 0.7969,-1.66601 0.083,-0.1996 0.134,-0.35727 0.166,-0.47657 l 0,0 z m -27.9981,4.5 c -0.1411,-0.023 -0.5007,0.014 -1.0722,0.13867 -0.5726,0.1248 -1.3708,0.32748 -2.4649,0.60938 -5.1023,1.3148 -11.6389,2.03661 -15.1894,1.66211 -1.6601,-0.175 -2.8681,-0.14548 -3.709,0.10351 -0.841,0.249 -1.3242,0.70753 -1.5606,1.42383 -0.1944,0.5896 -0.1608,1.1186 0.1446,1.7188 0.3052,0.6001 0.8959,1.2766 1.8281,2.1113 0.2045,0.1832 0.3639,0.334 0.4805,0.457 0.1164,0.1231 0.1926,0.2084 0.2324,0.3125 0.02,0.052 0.03,0.1262 -0.018,0.1758 -0.046,0.049 -0.117,0.056 -0.1738,0.053 -0.1124,-0.01 -0.2286,-0.045 -0.3926,-0.1074 -0.1495,-0.056 -0.2187,-0.049 -0.2187,-0.049 0,6e-4 -0.014,4e-4 -0.014,0.023 0,0.025 -4e-4,0.076 0.018,0.1445 0.07,0.2751 0.3632,0.85 0.8964,1.75 1.5912,2.6854 1.6789,4.917 0.2657,6.2851 a 16.970562,16.970562 0 0 1 -1.252,5.7227 l 1.3906,0.5762 1.2676,0.5254 -0.6719,-0.9492 c -0.2164,-0.3064 -0.3764,-0.5403 -0.4863,-0.7168 -0.1111,-0.1768 -0.1889,-0.2832 -0.1738,-0.418 0.013,-0.067 0.079,-0.1329 0.1523,-0.1426 0.073,-0.01 0.1351,4e-4 0.2071,0.025 0.1437,0.04 0.3241,0.1151 0.5644,0.2168 0.7146,0.3026 1.3895,0.4669 1.8399,0.4863 0.2251,0.01 0.3908,-0.022 0.4746,-0.068 0.085,-0.046 0.1056,-0.082 0.074,-0.1777 -0.014,-0.057 -0.02,-0.1228 0.012,-0.1758 0.032,-0.053 0.096,-0.078 0.1563,-0.086 0.1191,-0.014 0.2448,0.02 0.4043,0.074 0.3192,0.1082 0.7659,0.3235 1.3046,0.6348 0.7413,0.4286 1.2355,0.6579 1.6543,0.7383 0.4188,0.08 0.7846,0.019 1.2969,-0.168 l 0.9141,-0.3359 -2.1485,-0.6348 c -0.7034,-0.2068 -1.4123,-0.3831 -1.9804,-0.5039 -0.2841,-0.06 -0.5352,-0.1076 -0.7305,-0.1348 -0.1951,-0.027 -0.3409,-0.032 -0.3848,-0.025 -0.1944,0.027 -0.4939,0.013 -0.8476,-0.023 -0.3537,-0.036 -0.7541,-0.098 -1.125,-0.1777 l -1.3242,-0.2793 -0.057,-0.2676 1.502,-0.2559 c 0.8565,-0.1473 2.0132,-0.07 2.6816,0.2071 0.4525,0.1873 1.1928,0.1283 1.9668,-0.1602 0.774,-0.2883 1.5788,-0.7927 2.1914,-1.4316 0.2048,-0.2135 0.382,-0.3426 0.5938,-0.3555 0.1059,-0.01 0.2305,0.034 0.3183,0.1113 0.087,0.077 0.1408,0.1723 0.1778,0.2832 0.046,0.1424 0.2143,0.295 0.5371,0.4434 0.3227,0.1484 0.7806,0.2834 1.3281,0.3926 1.095,0.2182 2.5539,0.3412 4.0898,0.3633 3.0717,0.044 6.4733,-0.3281 7.961,-1.1036 l 1.2578,-0.6582 -2.1484,-0.9101 c -1.7564,-0.7435 -2.669,-0.8983 -3.4317,-0.6192 -0.3521,0.1289 -1.1501,0.216 -2.2129,0.2813 -1.063,0.065 -2.3718,0.099 -3.6758,0.086 -1.8229,-0.018 -3.0472,0.023 -3.8886,0.1563 -0.8412,0.1336 -1.2942,0.3534 -1.6114,0.6953 -0.3075,0.3314 -0.5553,0.5607 -0.75,0.6972 -0.098,0.068 -0.1791,0.1156 -0.2656,0.1387 -0.044,0.011 -0.086,0.018 -0.1445,0.01 -0.058,-0.01 -0.129,-0.048 -0.1699,-0.096 -0.082,-0.096 -0.082,-0.1781 -0.068,-0.2676 0.013,-0.09 0.037,-0.195 0.082,-0.3203 0.089,-0.2507 0.2506,-0.5839 0.4864,-0.998 l 0.6152,-1.0821 -0.9414,0.2246 c -0.3713,0.089 -0.7221,0.1418 -0.9981,0.1563 -0.1379,0.01 -0.2564,0.01 -0.3593,-0.01 -0.05,-0.01 -0.099,-0.02 -0.1504,-0.043 -0.05,-0.023 -0.111,-0.063 -0.1446,-0.127 -0.033,-0.06 -0.037,-0.093 -0.037,-0.1406 l 0,-0.1719 c 0,-0.1322 0.02,-0.3009 0.041,-0.5 0.044,-0.3983 0.1201,-0.9107 0.2207,-1.4453 l 0.3769,-2.0215 3.5547,-0.08 c 1.7964,-0.042 4.5993,-0.54 6.9766,-1.1445 1.1886,-0.3022 2.2728,-0.6334 3.0742,-0.9414 0.4005,-0.154 0.7326,-0.3018 0.9668,-0.4375 0.2344,-0.1357 0.3661,-0.2692 0.3867,-0.3301 0.02,-0.065 7e-4,-0.1145 -0.072,-0.1992 -0.075,-0.085 -0.2189,-0.1897 -0.414,-0.2949 -0.3901,-0.2105 -0.9814,-0.425 -1.6407,-0.5977 -1.3182,-0.3453 -2.9257,-0.5312 -3.8515,-0.3359 -0.9272,0.1955 -3.3932,0.4255 -5.5274,0.5195 -2.2406,0.099 -3.587,0.3467 -4.2207,0.8399 -0.3167,0.2465 -0.4648,0.5475 -0.4785,0.9453 -0.013,0.3977 0.1116,0.8955 0.3672,1.5078 0.2475,0.5909 0.3776,1.0139 0.4023,1.2988 0.013,0.1425 0,0.2524 -0.059,0.3379 -0.063,0.085 -0.215,0.1135 -0.3399,0.07 -0.2495,-0.085 -0.485,-0.3146 -0.8008,-0.6797 -0.3159,-0.365 -0.6912,-0.8724 -1.1093,-1.5195 -0.4987,-0.7719 -0.7857,-1.266 -0.879,-1.5547 -0.025,-0.072 -0.039,-0.131 -0.025,-0.1953 0.013,-0.065 0.093,-0.1316 0.1777,-0.1309 0.085,0 0.1525,0.032 0.2226,0.07 0.07,0.038 0.1422,0.09 0.2286,0.1543 0.1807,0.1345 0.3258,0.2324 0.4316,0.291 0.1072,0.06 0.1738,0.073 0.1738,0.07 0,-8e-4 -8e-4,0.011 0.018,-0.041 0.016,-0.051 0.017,-0.1551 0,-0.2968 -0.044,-0.3647 0.076,-0.6892 0.3379,-0.961 0.2614,-0.2717 0.662,-0.4953 1.1914,-0.6738 1.0588,-0.3569 2.6372,-0.5425 4.7031,-0.5488 2.0374,-0.01 3.9459,-0.2479 5.3887,-0.6387 1.4425,-0.3907 2.4087,-0.9495 2.5898,-1.4785 0.074,-0.21624 0.2752,-0.53102 0.5469,-0.89652 0.2714,-0.3655 0.6088,-0.77322 0.9551,-1.13672 0.6756,-0.7095 1.4166,-1.81746 1.625,-2.41016 0.073,-0.20819 0.1309,-0.37508 0.1445,-0.48828 0.013,-0.055 0,-0.099 0,-0.11718 l 0,-0.0137 c 0,-3e-4 -0.018,-0.01 -0.059,-0.0176 l 0,-0.002 z m 26.7364,5.082 c 0,0 0,0.01 0,0.01 l 0,0 0,-0.01 z m 0,0.01 -0.08,0 c -0.1529,0.015 -0.3611,0.048 -0.6055,0.096 -0.489,0.097 -1.1294,0.2544 -1.8223,0.4473 -1.386,0.386 -2.9856,0.9131 -4.0293,1.3711 -3.2125,1.41 -10.6029,3.1067 -15.8281,3.6406 l -3.8164,0.3906 1.834,0.7754 c 0.9404,0.3981 1.5317,0.6859 1.9102,0.9903 0.3788,0.3045 0.5195,0.6427 0.5195,1.0214 -10e-4,0.2018 0.016,0.346 0.053,0.42 0.037,0.074 0.07,0.1055 0.2344,0.1465 0.3284,0.078 1.0778,0.066 2.459,0 1.6159,-0.078 4.0143,-0.2791 5.3144,-0.4473 4.2935,-0.5556 6.189,-1.1894 8.0899,-2.6934 0.7744,-0.6126 2.1892,-2.0223 3.4316,-3.3613 0.6214,-0.6695 1.2014,-1.3221 1.6387,-1.8496 0.2186,-0.2637 0.4026,-0.497 0.5371,-0.6836 0.09,-0.1251 0.1207,-0.1901 0.1602,-0.2637 z m -28.502,6.5235 c -0.581,-0.015 -1.1782,0.1101 -2.0957,0.3515 -1.3334,0.3509 -4.1809,0.8084 -6.3594,1.0215 -2.0097,0.1967 -3.0683,0.3263 -3.5664,0.5547 -0.2489,0.1142 -0.3591,0.2412 -0.4121,0.4238 -0.054,0.1826 -0.04,0.433 0,0.7735 0.02,0.1777 0.043,0.3116 0.072,0.3906 0.029,0.079 0.039,0.086 0.062,0.096 0.024,0.01 0.1064,0.019 0.2461,0 0.1395,-0.019 0.3305,-0.062 0.5801,-0.125 0.4182,-0.105 0.7018,-0.153 0.9511,-0.082 0.1246,0.035 0.2426,0.1189 0.3086,0.2207 0.066,0.1019 0.087,0.2107 0.1,0.3359 0,0.063 0.027,0.1022 0.1,0.1602 0.073,0.058 0.1977,0.1237 0.3692,0.1797 0.3433,0.113 0.8612,0.1971 1.4902,0.2441 1.258,0.095 2.9689,0.051 4.7539,-0.1015 1.7848,-0.153 3.6457,-0.4148 5.2168,-0.7539 1.5713,-0.3389 2.8537,-0.7604 3.461,-1.2032 0.1575,-0.1151 0.2496,-0.2126 0.2656,-0.2656 0.013,-0.026 0.013,-0.037 0,-0.059 -0.012,-0.022 -0.041,-0.057 -0.1035,-0.1074 -0.2504,-0.1984 -0.9755,-0.5365 -2.3106,-1.1016 -1.1715,-0.496 -1.91,-0.7782 -2.5371,-0.8945 l -0.01,0 c -0.2013,-0.037 -0.3922,-0.058 -0.5859,-0.062 z m 26.9492,0.9277 0,0.01 -0.096,0 c -0.083,0 -0.2009,0.017 -0.3457,0.037 -0.2898,0.039 -0.689,0.1063 -1.166,0.1973 -0.9543,0.1817 -2.22,0.4553 -3.5664,0.7754 -5.6044,1.3328 -10.6763,2.0666 -15.0215,2.1718 -0.8191,0.02 -1.5742,0.069 -2.1269,0.1309 -0.2762,0.032 -0.5021,0.067 -0.6563,0.1016 -0.076,0.017 -0.13,0.035 -0.166,0.049 0.01,0.01 0.011,0.015 0.025,0.031 0.055,0.059 0.151,0.1423 0.2793,0.2363 0.2557,0.1875 0.6326,0.4165 1.0566,0.6348 0.6476,0.3334 1.051,0.5833 1.2696,0.8867 0.1082,0.1515 0.164,0.3165 0.164,0.4804 0,0.022 -0.016,0.046 -0.016,0.068 l 0.045,0.019 -0.055,0.027 c -0.013,0.1292 -0.029,0.258 -0.086,0.4043 -0.099,0.2622 -0.126,0.4518 -0.082,0.5488 0.022,0.048 0.053,0.085 0.1347,0.1329 0.082,0.048 0.2148,0.099 0.4024,0.1445 0.7507,0.1831 2.3455,0.2822 5.3047,0.418 5.5849,0.257 10.0256,-1.1504 12.5761,-3.9688 0.999,-1.104 1.6676,-1.9713 2,-2.584 0.1661,-0.3065 0.2481,-0.5509 0.2481,-0.7109 0,-0.08 -0.013,-0.135 -0.033,-0.168 -0.02,-0.033 -0.041,-0.051 -0.09,-0.072 z m -35.9883,7.9922 c -0.5796,0.01 -1.0297,0.088 -1.2207,0.2051 -0.187,0.1147 -0.3256,0.2045 -0.3906,0.2675 -0.025,0.027 -0.037,0.041 -0.037,0.051 0.012,0.01 0.1024,0.064 0.291,0.125 0.1984,0.064 0.4863,0.1403 0.8672,0.2383 0.5674,0.1464 0.9645,0.2805 1.2305,0.4336 0.1332,0.077 0.2377,0.1603 0.3027,0.2617 0.065,0.1015 0.075,0.2146 0.043,0.3106 -0.018,0.056 -0.01,0.089 0.037,0.1426 0.045,0.054 0.1399,0.1233 0.2832,0.1953 0.2866,0.143 0.7543,0.2872 1.3535,0.4121 1.1986,0.2498 2.9248,0.4286 4.8691,0.4726 1.8884,0.043 4.1685,-0.1674 5.002,-0.4453 0.7728,-0.2576 1.1524,-0.4152 1.2344,-0.5371 0.042,-0.061 0.04,-0.1036 -0.016,-0.2109 -0.055,-0.1073 -0.1698,-0.2627 -0.3321,-0.4688 -0.4002,-0.5083 -0.7502,-0.8196 -1.1582,-0.9941 -0.131,-0.056 -0.2706,-0.1 -0.4219,-0.1289 -0.4535,-0.09 -1.0233,-0.063 -1.7968,0.062 -2.3041,0.3733 -5.1797,0.2948 -8.125,-0.2168 -0.7265,-0.126 -1.4362,-0.1858 -2.0157,-0.1758 z m 27.5508,0.3613 c -1.9367,-0.029 -4.5072,0.052 -5.6875,0.1758 -1.211,0.127 -3.6859,0.1687 -5.5293,0.096 -0.8105,-0.032 -1.4231,-0.059 -1.8672,-0.059 -0.444,0 -0.7246,0.014 -0.8476,0.049 -0.059,0.018 -0.074,0.039 -0.074,0.039 -10e-4,0 -0.01,0.01 0.019,0.047 0.05,0.077 0.2141,0.2293 0.4434,0.4258 0.5297,0.4536 0.8164,0.8755 0.8164,1.2422 0,0.3668 -0.2975,0.6407 -0.834,0.7968 -0.1041,0.03 -0.1806,0.062 -0.2246,0.088 -0.045,0.025 -0.045,0.045 -0.045,0.035 0,-0.01 -0.013,-0.015 0.024,0.01 0.036,0.025 0.1115,0.064 0.2226,0.1055 0.4415,0.165 1.409,0.3816 2.9375,0.6621 6.0802,1.1139 10.5721,0.038 13.4903,-3.2265 0.114,-0.1275 0.1891,-0.2312 0.2051,-0.2832 l 0,-0.027 c 0,0 0,0 -0.037,-0.018 l 0,0 c -0.024,-0.01 -0.063,-0.019 -0.1152,-0.031 l 0,0 c -0.3552,-0.075 -1.2438,-0.102 -2.8965,-0.127 z m -34.8535,1.6465 c -0.087,0.011 -0.1381,0.038 -0.1641,0.07 -0.053,0.064 -0.05,0.2063 0.076,0.4668 0.1238,0.2564 0.4429,0.5586 0.8887,0.8477 0.4459,0.289 1.0126,0.5666 1.6152,0.7949 1.2051,0.4569 2.2332,0.7246 3.0254,0.5605 l 1.3731,-0.2304 -2.6524,-1.1348 c -1.8882,-0.8087 -3.1306,-1.2551 -3.789,-1.3574 -0.1646,-0.025 -0.2865,-0.029 -0.3731,-0.018 z m -4.2031,0.2676 a 16.970562,16.970562 0 0 1 -0.6504,1.3376 l 0.541,0.3984 2.3496,1.3711 -0.5078,-1.3828 -1.7363,-1.7246 z m 10.5215,0.7675 c -0.064,0.01 -0.081,0.011 -0.098,0.021 0.052,0.052 0.2634,0.189 0.6524,0.3536 0.2316,0.098 0.4308,0.2294 0.5683,0.373 0.1391,0.1437 0.2238,0.3113 0.1758,0.4551 0,0.018 0,0.032 0.016,0.062 0.017,0.03 0.055,0.074 0.1172,0.125 0.1226,0.1009 0.3309,0.2251 0.5977,0.3555 0.5338,0.2608 1.3055,0.5515 2.166,0.8222 1.7212,0.5413 3.8056,1.0042 5.082,1.0332 1.2886,0.03 2.8705,-0.128 3.459,-0.3301 l 0.9746,-0.3339 -1.1328,-0.8594 c -0.448,-0.3398 -0.7591,-0.5523 -1.1231,-0.6914 -0.152,-0.058 -0.3156,-0.1046 -0.5039,-0.1406 -0.5654,-0.11 -1.3653,-0.1345 -2.7461,-0.1485 -1.7569,-0.017 -4.3271,-0.3241 -5.7539,-0.6894 -1.2138,-0.3108 -2.1114,-0.4362 -2.4511,-0.4082 z m -8.5801,0.3067 0.6582,1.0117 c 0.9948,1.5295 2.9603,2.6077 5.0059,2.7149 0.5787,0.03 0.9802,0.012 1.1582,-0.043 0.09,-0.027 0.1015,-0.063 0.1015,-0.053 0,0.01 0.01,-0.012 -0.061,-0.084 -0.1348,-0.1434 -0.5011,-0.3953 -1.0762,-0.7149 -0.575,-0.3195 -1.3631,-0.7169 -2.3711,-1.1992 l -3.4141,-1.6328 0,0 z m 21.0156,0.8887 1.0332,0.9004 c 0.3222,0.2804 0.5665,0.4929 0.7383,0.666 0.1719,0.1733 0.2818,0.3113 0.3008,0.4512 0.019,0.14 -0.081,0.2452 -0.2285,0.3242 -0.1475,0.079 -0.354,0.1492 -0.627,0.2402 l -0.7969,0.2656 2.7305,0.791 c 1.9194,0.5549 3.9253,0.8529 5.3242,0.7989 1.0114,-0.039 2.7862,-0.4554 4.3184,-0.9473 0.766,-0.2459 1.4752,-0.5109 2.0039,-0.7539 0.2642,-0.1215 0.4831,-0.2362 0.6406,-0.3398 0.1446,-0.096 0.2171,-0.1775 0.2461,-0.2305 -0.043,-0.026 -0.1308,-0.066 -0.2539,-0.1055 -0.308,-0.1006 -0.8171,-0.2149 -1.4277,-0.3242 -0.2022,-0.037 -0.4175,-0.071 -0.6426,-0.1074 -1.4925,-0.2331 -3.3672,-0.4217 -4.7149,-0.4317 -1.1794,-0.01 -3.6675,-0.2961 -5.5742,-0.6406 l -3.0703,-0.5566 z m -23.6367,0.1367 c -0.012,0.01 -0.02,0.01 -0.033,0.01 l 0,0 c -0.037,0.012 -0.072,0.035 -0.1035,0.076 -0.01,0.01 0,0.095 0.1,0.2324 0.097,0.137 0.1659,0.4638 0.3808,0.6758 0.4296,0.4241 1.0608,0.9651 1.7715,1.5273 1.2458,1.0138 2.1603,1.6112 3.4375,2.2579 1.1552,0.558 4.2632,1.8371 5.7539,2.2695 1.3736,0.3984 2.5699,0.6335 3.2793,0.6855 0.3546,0.026 0.5778,0 0.6328,-0.041 0.033,-0.019 0.034,-0.03 0.018,-0.064 -0.011,-0.036 -0.064,-0.093 -0.168,-0.1679 -0.04,-0.029 -0.1685,-0.097 -0.3476,-0.1739 -0.1789,-0.078 -0.4108,-0.1695 -0.6777,-0.2675 -0.534,-0.1965 -1.4623,-0.5318 -2.0997,-0.8008 -5.4888,-2.3164 -7.523,-3.775 -9.3007,-4.7227 -0.7613,-0.601 -1.3765,-0.8873 -1.8164,-1.1543 -0.2202,-0.1336 -0.402,-0.2263 -0.5411,-0.2793 -0.1394,-0.05 -0.2252,-0.071 -0.2812,-0.06 z m -0.5469,0.1914 a 16.970562,16.970562 0 0 1 -0.2441,0.4004 c 0.1897,0.1205 0.3281,0.1705 0.3535,0.168 0.013,0 0.013,-5e-4 0.023,-0.022 0.013,-0.023 0.017,-0.08 0,-0.166 -0.018,-0.093 -0.065,-0.2254 -0.1328,-0.3808 z m 12.0059,0.6289 c -0.074,0 -0.1314,0.021 -0.1817,0.051 -0.1018,0.059 -0.1883,0.1794 -0.2968,0.3633 -0.1322,0.2267 -0.1888,0.4184 -0.1758,0.5703 0.013,0.152 0.081,0.269 0.2305,0.3867 0.5661,0.4472 2.0439,1.2296 3.5722,1.9336 1.5282,0.704 2.9604,1.0903 3.7656,1.2715 0.9793,0.2207 2.509,0.4945 3.1817,0.3125 l 1.1445,-0.3106 -0.7988,-0.9238 c -0.2431,-0.2815 -0.4861,-0.5418 -0.6777,-0.7324 -0.096,-0.095 -0.1793,-0.1736 -0.2403,-0.2266 -0.031,-0.026 -0.057,-0.047 -0.074,-0.059 -0.026,-0.02 -0.039,-0.01 -0.014,-0.01 -0.037,-0.01 -0.3379,-0.065 -0.7656,-0.1406 -0.4273,-0.077 -0.9912,-0.1756 -1.5898,-0.2812 -1.2149,-0.214 -3.3345,-0.8495 -4.7403,-1.42 -1.0655,-0.4324 -1.6881,-0.6758 -2.0605,-0.7558 -0.1162,-0.024 -0.2068,-0.034 -0.2793,-0.029 z m -2.711,2.4336 -0.1914,0.045 c -0.1323,0.061 -0.2754,0.2274 -0.1484,0.3398 1.0358,1.3738 4.3238,2.0588 6.8105,2.9825 2.0213,0.488 3.6609,0.6495 4.584,0.5703 l 0.8575,0.019 c 0.037,-0.2189 -0.034,-0.073 -0.1407,-0.2422 -0.3079,-0.4909 -1.8383,-0.8545 -2.5058,-0.9356 l -8.3457,-2.5332 -0.4649,-0.125 -0.4551,-0.1211 z m 13.293,0.1875 0.6953,0.8613 c 0.4206,0.5196 0.6481,0.7881 0.6641,1.0293 0.01,0.1207 -0.052,0.2207 -0.1543,0.3067 -0.1017,0.086 -0.2454,0.1676 -0.4336,0.2714 l -0.625,0.3458 1.5254,0.6113 c 0.9468,0.3804 2.3266,0.6976 3.1406,0.7246 1.6801,0.054 4.0323,-0.446 5.4688,-1.1641 l 0.8242,-0.4121 -1.584,-0.4726 c -0.9794,-0.2924 -2.7378,-0.6422 -3.8828,-0.7715 -1.1665,-0.1318 -2.9605,-0.5003 -4.0137,-0.8262 l -1.625,-0.5039 z"
           id="path4532" />
        <path
           inkscape:connector-curvature="0"
           style="color:#000000;font-style:normal;font-variant:normal;font-weight:normal;font-stretch:normal;font-size:medium;line-height:normal;font-family:sans-serif;text-indent:0;text-align:start;text-decoration:none;text-decoration-line:none;text-decoration-style:solid;text-decoration-color:#000000;letter-spacing:normal;word-spacing:normal;text-transform:none;direction:ltr;block-progression:tb;writing-mode:lr-tb;baseline-shift:baseline;text-anchor:start;clip-rule:nonzero;display:inline;overflow:visible;visibility:visible;opacity:1;isolation:auto;mix-blend-mode:normal;color-interpolation:sRGB;color-interpolation-filters:linearRGB;solid-color:#000000;solid-opacity:1;fill:#000000;fill-opacity:1;fill-rule:nonzero;stroke:none;stroke-width:1;stroke-linecap:butt;stroke-linejoin:miter;stroke-miterlimit:4;stroke-dasharray:none;stroke-dashoffset:0;stroke-opacity:1;color-rendering:auto;image-rendering:auto;shape-rendering:auto;text-rendering:auto;enable-background:accumulate"
           d="m 1003.611,980.59889 0,0.004 c 0,0 0,0 0,0 2e-4,-7.6e-4 -3e-4,-0.003 0,-0.004 z m 0,0.004 c -0.012,0.0382 -0.016,0.10451 -0.012,0.19532 0.013,0.18365 0.069,0.46015 0.1699,0.81836 0.2029,0.71621 0.5829,1.77046 1.1328,3.18359 1.4017,3.60148 2.2666,5.12898 3.6387,6.45508 2.5079,2.4241 8.1358,5.04968 16.3027,7.58008 1.915,0.5933 3.7838,1.13158 5.252,1.52148 0.7342,0.195 1.3676,0.3524 1.8554,0.4609 0.4877,0.1084 0.847,0.1664 0.961,0.1661 l 0.8164,0 -1.961,-2.72075 c -1.9799,-2.7468 -2.3138,-2.98347 -5.7343,-4.04297 -2.025,-0.6274 -4.5077,-1.59667 -5.5508,-2.17187 -1.0204,-0.5627 -2.8647,-1.52768 -4.0938,-2.14258 -3.1338,-1.5679 -8.9291,-5.64452 -10.832,-7.625 -0.5556,-0.57831 -1.0051,-1.01725 -1.3457,-1.30274 -0.1702,-0.14278 -0.314,-0.24737 -0.4258,-0.31054 -0.098,-0.0557 -0.1574,-0.0618 -0.1738,-0.0645 z m -0.1426,9.91211 c 0.032,0.1193 0.083,0.27697 0.166,0.47657 0.1774,0.4331 0.4603,1.02211 0.7969,1.66601 0.673,1.2877 1.5615,2.79738 2.25,3.73828 1.769,2.417 3.8504,4.11684 6.5254,5.33204 1.4146,0.6427 5.4627,1.5656 9.2988,2.2422 1.9179,0.3383 3.7873,0.6167 5.2578,0.7754 0.7353,0.079 1.3704,0.1289 1.8594,0.1406 0.2444,0.01 0.4527,-7e-4 0.6152,-0.012 0.1345,-0.011 0.2138,-0.03 0.2715,-0.047 0,-0.027 5e-4,-0.062 -0.02,-0.1133 -0.041,-0.1302 -0.1381,-0.3096 -0.2774,-0.4941 -0.1151,-0.1531 -0.1973,-0.2856 -0.2285,-0.4238 -0.032,-0.1381 0,-0.2934 0.1094,-0.4278 0.2169,-0.2678 0.6329,-0.458 1.3457,-0.7597 l 1.2344,-0.5235 -1.9883,-0.3594 c -3.8402,-0.696 -11.6483,-3.34202 -15.7031,-5.31832 -4.0475,-1.9728 -5.945,-2.92131 -6.9297,-3.54101 -0.2431,-0.1124 -0.5824,-0.27516 -0.8652,-0.41016 -0.1415,-0.068 -0.2696,-0.12778 -0.3633,-0.17188 -0.046,-0.022 -0.084,-0.0397 -0.1114,-0.0527 -0.013,-0.01 -0.026,-0.0107 -0.033,-0.0137 -0.013,-10e-4 -0.027,-0.0104 0.014,0 -0.066,-0.014 -0.1242,-0.0411 -0.2148,-0.0801 -0.089,-0.039 -0.1952,-0.0884 -0.3008,-0.13867 -0.2115,-0.1006 -0.4231,-0.20688 -0.4883,-0.23828 l 0,0 c -0.2407,-0.1182 -0.4993,-0.25494 -0.7774,-0.42774 -0.4279,-0.266 -0.8321,-0.50191 -1.1367,-0.66601 -0.123,-0.067 -0.2164,-0.11245 -0.3008,-0.15235 l 0,0 z m 28.002,4.5 0,0.002 c -0.041,0.008 -0.06,0.0173 -0.06,0.0176 l 0,0.0137 c 0,0.0182 -0.013,0.0622 0,0.11718 0.014,0.1132 0.071,0.28009 0.1445,0.48828 0.2084,0.5927 0.9494,1.70066 1.625,2.41016 0.3463,0.3635 0.6837,0.77122 0.9551,1.13672 0.2717,0.3655 0.4748,0.68028 0.5488,0.89646 0.1811,0.529 1.1454,1.0878 2.5879,1.4785 1.4428,0.3908 3.3513,0.6287 5.3887,0.6387 2.0659,0.01 3.6443,0.1919 4.7031,0.5488 0.5294,0.1785 0.93,0.4022 1.1914,0.6739 0.2613,0.2718 0.3819,0.5962 0.3379,0.9609 -0.017,0.1417 -0.016,0.2459 0,0.2969 0.019,0.052 0.02,0.04 0.02,0.041 0,0 0.067,-0.01 0.1738,-0.07 0.1058,-0.059 0.249,-0.1565 0.4297,-0.291 0.086,-0.064 0.1605,-0.1163 0.2305,-0.1543 0.07,-0.038 0.1377,-0.07 0.2227,-0.07 0.084,-7e-4 0.1647,0.066 0.1777,0.1308 0.014,0.064 -4e-4,0.1233 -0.025,0.1953 -0.093,0.2887 -0.3802,0.7828 -0.8789,1.5547 -0.4181,0.6471 -0.7954,1.1546 -1.1113,1.5196 -0.3158,0.3651 -0.5513,0.5947 -0.8008,0.6797 -0.1249,0.043 -0.2749,0.015 -0.3379,-0.07 -0.059,-0.086 -0.072,-0.1954 -0.059,-0.3379 0.025,-0.2849 0.1548,-0.708 0.4023,-1.2989 0.2556,-0.6123 0.3802,-1.1101 0.3672,-1.5078 -0.014,-0.3978 -0.1618,-0.6988 -0.4785,-0.9453 -0.6337,-0.4932 -1.98,-0.7408 -4.2207,-0.8398 -2.1341,-0.094 -4.6001,-0.3241 -5.5273,-0.5196 -0.9258,-0.1953 -2.5334,-0.01 -3.8516,0.336 -0.6593,0.1727 -1.2506,0.3871 -1.6406,0.5976 -0.1951,0.1052 -0.3391,0.21 -0.4141,0.295 -0.073,0.085 -0.092,0.1342 -0.072,0.1992 0.02,0.061 0.1523,0.1944 0.3867,0.3301 0.2342,0.1357 0.5663,0.2835 0.9668,0.4375 0.8014,0.308 1.8856,0.6391 3.0742,0.9414 2.3773,0.6045 5.1801,1.1025 6.9765,1.1445 l 3.5547,0.08 0.377,2.0215 c 0.1006,0.5346 0.1767,1.047 0.2207,1.4453 0.021,0.1991 0.041,0.3678 0.041,0.5 l 0,0.1719 c 0,0.048 0,0.081 -0.037,0.1406 -0.034,0.064 -0.094,0.1039 -0.1445,0.1269 -0.051,0.023 -0.1004,0.033 -0.1504,0.043 -0.1029,0.02 -0.2195,0.02 -0.3574,0.01 -0.276,-0.014 -0.6287,-0.067 -1,-0.1562 l -0.9415,-0.2246 0.6153,1.082 c 0.2358,0.4141 0.3973,0.7474 0.4863,0.9981 0.045,0.1253 0.069,0.2303 0.082,0.3203 0.014,0.089 0.016,0.1716 -0.066,0.2676 -0.041,0.048 -0.1138,0.086 -0.1718,0.096 -0.059,0.01 -0.1006,0 -0.1446,-0.01 -0.087,-0.023 -0.1676,-0.071 -0.2656,-0.1386 -0.1947,-0.1365 -0.4425,-0.3659 -0.75,-0.6973 -0.3172,-0.3419 -0.7701,-0.5616 -1.6113,-0.6953 -0.8414,-0.1332 -2.0638,-0.1742 -3.8867,-0.1563 -1.304,0.013 -2.6149,-0.021 -3.6778,-0.086 -1.0629,-0.065 -1.8608,-0.1523 -2.2129,-0.2812 -0.7627,-0.2791 -1.6733,-0.1244 -3.4297,0.6191 l -2.1503,0.9102 1.2578,0.6582 c 1.4877,0.7755 4.8912,1.1475 7.9629,1.1035 1.5359,-0.022 2.9928,-0.1451 4.0878,-0.3633 0.5475,-0.1092 1.0055,-0.2441 1.3282,-0.3925 0.3228,-0.1485 0.4911,-0.301 0.5371,-0.4434 0.037,-0.1109 0.091,-0.2062 0.1777,-0.2832 0.088,-0.077 0.2126,-0.1213 0.3184,-0.1113 0.2119,0.013 0.3889,0.1419 0.5937,0.3554 0.6126,0.6389 1.4174,1.1434 2.1914,1.4317 0.7739,0.2885 1.5163,0.3474 1.9688,0.1601 0.6684,-0.2771 1.8251,-0.3543 2.6816,-0.207 l 1.5,0.2559 -0.057,0.2675 -1.3223,0.2793 c -0.3709,0.08 -0.7732,0.1418 -1.1269,0.1778 -0.3537,0.036 -0.6533,0.05 -0.8477,0.023 -0.044,-0.01 -0.1897,0 -0.3848,0.025 -0.1953,0.027 -0.4463,0.075 -0.7304,0.1347 -0.5681,0.1208 -1.2751,0.2971 -1.9785,0.504 l -2.1504,0.6347 0.914,0.336 c 0.5123,0.187 0.8781,0.2479 1.2969,0.1679 0.4188,-0.08 0.913,-0.3097 1.6543,-0.7383 0.5387,-0.3113 0.9856,-0.5265 1.3047,-0.6347 0.1596,-0.054 0.2852,-0.088 0.4043,-0.074 0.06,0.01 0.1242,0.033 0.1562,0.086 0.032,0.053 0.026,0.1188 0.012,0.1758 -0.032,0.096 -0.011,0.1317 0.074,0.1777 0.084,0.046 0.2495,0.078 0.4746,0.068 0.4504,-0.019 1.1252,-0.1837 1.8398,-0.4863 0.2403,-0.1017 0.4208,-0.1768 0.5645,-0.2168 0.072,-0.025 0.134,-0.035 0.207,-0.025 0.073,0.01 0.1394,0.076 0.1524,0.1426 0.015,0.1348 -0.061,0.2411 -0.1719,0.4179 -0.1099,0.1765 -0.2719,0.4104 -0.4883,0.7168 l -0.6719,0.9492 1.2676,-0.5254 1.5117,-0.6269 a 16.970562,16.970562 0 0 1 -1.2441,-5.5488 c -1.5502,-1.3546 -1.5023,-3.6421 0.1367,-6.4082 0.5332,-0.9 0.8265,-1.4749 0.8965,-1.75 0.018,-0.068 0.018,-0.1196 0.018,-0.1446 0,-0.023 -0.012,-0.023 -0.012,-0.023 0,0 -0.071,-0.01 -0.2207,0.049 -0.164,0.062 -0.2801,0.097 -0.3925,0.1075 -0.057,0 -0.1279,0 -0.1739,-0.053 -0.047,-0.05 -0.038,-0.1238 -0.018,-0.1758 0.04,-0.1041 0.116,-0.1894 0.2324,-0.3125 0.1166,-0.123 0.2759,-0.2739 0.4804,-0.4571 0.9321,-0.8347 1.5249,-1.5111 1.8301,-2.1113 0.3054,-0.6002 0.339,-1.12914 0.1446,-1.71874 -0.2364,-0.7163 -0.7196,-1.17483 -1.5606,-1.42383 -0.8409,-0.24899 -2.0489,-0.27851 -3.709,-0.10351 -3.5505,0.3745 -10.0871,-0.34731 -15.1894,-1.66211 -1.0941,-0.2819 -1.8924,-0.48458 -2.4649,-0.60938 -0.5715,-0.12469 -0.9311,-0.16167 -1.0722,-0.13867 z m -26.7383,5.082 0,0.01 0,0 c 0,0 0,-0.01 0,-0.01 z m 0,0.01 c 0.039,0.073 0.072,0.1386 0.1621,0.2637 0.1345,0.1866 0.3185,0.4199 0.5371,0.6836 0.4373,0.5275 1.0173,1.1801 1.6387,1.8496 1.2424,1.339 2.6572,2.7487 3.4316,3.3613 1.9009,1.504 3.7963,2.1378 8.0899,2.6934 1.3001,0.1682 3.6985,0.3697 5.3144,0.4473 1.3812,0.066 2.1286,0.078 2.457,0 0.1641,-0.041 0.1991,-0.072 0.2364,-0.1465 0.037,-0.074 0.054,-0.2182 0.053,-0.42 0,-0.3787 0.1407,-0.7169 0.5195,-1.0214 0.3785,-0.3044 0.9698,-0.5922 1.9102,-0.9903 l 1.832,-0.7754 -3.8144,-0.3906 c -5.2251,-0.5339 -12.6156,-2.2306 -15.8282,-3.6406 -1.0438,-0.458 -2.6452,-0.9851 -4.0312,-1.3711 -0.6929,-0.1929 -1.3333,-0.3507 -1.8223,-0.4473 -0.2444,-0.048 -0.4506,-0.081 -0.6035,-0.096 l -0.082,0 z m 28.5039,6.5235 c -0.1937,0 -0.3846,0.025 -0.5859,0.062 l -0.01,0 c -0.627,0.1163 -1.3655,0.3985 -2.5371,0.8945 -1.335,0.5651 -2.0602,0.9032 -2.3106,1.1016 -0.063,0.05 -0.091,0.085 -0.1035,0.1074 -0.013,0.022 -0.013,0.033 0,0.059 0.016,0.053 0.1061,0.1505 0.2637,0.2656 0.6073,0.4428 1.8916,0.8642 3.4629,1.2031 1.5711,0.3391 3.432,0.601 5.2168,0.7539 1.785,0.1529 3.4939,0.1968 4.7519,0.1016 0.629,-0.047 1.147,-0.1311 1.4903,-0.2441 0.1715,-0.056 0.2985,-0.1219 0.3711,-0.1797 0.073,-0.058 0.095,-0.097 0.1,-0.1602 0.013,-0.1252 0.034,-0.234 0.1,-0.3359 0.066,-0.1018 0.184,-0.1854 0.3086,-0.2207 0.2493,-0.071 0.5309,-0.023 0.9492,0.082 0.2496,0.063 0.4425,0.1064 0.582,0.125 0.1397,0.019 0.2205,0.01 0.2442,0 0.024,-0.01 0.035,-0.017 0.064,-0.096 0.029,-0.079 0.052,-0.213 0.072,-0.3907 0.04,-0.3405 0.054,-0.5908 0,-0.7734 -0.053,-0.1826 -0.1632,-0.3096 -0.4121,-0.4238 -0.4981,-0.2284 -1.5568,-0.358 -3.5664,-0.5547 -2.1785,-0.2131 -5.0259,-0.6706 -6.3594,-1.0215 -0.9174,-0.2414 -1.5147,-0.3663 -2.0957,-0.3516 z m -26.9492,0.9277 c -0.049,0.021 -0.07,0.039 -0.09,0.072 -0.02,0.033 -0.037,0.088 -0.035,0.168 0,0.16 0.082,0.4044 0.248,0.7109 0.3324,0.6127 1.003,1.48 2.002,2.584 2.5505,2.8184 6.9912,4.2257 12.5761,3.9688 2.9592,-0.1359 4.554,-0.2349 5.3047,-0.418 0.1876,-0.046 0.32,-0.096 0.4024,-0.1445 0.082,-0.048 0.1126,-0.084 0.1347,-0.1329 0.044,-0.097 0.017,-0.2866 -0.082,-0.5488 -0.057,-0.1463 -0.073,-0.2751 -0.086,-0.4043 l -0.057,-0.027 0.047,-0.02 c 0,-0.022 -0.018,-0.046 -0.018,-0.068 0,-0.1639 0.058,-0.329 0.166,-0.4805 0.2187,-0.3034 0.622,-0.5533 1.2696,-0.8867 0.424,-0.2183 0.799,-0.4472 1.0547,-0.6347 0.1283,-0.094 0.2266,-0.1776 0.2812,-0.2364 0.014,-0.016 0.018,-0.021 0.025,-0.031 -0.036,-0.014 -0.09,-0.032 -0.166,-0.049 -0.1542,-0.035 -0.3801,-0.07 -0.6563,-0.1015 -0.5527,-0.062 -1.3078,-0.1111 -2.1269,-0.1309 -4.3452,-0.1052 -9.4172,-0.8391 -15.0215,-2.1719 -1.3464,-0.3201 -2.6141,-0.5936 -3.5684,-0.7753 -0.4771,-0.091 -0.8762,-0.1579 -1.166,-0.1973 -0.1448,-0.02 -0.2625,-0.032 -0.3457,-0.037 l -0.094,0 0,-0.01 z m 35.9863,7.9922 c -0.5796,-0.01 -1.2891,0.05 -2.0156,0.1758 -2.9452,0.5116 -5.819,0.5901 -8.1231,0.2168 -0.7735,-0.1253 -1.3433,-0.1526 -1.7968,-0.062 l 0,0 c -0.1513,0.029 -0.2889,0.072 -0.4199,0.1289 -0.408,0.1745 -0.758,0.4858 -1.1582,0.9941 -0.1623,0.2061 -0.2774,0.3615 -0.3321,0.4688 -0.056,0.1073 -0.06,0.1503 -0.017,0.2109 0.082,0.1219 0.4635,0.2795 1.2363,0.5371 0.8335,0.2779 3.1136,0.4878 5.0019,0.4453 1.9445,-0.044 3.6686,-0.2228 4.8672,-0.4726 0.5992,-0.1249 1.0689,-0.2691 1.3555,-0.4121 0.1433,-0.072 0.238,-0.1413 0.2832,-0.1954 0.045,-0.054 0.053,-0.087 0.035,-0.1425 -0.032,-0.096 -0.02,-0.2091 0.045,-0.3106 0.065,-0.1014 0.1695,-0.1851 0.3027,-0.2617 0.266,-0.1531 0.6631,-0.2872 1.2305,-0.4336 0.3809,-0.098 0.6669,-0.1745 0.8652,-0.2383 0.1886,-0.061 0.2812,-0.1169 0.293,-0.125 0,-0.01 -0.014,-0.024 -0.039,-0.051 -0.065,-0.063 -0.2016,-0.1529 -0.3886,-0.2676 -0.191,-0.1173 -0.6431,-0.1976 -1.2227,-0.205 z m -27.5488,0.3613 c -1.6527,0.025 -2.5413,0.052 -2.8965,0.127 l 0,0 c -0.052,0.012 -0.091,0.021 -0.1152,0.031 l 0,0 c -0.04,0.016 -0.04,0.022 -0.037,0.018 l 0,0.027 c 0.016,0.052 0.092,0.1557 0.2051,0.2832 2.9182,3.2647 7.4101,4.3404 13.4903,3.2265 1.5285,-0.2805 2.496,-0.4971 2.9375,-0.6621 0.1111,-0.041 0.1862,-0.08 0.2226,-0.1054 0.036,-0.025 0.023,-0.019 0.023,-0.01 10e-5,0.01 10e-5,-0.01 -0.045,-0.035 -0.044,-0.026 -0.1205,-0.058 -0.2246,-0.088 -0.5365,-0.1561 -0.8359,-0.4301 -0.8359,-0.7969 0,-0.3667 0.2886,-0.7886 0.8183,-1.2422 0.2293,-0.1965 0.3934,-0.3493 0.4434,-0.4258 0.025,-0.038 0.021,-0.044 0.02,-0.047 0,0 -0.017,-0.021 -0.076,-0.039 -0.123,-0.035 -0.4017,-0.053 -0.8457,-0.049 -0.4441,0 -1.0567,0.027 -1.8672,0.059 -1.8434,0.073 -4.3184,0.031 -5.5293,-0.096 -1.1803,-0.1241 -3.7508,-0.2047 -5.6875,-0.1758 z m 34.8515,1.6465 c -0.086,-0.011 -0.2065,-0.01 -0.3711,0.018 -0.6584,0.1023 -1.9028,0.5487 -3.791,1.3574 l -2.6523,1.1348 1.375,0.2305 c 0.7922,0.164 1.8183,-0.1037 3.0234,-0.5606 0.6026,-0.2283 1.1713,-0.5059 1.6172,-0.7949 0.4458,-0.289 0.7629,-0.5913 0.8867,-0.8477 0.1257,-0.2605 0.1307,-0.4028 0.078,-0.4668 -0.026,-0.032 -0.08,-0.059 -0.1661,-0.07 z m 4.3086,0.1641 -1.8398,1.8281 -0.5098,1.3828 2.3516,-1.3711 0.6465,-0.4766 a 16.970562,16.970562 0 0 1 -0.6485,-1.3632 z m -10.625,0.871 c -0.3397,-0.028 -1.2374,0.097 -2.4511,0.4083 -1.4268,0.3653 -3.999,0.6721 -5.7559,0.6894 -1.3808,0.014 -2.1787,0.038 -2.7441,0.1484 l 0,0 c -0.1884,0.036 -0.35,0.083 -0.502,0.1407 -0.3639,0.1391 -0.6751,0.3516 -1.123,0.6914 l -1.1348,0.8594 0.9766,0.3339 c 0.5885,0.2021 2.1704,0.3597 3.459,0.3301 1.2764,-0.029 3.3608,-0.4919 5.082,-1.0332 0.8605,-0.2707 1.6322,-0.5615 2.166,-0.8223 0.2668,-0.1304 0.4751,-0.2545 0.5977,-0.3554 0.062,-0.051 0.1,-0.095 0.1172,-0.125 0.019,-0.031 0.018,-0.044 0.014,-0.062 -0.048,-0.1438 0.039,-0.3114 0.1778,-0.4551 0.1375,-0.1436 0.3367,-0.2749 0.5683,-0.3731 0.389,-0.1645 0.6,-0.3016 0.6524,-0.3535 -0.017,-0.01 -0.034,-0.016 -0.098,-0.021 z m 8.5782,0.3067 -3.4141,1.6328 c -1.008,0.4823 -1.7961,0.8797 -2.3711,1.1992 -0.5751,0.3196 -0.9414,0.5715 -1.0762,0.7149 -0.067,0.072 -0.062,0.09 -0.062,0.084 0,-0.01 0.013,0.026 0.1035,0.053 0.178,0.055 0.5795,0.073 1.1582,0.043 2.0456,-0.1072 4.011,-1.1854 5.0059,-2.7149 l 0.6563,-1.0117 z m -21.0137,0.8887 -3.0723,0.5566 c -1.9067,0.3445 -4.3929,0.632 -5.5723,0.6406 -1.3476,0.01 -3.2223,0.1986 -4.7148,0.4317 -0.2251,0.036 -0.4404,0.07 -0.6426,0.1074 -0.6106,0.1093 -1.1196,0.2236 -1.4277,0.3242 -0.123,0.04 -0.2132,0.08 -0.2559,0.1055 0.029,0.053 0.1035,0.1349 0.2481,0.2305 0.1575,0.1036 0.3764,0.2183 0.6406,0.3398 0.5287,0.243 1.236,0.508 2.002,0.7539 1.5322,0.4919 3.3089,0.9086 4.3203,0.9473 1.3989,0.054 3.4048,-0.244 5.3242,-0.7989 l 2.7305,-0.791 -0.7969,-0.2656 c -0.2729,-0.091 -0.4815,-0.1611 -0.6289,-0.2402 -0.1478,-0.079 -0.2453,-0.1842 -0.2266,-0.3242 0.019,-0.1399 0.1289,-0.2779 0.3008,-0.4512 0.1718,-0.1731 0.4161,-0.3856 0.7383,-0.666 l 1.0332,-0.9004 z m 23.6367,0.1367 c -0.056,-0.01 -0.1419,0.01 -0.2813,0.06 -0.139,0.053 -0.3226,0.1457 -0.5429,0.2793 -0.4398,0.267 -1.0532,0.5533 -1.8145,1.1543 -1.7777,0.9477 -3.812,2.4062 -9.3008,4.7226 -0.6374,0.269 -1.5655,0.6043 -2.0996,0.8008 -0.2669,0.098 -0.4988,0.1901 -0.6777,0.2676 -0.1791,0.077 -0.3078,0.1451 -0.3477,0.1738 -0.1044,0.075 -0.1572,0.1323 -0.1679,0.168 -0.016,0.034 -0.017,0.045 0.016,0.064 0.055,0.036 0.2802,0.067 0.6348,0.041 0.7094,-0.052 1.9056,-0.2871 3.2793,-0.6855 1.4907,-0.4324 4.5987,-1.7115 5.7539,-2.2696 1.2772,-0.6467 2.1917,-1.244 3.4375,-2.2578 0.7107,-0.5622 1.3419,-1.1032 1.7715,-1.5273 0.2149,-0.212 0.2837,-0.5388 0.3808,-0.6758 0.098,-0.137 0.1077,-0.2231 0.1,-0.2324 -0.032,-0.041 -0.068,-0.064 -0.1054,-0.076 l 0,0 c -0.013,0 -0.021,2e-4 -0.033,-0.01 z m 0.5996,0.08 c -0.095,0.2028 -0.1658,0.3794 -0.1875,0.4922 -0.017,0.086 -0.013,0.143 0,0.166 0.01,0.021 0.01,0.022 0.023,0.022 0.029,0 0.1893,-0.042 0.4239,-0.207 0.01,-0.01 0.019,-0.016 0.027,-0.021 a 16.970562,16.970562 0 0 1 -0.2871,-0.4512 z m -12.0586,0.7402 c -0.072,0 -0.1631,0 -0.2793,0.029 -0.3724,0.08 -0.995,0.3235 -2.0605,0.7559 -1.4058,0.5705 -3.5254,1.2059 -4.7403,1.4199 -0.5986,0.1056 -1.1645,0.2048 -1.5918,0.2813 -0.4277,0.076 -0.7263,0.1328 -0.7636,0.1406 0.025,0 0.012,-0.01 -0.014,0.01 -0.017,0.012 -0.043,0.033 -0.074,0.059 -0.061,0.053 -0.1465,0.1311 -0.2422,0.2265 -0.1916,0.1906 -0.4327,0.451 -0.6758,0.7325 l -0.7988,0.9238 1.1445,0.3105 c 0.6727,0.182 2.2024,-0.092 3.1817,-0.3125 0.8052,-0.1812 2.2354,-0.5674 3.7636,-1.2714 1.5283,-0.704 3.0081,-1.4864 3.5742,-1.9336 0.1493,-0.1177 0.2179,-0.2348 0.2305,-0.3868 0.013,-0.1519 -0.046,-0.3436 -0.1777,-0.5703 -0.1085,-0.1839 -0.1931,-0.304 -0.2949,-0.3632 -0.05,-0.029 -0.1077,-0.047 -0.1817,-0.051 z m 2.711,2.4336 -0.4571,0.1211 -0.4629,0.125 -8.3457,2.5332 c -0.6676,0.081 -2.1979,0.4447 -2.5058,0.9356 -0.107,0.1696 -0.1777,0.023 -0.1407,0.2421 l 0.8555,-0.019 c 0.9231,0.079 2.5647,-0.082 4.586,-0.5704 2.4866,-0.9237 5.7727,-1.6086 6.8085,-2.9824 0.127,-0.1124 -0.014,-0.2788 -0.1464,-0.3398 l -0.1914,-0.045 z m -13.293,0.1875 -1.625,0.5039 c -1.0532,0.3259 -2.8472,0.6944 -4.0137,0.8262 -1.145,0.1293 -2.9035,0.4791 -3.8828,0.7715 l -1.5859,0.4726 0.8261,0.4122 c 1.4365,0.7181 3.7867,1.2184 5.4668,1.164 0.814,-0.027 2.1959,-0.3442 3.1426,-0.7246 l 1.5254,-0.6113 -0.625,-0.3457 c -0.1882,-0.1038 -0.3319,-0.1853 -0.4336,-0.2715 -0.1019,-0.086 -0.1616,-0.1859 -0.1543,-0.3067 0.016,-0.2411 0.2415,-0.5096 0.6621,-1.0292 l 0.6973,-0.8614 z"
           id="path4534" />
      </g>
    </g>
    <text
       xml:space="preserve"
       style="font-style:normal;font-weight:normal;font-size:40px;line-height:125%;font-family:sans-serif;letter-spacing:0px;word-spacing:0px;fill:#000000;fill-opacity:1;stroke:none;stroke-width:1px;stroke-linecap:butt;stroke-linejoin:miter;stroke-opacity:1"
       x="397.32104"
       y="636.46716"
       id="text4503-0-1-0-2-72-2-87-4-2"
       sodipodi:linespacing="125%"><tspan
         sodipodi:role="line"
         id="tspan4505-9-1-1-1-9-5-0-2-0"
         x="397.32104"
         y="636.46716"
         style="font-style:normal;font-variant:normal;font-weight:normal;font-stretch:normal;font-size:13.75px;font-family:'Roboto Condensed';-inkscape-font-specification:'Roboto Condensed, ';text-align:center;text-anchor:middle">Civil Fleet</tspan></text>
    <path
       inkscape:connector-curvature="0"
       style="opacity:1;fill:#000000;fill-opacity:1;stroke:none;stroke-width:1;stroke-linecap:square;stroke-linejoin:miter;stroke-miterlimit:4;stroke-dasharray:none;stroke-opacity:1"
       d="m 394.46605,472.90421 0,16.81331 c -4.8595,0.3784 -9.47001,1.65633 -13.6662,3.66688 l -4.01217,-6.95107 -5.26513,3.03927 4.01965,6.96154 c -3.91044,2.69572 -7.30375,6.08874 -9.99934,9.99932 l -14.57615,-8.41603 -3.03926,5.2644 14.56645,8.40925 c -2.01054,4.19657 -3.28787,8.80718 -3.66615,13.66705 l -8.02206,0 0,6.07839 8.02206,0 c 0.37844,4.85824 1.65572,9.46803 3.66538,13.6632 l -14.56568,8.41012 3.03926,5.26438 14.57543,-8.41606 c 2.69543,3.91058 6.08893,7.3037 9.99929,9.99933 l -4.01888,6.96233 5.26513,3.0392 4.01294,-6.95175 c 4.19598,2.01024 8.80619,3.28845 13.66543,3.6669 l 0,16.81396 6.07926,0 0,-16.81396 c 4.85839,-0.37856 9.46853,-1.65642 13.66394,-3.6662 l 4.01366,6.95105 5.26443,-3.04002 -4.0189,-6.96081 c 3.91038,-2.69541 7.30365,-6.08829 9.9993,-9.99851 l 14.5769,8.41604 3.03927,-5.26448 -14.5672,-8.41 c 2.01021,-4.19552 3.28913,-8.8059 3.66765,-13.66472 l 8.02057,0 0,-6.07839 -8.02057,0 c -0.37828,-4.85929 -1.65664,-9.46944 -3.66688,-13.66554 l 14.56643,-8.41076 -3.03927,-5.2644 -14.5769,8.41603 c -2.6958,-3.91077 -6.08926,-7.30355 -10.00007,-9.99932 l 4.01967,-6.96154 -5.26443,-3.03927 -4.01366,6.95031 c -4.19541,-2.0099 -8.80555,-3.28764 -13.66394,-3.66612 l 0,-16.81331 -6.07926,0 z m 3.03999,25.2398 c 16.67192,0 30.25184,13.57986 30.25184,30.2518 0,16.67193 -13.57992,30.25186 -30.25184,30.25186 -16.67198,0 -30.25252,-13.57993 -30.25252,-30.25186 0,-16.67194 13.58054,-30.2518 30.25252,-30.2518 z m 0,6.05828 c -5.52424,0 -10.60388,1.8384 -14.66904,4.93494 l 7.35552,7.35544 c 2.13203,-1.31903 4.63778,-2.08363 7.31278,-2.08363 2.67526,0 5.18128,0.76448 7.31358,2.08363 l 7.35471,-7.35544 c -4.06505,-3.09632 -9.14354,-4.93494 -14.66755,-4.93494 z m 19.25866,9.5245 -7.35548,7.35545 c 1.31894,2.13213 2.08283,4.63876 2.08283,7.31357 0,2.67505 -0.76446,5.18063 -2.08359,7.31275 l 7.35624,7.35627 c 3.0966,-4.06514 4.93486,-9.14459 4.93486,-14.66902 0,-5.52444 -1.83826,-10.60388 -4.93486,-14.66902 z m -38.51727,0 c -3.09645,4.06514 -4.93563,9.144 -4.93563,14.66821 0,5.52431 1.83918,10.60318 4.93563,14.66832 l 7.35547,-7.35545 c -1.31899,-2.13225 -2.08433,-4.63782 -2.08433,-7.31287 0,-2.67482 0.76475,-5.18145 2.08361,-7.31347 l -7.35475,-7.35474 z m 19.25787,7.17645 c -4.17833,0 -7.49554,3.31717 -7.49554,7.4956 0,4.1783 3.31716,7.49628 7.49554,7.49628 4.17837,0 7.4963,-3.31798 7.4963,-7.49628 0,-4.17843 -3.31793,-7.4956 -7.4963,-7.4956 z m 7.31282,19.39489 c -2.13226,1.31915 -4.63782,2.08363 -7.31282,2.08363 -2.67488,0 -5.18075,-0.76389 -7.31278,-2.08281 l -7.35552,7.35476 c 4.06516,3.09641 9.14477,4.93557 14.66904,4.93557 5.52405,0 10.6025,-1.83928 14.66755,-4.93557 l -7.35547,-7.35558 z"
       id="path4846" />
    <text
       xml:space="preserve"
       style="font-style:normal;font-weight:normal;font-size:40px;line-height:125%;font-family:sans-serif;letter-spacing:0px;word-spacing:0px;fill:#000000;fill-opacity:1;stroke:none;stroke-width:1px;stroke-linecap:butt;stroke-linejoin:miter;stroke-opacity:1"
       x="605.84027"
       y="636.46716"
       id="text4503-0-1-0-2-72-2-87-4-2-2"
       sodipodi:linespacing="125%"><tspan
         sodipodi:role="line"
         id="tspan4505-9-1-1-1-9-5-0-2-0-4"
         x="605.84027"
         y="636.46716"
         style="font-style:normal;font-variant:normal;font-weight:normal;font-stretch:normal;font-size:13.75px;font-family:'Roboto Condensed';-inkscape-font-specification:'Roboto Condensed, ';text-align:center;text-anchor:middle">Merchant Fleet</tspan></text>
    <g
       id="g4575"
       transform="matrix(1.2422858,0,0,1.2422858,-325.34896,-274.47071)">
      <path
         sodipodi:nodetypes="csssccssscsscccssscccscccccsccssscccccccccsssssccssccccscsscscccccscscsccssccsccc"
         id="path4854"
         style="fill:#000000;fill-opacity:1;fill-rule:evenodd;stroke:none;stroke-width:1px;stroke-linecap:butt;stroke-linejoin:miter;stroke-opacity:1"
         d="m 928.91414,589.28981 c -3.65941,0.20795 -7.04591,1.02264 -9.72507,3.34368 -2.7939,2.42038 -3.51717,4.34746 -3.75759,9.15822 -0.23059,4.61414 -0.54715,6.08272 0.18728,8.35355 0.51427,1.59016 0.61225,1.72331 0.63985,0.86808 0.0179,-0.55544 0.32361,-1.85657 0.67947,-2.89083 0.49843,-1.44875 0.58241,-2.17122 0.36266,-3.14929 -0.3649,-1.62402 0.16633,-1.33818 0.6159,0.33139 0.27979,1.0391 0.22682,1.49496 -0.31056,2.67928 -0.41489,0.9144 -0.64985,2.1436 -0.65445,3.42025 -0.006,1.65938 -0.64259,2.33822 -1.31227,3.0608 -0.90033,0.97148 -0.85119,1.24618 0.60236,3.38897 0.90155,1.32906 1.56807,1.68618 3.90898,2.09781 0.60414,0.10621 2.48204,2.84547 2.16681,3.35553 -0.21335,0.34519 -0.008,0.80701 0.36266,1.07233 0.0471,0.1213 0.0791,0.22809 0.0791,0.30013 0,0.27836 0.28538,0.40955 0.63048,0.40955 0.3547,0 0.50752,-0.13571 0.50752,-0.4502 0,-0.67604 0.62433,-0.5421 0.74302,0.15945 0.0751,0.44421 0.3323,0.58034 0.73887,0.60964 0.43594,0.0314 0.60924,-0.0622 0.79304,-0.57004 0.29136,-0.80495 0.84933,-0.7269 0.84933,0.1188 0,0.37957 0.16605,0.61087 0.42312,0.65029 1.28797,0.0671 1.30144,0.14168 1.3933,-0.37934 0.0484,-0.27397 0.0978,-0.60015 0.21677,-0.71801 0.34444,-0.34105 0.72674,0.063 0.79409,0.67529 0.0208,0.57045 0.12033,0.47053 1.33288,0.40122 0.38615,-0.0563 0.53564,-0.18417 0.53564,-0.63257 0,-0.84323 0.55845,-0.91927 0.84934,-0.11568 0.1838,0.50782 0.35711,0.64211 0.79304,0.61069 0.40657,-0.0293 0.64704,-0.20608 0.72221,-0.65029 0.11869,-0.70155 0.74405,-0.83549 0.74405,-0.15945 0,0.31449 0.15283,0.4502 0.50752,0.4502 0.35919,0 0.63308,-0.1413 0.6409,-0.48252 0.002,-0.0639 0.0222,-0.14417 0.0532,-0.23237 0.034,-0.0968 0.0807,-0.20392 0.14172,-0.31576 -0.0612,0.11193 -0.10784,0.21891 -0.14172,0.31576 0.26502,-0.18066 0.39635,-0.42444 0.44082,-0.78055 0.0547,-0.43827 0.32421,-1.495 0.59818,-2.34789 0.45515,-1.41708 0.9877,-1.35132 1.93331,-1.35571 1.47428,-0.007 2.48026,-0.60967 3.71308,-2.22596 1.2121,-1.58921 1.39662,-2.84629 0.46164,-3.14305 -0.62823,-0.1994 -1.41849,-1.61667 -1.41849,-3.37657 0,-0.52781 -0.30407,-1.66523 -0.67531,-2.52818 -0.63506,-1.47624 -0.6439,-1.64234 -0.15839,-2.80432 0.62957,-1.50677 0.93511,-1.36572 0.495,0.22821 -0.25989,0.94125 -0.19728,1.43449 0.32827,2.59279 0.35705,0.78692 0.66539,1.94559 0.68571,2.57404 0.0343,1.0608 0.083,1.00253 0.6753,-0.81598 0.56902,-2.3555 0.3323,-8.51984 0.25011,-11.26323 -0.12999,-4.3384 -3.83938,-7.34684 -8.94973,-9.1579 -1.51068,-0.53538 -3.14677,-0.73455 -5.49301,-0.68026 z m -8.80124,18.94138 c 0.68231,-0.22832 2.14517,0.093 2.14517,0.093 1.15317,0.28228 2.59328,0.58042 3.27958,0.78313 0.88739,0.26211 1.32955,0.43758 1.55067,1.0192 0.45416,1.19447 0.38465,1.50017 -0.59503,2.62719 -0.74376,0.85558 -1.20534,1.06557 -2.69285,1.22032 -1.55537,0.1618 -2.01366,0.0653 -3.42337,-0.71908 -1.38047,-0.76807 -1.65667,-1.08546 -1.81953,-2.09047 -0.15675,-0.96728 -0.0332,-1.37914 0.6732,-2.24475 0,0 0.44952,-0.54376 0.88216,-0.68855 z m 18.02086,0.0779 c 0.25609,-0.008 0.60132,0.16294 0.83057,0.47106 1.00593,1.35204 1.23752,2.07063 1.02753,3.18993 -0.18802,1.00233 -0.39917,1.20387 -1.73201,1.65802 -0.83467,0.2844 -1.74781,0.49287 -2.03005,0.46269 -0.28224,-0.0303 -1.05356,-0.11276 -1.71323,-0.18238 -1.91392,-0.20198 -3.45742,-2.83004 -2.52303,-4.23933 0.25102,-0.37864 1.58184,-0.74422 3.32754,-1.05353 1.5503,-0.27468 2.34683,-0.293 2.81268,-0.30646 z m -8.1994,5.07306 c 0.4667,0.0418 0.68408,0.37606 1.23282,1.45897 1.53756,3.03421 0.69122,5.71635 -1.24948,3.96004 -0.59486,-0.53832 -0.64745,-0.53832 -1.0411,0 -0.59622,0.81539 -1.69417,0.72096 -1.93208,-0.16673 -0.36413,-1.35874 -0.21061,-2.30264 0.60131,-3.68806 0.61454,-1.04863 1.04903,-1.41288 1.81744,-1.52566 0.23242,-0.0342 0.41553,-0.0524 0.57109,-0.0386 z"
         inkscape:connector-curvature="0" />
      <path
         id="path4565"
         d="m 965.31249,586.72351 c -0.19328,0.0188 -0.60916,0.3043 -1.2793,0.85937 -2.9216,2.60169 -4.95241,7.72494 -3.84375,11.70899 -2.54566,-0.57086 -4.07829,-5.05787 -4.36718,-7.53907 -0.0195,-2.56114 -0.0858,-2.6619 -0.98243,-1.47656 -0.54152,0.716 -0.96484,2.67432 -0.96484,4.47656 0,3.41351 0.37158,3.92727 6.21875,8.60547 2.7303,2.18449 7.56879,11.55307 9.16992,17.75586 2.06788,8.01071 0.9905,15.36252 -3.15234,21.52539 -3.27401,4.8703 -7.59042,8.25437 -13.47852,10.56446 -5.46591,2.14447 -5.78191,2.13765 -3.4414,-0.0898 1.80587,-1.71877 6.41101,-9.3457 5.64257,-9.3457 -0.82644,0 -4.66796,2.21499 -6.10351,3.51953 -2.34686,2.13258 -4.2679,6.23125 -3.40625,7.26953 0.3934,0.47402 0.2449,0.7864 -0.6875,1.13477 l 0,2.7168 c 12.88676,-3.47274 20.59383,-8.75222 24.48437,-16.74805 4.8514,-9.97039 4.10358,-18.68535 -2.8457,-33.11719 -2.60825,-5.4166 -2.78192,-6.1278 -2.83398,-11.66992 -0.0421,-4.49516 0.22242,-6.41189 1.10937,-8.03516 0.78494,-1.43667 1.08386,-2.14657 0.76172,-2.11523 z"
         style="fill:#000000"
         inkscape:connector-curvature="0" />
      <g
         id="g4571">
        <path
           id="path4505"
           style="fill:#000000"
           d="m 907.11913,658.25085 c -0.91814,0.005 -1.95681,0.34574 -3.25976,1.01953 -2.53651,1.3116 -6.61545,1.3916 -8.17188,0.16211 -1.08419,-0.85642 -1.09054,-0.81194 -0.11914,0.73242 0.56735,0.90184 2.03932,2.15443 3.27148,2.78516 2.9895,1.53023 4.88156,1.42303 8.79883,-0.50391 3.09239,-1.52124 3.16566,-1.61486 1.2793,-1.62109 -1.10022,-0.003 -2.35048,0.34459 -2.77735,0.77149 -0.42685,0.42687 -0.97192,0.57887 -1.21289,0.33789 -0.6191,-0.61913 3.74153,-2.35088 4.97266,-1.97461 0.69574,0.21263 0.614,-0.0177 -0.25586,-0.72657 -0.81093,-0.66065 -1.60726,-0.98814 -2.52539,-0.98242 z m -21.63672,-10.21875 0.46485,1.9668 c 0.72261,3.05916 2.22333,4.9289 4.92968,6.14062 2.40279,1.07574 8.55012,1.53083 8.56055,0.63282 0.002,-0.47714 -3.25568,-1.61281 -5.90039,-2.05664 -1.23133,-0.2066 -1.06122,-0.29816 0.68164,-0.36524 1.27653,-0.0491 3.41706,0.46979 4.75586,1.15234 3.00763,1.53341 3.16951,0.69953 0.29101,-1.49609 -1.35764,-1.03544 -3.67786,-1.88114 -6.33203,-2.30859 -2.75113,-0.44309 -4.74625,-1.1892 -5.81836,-2.17188 l -1.63281,-1.49414 z m -4.46875,-10.73633 c -0.14,0.0515 -0.31549,0.69669 -0.44336,1.70703 -0.35032,2.76484 0.90016,5.50598 3.02344,6.63086 0.78582,0.41642 2.3674,0.85128 3.51563,0.97071 2.0157,0.20468 1.99037,0.15519 -0.73243,-1.41016 -1.55166,-0.89196 -2.80022,-1.80286 -2.77734,-2.02344 0.0229,-0.22051 0.55846,-0.0533 1.19141,0.3711 0.63295,0.42455 2.27667,1.20891 3.65234,1.74414 2.38279,0.92701 2.46851,0.90563 1.80859,-0.47656 -0.38104,-0.79805 -2.52904,-2.57875 -4.77343,-3.95704 -2.24429,-1.37824 -4.19781,-2.90911 -4.33985,-3.40234 -0.0356,-0.12333 -0.0784,-0.17148 -0.125,-0.1543 z m 15.17188,-0.76367 c -0.56604,0.0741 -1.04455,1.24406 -1.32813,3.4043 -0.23899,1.82094 0.18142,3.16997 1.75391,5.63476 1.13718,1.78254 2.27695,3.2867 2.53125,3.3418 0.65118,0.14211 0.10307,-2.03711 -0.89063,-3.54297 -0.58825,-0.89179 -0.59798,-1.2319 -0.0332,-1.16015 0.43989,0.0559 1.14436,1.30911 1.56445,2.78515 0.81676,2.86992 1.73749,2.64443 2.15821,-0.52734 0.16236,-1.22391 -0.43002,-2.70519 -1.8086,-4.52539 -1.1274,-1.48885 -2.41379,-3.44164 -2.85742,-4.33789 -0.37935,-0.76629 -0.75021,-1.11671 -1.08984,-1.07227 z m 2.7539,-9.25781 c -0.44196,0.0615 -1.94657,0.70466 -3.63476,1.56836 -4.45016,2.27662 -5.97861,5.63262 -4.32031,9.48242 0.42394,0.98413 0.57291,0.84786 0.88085,-0.79492 l 0.37305,-1.97852 0.19336,2.29102 0.19531,2.29101 0.87305,-2.63281 c 0.47954,-1.44767 1.56069,-3.40077 2.40234,-4.33984 1.60602,-1.79195 3.58682,-5.47791 3.16016,-5.87891 -0.0171,-0.0161 -0.0599,-0.0167 -0.12305,-0.008 z m -21.6875,-0.90039 0,2.26953 c 0,3.39051 1.03401,5.48392 3.42774,6.94336 2.05153,1.2508 3.78711,1.6982 3.78711,0.97656 0,-0.18565 -0.96043,-0.92188 -2.13282,-1.63672 -1.17239,-0.71474 -1.86893,-1.30273 -1.55078,-1.30273 0.31814,-0.002 1.60654,0.6334 2.86328,1.41016 l 2.28321,1.41406 -0.45703,-1.57813 c -0.25129,-0.86694 -1.24418,-2.25625 -2.20704,-3.08789 -0.96286,-0.83171 -2.71042,-2.38951 -3.88281,-3.46094 l -2.13086,-1.94726 z m 5.91407,-6.26758 c 0.0603,1.5e-4 0.14541,0.087 0.25195,0.26953 0.25711,0.44042 0.31825,1.00432 0.13476,1.25195 -0.18349,0.24767 -0.39287,-0.11279 -0.46679,-0.80078 -0.0509,-0.47522 -0.0205,-0.72096 0.0801,-0.7207 z m 18.32812,-3.22852 c -0.40822,0 -0.74219,0.25398 -0.74219,0.56446 0,0.31042 -1.84512,1.53042 -4.09961,2.71289 -5.34491,2.80322 -7.05078,4.4027 -7.05078,6.60937 l 0,1.78907 2.03711,-1.9043 c 1.12022,-1.04655 2.33971,-1.90234 2.71094,-1.90234 0.37115,0 -0.10192,0.61381 -1.05469,1.36328 -0.95276,0.74939 -2.06954,2.00343 -2.48047,2.78711 -0.71387,1.36133 -0.69171,1.37601 0.4961,0.32422 0.68375,-0.60552 2.57211,-1.67711 4.19531,-2.38086 1.62332,-0.70374 3.63935,-2.02377 4.48047,-2.9336 1.66269,-1.79838 2.78465,-7.0293 1.50781,-7.0293 z m -21.71484,-5.11718 c -0.51205,0.0762 -0.33403,3.11043 0.63476,10.8457 0.27378,2.18692 0.88741,3.78062 1.8711,4.85938 1.84387,2.02209 2.86244,1.94334 1.69922,-0.13086 -0.48404,-0.86344 -0.96412,-2.35664 -1.06836,-3.32032 -0.13986,-1.29132 0.10476,-1.01145 0.93359,1.06446 l 1.125,2.8164 0.14453,-2.67382 c 0.28877,-5.32384 -0.57191,-8.84703 -2.75195,-11.27149 -1.12344,-1.24943 -2.28713,-2.23404 -2.58789,-2.18945 z m 23.5957,-2.82032 -2.13086,1.61719 c -1.17238,0.89005 -3.39175,2.12128 -4.93164,2.73438 -3.12717,1.24502 -5.4091,3.70678 -5.37891,5.80469 0.0179,1.25107 0.0848,1.27586 0.6836,0.24804 0.36532,-0.62686 1.31519,-1.47846 2.11133,-1.89258 l 1.44921,-0.7539 -1.47656,1.60742 c -0.81166,0.88382 -1.47461,1.85501 -1.47461,2.1582 l 0.002,0 c 0,0.30324 0.51714,0.10144 1.14843,-0.45117 0.63129,-0.55254 2.54033,-1.61219 4.24414,-2.35351 3.29025,-1.43163 5.74349,-4.5146 5.75391,-7.21094 l 0,-1.50782 z m -2.29492,-2.10937 -1.5918,1.74414 c -0.87456,0.95895 -1.83302,1.74219 -2.13086,1.74219 -0.91069,0 -0.62736,-0.34648 1.58985,-1.94727 l 2.13281,-1.53906 z m -18.10742,-3.66602 c -0.36284,0.0247 -0.58399,0.18952 -0.58399,0.52344 0,0.39983 0.25722,0.72656 0.57422,0.72656 1.14344,0 2.21465,3.93917 1.79102,6.58789 -0.254,1.58864 -0.11303,3.21428 0.35351,4.08594 0.75542,1.41154 0.79792,1.39072 1.6582,-0.84179 0.84143,-2.18358 0.86674,-2.19701 0.57422,-0.32032 l -0.30664,1.9668 0.98633,-2.20117 c 1.89824,-4.23395 1.86987,-5.65922 -0.15625,-7.85742 -1.44531,-1.56784 -3.80209,-2.74428 -4.89062,-2.66993 z m 22.17382,-4.27343 c -0.0972,-0.0296 -0.26034,0.19043 -0.50781,0.60547 -1.40868,2.36234 -4.00519,4.80822 -5.96289,5.61914 -2.59274,1.07389 -5.38473,6.41453 -2.84375,5.43945 0.54111,-0.20764 0.98438,-0.0243 0.98438,0.4082 0,1.25809 3.87244,-1.31723 6.07226,-4.03906 1.3789,-1.70616 2.03404,-3.33444 2.24024,-5.57422 0.15366,-1.66869 0.17957,-2.40972 0.0176,-2.45898 z m -16.82226,-6.24414 c -0.30698,0.049 -0.19649,0.75061 0.43164,2.00976 0.85956,1.72308 0.89823,2.59088 0.24414,5.51367 -0.66836,2.98692 -0.62066,3.81975 0.34961,5.98829 l 1.12891,2.51953 0.45898,-2.29493 c 0.31492,-1.57158 0.48751,-1.81805 0.54688,-0.78125 0.17672,3.09959 1.39648,0.56939 1.39648,-2.89648 0,-3.521 -1.07891,-6.60702 -3.13086,-8.94727 -0.69507,-0.79273 -1.18703,-1.14943 -1.42578,-1.11132 z m 5.12695,-5.93946 c -0.32946,0.004 -0.0767,0.96094 0.5625,2.13086 0.88539,1.62052 1.15079,3.54768 1.11328,8.03516 -0.0467,5.54316 -0.21107,6.22118 -2.69531,11.14844 -7.41633,14.70986 -8.02018,26.0307 -1.90234,35.63281 4.65499,7.3061 11.05165,11.35696 23.64062,14.75976 l 0,-2.46093 c -1.22666,-0.38583 -2.049,-0.86338 -1.86914,-1.1543 0.21119,-0.34176 -0.15958,-1.2658 -0.82617,-2.05469 l -1.21289,-1.43554 1.48047,1.2539 c 2.08662,1.76704 2.29381,1.10264 0.60156,-1.92773 -1.29434,-2.31801 -6.85445,-6.86719 -8.39258,-6.86719 -1.00546,0 3.41371,7.44566 5.54688,9.3457 2.57337,2.29192 1.72113,2.27194 -4.10157,-0.0977 -11.06211,-4.50181 -16.38189,-11.68102 -16.95507,-22.88477 -0.26159,-5.11357 -0.074,-6.80168 1.15625,-10.49414 2.37977,-7.1417 6.44482,-14.40548 9.36914,-16.74023 5.1761,-4.13257 5.72136,-4.8453 5.71093,-7.47071 -0.011,-3.07479 -0.61046,-5.43945 -1.3789,-5.43945 -0.31865,-10e-6 -0.58203,0.81072 -0.58203,1.80273 -0.0608,3.76947 -3.65949,8.02907 -4.00586,6.84571 -0.60802,-4.45284 0.19568,-8.98056 -5.25782,-11.92774 l -0.002,0 z"
           inkscape:connector-curvature="0" />
        <path
           id="path4503"
           style="fill:#000000"
           d="m 951.38476,658.30359 c -0.61958,0.01 -1.25529,0.20798 -2.18165,0.59765 l -2.21289,0.92969 2.29688,0.41016 c 2.15254,0.38229 2.17479,0.41116 0.38672,0.49218 -1.86657,0.0845 -1.84528,0.12035 0.98437,1.67774 4.51544,2.48531 7.98322,2.14709 11.58203,-1.13086 1.85991,-1.69455 1.91298,-2.70905 0.0918,-1.73438 -1.61644,0.86516 -5.94301,0.5169 -8.86523,-0.71289 -0.85846,-0.36125 -1.46246,-0.53917 -2.08203,-0.52929 z m -2.93946,-7.92969 c 0.14548,-0.0337 0.0236,0.34022 -0.41211,1.1543 -0.35376,0.66096 -1.15738,1.61947 -1.78711,2.13086 -0.70845,0.57544 -0.5515,0.11785 0.41407,-1.20118 0.96894,-1.32358 1.5981,-2.04066 1.78515,-2.08398 z m 24.07227,-1.76563 c -0.30384,-0.0384 -0.80931,0.28195 -1.49805,0.97071 -0.73146,0.73139 -2.45147,1.50566 -3.82422,1.7207 -4.92877,0.77224 -7.59543,1.77629 -9.13867,3.44141 -1.91967,2.07143 -1.59749,2.63093 0.66211,1.15039 0.92161,-0.60387 2.05315,-0.94552 2.51563,-0.75977 0.56057,0.22523 0.48511,0.35389 -0.22657,0.38867 -0.58703,0.0285 -1.43376,0.49601 -1.88281,1.03711 -0.70782,0.85281 -0.36829,0.98438 2.5625,0.98438 5.65616,0 9.8921,-2.71045 10.97461,-7.02344 0.30542,-1.21699 0.2461,-1.86087 -0.14453,-1.91016 z m 6.26953,-11.72656 -1.47656,1.37891 c -0.81156,0.75761 -2.25164,1.56918 -3.20117,1.80468 -0.94942,0.23562 -2.72067,1.2809 -3.93555,2.32422 -1.31516,1.12952 -1.91235,2.00354 -2.13281,2.54883 -0.0975,0.24123 3.34725,-0.92414 3.40039,-0.72851 0.11425,0.42247 -3.40538,1.49272 -3.07422,1.90625 2.39593,1.61933 7.57085,-1.14819 9.14843,-3.43555 0.70158,-1.0173 0.92701,-1.35341 1.27149,-2.58203 0.23951,-0.85412 0.1987,-2.50878 0,-3.2168 z m -16.57031,-0.32422 c -0.19271,-0.0386 -0.38436,0.169 -0.55469,0.65039 -0.18568,0.52481 -1.61886,2.32505 -3.1875,4.00196 -2.79934,2.99285 -3.42505,4.92363 -2.42969,7.51757 0.33908,0.88353 0.59522,0.69731 1.2793,-0.92968 0.47071,-1.11954 1.02977,-2.03516 1.24023,-2.03516 0.21047,0 0.0569,0.60627 -0.33984,1.34766 -1.51813,2.83676 -0.18845,2.38152 2.54883,-0.87305 2.61565,-3.10993 2.82973,-3.63383 2.53711,-6.23047 -0.23656,-2.09844 -0.66978,-3.36436 -1.09375,-3.44922 z m 13.94336,-3.17773 c 0.0284,0.0625 -0.28378,0.41347 -0.90625,1.11328 -1.33672,1.50279 -1.70118,1.69709 -1.70118,0.90625 -10e-6,-0.27396 0.66295,-0.90573 1.47461,-1.4043 0.73522,-0.45167 1.10441,-0.67772 1.13282,-0.61523 z m -16.86328,-5.82422 c -0.10014,-0.0101 -0.18616,-0.0102 -0.25782,0.002 -0.0764,0.0125 -0.1342,0.0385 -0.17383,0.0781 -0.48986,0.48994 1.57981,3.94314 3.36329,5.60937 0.94016,0.87828 2.05503,2.79723 2.4746,4.26367 l 0.76172,2.66602 0.46289,-1.96875 0.46485,-1.9668 0.125,1.9668 c 0.10779,1.71451 0.19443,1.79923 0.68554,0.65625 1.01076,-2.35207 0.69769,-5.34607 -0.7539,-7.19141 -1.15517,-1.4686 -5.65046,-3.96138 -7.15234,-4.11328 l 0,-0.002 z m 22.25781,-2.48047 -1.6875,1.75586 c -0.92891,0.96594 -2.57012,2.27819 -3.64649,2.91406 -2.09735,1.23899 -3.70306,4.21642 -3.10937,5.76367 0.29544,0.76979 0.7966,0.81155 2.68359,0.23243 3.52561,-1.08207 5.11208,-3.17448 5.46094,-7.20118 l 0.29883,-3.46484 z m -5.79492,-0.75586 c 0.0597,0.009 0.13049,0.10849 0.20898,0.30469 0.18913,0.47346 0.16721,1.03984 -0.0508,1.25781 -0.21796,0.21792 -0.37379,-0.16998 -0.3457,-0.86133 0.0196,-0.47755 0.0881,-0.71622 0.1875,-0.70117 z m -19.03907,-7.23437 c -0.1965,0.0453 -0.2207,0.47671 -0.2207,1.39453 0,3.74601 1.90961,6.2679 6.35352,8.39062 2.29656,1.09705 4.33357,2.25006 4.52539,2.56055 0.19192,0.31055 0.48834,0.5625 0.66015,0.5625 0.7172,0 -1.15856,-2.60532 -2.83789,-3.94141 l -1.81445,-1.44336 1.9668,1.16797 c 1.0822,0.64223 2.32811,1.63292 2.76757,2.20117 0.69034,0.89269 0.80258,0.80739 0.82032,-0.625 0.0323,-2.56364 -1.65706,-4.39204 -6.08399,-6.58789 -2.23398,-1.10814 -4.57771,-2.48183 -5.20898,-3.05273 -0.39997,-0.36169 -0.66152,-0.57982 -0.83203,-0.62305 -0.0356,-0.009 -0.0676,-0.01 -0.0957,-0.004 z m 4.75196,-1.22266 c 0.0507,-0.0103 0.11597,-0.01 0.19336,0.002 0.10319,0.0154 0.22905,0.0514 0.375,0.10743 0.55975,0.21486 1.01757,0.50663 1.01757,0.64843 0,0.53117 -1.24965,0.23261 -1.63476,-0.39062 -0.12928,-0.20914 -0.10303,-0.33644 0.0488,-0.36719 z m 18.02539,-5.17578 c -0.41356,0.0571 -1.17373,0.55214 -2.26758,1.48633 -3.74919,3.20205 -4.6145,6.17119 -3.94531,13.53125 l -0.002,0 c 0.27451,3.0189 1.15115,3.10311 3.30078,0.31445 1.72797,-2.2418 2.26269,-4.55458 2.00391,-8.6875 -0.10435,-1.67004 0.18976,-3.5208 0.74805,-4.69531 0.64994,-1.36723 0.69299,-2.01918 0.16406,-1.94922 l -0.002,0 z m -24.31055,-1.9082 0,1.65625 c 0,2.75655 2.67221,5.88191 6.88867,8.06054 2.16442,1.11833 4.05737,1.94943 4.20899,1.84571 0.15173,-0.10383 -0.4158,-0.92581 -1.26172,-1.82618 -0.84582,-0.90045 -1.35174,-1.63672 -1.12305,-1.63672 0.22858,0 1.16561,0.80857 2.08203,1.79688 1.8673,2.01386 2.18802,1.11227 0.65625,-1.84961 -0.69273,-1.33967 -2.1877,-2.4771 -4.74805,-3.60937 -2.05547,-0.90906 -4.40346,-2.279 -5.21874,-3.04493 l -1.48438,-1.39257 z m 20.45312,-5.7129 c -0.11023,-0.009 -0.2341,-0.006 -0.36914,0.006 -0.9003,0.0823 -2.28607,0.61788 -3.27343,1.39454 -2.80872,2.20929 -3.27658,3.6202 -2.34766,7.07812 0.95849,3.56759 1.87698,4.9271 1.53125,2.26758 -0.20589,-1.5839 -0.14034,-1.53072 0.45117,0.36719 1.09023,3.49773 2.28323,1.52344 2.07422,-3.43164 -0.14142,-3.35225 0.0677,-4.35384 1.14844,-5.51368 0.72626,-0.77963 1.32226,-1.578 1.32226,-1.77343 0,-0.24241 -0.20638,-0.36824 -0.53711,-0.39454 z m -22.23046,-4.31445 0,0.002 c -0.12993,0.0624 -0.16023,0.59013 -0.16993,1.68555 -0.0304,3.4349 2.19575,7.35559 5.32813,9.38672 3.30942,2.14588 4.0538,1.88116 1.45117,-0.51367 l -1.88086,-1.72852 2.47852,1.78711 c 1.36255,0.98293 2.67111,1.5946 2.90625,1.35938 0.88529,-0.8852 -1.71696,-4.82419 -3.85742,-5.83985 -2.27657,-1.08037 -4.42024,-3.11546 -5.67969,-5.39257 -0.24204,-0.43745 -0.40374,-0.69721 -0.51367,-0.74415 -0.0229,-0.01 -0.0439,-0.0104 -0.0625,-0.002 z m 16.87109,-6.14062 c -0.92829,0 -3.92338,3.94623 -4.26953,5.625 -0.18027,0.874 -0.46791,2.26733 -0.63672,3.0957 -0.40864,2.00575 0.593,5.42273 1.5293,5.2168 1.12533,-2.47435 1.34218,-2.44676 0.74609,0.85742 l -0.002,0 c -0.3069,1.70127 1.22747,0.3752 1.91406,-2.11133 0.44299,-1.6036 0.42255,-3.34413 -0.0664,-5.46289 -0.5888,-2.55061 -0.53491,-3.47738 0.30664,-5.16406 0.5637,-1.13092 0.77958,-2.05664 0.47852,-2.05664 z"
           inkscape:connector-curvature="0" />
      </g>
      <path
         style="opacity:1;fill:#000000;fill-opacity:1;stroke:none;stroke-width:2.14858222;stroke-linecap:square;stroke-linejoin:miter;stroke-miterlimit:4;stroke-dasharray:none;stroke-opacity:1"
         d="m 908.12228,630.6818 0,0.003 0,0 0,-0.003 z m 0,0.003 0,3.1473 0.003,0 0,0.004 0.004,0 0.003,0.0525 0,0.003 c 1.76493,0.0164 4.65192,0.49915 6.08543,1.33503 l 0.003,0 c 0.0155,0.01 0.031,0.0194 0.0466,0.0293 1.28669,0.79941 2.39572,1.90206 3.24114,3.22133 0.0556,0.0868 0.1075,0.17648 0.16085,0.26515 0.0532,0.0897 0.10722,0.17862 0.15848,0.26981 0.50638,0.89892 0.89734,1.88403 1.14566,2.93287 l 0,0.003 c 0.0409,0.17263 0.0781,0.34567 0.11129,0.52156 l 0,0.003 c 0.0331,0.17591 0.0617,0.35307 0.0868,0.53202 9e-5,0 -5e-5,0.003 0,0.003 0.0251,0.17892 0.0459,0.35847 0.063,0.54017 l 0,0.004 c 0.004,0.0336 0.004,0.0678 0.007,0.10141 l 2.56223,0 a 17.088583,17.088583 0 0 1 7.60056,-1.79131 17.088583,17.088583 0 0 1 7.5702,1.79131 l 2.585,0 c 0.003,-0.033 0.004,-0.0667 0.007,-0.0996 l 0,-0.003 c 0.017,-0.18176 0.0377,-0.36126 0.0629,-0.54019 7e-5,0 -9e-5,-0.003 0,-0.003 0.0251,-0.17895 0.055,-0.35615 0.088,-0.53203 l 0,-0.003 c 0.0331,-0.17589 0.0693,-0.34891 0.11013,-0.52154 l 0,-0.003 c 0.0853,-0.36021 0.18659,-0.7132 0.30417,-1.05764 0.22586,-0.66167 0.51144,-1.29238 0.84614,-1.88514 0.0522,-0.0925 0.1069,-0.18317 0.16141,-0.27387 0.0381,-0.0631 0.0756,-0.12665 0.11481,-0.1888 0.0424,-0.0676 0.0868,-0.13342 0.13053,-0.19989 0.0577,-0.0869 0.11487,-0.17434 0.17481,-0.25931 0.0236,-0.0337 0.0484,-0.0663 0.0722,-0.0996 0.19003,-0.263 0.39007,-0.51712 0.60137,-0.75988 0.45502,-0.52273 0.95802,-0.99684 1.49993,-1.41252 0.26893,-0.20628 0.54811,-0.39762 0.83564,-0.57457 0.003,0 0.004,-0.003 0.006,-0.004 0.003,-0.003 0.004,-0.004 0.007,-0.005 0.003,0 0.003,-0.003 0.004,-0.003 0.17788,-0.10363 0.35991,-0.20181 0.54426,-0.2943 0.3674,-0.18442 0.74735,-0.34592 1.13808,-0.48367 0.008,-0.003 0.0159,-0.005 0.0239,-0.008 0.19405,-0.0679 0.38989,-0.13014 0.58913,-0.18587 l 0.003,0 c 0.19843,-0.0555 0.40045,-0.10553 0.60372,-0.14861 0.004,0 0.009,-0.003 0.0128,-0.003 0,0 0.004,-2.3e-4 0.005,0 0.62822,-0.13076 2.50274,-0.20201 3.16306,-0.20801 l 0.004,-0.0548 0.01,0 0,-0.004 0.004,-0.0647 0,-0.004 0,-3.08087 -9.52292,0 -8.9886,0 -5.53941,0 -8.99498,0 -9.51481,0 -0.003,0 z m 11.16333,43.76871 0,4.70437 0,2.08906 0,2.02092 0,0.1212 0,8.48568 0,0.003 c 0,0.18677 -0.004,0.37151 -0.0123,0.55593 l 0,0.003 c -0.009,0.18438 -0.0226,0.36835 -0.0396,0.55011 l 0,0.003 c -0.017,0.18179 -0.0378,0.36128 -0.063,0.54021 -6e-5,0 6e-5,0.003 0,0.003 -0.0251,0.17892 -0.0537,0.35611 -0.0869,0.53203 l 0,0.003 c -0.0331,0.17586 -0.0704,0.34894 -0.11128,0.52156 l 0,0.004 c -0.24898,1.05159 -0.64147,2.03906 -1.14973,2.93986 -0.05,0.089 -0.10245,0.17583 -0.15442,0.26339 -0.0523,0.0869 -0.10344,0.17478 -0.15792,0.2599 0,0.003 -0.004,0.004 -0.004,0.005 -0.004,0.005 -0.007,0.0108 -0.011,0.0164 -0.84405,1.31191 -1.94874,2.40894 -3.23004,3.20501 -0.0155,0.01 -0.0311,0.0197 -0.0466,0.0293 l -0.003,0 c -1.43355,0.83585 -4.32051,1.31854 -6.08544,1.33504 l 0,0.003 -0.003,0.0525 -0.003,0 0,0.004 -0.003,0 0,3.14907 0.003,0 9.51481,0 8.99499,0 5.53941,0 8.98859,0 9.52293,0 0,-3.08089 0,-0.004 -0.003,-0.0647 0,-0.003 -0.011,0 -0.003,-0.0548 c -0.65832,-0.006 -2.5222,-0.0768 -3.15605,-0.20686 -0.0143,-0.003 -0.0284,-0.006 -0.0425,-0.009 -0.19727,-0.0423 -0.39359,-0.0901 -0.58624,-0.14393 l -0.003,0 c -0.19927,-0.0557 -0.39505,-0.118 -0.58913,-0.18587 -0.008,-0.003 -0.0155,-0.005 -0.0233,-0.008 -0.39091,-0.13781 -0.77108,-0.29916 -1.13865,-0.48367 -0.18432,-0.0925 -0.36635,-0.19067 -0.54426,-0.29427 -0.003,0 -0.003,-0.003 -0.004,-0.003 -0.004,-0.003 -0.004,-0.003 -0.007,-0.004 -0.003,0 -0.004,-0.003 -0.005,-0.004 -0.28766,-0.17704 -0.56718,-0.36874 -0.83624,-0.57513 -0.54191,-0.41568 -1.04491,-0.88923 -1.49993,-1.41195 -0.215,-0.24701 -0.41893,-0.50589 -0.61187,-0.77387 -0.0185,-0.026 -0.0376,-0.0519 -0.056,-0.0781 -0.0617,-0.0873 -0.12021,-0.17633 -0.17947,-0.26572 -0.0457,-0.0693 -0.0922,-0.13811 -0.13637,-0.20861 -0.0346,-0.0549 -0.0677,-0.11162 -0.10138,-0.16725 -0.0576,-0.0954 -0.1152,-0.18988 -0.17016,-0.28729 -0.33481,-0.59289 -0.62022,-1.22383 -0.84614,-1.88571 -0.11758,-0.34445 -0.21887,-0.69741 -0.30417,-1.05764 l 0,-0.003 c -0.0408,-0.17263 -0.077,-0.34567 -0.11013,-0.52153 l 0,-0.003 c -0.0331,-0.17591 -0.0629,-0.3531 -0.088,-0.53202 -9e-5,0 6e-5,-0.003 0,-0.003 -0.0251,-0.17895 -0.046,-0.35842 -0.063,-0.54018 l 0,-0.004 c -0.017,-0.18176 -0.0299,-0.36513 -0.0385,-0.54952 l 0,-0.003 c -0.009,-0.18439 -0.0134,-0.36919 -0.0134,-0.55593 l 0,-0.003 0,-8.26893 0,-0.007 0,-2.35132 0,-6.7946 -2.9731,0 a 17.088583,17.088583 0 0 1 -7.13723,1.58442 17.088583,17.088583 0 0 1 -7.14251,-1.58442 l -2.97599,0 z"
         id="path4475"
         inkscape:connector-curvature="0" />
      <g
         id="g4479"
         transform="matrix(0.29907963,0,0,0.29907963,2141.0252,-217.99982)">
        <path
           inkscape:connector-curvature="0"
           id="path4481"
           d="m -4051.166,2882.4258 c -27.5197,0 -49.9356,22.4159 -49.9356,49.9355 0,27.5197 22.4159,49.9356 49.9356,49.9356 27.5196,0 49.9355,-22.4159 49.9355,-49.9356 0,-27.5196 -22.4159,-49.9355 -49.9355,-49.9355 z m 0,10 c 22.1152,0 39.9355,17.8203 39.9355,39.9355 0,22.1153 -17.8203,39.9356 -39.9355,39.9356 -22.1153,0 -39.9356,-17.8203 -39.9356,-39.9356 0,-22.1152 17.8203,-39.9355 39.9356,-39.9355 z"
           style="color:#000000;font-style:normal;font-variant:normal;font-weight:normal;font-stretch:normal;font-size:medium;line-height:normal;font-family:sans-serif;text-indent:0;text-align:start;text-decoration:none;text-decoration-line:none;text-decoration-style:solid;text-decoration-color:#000000;letter-spacing:normal;word-spacing:normal;text-transform:none;direction:ltr;block-progression:tb;writing-mode:lr-tb;baseline-shift:baseline;text-anchor:start;clip-rule:nonzero;display:inline;overflow:visible;visibility:visible;opacity:1;isolation:auto;mix-blend-mode:normal;color-interpolation:sRGB;color-interpolation-filters:linearRGB;solid-color:#000000;solid-opacity:1;fill:#000000;fill-opacity:1;fill-rule:nonzero;stroke:none;stroke-width:10;stroke-linecap:square;stroke-linejoin:miter;stroke-miterlimit:4;stroke-dasharray:none;stroke-dashoffset:0;stroke-opacity:1;color-rendering:auto;image-rendering:auto;shape-rendering:auto;text-rendering:auto;enable-background:accumulate" />
        <path
           inkscape:connector-curvature="0"
           style="opacity:1;fill:#000000;fill-opacity:1;stroke:none;stroke-width:10;stroke-linecap:square;stroke-linejoin:miter;stroke-miterlimit:4;stroke-dasharray:none;stroke-opacity:1"
           d="m -4076.2234,2899.7279 -7.5766,7.5766 12.9851,12.9851 c -2.177,3.5193 -3.439,7.656 -3.439,12.0713 0,4.4155 1.2629,8.5517 3.4401,12.0713 l -12.9862,12.9862 7.5766,7.5766 12.9851,-12.985 c 3.5193,2.1771 7.656,3.4389 12.0713,3.4389 4.4155,0 8.5517,-1.2627 12.0713,-3.4401 l 12.9862,12.9862 7.5766,-7.5766 -12.9862,-12.9862 c 2.1774,-3.5196 3.4401,-7.6558 3.4401,-12.0713 0,-4.4153 -1.2618,-8.552 -3.4389,-12.0713 l 12.985,-12.9851 -7.5766,-7.5766 -12.9851,12.9851 c -3.5197,-2.1775 -7.6565,-3.439 -12.0724,-3.439 -4.4155,0 -8.552,1.2618 -12.0713,3.439 l -12.9851,-12.9851 z m 38.1635,13.6675 c 0.082,0.057 0.162,0.1154 0.243,0.1732 -0.081,-0.058 -0.1613,-0.1164 -0.243,-0.1732 z m -26.2282,0.01 c -0.068,0.048 -0.1357,0.096 -0.2035,0.1442 0.068,-0.048 0.1353,-0.097 0.2035,-0.1442 z m 27.2804,0.7662 c 0.074,0.058 0.1484,0.1166 0.222,0.1756 -0.074,-0.059 -0.1477,-0.1175 -0.222,-0.1756 z m -28.3396,0.017 c -0.061,0.048 -0.1228,0.096 -0.1837,0.1442 0.061,-0.049 0.1225,-0.096 0.1837,-0.1442 z m 29.3917,0.8557 c 0.048,0.043 0.098,0.084 0.1465,0.1268 -0.048,-0.043 -0.098,-0.084 -0.1465,-0.1268 z m -30.4601,0.032 c -0.032,0.027 -0.063,0.055 -0.094,0.082 0.031,-0.028 0.063,-0.055 0.094,-0.082 z m -1.9531,1.9415 c -0.028,0.031 -0.055,0.063 -0.083,0.094 0.027,-0.032 0.055,-0.063 0.083,-0.094 z m 34.4048,0 c 0.028,0.032 0.056,0.065 0.085,0.098 -0.029,-0.032 -0.056,-0.066 -0.085,-0.098 z m 0.8103,0.9591 c 0.061,0.076 0.1193,0.1527 0.179,0.2291 -0.06,-0.076 -0.1184,-0.1535 -0.179,-0.2291 z m -36.0406,0.02 c -0.049,0.061 -0.096,0.1224 -0.1441,0.1837 0.048,-0.061 0.096,-0.1229 0.1441,-0.1837 z m 36.8358,1.0359 c 0.049,0.069 0.099,0.1373 0.1477,0.2069 -0.048,-0.07 -0.098,-0.1379 -0.1477,-0.2069 z m -37.6194,0.01 c -0.048,0.068 -0.097,0.1352 -0.1442,0.2035 0.048,-0.068 0.096,-0.1357 0.1442,-0.2035 z m 18.8109,0.9522 c 6.897,0 12.3735,5.4754 12.3735,12.3724 0,6.8971 -5.4765,12.3735 -12.3735,12.3735 -6.8971,0 -12.3724,-5.4764 -12.3724,-12.3735 0,-6.897 5.4754,-12.3724 12.3724,-12.3724 z m -18.9399,25.5156 c 0.035,0.051 0.071,0.1 0.1069,0.1499 -0.036,-0.05 -0.072,-0.099 -0.1069,-0.1499 z m 37.8809,0 c -0.034,0.049 -0.07,0.098 -0.1046,0.1476 0.035,-0.049 0.07,-0.098 0.1046,-0.1476 z m -37.1101,1.0405 c 0.047,0.06 0.094,0.1205 0.1418,0.1802 -0.048,-0.06 -0.095,-0.12 -0.1418,-0.1802 z m 36.3184,0.026 c -0.034,0.044 -0.069,0.089 -0.1035,0.1325 0.035,-0.044 0.069,-0.088 0.1035,-0.1325 z m -35.4337,1.0394 c 0.027,0.031 0.055,0.063 0.083,0.094 -0.028,-0.031 -0.055,-0.063 -0.083,-0.094 z m 1.9532,1.9636 c 0.02,0.017 0.04,0.034 0.059,0.052 -0.02,-0.017 -0.039,-0.035 -0.059,-0.052 z m 0.9545,0.8057 c 0.069,0.055 0.1395,0.1093 0.2092,0.1639 -0.07,-0.055 -0.14,-0.1085 -0.2092,-0.1639 z m 28.7325,0.016 c -0.053,0.042 -0.1061,0.084 -0.1593,0.1256 0.053,-0.042 0.1065,-0.083 0.1593,-0.1256 z m -27.6804,0.7778 c 0.068,0.048 0.1352,0.097 0.2035,0.1441 -0.068,-0.048 -0.1357,-0.096 -0.2035,-0.1441 z m 26.6154,0.024 c -0.049,0.035 -0.098,0.07 -0.1476,0.1046 0.049,-0.034 0.098,-0.07 0.1476,-0.1046 z"
           id="path4484" />
      </g>
    </g>
    <text
       xml:space="preserve"
       style="font-style:normal;font-weight:normal;font-size:40px;line-height:125%;font-family:sans-serif;letter-spacing:0px;word-spacing:0px;fill:#000000;fill-opacity:1;stroke:none;stroke-width:1px;stroke-linecap:butt;stroke-linejoin:miter;stroke-opacity:1"
       x="828.86969"
       y="636.46716"
       id="text4503-0-1-0-2-72-2-87-4-3"
       sodipodi:linespacing="125%"><tspan
         sodipodi:role="line"
         id="tspan4505-9-1-1-1-9-5-0-2-8"
         x="828.86969"
         y="636.46716"
         style="font-style:normal;font-variant:normal;font-weight:normal;font-stretch:normal;font-size:13.75px;font-family:'Roboto Condensed';-inkscape-font-specification:'Roboto Condensed, ';text-align:center;text-anchor:middle">Fleet Commissariat</tspan></text>
    <g
       id="g4488"
       transform="matrix(1.3019317,0,0,1.3019317,-492.64429,-513.62066)">
      <path
         inkscape:connector-curvature="0"
         style="opacity:1;fill:#000000;fill-rule:evenodd;stroke:none;stroke-width:1px;stroke-linecap:butt;stroke-linejoin:miter;stroke-opacity:1"
         d="m 846.32042,746.58108 c -5.57938,3.98812 -9.31643,10.66942 -6.544,17.11345 2.5541,5.93643 2.526,7.25765 1.12948,12.29754 l -1.14955,0.40544 -5.60124,-3.95465 -1.88217,6.59334 -2.87361,1.01361 c -0.8961,-0.7752 -1.97046,-1.50585 -3.27207,-2.08791 -4.86307,-2.17465 -10.03531,-0.47356 -12.04147,-10.21238 -0.92503,5.56162 0.78631,11.61859 6.14383,13.7529 2.47012,0.98404 3.88282,1.66495 4.94822,2.56566 l -1.12427,2.34918 -6.75707,1.16477 3.33163,5.99278 -1.11084,2.32108 c -1.15351,-0.24939 -2.58828,-0.4863 -4.2235,-0.49487 -1.78552,-0.009 -3.80324,0.25277 -5.93318,1.0664 -6.05336,2.31242 -9.0389,8.22503 -19.14115,1.57386 3.98813,5.57941 10.66895,9.31636 17.11295,6.54398 5.93645,-2.5541 7.25762,-2.52604 12.29754,-1.12948 l 0.40541,1.15004 -3.95465,5.60124 6.59334,1.88217 1.01357,2.87411 c -0.77523,0.89613 -1.50582,1.97042 -2.08789,3.27207 -2.17462,4.8631 -0.47357,10.03528 -10.21239,12.04148 5.5616,0.92504 11.61862,-0.78632 13.75291,-6.14383 0.98412,-2.47038 1.66485,-3.88331 2.56568,-4.94873 l 2.34918,1.12428 1.16476,6.75706 5.99278,-3.33162 2.32158,1.11085 c -0.52204,2.41315 -0.98734,6.07636 0.5715,10.15719 2.31242,6.05334 8.22452,9.03886 1.57338,19.14112 5.57939,-3.98813 9.31637,-10.66893 6.54397,-17.11295 -2.55418,-5.93659 -2.52613,-7.25773 -1.12945,-12.29804 l 1.15004,-0.4054 5.60124,3.95464 1.88217,-6.59333 2.8731,-1.01314 c 0.89608,0.7752 1.97045,1.50585 3.27207,2.0879 4.86309,2.1746 10.03584,0.47309 12.04198,10.21192 0.92504,-5.5616 -0.78682,-11.61815 -6.14435,-13.75244 -2.46995,-0.98396 -3.88288,-1.66457 -4.94825,-2.56516 l 1.12482,-2.35014 6.75707,-1.16477 -3.33162,-5.99278 1.11077,-2.32009 c 2.41315,0.52193 6.07629,0.98597 10.15625,-0.57255 6.05338,-2.31244 9.03939,-8.22445 19.14163,-1.57335 -3.11571,-4.35891 -7.87533,-7.59362 -12.88126,-7.47812 -1.40167,0.0323 -2.82307,0.32764 -4.23269,0.9341 -5.93594,2.55389 -7.25722,2.52628 -12.29608,1.13005 l -0.40585,-1.15105 3.95464,-5.60124 -6.59334,-1.88218 -1.01354,-2.8746 c 0.77484,-0.89589 1.50551,-1.97001 2.08735,-3.27111 2.17462,-4.86304 0.47309,-10.03582 10.21191,-12.04199 -1.04279,-0.17345 -2.10299,-0.25356 -3.15145,-0.23494 -4.54337,0.0806 -8.86688,2.02628 -10.60099,6.3793 -0.98403,2.47013 -1.66494,3.88299 -2.56566,4.94823 l -2.34867,-1.12425 -1.16477,-6.75707 -5.99278,3.33163 -2.32155,-1.11135 c 0.52193,-2.4133 0.98648,-6.07676 -0.57203,-10.15671 -2.31236,-6.05336 -8.22451,-9.03891 -1.57337,-19.14114 z m -1.24321,33.73514 a 20.074863,20.074863 0 0 1 18.96875,21.12314 20.074863,20.074863 0 0 1 -21.12315,18.96875 20.074863,20.074863 0 0 1 -18.96874,-21.12315 20.074863,20.074863 0 0 1 21.12314,-18.96874 z"
         id="path4476" />
      <g
         id="g4478"
         transform="matrix(0.31152016,0,0,0.31152016,2106.0199,-113.12753)">
        <path
           inkscape:connector-curvature="0"
           id="path4480"
           d="m -4051.166,2882.4258 c -27.5197,0 -49.9356,22.4159 -49.9356,49.9355 0,27.5197 22.4159,49.9356 49.9356,49.9356 27.5196,0 49.9355,-22.4159 49.9355,-49.9356 0,-27.5196 -22.4159,-49.9355 -49.9355,-49.9355 z m 0,10 c 22.1152,0 39.9355,17.8203 39.9355,39.9355 0,22.1153 -17.8203,39.9356 -39.9355,39.9356 -22.1153,0 -39.9356,-17.8203 -39.9356,-39.9356 0,-22.1152 17.8203,-39.9355 39.9356,-39.9355 z"
           style="color:#000000;font-style:normal;font-variant:normal;font-weight:normal;font-stretch:normal;font-size:medium;line-height:normal;font-family:sans-serif;text-indent:0;text-align:start;text-decoration:none;text-decoration-line:none;text-decoration-style:solid;text-decoration-color:#000000;letter-spacing:normal;word-spacing:normal;text-transform:none;direction:ltr;block-progression:tb;writing-mode:lr-tb;baseline-shift:baseline;text-anchor:start;clip-rule:nonzero;display:inline;overflow:visible;visibility:visible;opacity:1;isolation:auto;mix-blend-mode:normal;color-interpolation:sRGB;color-interpolation-filters:linearRGB;solid-color:#000000;solid-opacity:1;fill:#000000;fill-opacity:1;fill-rule:nonzero;stroke:none;stroke-width:10;stroke-linecap:square;stroke-linejoin:miter;stroke-miterlimit:4;stroke-dasharray:none;stroke-dashoffset:0;stroke-opacity:1;color-rendering:auto;image-rendering:auto;shape-rendering:auto;text-rendering:auto;enable-background:accumulate" />
        <path
           inkscape:connector-curvature="0"
           style="opacity:1;fill:#000000;fill-opacity:1;stroke:none;stroke-width:10;stroke-linecap:square;stroke-linejoin:miter;stroke-miterlimit:4;stroke-dasharray:none;stroke-opacity:1"
           d="m -4076.2234,2899.7279 -7.5766,7.5766 12.9851,12.9851 c -2.177,3.5193 -3.439,7.656 -3.439,12.0713 0,4.4155 1.2629,8.5517 3.4401,12.0713 l -12.9862,12.9862 7.5766,7.5766 12.9851,-12.985 c 3.5193,2.1771 7.656,3.4389 12.0713,3.4389 4.4155,0 8.5517,-1.2627 12.0713,-3.4401 l 12.9862,12.9862 7.5766,-7.5766 -12.9862,-12.9862 c 2.1774,-3.5196 3.4401,-7.6558 3.4401,-12.0713 0,-4.4153 -1.2618,-8.552 -3.4389,-12.0713 l 12.985,-12.9851 -7.5766,-7.5766 -12.9851,12.9851 c -3.5197,-2.1775 -7.6565,-3.439 -12.0724,-3.439 -4.4155,0 -8.552,1.2618 -12.0713,3.439 l -12.9851,-12.9851 z m 38.1635,13.6675 c 0.082,0.057 0.162,0.1154 0.243,0.1732 -0.081,-0.058 -0.1613,-0.1164 -0.243,-0.1732 z m -26.2282,0.01 c -0.068,0.048 -0.1357,0.096 -0.2035,0.1442 0.068,-0.048 0.1353,-0.097 0.2035,-0.1442 z m 27.2804,0.7662 c 0.074,0.058 0.1484,0.1166 0.222,0.1756 -0.074,-0.059 -0.1477,-0.1175 -0.222,-0.1756 z m -28.3396,0.017 c -0.061,0.048 -0.1228,0.096 -0.1837,0.1442 0.061,-0.049 0.1225,-0.096 0.1837,-0.1442 z m 29.3917,0.8557 c 0.048,0.043 0.098,0.084 0.1465,0.1268 -0.048,-0.043 -0.098,-0.084 -0.1465,-0.1268 z m -30.4601,0.032 c -0.032,0.027 -0.063,0.055 -0.094,0.082 0.031,-0.028 0.063,-0.055 0.094,-0.082 z m -1.9531,1.9415 c -0.028,0.031 -0.055,0.063 -0.083,0.094 0.027,-0.032 0.055,-0.063 0.083,-0.094 z m 34.4048,0 c 0.028,0.032 0.056,0.065 0.085,0.098 -0.029,-0.032 -0.056,-0.066 -0.085,-0.098 z m 0.8103,0.9591 c 0.061,0.076 0.1193,0.1527 0.179,0.2291 -0.06,-0.076 -0.1184,-0.1535 -0.179,-0.2291 z m -36.0406,0.02 c -0.049,0.061 -0.096,0.1224 -0.1441,0.1837 0.048,-0.061 0.096,-0.1229 0.1441,-0.1837 z m 36.8358,1.0359 c 0.049,0.069 0.099,0.1373 0.1477,0.2069 -0.048,-0.07 -0.098,-0.1379 -0.1477,-0.2069 z m -37.6194,0.01 c -0.048,0.068 -0.097,0.1352 -0.1442,0.2035 0.048,-0.068 0.096,-0.1357 0.1442,-0.2035 z m 18.8109,0.9522 c 6.897,0 12.3735,5.4754 12.3735,12.3724 0,6.8971 -5.4765,12.3735 -12.3735,12.3735 -6.8971,0 -12.3724,-5.4764 -12.3724,-12.3735 0,-6.897 5.4754,-12.3724 12.3724,-12.3724 z m -18.9399,25.5156 c 0.035,0.051 0.071,0.1 0.1069,0.1499 -0.036,-0.05 -0.072,-0.099 -0.1069,-0.1499 z m 37.8809,0 c -0.034,0.049 -0.07,0.098 -0.1046,0.1476 0.035,-0.049 0.07,-0.098 0.1046,-0.1476 z m -37.1101,1.0405 c 0.047,0.06 0.094,0.1205 0.1418,0.1802 -0.048,-0.06 -0.095,-0.12 -0.1418,-0.1802 z m 36.3184,0.026 c -0.034,0.044 -0.069,0.089 -0.1035,0.1325 0.035,-0.044 0.069,-0.088 0.1035,-0.1325 z m -35.4337,1.0394 c 0.027,0.031 0.055,0.063 0.083,0.094 -0.028,-0.031 -0.055,-0.063 -0.083,-0.094 z m 1.9532,1.9636 c 0.02,0.017 0.04,0.034 0.059,0.052 -0.02,-0.017 -0.039,-0.035 -0.059,-0.052 z m 0.9545,0.8057 c 0.069,0.055 0.1395,0.1093 0.2092,0.1639 -0.07,-0.055 -0.14,-0.1085 -0.2092,-0.1639 z m 28.7325,0.016 c -0.053,0.042 -0.1061,0.084 -0.1593,0.1256 0.053,-0.042 0.1065,-0.083 0.1593,-0.1256 z m -27.6804,0.7778 c 0.068,0.048 0.1352,0.097 0.2035,0.1441 -0.068,-0.048 -0.1357,-0.096 -0.2035,-0.1441 z m 26.6154,0.024 c -0.049,0.035 -0.098,0.07 -0.1476,0.1046 0.049,-0.034 0.098,-0.07 0.1476,-0.1046 z"
           id="path4482" />
      </g>
    </g>
    <a
       xlink:href="Imperial Navy.svg"
       transform="translate(0,44.000002)"
       id="a4208">
      <g
         style="fill:#ffffff"
         transform="translate(-565.46942,-205.70991)"
         id="g4961">
        <circle
           style="opacity:1;fill:#ffffff;fill-opacity:1;stroke:#000000;stroke-width:1;stroke-linecap:square;stroke-linejoin:miter;stroke-miterlimit:4;stroke-dasharray:none;stroke-opacity:1"
           id="circle4963"
           cx="753.15332"
           cy="856.60156"
           r="11.727594"
           d="m 764.88091,856.60156 a 11.727594,11.727594 0 0 1 -11.72759,11.7276 11.727594,11.727594 0 0 1 -11.72759,-11.7276 11.727594,11.727594 0 0 1 11.72759,-11.72759 11.727594,11.727594 0 0 1 11.72759,11.72759 z" />
        <path
           inkscape:connector-curvature="0"
           style="opacity:1;fill:#ffffff;fill-opacity:1;stroke:#000000;stroke-width:1;stroke-linecap:square;stroke-linejoin:miter;stroke-miterlimit:4;stroke-dasharray:none;stroke-opacity:1"
           d="m 765.15234,557.51172 a 11.727594,11.727594 0 0 0 -6,1.66601 11.727594,11.727594 0 0 1 5.72852,10.0625 11.727594,11.727594 0 0 1 -5.72656,10.06055 11.727594,11.727594 0 0 0 5.99804,1.66602 11.727594,11.727594 0 0 0 11.72852,-11.72657 11.727594,11.727594 0 0 0 -11.72852,-11.72851 z"
           transform="translate(-1.2941176e-5,287.36219)"
           id="path4965" />
        <path
           inkscape:connector-curvature="0"
           style="opacity:1;fill:#ffffff;fill-opacity:1;stroke:#000000;stroke-width:1;stroke-linecap:square;stroke-linejoin:miter;stroke-miterlimit:4;stroke-dasharray:none;stroke-opacity:1"
           d="m 741.15234,557.51172 a 11.727594,11.727594 0 0 0 -11.72656,11.72851 11.727594,11.727594 0 0 0 11.72656,11.72657 11.727594,11.727594 0 0 0 6.00196,-1.66602 11.727594,11.727594 0 0 1 -5.72852,-10.06055 11.727594,11.727594 0 0 1 5.72656,-10.0625 11.727594,11.727594 0 0 0 -6,-1.66601 z"
           transform="translate(-1.2941176e-5,287.36219)"
           id="path4967" />
        <g
           style="fill:#ffffff"
           id="g4969"
           transform="translate(1.0404503,24.809953)">
          <path
             inkscape:connector-curvature="0"
             id="path4971"
             d="m 752.11287,827.79961 0,7.984"
             style="fill:#ffffff;fill-rule:evenodd;stroke:#000000;stroke-width:1px;stroke-linecap:butt;stroke-linejoin:miter;stroke-opacity:1" />
          <path
             style="fill:#ffffff;fill-rule:evenodd;stroke:#000000;stroke-width:1px;stroke-linecap:butt;stroke-linejoin:miter;stroke-opacity:1"
             d="m 756.10487,831.79161 -7.984,0"
             id="path4973"
             inkscape:connector-curvature="0" />
        </g>
      </g>
    </a>
    <path
       style="fill:none;fill-rule:evenodd;stroke:#000000;stroke-width:1px;stroke-linecap:butt;stroke-linejoin:miter;stroke-opacity:1"
       d="m 187.68389,655.65229 0,21"
       id="path4975"
       inkscape:connector-curvature="0" />
    <text
       sodipodi:linespacing="125%"
       id="text4377-5"
       y="404.79947"
       x="494.50992"
       style="font-style:normal;font-weight:normal;font-size:40px;line-height:125%;font-family:sans-serif;letter-spacing:0px;word-spacing:0px;fill:#000000;fill-opacity:1;stroke:none;stroke-width:1px;stroke-linecap:butt;stroke-linejoin:miter;stroke-opacity:1"
       xml:space="preserve"><tspan
         style="font-style:normal;font-variant:normal;font-weight:normal;font-stretch:normal;font-size:13.75px;font-family:'Roboto Condensed';-inkscape-font-specification:'Roboto Condensed, ';text-align:center;text-anchor:middle"
         y="404.79947"
         x="494.50992"
         id="tspan4379-3"
         sodipodi:role="line">Imperial Fleet</tspan></text>
  </g>
</svg>
