<?xml version="1.0" encoding="UTF-8" standalone="no"?>
<!-- Created with Inkscape (http://www.inkscape.org/) -->

<svg
   xmlns:dc="http://purl.org/dc/elements/1.1/"
   xmlns:cc="http://creativecommons.org/ns#"
   xmlns:rdf="http://www.w3.org/1999/02/22-rdf-syntax-ns#"
   xmlns:svg="http://www.w3.org/2000/svg"
   xmlns="http://www.w3.org/2000/svg"
   xmlns:xlink="http://www.w3.org/1999/xlink"
   xmlns:sodipodi="http://sodipodi.sourceforge.net/DTD/sodipodi-0.dtd"
   xmlns:inkscape="http://www.inkscape.org/namespaces/inkscape"
   width="11in"
   height="8.5in"
   id="svg2"
   version="1.1"
   inkscape:version="0.91pre2_64bit r13532"
   viewBox="0 0 990 765.00002"
   sodipodi:docname="Rogue Traders.svg">
  <defs
     id="defs4">
    <pattern
       y="0"
       x="0"
       height="6"
       width="6"
       patternUnits="userSpaceOnUse"
       id="EMFhbasepattern" />
    <pattern
       y="0"
       x="0"
       height="6"
       width="6"
       patternUnits="userSpaceOnUse"
       id="EMFhbasepattern-4" />
    <pattern
       y="0"
       x="0"
       height="6"
       width="6"
       patternUnits="userSpaceOnUse"
       id="EMFhbasepattern-1" />
  </defs>
  <sodipodi:namedview
     id="base"
     pagecolor="#ffffff"
     bordercolor="#666666"
     borderopacity="1.0"
     inkscape:pageopacity="0.0"
     inkscape:pageshadow="2"
     inkscape:zoom="1.1084967"
     inkscape:cx="333.53187"
     inkscape:cy="454.66982"
     inkscape:document-units="px"
     inkscape:current-layer="layer1"
     showgrid="false"
     units="in"
     inkscape:window-width="1920"
     inkscape:window-height="1017"
     inkscape:window-x="1912"
     inkscape:window-y="-8"
     inkscape:window-maximized="1"
     inkscape:snap-global="false"
     inkscape:object-nodes="true"
     showguides="true" />
  <metadata
     id="metadata7">
    <rdf:RDF>
      <cc:Work
         rdf:about="">
        <dc:format>image/svg+xml</dc:format>
        <dc:type
           rdf:resource="http://purl.org/dc/dcmitype/StillImage" />
        <dc:title />
      </cc:Work>
    </rdf:RDF>
  </metadata>
  <g
     inkscape:label="Layer 1"
     inkscape:groupmode="layer"
     id="layer1"
     transform="translate(0,-287.36219)">
    <path
       style="fill:none;fill-rule:evenodd;stroke:#000000;stroke-width:1px;stroke-linecap:butt;stroke-linejoin:miter;stroke-opacity:1"
       d="m 495.00006,376.6629 0,-21"
       id="path4433-9"
       inkscape:connector-curvature="0" />
    <a
       xlink:href="Adeptus Terra.svg"
       id="a4200">
      <g
         id="g4195">
        <circle
           style="opacity:1;fill:#ffffff;fill-opacity:1;stroke:#000000;stroke-width:1;stroke-linecap:square;stroke-linejoin:miter;stroke-miterlimit:4;stroke-dasharray:none;stroke-opacity:1"
           id="path4327-6"
           cx="-495"
           cy="-337.42352"
           r="11.727594"
           transform="scale(-1,-1)" />
        <path
           id="path4176"
           style="fill:none;fill-rule:evenodd;stroke:#000000;stroke-width:1px;stroke-linecap:butt;stroke-linejoin:miter;stroke-opacity:1"
           d="M 489.35446,337.76043 495,332.11489 l 5.64554,5.64554"
           inkscape:connector-curvature="0"
           sodipodi:nodetypes="ccc" />
        <path
           sodipodi:nodetypes="cc"
           inkscape:connector-curvature="0"
           id="path4183"
           d="m 495,343.43927 0,-11.32438"
           style="fill:none;fill-rule:evenodd;stroke:#000000;stroke-width:1;stroke-linecap:butt;stroke-linejoin:miter;stroke-miterlimit:4;stroke-dasharray:none;stroke-opacity:1" />
      </g>
    </a>
    <g
       id="g4655"
       transform="matrix(0.72821983,0,0,0.72821983,307.25641,378.58345)">
      <path
         sodipodi:nodetypes="cssccccccccccccccsssscccccccccccccccscsscccccccccccccccsssssccccccccccccccscsccccsccccccccccscsscccccccccccccsssccccccccccccccccccccccccccc"
         inkscape:connector-curvature="0"
         id="path4580"
         d="m 351.97253,546.18312 c 0.45457,0.67314 1.3077,1.3903 2.61489,2.34924 2.96476,2.17497 3.22055,2.5955 3.2998,5.43198 0.12554,4.49392 3.2363,7.78781 7.56129,5.05729 l 3.04747,-1.92606 c 1.90772,-1.20523 2.09546,-7.39112 8.01592,-11.7747 l 3.92135,-2.38009 c 1.81605,-1.08591 0.99456,-0.67651 2.0911,-1.37689 l 4.1781,7.23669 7.51111,4.33649 c 0.0343,-0.61803 0.21292,-1.2194 0.52145,-1.75597 1.09435,-1.89685 3.51949,-2.54693 5.41591,-1.45179 1.89502,1.09474 2.54432,3.51811 1.45048,5.41368 -0.31052,0.53582 -0.74301,0.99091 -1.26162,1.3294 l 7.51251,4.33851 8.05653,-10e-4 c -0.0185,0.42404 -0.0444,-1.04495 -0.063,0.58141 -0.0957,8.38257 -1.03856,10.63157 -3.46746,13.62289 -1.32553,1.63249 -2.71551,4.4567 -3.08881,6.27606 -0.51886,2.52913 -0.34319,3.93498 0.74504,5.96973 1.54826,2.89485 1.27473,2.86442 6.54928,0.71741 2.78447,-1.13342 3.50731,-1.11037 5.91991,0.19419 4.04766,2.18855 8.38074,1.17754 8.1879,-4.15903 l -0.10236,-2.82099 c -0.0281,-3.40681 -6.04955,-6.68178 -6.15075,-12.56015 l -0.24711,-5.11708 c -0.0994,-2.87561 -0.17493,-1.52963 -0.24206,-2.70221 l 8.32436,-9.8e-4 7.5067,-4.33398 c -0.51751,-0.34001 -0.94819,-0.79647 -1.25749,-1.33289 -1.0937,-1.89553 -0.44439,-4.31876 1.45052,-5.41347 1.8957,-1.09546 4.3205,-0.44658 5.41572,1.44924 0.30895,0.53711 0.48719,1.13934 0.52111,1.75803 l 7.51116,-4.33657 4.02805,-6.97877 c 0.3471,0.22176 -0.91588,-0.48029 0.49368,0.35523 7.21166,4.27416 8.68791,6.21607 10.06405,9.81523 0.75101,1.96419 2.50057,4.58153 3.88957,5.81447 1.93086,1.7139 3.2368,2.26485 5.54305,2.33972 3.28114,0.10661 3.11898,0.32697 3.8969,-5.31442 0.41066,-2.97814 0.79184,-3.5911 3.12792,-5.02818 3.91917,-2.4111 5.20993,-6.66998 0.49195,-9.17124 l -2.49559,-1.32324 c -2.96444,-1.67907 -8.81127,1.90084 -13.95265,-0.9507 l -4.55249,-2.34574 c -2.55232,-1.35822 -1.44201,-0.63015 -2.48454,-1.15463 l 4.16077,-7.20735 4e-5,-8.67307 c -0.55297,0.27943 -1.16383,0.42511 -1.78339,0.42568 -2.18852,-4.9e-4 -3.96258,-1.77447 -3.96315,-3.963 -1.9e-4,-2.18989 1.77536,-3.96509 3.96523,-3.96441 0.6196,0.001 1.23017,0.14841 1.78276,0.42864 l -0.001,-8.67529 -4.04155,-7.00016 c 0.3457,-0.17823 -0.85463,0.54585 0.5923,-0.2676 7.30733,-4.1085 9.72746,-4.41901 13.53248,-3.8112 2.07655,0.3317 5.21614,0.12482 6.97837,-0.46157 2.44974,-0.81523 3.58003,-1.67016 4.79802,-3.62999 1.73289,-2.78826 1.84423,-2.53748 -2.65239,-6.03188 -2.37381,-1.84472 -2.71539,-2.48069 -2.79197,-5.22233 -0.12851,-4.59966 -3.17081,-7.84754 -7.69596,-5.01225 l -2.39196,1.49997 c -2.93634,1.72775 -2.76298,8.58042 -7.8032,11.60722 l -4.30537,2.77135 c -2.47204,1.54347 -1.31429,0.96416 -2.2787,1.59824 l -4.15104,-7.18982 -7.50964,-4.33454 c -0.0343,0.61801 -0.21293,1.21939 -0.52145,1.75598 -1.09517,1.8968 -3.5211,2.54595 -5.4172,1.44955 -1.89502,-1.09476 -2.54433,-3.51812 -1.45048,-5.41368 0.31094,-0.53656 0.74426,-0.99211 1.26385,-1.3307 l -7.51463,-4.33741 -8.11086,-3.3e-4 c 0.0293,-0.85542 0.06,0.82562 0.15661,-1.23351 0.41841,-8.91768 1.3297,-10.59859 3.90213,-13.76674 2.77403,-3.41639 3.73918,-8.2383 2.24418,-11.21236 -1.54172,-3.06692 -2.39016,-3.27321 -6.34772,-1.533 -3.36595,1.48006 -3.85727,1.49195 -6.35338,0.14237 -3.95465,-2.13819 -8.36262,-1.08965 -8.1604,4.02114 l 0.14227,3.60131 c 0.0894,2.25505 5.35391,5.51001 6.18995,12.82906 l 0.10093,4.5856 c 0.0478,2.17026 0.0898,1.26953 0.14976,2.56808 l -8.33365,3.5e-4 -7.50668,4.33401 c 0.5168,0.33947 0.94698,0.79519 1.25621,1.33066 1.09593,1.89656 0.4459,4.32252 -1.45149,5.41702 -1.89641,1.09421 -4.32077,0.44373 -5.41477,-1.45278 -0.30851,-0.53636 -0.48595,-1.138 -0.51982,-1.75583 l -7.51117,4.33657 -4.05738,7.02568 c -0.73153,-0.45664 0.75516,0.36545 -0.96939,-0.74111 -7.51374,-4.82119 -8.51462,-6.45219 -9.97209,-10.26404 -1.57169,-4.11056 -5.26402,-7.35808 -8.58715,-7.55041 -3.42686,-0.19827 -4.02924,0.43451 -4.50098,4.73195 -0.40117,3.65503 -0.63898,4.08874 -3.05582,5.57564 -3.82903,2.35572 -5.1231,6.69332 -0.59591,9.0736 l 3.18879,1.67873 c 1.99762,1.04953 7.44938,-1.88107 14.2059,1.05442 l 4.02227,2.20555 c 1.87913,1.04681 1.12121,0.54583 2.27614,1.14406 l -4.16593,7.21359 -6e-5,8.67303 c 0.55302,-0.27933 1.16384,-0.42509 1.7834,-0.42565 2.18852,5e-4 3.96256,1.77447 3.96314,3.96299 0.001,2.19026 -1.77367,3.96662 -3.96395,3.96668 -0.61957,-10e-4 -1.23016,-0.14842 -1.78271,-0.42865 l -5e-5,8.67305 4.04282,7.00237 c -0.77116,0.41024 0.71253,-0.4802 -1.08818,0.44973 -7.93212,4.09649 -9.843,4.14867 -13.87293,3.50494 -4.34567,-0.69418 -9.00542,0.88152 -10.83355,3.66326 -1.17818,1.7929 -1.52495,2.79029 -0.76719,3.91215 z m 39.00668,-1.65768 -0.12504,-12.21879 -10.52055,-6.21991 6.00233,-10.6449 -6.00357,-10.64571 10.52208,-6.21767 0.12427,-12.21991 12.2188,-0.12508 6.21997,-10.52053 10.64489,6.00234 10.64572,-6.00358 6.21767,10.5221 12.21992,0.12428 0.12625,12.22102 10.51926,6.21772 -6.00232,10.64487 6.00356,10.64572 -10.52211,6.21769 -0.12428,12.2199 -12.22104,0.12638 -6.21771,10.51927 -10.64487,-6.00234 -10.64573,6.00354 -6.21767,-10.52208 z"
         style="fill:#000000" />
      <path
         id="path5090-3-0"
         style="fill:#040404;fill-opacity:1;fill-rule:nonzero;stroke:none"
         d="m 401.70273,491.72193 c 4.04535,-3.29022 8.65705,-5.61406 14.04636,-6.02758 3.86107,-0.29667 7.7491,-0.37756 11.59218,0.24272 2.23618,0.36184 4.24538,1.41362 6.28153,2.3935 3.1374,1.50576 5.38931,4.07232 7.43671,6.64562 1.98222,2.49014 3.25426,5.54661 3.21605,8.94247 -0.0202,1.72826 -0.0921,3.41382 -0.74838,5.04545 -0.85177,2.11932 -1.08551,4.43864 -2.03841,6.52874 -0.21351,0.46072 -0.34611,0.97539 -0.7394,1.32374 -0.6113,0.53488 -0.54613,1.03606 0.045,1.49229 1.68557,1.2945 1.66759,2.97109 1.0001,4.72181 -0.3416,0.89897 -0.39554,1.70804 0.0495,2.55757 0.33712,0.65175 0.19103,1.30125 -0.0697,1.93503 -0.48319,1.1754 -0.9956,2.37552 -1.78219,3.3509 -1.07877,1.33046 -2.55532,2.08784 -4.33752,1.91929 -1.05179,-0.0988 -2.09235,-0.0876 -3.13065,0.0876 -1.64511,0.2697 -2.32833,1.24507 -2.10135,2.89692 0.21351,1.56196 0.88099,2.98006 1.31924,4.47012 0.1326,0.4607 0.23149,0.9192 0.0697,1.40014 -0.44948,1.33496 -1.75973,1.71477 -2.84073,0.81356 -0.20901,-0.17756 -0.40903,-0.5214 -0.7057,-0.39105 -0.36407,0.1618 -0.20451,0.56411 -0.15282,0.85401 0.11463,0.63603 -0.045,1.06078 -0.72817,1.19562 -0.0899,0.0179 -0.1753,0.072 -0.25845,0.11465 -1.65858,0.93042 -2.62723,0.8203 -4.08131,-0.4495 -0.64725,-0.56184 -0.83379,-0.50116 -1.03831,0.34612 -0.045,0.18428 -0.0606,0.37532 -0.10787,0.55735 -0.25397,1.03157 -1.11697,1.30126 -1.93503,0.60006 -0.49443,-0.41801 -0.82481,-0.96414 -1.15742,-1.50353 -0.10115,-0.15955 -0.17305,-0.37979 -0.40004,-0.35957 -0.28767,0.0224 -0.29217,0.29665 -0.34161,0.50342 -0.0383,0.15507 -0.0404,0.31463 -0.0563,0.4742 -0.15059,1.25181 -1.06303,1.65634 -2.06314,0.84953 -0.9102,-0.73491 -2.0946,-1.25407 -2.23168,-2.68567 -0.0404,-0.44948 -0.4405,-0.36408 -0.71693,-0.10119 -0.25171,0.24272 -0.45622,0.53263 -0.71468,0.75962 -0.90121,0.78884 -1.77995,0.55736 -2.01594,-0.60007 -0.15956,-0.77086 -0.48319,-1.16639 -1.27652,-1.27202 -0.5686,-0.0786 -0.80233,-0.48769 -0.78885,-1.10349 0.0337,-1.5305 0.77761,-2.8722 1.06752,-4.33078 0.18654,-0.96863 0.41353,-1.94626 -0.35733,-2.79803 -0.3596,-0.39104 -0.75963,-0.62928 -1.31026,-0.68096 -1.39789,-0.13035 -2.80028,-0.18879 -4.18467,-0.009 -1.49679,0.19329 -2.54409,-0.34611 -3.41833,-1.55296 -0.94616,-1.30126 -1.73276,-2.6497 -2.1418,-4.20942 -0.0966,-0.37082 -0.2045,-0.77984 0.0381,-1.11247 0.67872,-0.95289 0.5776,-1.97097 0.32139,-3.01378 -0.50791,-2.03616 -0.0809,-3.71273 1.85187,-4.81398 0.19103,-0.10567 0.34611,-0.27867 0.50342,-0.43599 0.10568,-0.10567 0.24722,-0.23372 0.15958,-0.40679 -0.0945,-0.18427 -0.26745,-0.13259 -0.41578,-0.0786 -1.01809,0.33935 -1.38665,-0.22248 -1.73276,-1.07651 -1.10799,-2.70364 -1.96874,-5.50618 -2.54857,-8.34242 -0.67423,-3.28572 -0.39106,-6.54896 1.45632,-9.55152 1.27429,-2.07436 2.53733,-4.14199 4.21391,-6.11523 m 36.26434,28.32645 c -0.32363,-0.25171 -0.60906,-0.59555 -0.97763,-0.74389 -2.15752,-0.86301 -4.34876,-1.65184 -6.73326,-1.3979 -1.54847,0.15957 -3.19584,0.23824 -4.34651,1.42038 -0.91695,0.94391 -1.7013,2.05189 -2.31709,3.24303 -0.44049,0.84952 -0.218,1.27877 0.75063,1.30799 1.8294,0.0584 3.26775,0.82255 4.51282,2.13506 0.87874,0.92367 1.95076,1.5597 3.25201,1.85859 3.72173,0.85403 6.60067,-1.27428 6.72428,-5.04319 0.007,-0.19103 0.004,-0.38206 0.018,-0.57086 0.0674,-0.88098 -0.15283,-1.6406 -0.88323,-2.20921 m -23.18885,-0.48993 c -0.71469,-0.74614 -0.86077,-0.79783 -1.64287,-1.06753 -3.04076,-1.04954 -6.00959,-0.6967 -8.91326,0.49444 -1.02256,0.42026 -1.99795,0.99111 -2.44071,2.13055 -0.58433,1.49228 0.1506,4.54653 1.30127,5.65226 0.58883,0.56633 1.33273,0.74389 2.04516,0.94841 1.98895,0.56859 4.02736,0.49443 5.56909,-0.93493 1.72377,-1.6024 3.41158,-3.01604 5.9152,-2.99806 0.54388,0.004 0.77537,-0.40228 0.45173,-0.84727 -0.80681,-1.0945 -1.28327,-2.41598 -2.28561,-3.37787 m 8.18283,14.40819 c 0.42927,-0.50566 0.4922,-1.11247 0.1281,-1.65634 -1.1192,-1.64511 -1.953,-3.39136 -2.31259,-5.36908 -0.11236,-0.6158 -0.55736,-0.64276 -0.97087,-0.19777 -0.16856,0.18204 -0.3169,0.41126 -0.3933,0.645 -0.51466,1.64736 -1.23159,3.18234 -2.30136,4.55327 -0.33712,0.43601 -0.39555,1.02483 0.009,1.50577 0.40229,0.47421 0.88773,0.82931 1.57769,0.65624 0.66074,-0.16629 0.88324,-0.66748 0.93043,-1.28103 0.0472,-0.63152 0.0404,-1.27202 0.11236,-1.90131 0.036,-0.31013 -0.0134,-0.80907 0.47196,-0.7911 0.3888,0.0158 0.40004,0.445 0.436,0.75515 0.0989,0.81805 0.18204,1.63837 0.2607,2.45867 0.045,0.48543 0.2652,0.863 0.72816,1.02032 0.49893,0.16631 0.93043,-0.036 1.32373,-0.39779"
         inkscape:connector-curvature="0" />
    </g>
    <g
       id="g4675"
       transform="matrix(1.0405951,0,0,1.0405951,70.571233,187.42164)">
      <path
         inkscape:connector-curvature="0"
         id="path4535"
         d="m 254.85254,493.43119 c -0.53365,0.1875 -1.28449,0.77708 -2.68271,1.83641 -1.68715,1.27824 -2.18147,1.39445 -4.05999,0.94693 -3.1516,-0.7508 -5.9151,0.72745 -4.81146,4.32163 l 0.58436,1.8992 c 0.63995,2.31182 5.33206,3.44347 6.47207,7.42285 l 1.10049,3.43229 c 0.59924,1.96246 0.41595,1.07026 0.67145,1.84169 l -5.64661,1.513 -4.04388,4.04622 c -0.37114,-0.39996 0.43414,0.37426 -0.5292,-0.68393 -4.23145,-4.64807 -4.61447,-5.9384 -4.91105,-8.79641 -0.31981,-3.08195 -2.24084,-5.96268 -4.46581,-6.69906 -2.29446,-0.75933 -2.81959,-0.44002 -3.92352,2.39668 -0.93891,2.41264 -1.17656,2.66347 -3.09117,3.23428 -3.0334,0.90431 -4.706,3.62087 -2.06087,6.06465 l 1.86361,1.72156 c 1.16721,1.07819 5.40891,0.0779 9.46901,3.30553 l 2.3322,2.23238 c 1.09213,1.04508 0.69718,0.60843 1.34238,1.19497 l -4.1397,4.14022 -1.47865,5.51713 c -0.57642,-0.1758 0.57232,0.10999 -0.81047,-0.33095 -5.98857,-1.90962 -6.96548,-2.83644 -8.65132,-5.16326 -1.81794,-2.50915 -4.92109,-4.04368 -7.21616,-3.56892 -2.36673,0.48963 -2.66201,1.02892 -2.1997,4.03754 0.39319,2.55886 0.31199,2.89429 -1.06071,4.34594 -2.17481,2.29988 -2.2648,5.48905 1.24785,6.28286 l 2.47485,0.55979 c 1.54993,0.35014 4.72296,-2.63647 9.85292,-1.87131 l 3.1368,0.76682 c 1.48468,0.36299 0.87971,0.17027 1.77376,0.36612 l -1.51815,5.66724 0.003,0.012 -0.002,0.005 1.47751,5.51803 c -0.59154,0.13686 0.55844,-0.19498 -0.85105,0.11272 -6.14107,1.34051 -7.45225,1.02742 -10.07564,-0.14473 -2.82897,-1.26401 -6.28355,-1.04329 -8.03375,0.51541 -1.80481,1.6074 -1.78898,2.22297 0.11569,4.59735 1.61998,2.01943 1.71678,2.35315 1.25378,4.29667 -0.7335,3.07915 0.78232,5.88301 4.22128,4.81415 l 2.42243,-0.75158 c 1.51706,-0.47203 2.77245,-4.64507 7.59771,-6.54741 l 3.10035,-0.90475 c 1.45671,-0.41435 0.82993,-0.28585 1.70275,-0.56303 l 1.51799,5.66521 4.0283,4.03016 c -0.39622,0.36706 0.37881,-0.4396 -0.67049,0.51565 -4.64806,4.23145 -5.93974,4.61481 -8.79774,4.91139 -3.08195,0.31984 -5.96436,2.23986 -6.70073,4.46484 -0.75931,2.29444 -0.43868,2.81923 2.39801,3.92316 2.41264,0.9389 2.66453,1.18054 3.23533,3.09516 0.90431,3.03338 3.61882,4.70371 6.06261,2.05857 l 1.72326,-1.86264 c 1.07779,-1.16731 0.0775,-5.41022 3.30517,-9.47034 l 2.23371,-2.33255 c 1.04421,-1.07675 0.59309,-0.68165 1.18381,-1.33084 l 4.15751,4.15641 5.49871,1.47362 c -0.17969,0.58816 0.11618,-0.59393 -0.31736,0.76554 -1.9096,5.98858 -2.83643,6.96547 -5.16326,8.65132 -2.50914,1.81793 -4.04332,4.92242 -3.56856,7.21749 0.30607,1.47918 0.6295,2.14841 1.56529,2.32969 0.56144,0.10881 1.34367,0.0421 2.47189,-0.13131 2.55887,-0.39321 2.89431,-0.31202 4.34593,1.06069 2.29985,2.17486 5.48939,2.26615 6.28322,-1.24651 l 0.55811,-2.47582 c 0.34974,-1.54982 -2.63645,-4.72294 -1.8713,-9.85292 l 0.76682,-3.1368 c 0.3635,-1.44477 0.15865,-0.83227 0.35589,-1.72688 l 5.68266,1.52256 5.50049,-1.47386 c 0.11373,0.5048 -0.19246,-0.55599 0.1046,0.80481 1.34052,6.14106 1.02806,7.44923 -0.14411,10.07264 -1.26402,2.82894 -1.04124,6.28583 0.51746,8.03604 1.00463,1.12799 1.61915,1.54477 2.52021,1.23386 l 2.6e-4,9.6e-4 c 0.54063,-0.18648 1.18375,-0.6359 2.07412,-1.35016 2.01945,-1.61996 2.35149,-1.71776 4.29498,-1.25476 3.07915,0.73354 5.88601,-0.78171 4.81717,-4.22066 l -0.75461,-2.42305 c -0.47202,-1.51705 -4.64505,-2.77244 -6.54741,-7.59771 l -0.9034,-3.10071 c -0.40288,-1.41665 -0.28522,-0.82799 -0.5496,-1.65795 l 5.67875,-1.52057 3.99141,-3.99229 c -0.011,-0.002 -0.0363,-0.0193 0.27727,0.30155 4.12569,4.221 4.77596,5.80992 5.05597,8.50843 0.15282,1.47267 0.86652,3.57004 1.58649,4.66166 1.00084,1.51749 1.789,2.13076 3.34381,2.60199 2.21205,0.67042 2.05969,0.79103 3.61678,-2.90387 0.82198,-1.95056 1.19396,-2.29858 3.04459,-2.85023 3.10475,-0.92561 4.75898,-3.58592 2.00611,-6.14679 l -1.45614,-1.35382 c -1.7101,-1.68213 -6.33899,-0.31512 -9.31598,-3.19134 l -2.66966,-2.42385 c -1.48114,-1.38217 -0.84878,-0.67554 -1.46598,-1.2259 l 4.14429,-4.14431 1.46613,-5.46821 c -0.006,0.005 -0.0414,0.002 0.38264,0.12097 5.68346,1.59266 7.04146,2.6437 8.63322,4.84067 0.86869,1.19896 2.53588,2.65863 3.70518,3.24404 1.62549,0.81375 2.61399,0.95051 4.19611,0.58121 2.25089,-0.52548 2.18049,-0.34594 1.68151,-4.32435 -0.26342,-2.10024 -0.11674,-2.58715 1.21012,-3.99021 2.22601,-2.35395 2.32819,-5.48473 -1.3363,-6.32605 l -1.9372,-0.44476 c -2.32205,-0.60171 -5.6468,2.89684 -9.66305,1.89446 l -3.5247,-0.76396 c -1.96545,-0.45448 -1.08392,-0.16394 -1.87585,-0.32737 l 1.51153,-5.64411 -0.003,-0.0106 0.002,-0.008 -1.45712,-5.43807 c -0.004,0.007 -0.0274,0.0205 0.41109,-0.0916 5.71834,-1.46245 7.42,-1.23022 9.897,-0.12347 1.3518,0.604 3.52686,1.03515 4.83222,0.95745 1.81459,-0.10801 2.73787,-0.48418 3.92334,-1.59508 1.68661,-1.58048 1.71639,-1.39019 -0.70495,-4.58611 -1.27824,-1.68714 -1.39449,-2.18148 -0.94692,-4.05998 0.75081,-3.15159 -0.72578,-5.9141 -4.31996,-4.81049 l -1.90221,0.58372 c -2.31182,0.63995 -3.44048,5.33268 -7.41983,6.47269 l -3.43434,1.09818 c -1.9414,0.59277 -1.03913,0.4062 -1.80751,0.66086 l -1.52083,-5.67582 -3.99531,-3.99203 c -0.002,0.0109 -0.0139,0.0314 0.31404,-0.28915 4.22098,-4.1257 5.81123,-4.77632 8.50975,-5.05634 1.47269,-0.15283 3.57173,-0.86552 4.66335,-1.58553 1.51747,-1.00084 2.12947,-1.78862 2.60066,-3.34344 0.67042,-2.21205 0.79066,-2.06102 -2.90423,-3.6181 -1.95058,-0.82199 -2.29725,-1.19434 -2.84889,-3.04495 -0.92561,-3.10476 -3.58729,-4.75859 -6.14812,-2.00576 l -1.35516,1.45649 c -1.68213,1.71012 -0.31211,6.33964 -3.18833,9.3166 l -2.42554,2.66869 c -1.38882,1.48829 -0.69135,0.86576 -1.23802,1.4792 l -4.14261,-4.14333 -5.46522,-1.46551 c 0.007,-0.002 0.007,0.0184 0.12972,-0.41915 1.59257,-5.68349 2.64333,-7.04277 4.84031,-8.63454 1.19897,-0.8687 2.65899,-2.53457 3.2444,-3.70385 0.81375,-1.6255 0.95053,-2.61399 0.58121,-4.19611 -0.52538,-2.25091 -0.34462,-2.18083 -4.32304,-1.68187 -2.10023,0.26342 -2.58711,0.11671 -3.99019,-1.21012 -2.35397,-2.22601 -5.48511,-2.3295 -6.32642,1.33497 l -0.4444,1.93852 c -0.60171,2.32207 2.89552,5.64718 1.89313,9.66343 l -0.76299,3.52301 c -0.45696,1.9761 -0.18333,1.16432 -0.33573,1.91368 l -5.65015,-1.51277 -5.47126,1.46602 c 0.008,0.005 0.0176,0.0125 -0.0995,-0.44599 -1.46254,-5.71832 -1.23323,-7.42063 -0.12648,-9.89762 0.60399,-1.35179 1.03583,-3.52422 0.95817,-4.82955 -0.10801,-1.81461 -0.48322,-2.73953 -1.59412,-3.92503 -0.88902,-0.94872 -1.21725,-1.37251 -1.90338,-1.13147 z m 2.73096,20.1862 c 10e-4,-0.002 0.0114,0.0192 0.0209,0.0471 l -0.012,0.003 c -0.007,-0.0335 -0.0109,-0.0482 -0.009,-0.0502 z m -8.97192,6.73197 8.33297,2.14212 6.14683,-6.02197 6.14663,6.02231 8.33263,-2.14162 2.31162,8.28708 8.28277,2.31075 -2.13771,8.31755 0.004,0.003 -0.004,0.0138 6.01249,6.13799 -6.01346,6.13714 0.004,0.0159 -0.003,0.002 2.13735,8.31669 -8.28477,2.30955 -2.31199,8.2888 -8.33297,-2.14211 -6.14683,6.02196 -6.14531,-6.02267 -8.3336,2.14333 -2.31197,-8.2884 -8.28445,-2.31173 2.13939,-8.31658 -0.004,-0.005 0.002,-0.0119 -6.01115,-6.13835 6.01249,-6.13546 -0.004,-0.0146 0.003,-0.004 -2.13734,-8.31669 8.28442,-2.31091 2.31199,-8.28879 z m 25.60878,-5.20755 c 0.003,-10e-4 -6e-4,0.0132 -0.004,0.0337 l -0.009,-0.002 c 0.005,-0.0139 0.0114,-0.0313 0.0128,-0.0319 z m 13.65012,9.6381 c -0.005,0.005 -0.0127,0.0138 -0.0187,0.0206 l -0.008,-0.008 c 0.0536,-0.0489 0.0498,-0.0412 0.0264,-0.0133 z m 6.97333,15.16996 c 0.0408,-0.008 0.0429,-0.004 0.003,0.0106 l -0.003,-0.0106 z m -1.51313,16.59397 c 0.03,0.0112 0.0362,0.0164 -0.003,0.009 l 0.003,-0.009 z m -9.62093,13.63983 c 0.0606,0.0662 0.0338,0.0456 -0.009,0.01 l 0.009,-0.01 z"
         style="fill:#000000" />
      <path
         inkscape:connector-curvature="0"
         id="rect4544"
         d="m 255.90352,525.64524 2.09197,13.073 a 1.7266288,1.7266288 0 0 1 0.0865,-0.002 1.7266288,1.7266288 0 0 1 1.72733,1.72733 1.7266288,1.7266288 0 0 1 -1.72733,1.72733 1.7266288,1.7266288 0 0 1 -1.72733,-1.72733 1.7266288,1.7266288 0 0 1 0.007,-0.14726 l -13.02393,-2.08494 0,14.36091 13.02393,-2.08496 a 1.7266288,1.7266288 0 0 1 -0.007,-0.14726 1.7266288,1.7266288 0 0 1 1.72733,-1.72498 1.7266288,1.7266288 0 0 1 1.72733,1.72498 1.7266288,1.7266288 0 0 1 -1.72733,1.72733 1.7266288,1.7266288 0 0 1 -0.0865,-0.005 l -2.09197,13.07534 14.3609,0 -2.09195,-13.07301 a 1.7266288,1.7266288 0 0 1 -0.0841,0.002 1.7266288,1.7266288 0 0 1 -1.72732,-1.72733 1.7266288,1.7266288 0 0 1 1.72732,-1.72498 1.7266288,1.7266288 0 0 1 1.72499,1.72498 1.7266288,1.7266288 0 0 1 -0.007,0.1496 l 13.02392,2.08262 0,-14.36091 -13.02392,2.08494 a 1.7266288,1.7266288 0 0 1 0.007,0.14726 1.7266288,1.7266288 0 0 1 -1.72499,1.72733 1.7266288,1.7266288 0 0 1 -1.72732,-1.72733 1.7266288,1.7266288 0 0 1 1.72732,-1.72733 1.7266288,1.7266288 0 0 1 0.0841,0.005 l 2.09195,-13.07534 -14.3609,0 z"
         style="opacity:1;fill:#000000;fill-opacity:1;stroke:none;stroke-width:14;stroke-linecap:square;stroke-linejoin:miter;stroke-miterlimit:4;stroke-dasharray:none;stroke-opacity:1" />
    </g>
    <text
       xml:space="preserve"
       style="font-style:normal;font-weight:normal;font-size:40px;line-height:125%;font-family:sans-serif;letter-spacing:0px;word-spacing:0px;fill:#000000;fill-opacity:1;stroke:none;stroke-width:1px;stroke-linecap:butt;stroke-linejoin:miter;stroke-opacity:1"
       x="344.396"
       y="845.09253"
       id="text4503-0-1-0-2-72-2"
       sodipodi:linespacing="125%"><tspan
         sodipodi:role="line"
         id="tspan4505-9-1-1-1-9-5"
         x="344.396"
         y="845.09253"
         style="font-style:normal;font-variant:normal;font-weight:normal;font-stretch:normal;font-size:13.75px;font-family:'Roboto Condensed';-inkscape-font-specification:'Roboto Condensed, ';text-align:center;text-anchor:middle">Warrant of Trade</tspan></text>
    <text
       xml:space="preserve"
       style="font-style:normal;font-weight:normal;font-size:40px;line-height:125%;font-family:sans-serif;letter-spacing:0px;word-spacing:0px;fill:#000000;fill-opacity:1;stroke:none;stroke-width:1px;stroke-linecap:butt;stroke-linejoin:miter;stroke-opacity:1"
       x="612.87012"
       y="842.44055"
       id="text4503-0-1-0-2-72-2-8"
       sodipodi:linespacing="125%"><tspan
         sodipodi:role="line"
         id="tspan4505-9-1-1-1-9-5-8"
         x="612.87012"
         y="842.44055"
         style="font-style:normal;font-variant:normal;font-weight:normal;font-stretch:normal;font-size:13.75px;font-family:'Roboto Condensed';-inkscape-font-specification:'Roboto Condensed, ';text-align:center;text-anchor:middle">Letters of Marque</tspan></text>
    <g
       id="g4191"
       transform="matrix(0.10399595,0,0,0.10399595,495.43193,485.49416)">
      <path
         id="path4228-7"
         transform="translate(-7.3563764e-6,0)"
         d="m -1605.8145,-601.92383 27.0352,230.375 -20.2461,-42.41211 -163.1777,-26.53515 -58.6074,154.58398 26.6074,38.74023 -185.9922,-138.60156 -7.1738,172.42188 -145.7344,92.42187 213.0293,91.77344 -46.8535,-3.671875 -104.5703,128.048828 104.5703,128.046877 46.8535,-3.67188 -213.0293,91.77344 145.7363,92.42188 7.1719,172.42187 185.9902,-138.59961 -26.6054,38.73828 58.6074,154.58399 163.1777,-26.53516 20.2461,-42.41211 -27.0352,230.37305 152.9063,-80 152.9082,80 -27.0352,-230.37305 20.2461,42.41211 163.1778,26.53516 58.6093,-154.58203 -26.6093,-38.74219 185.99411,138.60156 7.17188,-172.42187 145.73633,-92.42188 -213.0293,-91.77344 46.85547,3.67188 104.56836,-128.046877 -104.56836,-128.048828 -46.85547,3.671875 213.0293,-91.77344 -145.73633,-92.42187 -7.17188,-172.42188 -185.99411,138.60156 26.6093,-38.74218 -58.6093,-154.58203 -163.1758,26.53515 -20.25,42.41992 27.0371,-230.38281 -152.9082,80 -152.9063,-80 z m 152.9083,226.36914 109.6601,61.51367 125.7266,1.5586 64.2109,108.10351 108.1055,64.21094 1.5566,125.726564 61.51369,109.660156 -61.51369,109.66211 -1.5566,125.72656 -108.1055,64.21094 -64.2109,108.10352 -125.7266,1.55664 -109.6601,61.51562 -109.6622,-61.51562 -125.7246,-1.55664 -64.2129,-108.10352 -108.1035,-64.21094 -1.5566,-125.72656 -61.5156,-109.66211 61.5156,-109.660156 1.5566,-125.726564 108.1035,-64.21094 64.211,-108.10351 125.7265,-1.5586 109.6622,-61.51367 z"
         style="opacity:1;fill:#000000;fill-opacity:1;stroke:none;stroke-width:5;stroke-linecap:square;stroke-linejoin:miter;stroke-miterlimit:4;stroke-dasharray:none;stroke-opacity:1"
         inkscape:connector-curvature="0" />
      <path
         sodipodi:nodetypes="cccccccccccccccccccccccccccccccccccccccccccccccccccccccccccccccccccccsssss"
         inkscape:connector-curvature="0"
         id="path4936-4"
         d="m -1151.6931,36.407598 c -2.4346,-10.422964 -4.8299,-20.922217 -8.5477,-32.9339196 l -4.6258,-14.9334454 73.5942,-100.880053 -123.8247,15.369201 -20.1124,-19.743581 -0.6539,-0.6702 -22.1905,-22.57609 16.425,-121.43653 -100.9471,72.81505 c -1.5372,-0.32952 -3.2754,-0.73026 -5.112,-1.17323 l -8.3968,-2.59789 c -12.0004,-3.71388 -22.4856,-6.11415 -32.9005,-8.5477 l -63.9236,-144.6221 -63.9236,144.6221 c -10.4149,2.43355 -20.9001,4.83382 -32.9005,8.5477 l -8.4305,2.59789 c -1.8169,0.43765 -3.5548,0.84697 -5.0783,1.17323 l -100.9472,-72.81496 16.425,121.43644 -22.1905,22.57609 -0.6539,0.6702 -20.0955,19.743581 -123.8416,-15.369201 73.5943,100.880053 -4.6258,14.9334454 c -3.7177,12.0117026 -6.113,22.5109556 -8.5478,32.9339196 l -141.8902,63.957402 141.4885,61.04088 c 2.5066,11.10354 5.2387,22.90706 9.0505,35.12952 1.9315,6.19326 2.8652,10.45034 3.6538,14.11213 l -72.8736,99.55605 126.7578,-12.65401 1.8604,1.84361 c 10.6168,11.81784 24.4068,25.49259 35.934,35.58209 l -0.2342,5.12859 -8.0702,114.49782 95.24,-68.15569 c 1.6224,0.34754 3.4393,0.76115 5.3969,1.24025 2.4729,0.7869 4.9049,1.60006 7.4751,2.32972 l 0.6033,0.2008 0.4025,0.11757 0.086,0.0172 c 0.8264,0.24371 2.2092,0.66763 0.6539,0.2008 l 3.0169,0.90507 0.5535,0 c 10.5814,3.20286 19.7249,5.35239 28.7942,7.45832 l 63.3214,137.04635 63.3215,-137.04635 c 9.0693,-2.10593 18.2127,-4.25546 28.7942,-7.45832 l 0.5534,0 3.0337,-0.90507 c -1.5556,0.46683 -0.1725,0.0429 0.6539,-0.2008 l 0.086,-0.0172 0.4024,-0.11757 0.6033,-0.2008 c 2.5701,-0.7294 5.0021,-1.54273 7.4751,-2.32972 1.9567,-0.47883 3.7583,-0.89254 5.38,-1.24025 l 95.2486,68.15569 -8.0954,-114.79945 -0.2008,-4.81023 c 11.5289,-10.09001 25.3148,-23.77815 35.9341,-35.59882 l 1.8603,-1.84361 126.7578,12.65401 -72.8735,-99.55605 c 0.7886,-3.66179 1.7222,-7.91887 3.6537,-14.11213 3.8118,-12.22246 6.544,-24.02598 9.0505,-35.12952 l 141.4671,-61.04088 z m -54.3032,62.549562 c 4e-4,136.36603 -110.5463,246.9127 -246.9124,246.91227 -136.366,4.3e-4 -246.9126,-110.54624 -246.9122,-246.91227 -4e-4,-136.366044 110.5462,-246.91263 246.9122,-246.91229 136.3661,-4.3e-4 246.9128,110.546246 246.9124,246.91229 z"
         style="color:#000000;font-style:normal;font-variant:normal;font-weight:normal;font-stretch:normal;font-size:medium;line-height:normal;font-family:sans-serif;text-indent:0;text-align:start;text-decoration:none;text-decoration-line:none;text-decoration-style:solid;text-decoration-color:#000000;letter-spacing:normal;word-spacing:normal;text-transform:none;direction:ltr;block-progression:tb;writing-mode:lr-tb;baseline-shift:baseline;text-anchor:start;clip-rule:nonzero;display:inline;overflow:visible;visibility:visible;opacity:1;isolation:auto;mix-blend-mode:normal;color-interpolation:sRGB;color-interpolation-filters:linearRGB;solid-color:#000000;solid-opacity:1;fill:#000000;fill-opacity:1;fill-rule:nonzero;stroke:none;stroke-width:5;stroke-linecap:square;stroke-linejoin:miter;stroke-miterlimit:20;stroke-dasharray:none;stroke-dashoffset:0;stroke-opacity:1;color-rendering:auto;image-rendering:auto;shape-rendering:auto;text-rendering:auto;enable-background:accumulate" />
      <path
         sodipodi:nodetypes="cccccccscsscccccccccccccccccccccccccccscsscccscccccccccccccc"
         inkscape:connector-curvature="0"
         id="path4525"
         d="m -1594.2252,-79.391131 c -19.9971,18.294023 -38.5306,39.731829 -47.043,65.714764 -7.9918,21.3807146 -8.1888,44.444254 -6.6648,67.037361 -0.2775,17.453139 3.9423,39.315564 14.9116,46.835306 -9.0248,27.97301 -3.6039,53.52371 -2.4904,82.61896 2.5102,14.04195 17.3507,33.36538 32.3002,38.38625 18.1785,-0.79401 16.1578,-7.3441 34.1274,2.58664 4.9911,27.82005 8.5684,34.46373 11.1597,47.28436 2.6229,12.97708 -10.7777,36.69108 11.601,44.36946 8.3407,-0.37042 11.9032,-3.58931 11.9032,-11.28102 0,-6.29644 2.7042,-11.43657 5.9905,-11.43657 3.2863,0 6.2404,13.96663 5.9908,19.47594 0.5205,5.23884 23.451,6.13887 24.0141,-2.51556 1.0065,-7.08358 4.0513,-19.65452 9.2062,-20.33172 3.1009,-0.40629 5.4555,14.78841 5.6016,21.86183 0.1699,8.21944 19.5176,6.37198 19.3981,0.88162 0,0 1.1114,-23.39885 6.4314,-24.09187 6.0756,-0.79146 7.806,21.31703 7.806,21.31703 0.8869,8.94917 23.4329,5.77671 21.3949,-1.81536 0,0 2.2464,-19.78071 7.0537,-19.99448 4.9177,-0.21905 6.6907,22.40634 6.6907,22.40634 1.0689,9.30387 30.2697,4.64787 27.9042,-3.94183 0,0 -2.8167,-14.48029 1.3485,-15.79337 4.9376,-1.55719 8.8441,17.79028 8.8441,17.79028 0.7317,3.03397 6.9907,3.50559 14.3518,3.66737 17.8471,2.6155 7.4914,-29.25633 6.1939,-39.95037 1.5617,-25.77749 3.2721,-25.39812 9.262,-47.99083 20.9017,-4.3672 21.7652,-7.68637 41.9322,-4.62862 18.4591,-5.79085 33.0467,-19.68992 31.8912,-37.6358 0.7485,-21.81075 6.2432,-39.37482 1.731,-59.42883 0.2444,-7.48336 -5.14,-18.08144 -1.452,-24.319539 10.2373,-9.151541 13.2305,-28.125906 14.7009,-46.374386 -0.6175,-20.369476 -2.7707,-41.025222 -8.5549,-60.3984602 -7.2973,-24.8002738 -21.6346,-46.8241708 -41.2597,-63.7179178 -58.7232,-62.466997 -205.8657,-78.874587 -286.2761,-6.586978 z m 17.0381,167.450738 c 8.6241,0.410282 35.618,0.653313 45.3479,4.678744 24.5734,6.203394 31.2025,6.474609 47.4151,11.218229 -1.2414,18.09738 -6.0354,40.17823 -19.9426,54.20038 -17.4849,14.67637 -36.7746,9.8451 -60.191,13.56314 -23.4163,3.71806 -40.4514,-2.33089 -44.9423,-23.97399 -3.6813,-17.7413 -7.9917,-41.91613 11.6014,-55.521363 8.9532,-4.414065 12.0873,-4.57595 20.7115,-4.16514 z m 247.8696,1.685614 c 3.9596,0.235013 7.9683,0.855086 12.1367,1.944928 21.0855,5.10386 28.0013,27.057591 23.2043,47.569921 -7.2699,31.08707 -26.2187,35.44516 -54.6093,35.39045 -28.3896,-0.0663 -52.0553,-6.62708 -63.77,-24.11781 -7.3941,-15.94332 -12.7525,-28.97336 -16.2601,-44.06051 19.153,-8.480527 27.8882,-6.07429 47.8711,-12.359335 12.3899,-4.513653 39.5485,-5.073361 51.4273,-4.367644 z m -113.4838,57.986679 c 6.7475,-1.67421 11.6772,22.84366 17.1419,28.81176 3.0113,10.47154 6.3935,20.53493 5.4718,31.61259 0.8034,14.08045 -6.3854,27.99784 -22.4322,23.28794 -11.1414,-20.287 -11.6821,-22.00329 -22.5358,-1.01178 -15.9071,3.96357 -30.6647,-6.71112 -26.7372,-24.58464 4.6704,-18.23413 14.5145,-41.1199 24.506,-57.04132 11.6766,-9.35124 16.1894,-5.25186 24.5855,-1.07429 z"
         style="fill:#000000" />
    </g>
    <g
       id="g4463"
       transform="translate(750.1722,-108.96586)">
      <path
         sodipodi:nodetypes="cccccccccccccccccccccccccccccccccccccccccccccccccccccccccccccccccccccsssss"
         inkscape:connector-curvature="0"
         id="path4936-4-4"
         d="m -105.67506,598.24607 c -0.25319,-1.08394 -0.50229,-2.17582 -0.88893,-3.42499 l -0.48106,-1.55302 7.653495,-10.49112 -12.877265,1.59834 -2.09161,-2.05325 -0.068,-0.0697 -2.30773,-2.34782 1.70814,-12.62891 -10.49809,7.57247 c -0.15986,-0.0343 -0.34063,-0.076 -0.53163,-0.12201 l -0.87323,-0.27017 c -1.248,-0.38623 -2.33841,-0.63585 -3.42152,-0.88893 l -6.6478,-15.04011 -6.64779,15.04011 c -1.08311,0.25308 -2.17353,0.5027 -3.42152,0.88893 l -0.87674,0.27017 c -0.18895,0.0455 -0.36968,0.0881 -0.52812,0.12201 l -10.4981,-7.57246 1.70813,12.6289 -2.30772,2.34782 -0.068,0.0697 -2.08985,2.05325 -12.87903,-1.59834 7.65351,10.49112 -0.48106,1.55302 c -0.38663,1.24917 -0.63573,2.34105 -0.88894,3.42499 l -14.75601,6.65131 14.71423,6.34801 c 0.26068,1.15472 0.54481,2.38224 0.94122,3.65333 0.20087,0.64407 0.29797,1.08679 0.37998,1.4676 l -7.57856,10.35343 13.1823,-1.31597 0.19347,0.19173 c 1.10411,1.22901 2.53821,2.65112 3.73699,3.70039 l -0.0243,0.53335 -0.83927,11.90731 9.90457,-7.08791 c 0.16873,0.0361 0.35768,0.0792 0.56126,0.12898 0.25717,0.0818 0.51009,0.1664 0.77738,0.24228 l 0.0627,0.0209 0.0419,0.0122 0.009,0.002 c 0.0859,0.0253 0.22975,0.0694 0.068,0.0209 l 0.31374,0.0941 0.0576,0 c 1.10043,0.33309 2.05131,0.55663 2.99448,0.77564 l 6.58517,14.25226 6.58518,-14.25226 c 0.94317,-0.21901 1.89405,-0.44255 2.99448,-0.77564 l 0.0576,0 0.3155,-0.0941 c -0.16178,0.0485 -0.0179,0.004 0.068,-0.0209 l 0.009,-0.002 0.0419,-0.0122 0.0627,-0.0209 c 0.26728,-0.0758 0.5202,-0.16044 0.77738,-0.24228 0.20349,-0.0498 0.39085,-0.0928 0.5595,-0.12898 l 9.90547,7.08791 -0.84189,-11.93867 -0.0209,-0.50025 c 1.19896,-1.04932 2.63263,-2.47283 3.737,-3.70213 l 0.19346,-0.19173 13.182299,1.31597 -7.578549,-10.35343 c 0.082,-0.38081 0.1791,-0.82353 0.37997,-1.4676 0.39641,-1.27109 0.68055,-2.49861 0.94122,-3.65333 l 14.712001,-6.34801 z m -5.64732,6.5049 c 5e-5,14.18152 -11.49636,25.67792 -25.67789,25.67788 -14.18151,4e-5 -25.67791,-11.49636 -25.67786,-25.67788 -5e-5,-14.18151 11.49635,-25.67791 25.67786,-25.67787 14.18153,-5e-5 25.67794,11.49636 25.67789,25.67787 z"
         style="color:#000000;font-style:normal;font-variant:normal;font-weight:normal;font-stretch:normal;font-size:medium;line-height:normal;font-family:sans-serif;text-indent:0;text-align:start;text-decoration:none;text-decoration-line:none;text-decoration-style:solid;text-decoration-color:#000000;letter-spacing:normal;word-spacing:normal;text-transform:none;direction:ltr;block-progression:tb;writing-mode:lr-tb;baseline-shift:baseline;text-anchor:start;clip-rule:nonzero;display:inline;overflow:visible;visibility:visible;opacity:1;isolation:auto;mix-blend-mode:normal;color-interpolation:sRGB;color-interpolation-filters:linearRGB;solid-color:#000000;solid-opacity:1;fill:#000000;fill-opacity:1;fill-rule:nonzero;stroke:none;stroke-width:5;stroke-linecap:square;stroke-linejoin:miter;stroke-miterlimit:20;stroke-dasharray:none;stroke-dashoffset:0;stroke-opacity:1;color-rendering:auto;image-rendering:auto;shape-rendering:auto;text-rendering:auto;enable-background:accumulate" />
      <path
         sodipodi:nodetypes="cccccccscsscccccccccccccccccccccccccccscsscccscccccccccccccc"
         inkscape:connector-curvature="0"
         id="path4525-1"
         d="m -151.69661,586.20347 c -2.07962,1.90251 -4.00703,4.13195 -4.89228,6.83407 -0.83112,2.22351 -0.8516,4.62203 -0.69311,6.97162 -0.0289,1.81505 0.40998,4.08866 1.55074,4.87068 -0.93854,2.90908 -0.37479,5.56625 -0.25899,8.59204 0.26105,1.4603 1.8044,3.46986 3.35909,3.99201 1.89049,-0.0826 1.68035,-0.76376 3.54911,0.269 0.51906,2.89317 0.89108,3.58409 1.16057,4.91738 0.27277,1.34957 -1.12084,3.81573 1.20645,4.61425 0.8674,-0.0385 1.23789,-0.37328 1.23789,-1.17318 0,-0.65481 0.28122,-1.18936 0.62299,-1.18936 0.34176,0 0.64897,1.45247 0.62301,2.02542 0.0541,0.54482 2.43881,0.63842 2.49737,-0.26161 0.10468,-0.73666 0.42132,-2.04399 0.95741,-2.11442 0.32248,-0.0422 0.56735,1.53794 0.58255,2.27355 0.0177,0.85478 2.02975,0.66266 2.01732,0.0917 0,0 0.11558,-2.43338 0.66884,-2.50546 0.63184,-0.0823 0.81179,2.21689 0.81179,2.21689 0.0922,0.93068 2.43693,0.60075 2.22498,-0.18879 0,0 0.23362,-2.05711 0.73356,-2.07935 0.51142,-0.0228 0.69581,2.33017 0.69581,2.33017 0.11116,0.96757 3.14792,0.48336 2.90192,-0.40993 0,0 -0.29293,-1.50589 0.14024,-1.64245 0.51349,-0.16194 0.91975,1.85012 0.91975,1.85012 0.0761,0.31552 0.727,0.36457 1.49253,0.38139 1.85602,0.272 0.77907,-3.04254 0.64414,-4.15468 0.16241,-2.68075 0.34028,-2.6413 0.96321,-4.99085 2.17369,-0.45417 2.26349,-0.79935 4.36078,-0.48136 1.91967,-0.60222 3.43672,-2.04767 3.31655,-3.91397 0.0778,-2.26823 0.64927,-4.09482 0.18002,-6.18035 0.0254,-0.77824 -0.53454,-1.8804 -0.151,-2.52914 1.06464,-0.95172 1.37592,-2.92498 1.52883,-4.82275 -0.0642,-2.11834 -0.28814,-4.26645 -0.88967,-6.28119 -0.75889,-2.57913 -2.24991,-4.86953 -4.29084,-6.62641 -6.10698,-6.49631 -21.4092,-8.20263 -29.77156,-0.68502 z m 1.77189,17.4142 c 0.89688,0.0427 3.70413,0.0679 4.716,0.48657 2.55554,0.64513 3.24494,0.67334 4.93098,1.16665 -0.1291,1.88206 -0.62766,4.17838 -2.07395,5.63662 -1.81836,1.52629 -3.82441,1.02385 -6.25962,1.41051 -2.4352,0.38667 -4.20678,-0.2424 -4.67382,-2.49319 -0.38284,-1.84503 -0.8311,-4.35911 1.2065,-5.774 0.9311,-0.45904 1.25703,-0.47588 2.15391,-0.43316 z m 25.77744,0.1753 c 0.41178,0.0244 0.82867,0.0889 1.26217,0.20226 2.1928,0.53078 2.91202,2.81388 2.41315,4.94708 -0.75604,3.23293 -2.72664,3.68616 -5.67915,3.68047 -2.9524,-0.007 -5.41354,-0.68919 -6.63182,-2.50816 -0.76895,-1.65804 -1.32621,-3.01311 -1.69098,-4.58211 1.99183,-0.88194 2.90026,-0.6317 4.9784,-1.28532 1.2885,-0.4694 4.11288,-0.52761 5.34823,-0.45422 z m -11.80186,6.03038 c 0.70172,-0.17411 1.21438,2.37565 1.78269,2.99631 0.31316,1.08899 0.6649,2.13555 0.56905,3.28758 0.0836,1.46431 -0.66406,2.91166 -2.33286,2.42185 -1.15866,-2.10977 -1.21489,-2.28825 -2.34363,-0.10522 -1.65428,0.41219 -3.18901,-0.69793 -2.78056,-2.55671 0.4857,-1.89627 1.50945,-4.2763 2.54852,-5.93206 1.21432,-0.97249 1.68363,-0.54617 2.55679,-0.11172 z"
         style="fill:#000000" />
    </g>
    <text
       xml:space="preserve"
       style="font-style:normal;font-weight:normal;font-size:40px;line-height:125%;font-family:sans-serif;letter-spacing:0px;word-spacing:0px;fill:#000000;fill-opacity:1;stroke:none;stroke-width:1px;stroke-linecap:butt;stroke-linejoin:miter;stroke-opacity:1"
       x="494.75159"
       y="398.61508"
       id="text4503-0-1-0-2-72-2-87"
       sodipodi:linespacing="125%"><tspan
         sodipodi:role="line"
         id="tspan4505-9-1-1-1-9-5-0"
         x="494.75159"
         y="398.61508"
         style="font-style:normal;font-variant:normal;font-weight:normal;font-stretch:normal;font-size:13.75px;font-family:'Roboto Condensed';-inkscape-font-specification:'Roboto Condensed, ';text-align:center;text-anchor:middle">Rogue Traders</tspan></text>
    <text
       xml:space="preserve"
       style="font-style:normal;font-weight:normal;font-size:40px;line-height:125%;font-family:sans-serif;letter-spacing:0px;word-spacing:0px;fill:#000000;fill-opacity:1;stroke:none;stroke-width:1px;stroke-linecap:butt;stroke-linejoin:miter;stroke-opacity:1"
       x="613.14539"
       y="596.17993"
       id="text4503-0-1-0-2-72-2-87-9"
       sodipodi:linespacing="125%"><tspan
         sodipodi:role="line"
         id="tspan4505-9-1-1-1-9-5-0-1"
         x="613.14539"
         y="596.17993"
         style="font-style:normal;font-variant:normal;font-weight:normal;font-stretch:normal;font-size:13.75px;font-family:'Roboto Condensed';-inkscape-font-specification:'Roboto Condensed, ';text-align:center;text-anchor:middle">Trader Deputy</tspan></text>
    <g
       transform="translate(-89.908772,-211.70271)"
       id="g4577">
      <path
         id="path4579"
         style="fill:none;fill-rule:evenodd;stroke:#000000;stroke-width:1;stroke-linecap:butt;stroke-linejoin:miter;stroke-miterlimit:4;stroke-dasharray:none;stroke-opacity:1"
         d="m 568.70155,693.83477 13.26446,13.26446 -13.26446,13.26446"
         inkscape:connector-curvature="0"
         sodipodi:nodetypes="ccc" />
      <path
         sodipodi:nodetypes="ccc"
         inkscape:connector-curvature="0"
         d="m 587.49792,693.83477 13.26446,13.26446 -13.26446,13.26446"
         style="fill:none;fill-rule:evenodd;stroke:#000000;stroke-width:1;stroke-linecap:butt;stroke-linejoin:miter;stroke-miterlimit:4;stroke-dasharray:none;stroke-opacity:1"
         id="path4581" />
    </g>
    <g
       id="g4309"
       transform="translate(-89.908772,47.854298)">
      <path
         sodipodi:nodetypes="ccc"
         inkscape:connector-curvature="0"
         d="m 568.70155,693.83477 13.26446,13.26446 -13.26446,13.26446"
         style="fill:none;fill-rule:evenodd;stroke:#000000;stroke-width:1;stroke-linecap:butt;stroke-linejoin:miter;stroke-miterlimit:4;stroke-dasharray:none;stroke-opacity:1"
         id="path4311" />
      <path
         id="path4313"
         style="fill:none;fill-rule:evenodd;stroke:#000000;stroke-width:1;stroke-linecap:butt;stroke-linejoin:miter;stroke-miterlimit:4;stroke-dasharray:none;stroke-opacity:1"
         d="m 587.49792,693.83477 13.26446,13.26446 -13.26446,13.26446"
         inkscape:connector-curvature="0"
         sodipodi:nodetypes="ccc" />
    </g>
    <text
       xml:space="preserve"
       style="font-style:normal;font-weight:normal;font-size:40px;line-height:125%;font-family:sans-serif;letter-spacing:0px;word-spacing:0px;fill:#000000;fill-opacity:1;stroke:none;stroke-width:1px;stroke-linecap:butt;stroke-linejoin:miter;stroke-opacity:1"
       x="329.73041"
       y="598.75586"
       id="text4503-0-1-0-2-72-2-87-2"
       sodipodi:linespacing="125%"><tspan
         sodipodi:role="line"
         id="tspan4505-9-1-1-1-9-5-0-2"
         x="329.73041"
         y="598.75586"
         style="font-style:normal;font-variant:normal;font-weight:normal;font-stretch:normal;font-size:13.75px;font-family:'Roboto Condensed';-inkscape-font-specification:'Roboto Condensed, ';text-align:center;text-anchor:middle">Rogue Trader</tspan></text>
  </g>
</svg>
